<svg xmlns="http://www.w3.org/2000/svg" xmlns:xlink="http://www.w3.org/1999/xlink" width="1920" zoomAndPan="magnify" viewBox="0 0 1440 809.999993" height="1080" preserveAspectRatio="xMidYMid meet" version="1.0"><defs><clipPath id="bf9c227844"><path d="M 136.183594 724 L 1303.933594 724 L 1303.933594 808.5 L 136.183594 808.5 Z M 136.183594 724 " clip-rule="nonzero"/></clipPath></defs><g clip-path="url(#bf9c227844)"><path fill="#9fbd51" d="M 1303.585938 766.589844 C 1303.585938 789.730469 1042.3125 808.472656 720.007812 808.472656 C 397.730469 808.472656 136.457031 789.703125 136.457031 766.589844 C 136.457031 743.472656 397.730469 724.726562 720.007812 724.726562 C 1042.3125 724.726562 1303.585938 743.472656 1303.585938 766.589844 Z M 1303.585938 766.589844 " fill-opacity="1" fill-rule="nonzero"/></g><path fill="#9fbd51" d="M 329.871094 662.339844 C 336.308594 674.515625 342.359375 686.902344 347.480469 699.699219 C 352.910156 713.273438 357.386719 727.210938 361.730469 741.148438 C 362.066406 742.234375 360.386719 742.851562 360.050781 741.765625 C 355.78125 728.0625 351.386719 714.359375 346.058594 700.992188 C 340.9375 688.117188 334.886719 675.628906 328.394531 663.375 C 327.851562 662.339844 329.328125 661.304688 329.871094 662.339844 Z M 329.871094 662.339844 " fill-opacity="1" fill-rule="nonzero"/><path fill="#9fbd51" d="M 318.800781 644.988281 C 326.664062 647.859375 332.300781 656.703125 330.644531 664.976562 L 330.152344 665.261719 C 322.085938 662.726562 317.070312 653.546875 318.308594 645.273438 Z M 318.800781 644.988281 " fill-opacity="1" fill-rule="nonzero"/><path fill="#9fbd51" d="M 318.828125 673.949219 C 326.871094 671.621094 336.621094 675.421875 340.1875 683.074219 L 339.980469 683.59375 C 331.964844 686.332031 322.5 681.886719 318.59375 674.464844 Z M 318.828125 673.949219 " fill-opacity="1" fill-rule="nonzero"/><path fill="#9fbd51" d="M 353.6875 679.171875 C 356.789062 686.953125 353.996094 697.039062 346.730469 701.328125 L 346.1875 701.175781 C 342.671875 693.496094 346.136719 683.617188 353.117188 678.988281 Z M 353.6875 679.171875 " fill-opacity="1" fill-rule="nonzero"/><path fill="#9fbd51" d="M 333.957031 709.265625 C 342.128906 707.429688 351.644531 711.773438 354.746094 719.636719 L 354.488281 720.125 C 346.34375 722.375 337.136719 717.410156 333.695312 709.757812 Z M 333.957031 709.265625 " fill-opacity="1" fill-rule="nonzero"/><path fill="#9fbd51" d="M 357.335938 616.214844 C 378.589844 658.28125 391.753906 704.433594 400.960938 750.480469 C 401.21875 751.851562 399.152344 752.496094 398.867188 751.125 C 389.6875 705.257812 376.652344 659.238281 355.472656 617.351562 C 354.878906 616.109375 356.714844 614.972656 357.335938 616.214844 Z M 357.335938 616.214844 " fill-opacity="1" fill-rule="nonzero"/><path fill="#9fbd51" d="M 344.972656 594.570312 C 354.308594 598.527344 360.59375 609.542969 358.109375 619.472656 C 358.03125 619.730469 357.746094 619.882812 357.515625 619.78125 C 347.894531 616.238281 342.359375 604.835938 344.351562 594.882812 C 344.402344 594.625 344.714844 594.46875 344.972656 594.570312 Z M 344.972656 594.570312 " fill-opacity="1" fill-rule="nonzero"/><path fill="#9fbd51" d="M 340.707031 625.210938 C 350.585938 622.882812 362.171875 628.054688 366.023438 637.542969 C 366.125 637.777344 365.972656 638.085938 365.714844 638.136719 C 355.859375 640.957031 344.664062 635.035156 340.394531 625.832031 C 340.292969 625.597656 340.445312 625.289062 340.707031 625.210938 Z M 340.707031 625.210938 " fill-opacity="1" fill-rule="nonzero"/><path fill="#9fbd51" d="M 375.851562 611.585938 C 379.136719 621.175781 375.179688 633.226562 366.101562 638.007812 C 365.867188 638.136719 365.582031 638.035156 365.480469 637.777344 C 361.679688 628.261719 366.464844 616.523438 375.203125 611.351562 C 375.460938 611.195312 375.773438 611.328125 375.851562 611.585938 Z M 375.851562 611.585938 " fill-opacity="1" fill-rule="nonzero"/><path fill="#9fbd51" d="M 351.773438 651.375 C 361.652344 649.050781 373.238281 654.21875 377.09375 663.710938 C 377.195312 663.96875 377.039062 664.253906 376.808594 664.328125 C 366.953125 667.148438 355.757812 661.226562 351.488281 652.023438 C 351.335938 651.738281 351.488281 651.453125 351.773438 651.375 Z M 351.773438 651.375 " fill-opacity="1" fill-rule="nonzero"/><path fill="#9fbd51" d="M 386.945312 637.75 C 390.230469 647.34375 386.273438 659.390625 377.195312 664.148438 C 376.960938 664.277344 376.652344 664.175781 376.546875 663.917969 C 372.746094 654.402344 377.53125 642.664062 386.273438 637.492188 C 386.53125 637.363281 386.839844 637.492188 386.945312 637.75 Z M 386.945312 637.75 " fill-opacity="1" fill-rule="nonzero"/><path fill="#9fbd51" d="M 361.160156 677.152344 C 371.144531 675.421875 382.417969 681.265625 385.703125 690.960938 C 385.78125 691.21875 385.625 691.503906 385.367188 691.554688 C 375.386719 693.804688 364.523438 687.210938 360.800781 677.773438 C 360.695312 677.492188 360.878906 677.207031 361.160156 677.152344 Z M 361.160156 677.152344 " fill-opacity="1" fill-rule="nonzero"/><path fill="#9fbd51" d="M 397.054688 665.621094 C 399.773438 675.394531 395.089844 687.1875 385.753906 691.402344 C 385.523438 691.503906 385.210938 691.402344 385.132812 691.117188 C 381.902344 681.394531 387.382812 669.964844 396.410156 665.3125 C 396.667969 665.210938 396.980469 665.363281 397.054688 665.621094 Z M 397.054688 665.621094 " fill-opacity="1" fill-rule="nonzero"/><path fill="#9fbd51" d="M 370.1875 707.84375 C 380.246094 706.5 391.261719 712.808594 394.132812 722.609375 C 394.210938 722.894531 394.054688 723.152344 393.773438 723.203125 C 383.6875 725.039062 373.109375 718.03125 369.800781 708.441406 C 369.722656 708.179688 369.902344 707.871094 370.1875 707.84375 Z M 370.1875 707.84375 " fill-opacity="1" fill-rule="nonzero"/><path fill="#9fbd51" d="M 406.523438 697.761719 C 408.847656 707.636719 403.675781 719.246094 394.210938 723.074219 C 393.953125 723.175781 393.667969 723.023438 393.589844 722.789062 C 390.746094 712.964844 396.695312 701.742188 405.902344 697.449219 C 406.132812 697.320312 406.445312 697.476562 406.523438 697.761719 Z M 406.523438 697.761719 " fill-opacity="1" fill-rule="nonzero"/><path fill="#cad5f8" d="M 448.726562 325.210938 L 448.726562 748.28125 C 448.726562 748.28125 515.035156 762.140625 581.316406 748.28125 L 581.316406 325.210938 C 581.316406 284.925781 597.324219 246.273438 625.820312 217.804688 L 753.316406 90.597656 C 753.316406 90.597656 691.949219 20.117188 655.199219 0.179688 L 564.917969 91.21875 C 537.351562 118.753906 492.691406 118.753906 465.121094 91.21875 L 373.832031 0.0507812 C 325.394531 19.082031 275.742188 90.46875 275.742188 90.46875 L 404.21875 217.804688 C 432.71875 246.300781 448.726562 284.925781 448.726562 325.210938 Z M 448.726562 325.210938 " fill-opacity="1" fill-rule="nonzero"/><path fill="#7a97ed" d="M 609.945312 38.707031 L 708.035156 129.121094 C 710.699219 131.578125 710.851562 135.742188 708.421875 138.402344 C 705.964844 141.066406 701.800781 141.25 699.136719 138.765625 L 601.046875 48.351562 C 598.382812 45.894531 598.203125 41.730469 600.683594 39.066406 C 603.117188 36.429688 607.28125 36.25 609.945312 38.707031 Z M 609.945312 38.707031 " fill-opacity="1" fill-rule="nonzero"/><path fill="#7a97ed" d="M 410.816406 38.707031 L 312.699219 129.121094 C 310.035156 131.578125 309.878906 135.742188 312.335938 138.402344 C 314.792969 141.066406 318.957031 141.25 321.621094 138.765625 L 419.710938 48.351562 C 422.375 45.894531 422.554688 41.730469 420.097656 39.066406 C 417.640625 36.429688 413.476562 36.25 410.816406 38.707031 Z M 410.816406 38.707031 " fill-opacity="1" fill-rule="nonzero"/><path fill="#7a97ed" d="M 448.3125 695.125 L 581.753906 695.125 C 585.375 695.125 588.324219 698.070312 588.324219 701.691406 C 588.324219 705.3125 585.375 708.257812 581.753906 708.257812 L 448.3125 708.257812 C 444.691406 708.257812 441.746094 705.335938 441.746094 701.691406 C 441.742188 698.046875 444.667969 695.125 448.3125 695.125 Z M 448.3125 695.125 " fill-opacity="1" fill-rule="nonzero"/><path fill="#7a97ed" d="M 447.796875 609.101562 L 581.238281 609.101562 C 584.859375 609.101562 587.804688 612.050781 587.804688 615.671875 C 587.804688 619.289062 584.859375 622.238281 581.238281 622.238281 L 447.796875 622.238281 C 444.175781 622.238281 441.226562 619.289062 441.226562 615.671875 C 441.253906 612.023438 444.175781 609.101562 447.796875 609.101562 Z M 447.796875 609.101562 " fill-opacity="1" fill-rule="nonzero"/><path fill="#7a97ed" d="M 448.3125 523.082031 L 581.753906 523.082031 C 585.375 523.082031 588.324219 526.027344 588.324219 529.648438 C 588.324219 533.269531 585.375 536.214844 581.753906 536.214844 L 448.3125 536.214844 C 444.691406 536.214844 441.746094 533.269531 441.746094 529.648438 C 441.742188 526.027344 444.667969 523.082031 448.3125 523.082031 Z M 448.3125 523.082031 " fill-opacity="1" fill-rule="nonzero"/><path fill="#7a97ed" d="M 554.316406 100.628906 L 652.433594 191.046875 C 655.097656 193.503906 655.25 197.664062 652.820312 200.328125 C 650.363281 202.992188 646.199219 203.171875 643.535156 200.714844 L 545.445312 110.300781 C 542.78125 107.84375 542.601562 103.707031 545.058594 101.015625 C 547.515625 98.328125 551.652344 98.171875 554.316406 100.628906 Z M 554.316406 100.628906 " fill-opacity="1" fill-rule="nonzero"/><path fill="#7a97ed" d="M 472.363281 99.414062 L 374.273438 189.832031 C 371.609375 192.285156 371.429688 196.425781 373.910156 199.113281 C 376.367188 201.777344 380.503906 201.957031 383.167969 199.5 L 481.285156 109.085938 C 483.949219 106.628906 484.105469 102.464844 481.648438 99.800781 C 479.191406 97.113281 475.027344 96.957031 472.363281 99.414062 Z M 472.363281 99.414062 " fill-opacity="1" fill-rule="nonzero"/><path fill="#7a97ed" d="M 422.503906 237.507812 L 607.511719 237.507812 C 611.132812 237.507812 614.082031 240.457031 614.082031 244.074219 C 614.082031 247.695312 611.160156 250.644531 607.511719 250.644531 L 422.503906 250.644531 C 418.882812 250.644531 415.960938 247.695312 415.960938 244.074219 C 415.960938 240.457031 418.882812 237.507812 422.503906 237.507812 Z M 422.503906 237.507812 " fill-opacity="1" fill-rule="nonzero"/><path fill="#ff6f75" d="M 698.722656 283.144531 C 706.613281 251.109375 746.902344 155.105469 736.480469 147.167969 C 704.050781 122.476562 624.632812 250.023438 609.089844 254.519531 C 569.988281 265.847656 569.394531 299.535156 515.007812 301.449219 C 460.648438 299.535156 460.054688 265.847656 420.925781 254.519531 C 405.410156 250.023438 325.992188 122.476562 293.535156 147.167969 C 283.113281 155.105469 323.378906 251.109375 331.292969 283.144531 C 335.945312 302.042969 336.4375 319.082031 329.480469 337.464844 C 324.492188 350.675781 318.207031 363.371094 318.386719 377.773438 C 318.75 406.242188 337.988281 419.039062 356.066406 437.914062 C 368.039062 450.375 367.78125 465.835938 371.917969 481.351562 C 374.945312 492.726562 380.296875 503.429688 387.851562 512.585938 C 404.066406 532.234375 431.398438 541.929688 456.277344 532.675781 C 468.328125 528.199219 476.835938 519.566406 483.171875 508.886719 C 488.605469 499.734375 493.128906 487.402344 500.5 478.6875 C 508.207031 469.585938 521.785156 469.585938 529.492188 478.6875 C 536.859375 487.402344 541.386719 499.734375 546.816406 508.886719 C 553.179688 519.566406 561.6875 528.199219 573.710938 532.675781 C 598.589844 541.929688 625.925781 532.234375 642.140625 512.585938 C 649.71875 503.429688 655.046875 492.726562 658.070312 481.351562 C 662.207031 465.835938 661.949219 450.375 673.921875 437.914062 C 692 419.039062 711.242188 406.242188 711.601562 377.773438 C 711.785156 363.371094 705.5 350.675781 700.507812 337.464844 C 693.578125 319.109375 694.070312 302.042969 698.722656 283.144531 Z M 698.722656 283.144531 " fill-opacity="1" fill-rule="nonzero"/><path fill="#eb3f47" d="M 447.355469 480.109375 C 446.605469 480.109375 446.011719 479.410156 445.832031 478.765625 C 445.699219 478.300781 445.726562 477.652344 446.503906 477.214844 C 450.796875 474.785156 453.640625 470.621094 454.519531 465.527344 C 455.503906 459.734375 453.71875 453.425781 449.863281 449.058594 C 445.625 444.222656 436.546875 439.101562 428.140625 439.101562 C 423.953125 439.101562 420.488281 440.371094 417.898438 442.851562 C 417.640625 443.085938 417.226562 443.238281 416.789062 443.238281 C 416.246094 443.238281 415.703125 443.03125 415.417969 442.722656 C 415.238281 442.515625 415.160156 442.257812 415.210938 441.945312 C 415.988281 435.484375 413.996094 429.046875 409.753906 424.261719 C 405.539062 419.503906 399.4375 416.789062 392.996094 416.789062 C 392.738281 416.789062 392.453125 416.789062 392.195312 416.789062 C 378.4375 417.253906 368.015625 429.175781 368.480469 443.914062 C 368.480469 444.351562 368.375 444.660156 368.167969 444.894531 C 367.910156 445.152344 367.496094 445.308594 367.03125 445.308594 C 366.875 445.308594 365.429688 445.257812 365.375 443.808594 C 364.859375 427.699219 376.9375 414.179688 392.296875 413.660156 C 392.582031 413.660156 392.839844 413.636719 393.125 413.636719 C 406.132812 413.636719 417.253906 423.691406 418.390625 436.542969 L 418.546875 438.40625 L 420.253906 437.65625 C 422.605469 436.621094 425.296875 436.105469 428.21875 436.105469 C 436.960938 436.105469 447.277344 440.964844 452.734375 447.636719 C 456.949219 452.804688 458.707031 459.8125 457.46875 466.457031 C 456.382812 472.300781 453.046875 477.085938 448.132812 479.878906 C 447.847656 480.058594 447.589844 480.109375 447.355469 480.109375 Z M 447.355469 480.109375 " fill-opacity="1" fill-rule="nonzero"/><path fill="#eb3f47" d="M 595.824219 422.117188 C 588.503906 422.117188 581.546875 418.882812 576.789062 413.246094 C 572.160156 407.765625 570.167969 400.605469 571.359375 393.648438 L 571.667969 391.867188 L 569.886719 392.097656 C 569.238281 392.175781 568.59375 392.226562 567.972656 392.226562 C 559.308594 392.226562 551.085938 384.703125 548.886719 374.75 C 546.378906 363.476562 548.628906 348.300781 559.539062 341.628906 C 559.800781 341.472656 560.058594 341.371094 560.316406 341.371094 C 561.015625 341.371094 561.558594 342.042969 561.738281 342.664062 C 561.867188 343.152344 561.867188 343.851562 561.066406 344.34375 C 552.09375 349.824219 550.203125 361.769531 551.394531 371.101562 C 552.53125 379.867188 559.050781 389.355469 567.660156 389.355469 C 569.496094 389.355469 571.359375 388.917969 573.195312 388.089844 C 573.402344 387.988281 573.660156 387.933594 573.945312 387.933594 C 574.589844 387.933594 575.265625 388.246094 575.574219 388.660156 C 575.703125 388.839844 575.832031 389.125 575.652344 389.667969 C 573.117188 396.492188 574.074219 404.09375 578.1875 410.015625 C 582.21875 415.808594 588.503906 419.117188 595.460938 419.117188 C 596.832031 419.117188 598.253906 418.988281 599.652344 418.703125 L 600.011719 418.675781 C 600.996094 418.675781 601.589844 419.53125 601.667969 420.359375 C 601.746094 421.082031 601.410156 421.519531 600.683594 421.652344 C 599.03125 421.960938 597.402344 422.117188 595.824219 422.117188 Z M 595.824219 422.117188 " fill-opacity="1" fill-rule="nonzero"/><path fill="#eb3f47" d="M 400.804688 321.226562 C 396.382812 321.226562 392.089844 319.859375 388.703125 317.375 C 387.796875 316.703125 387.980469 315.746094 388.109375 315.386719 C 388.316406 314.738281 388.832031 314.246094 389.296875 314.246094 C 389.53125 314.246094 389.765625 314.351562 390.023438 314.53125 C 393.125 316.832031 397.109375 318.152344 400.988281 318.152344 C 405.253906 318.152344 409.109375 316.574219 411.847656 313.730469 C 414.410156 311.066406 415.832031 307.316406 415.726562 303.441406 C 415.625 299.613281 414.074219 296.019531 411.460938 293.535156 C 411.152344 293.253906 411.019531 292.917969 411.046875 292.503906 C 411.074219 291.960938 411.433594 291.390625 411.902344 291.054688 C 422.660156 283.324219 421.988281 268.378906 416.554688 256.976562 C 416.296875 256.433594 416.324219 255.890625 416.632812 255.398438 C 416.96875 254.855469 417.589844 254.496094 418.160156 254.496094 C 418.445312 254.496094 418.832031 254.574219 419.140625 255.21875 C 424.238281 265.871094 426.410156 281.851562 415.78125 291.804688 L 414.925781 292.605469 L 415.625 293.5625 C 420.304688 300.027344 419.839844 309.414062 414.511719 315.4375 C 411.253906 319.132812 406.238281 321.226562 400.804688 321.226562 Z M 400.804688 321.226562 " fill-opacity="1" fill-rule="nonzero"/><path fill="#eb3f47" d="M 463.027344 364.769531 C 462.664062 364.769531 462.304688 364.640625 461.992188 364.382812 C 457.984375 361.046875 455.8125 356.132812 456.019531 350.910156 C 456.253906 345.714844 458.8125 341.007812 463.054688 338.058594 C 465.742188 336.199219 468.820312 335.214844 472 335.214844 C 476.449219 335.214844 480.847656 337.128906 484.050781 340.4375 L 485.65625 342.09375 L 486.300781 339.871094 C 489.457031 328.882812 496.363281 320.710938 505.285156 317.402344 C 507.277344 316.675781 509.371094 316.289062 511.570312 316.289062 C 519.816406 316.289062 528.351562 321.875 528.402344 331.234375 C 528.402344 331.671875 528.273438 332.011719 528.042969 332.242188 C 527.757812 332.527344 527.34375 332.683594 526.851562 332.683594 C 526.59375 332.683594 525.300781 332.605469 525.300781 331.234375 C 525.273438 326.425781 522.015625 322.082031 517 320.140625 C 515.472656 319.546875 513.820312 319.261719 512.113281 319.261719 C 509.34375 319.261719 506.394531 320.066406 503.578125 321.5625 C 495.121094 326.089844 489.148438 335.785156 487.984375 346.851562 C 487.855469 347.960938 487.078125 348.480469 486.355469 348.480469 C 485.683594 348.480469 485.164062 348.066406 484.878906 347.316406 C 482.941406 341.964844 477.820312 338.34375 472.15625 338.34375 C 469.3125 338.34375 466.597656 339.25 464.292969 340.980469 C 461.011719 343.4375 459.148438 346.980469 459.046875 350.988281 C 458.941406 355.253906 460.90625 359.519531 464.347656 362.339844 C 464.785156 362.726562 464.941406 363.089844 464.761719 363.554688 C 464.554688 364.226562 463.75 364.769531 463.027344 364.769531 Z M 463.027344 364.769531 " fill-opacity="1" fill-rule="nonzero"/><path fill="#eb3f47" d="M 516.015625 458.648438 C 505.464844 458.648438 496.90625 450.296875 496.492188 439.644531 L 496.441406 438.042969 L 494.863281 438.40625 C 494.0625 438.585938 493.234375 438.691406 492.378906 438.691406 C 486.976562 438.691406 481.257812 434.8125 478.75 429.433594 C 475.390625 422.21875 476.707031 413.429688 482.0625 407.585938 C 482.347656 407.273438 482.65625 407.09375 482.992188 407.09375 C 483.5625 407.09375 484.207031 407.558594 484.464844 408.207031 C 484.648438 408.621094 484.75 409.238281 484.183594 409.859375 C 480.042969 414.386719 478.804688 421.109375 481.050781 426.976562 C 482.941406 431.914062 487.621094 435.484375 492.148438 435.484375 C 494.164062 435.484375 496.050781 434.835938 497.757812 433.542969 L 498.378906 433.3125 C 498.742188 433.3125 499.15625 433.542969 499.464844 433.957031 C 499.828125 434.421875 500.007812 435.019531 499.90625 435.457031 C 498.820312 440.371094 499.984375 445.386719 503.085938 449.265625 C 506.265625 453.246094 511.078125 455.519531 516.222656 455.519531 L 516.921875 455.519531 C 518.1875 455.519531 518.316406 456.582031 518.316406 456.917969 C 518.316406 457.539062 518.035156 458.570312 516.816406 458.625 C 516.558594 458.648438 516.273438 458.648438 516.015625 458.648438 Z M 516.015625 458.648438 " fill-opacity="1" fill-rule="nonzero"/><path fill="#eb3f47" d="M 615.917969 330.691406 C 615.453125 330.691406 615.117188 330.457031 614.855469 329.96875 C 610.355469 321.253906 608.417969 308.738281 616.460938 299.792969 C 619.769531 296.097656 624.503906 293.976562 629.441406 293.976562 C 631.898438 293.976562 634.332031 294.519531 636.449219 295.554688 L 638.261719 296.433594 L 638.363281 294.441406 C 638.777344 287.433594 641.390625 270.5 657.0625 264.398438 C 659.46875 263.46875 662.027344 262.976562 664.640625 262.976562 C 673.457031 262.976562 681.320312 268.429688 683.699219 276.214844 L 684.164062 277.714844 L 685.5625 277.015625 C 687.5 276.058594 689.621094 275.566406 691.820312 275.566406 C 692.855469 275.566406 693.941406 275.671875 695.027344 275.902344 C 695.75 276.058594 696.113281 276.5 696.035156 277.25 C 695.957031 278.050781 695.363281 278.902344 694.40625 278.902344 L 694.015625 278.851562 C 693.242188 278.695312 692.441406 278.617188 691.691406 278.617188 C 688.871094 278.617188 686.234375 279.703125 684.0625 281.722656 C 683.75 282.003906 683.363281 282.160156 682.976562 282.160156 C 682.226562 282.160156 681.421875 281.617188 681.371094 280.582031 C 680.90625 270.707031 672.476562 266.207031 664.847656 266.207031 C 661.277344 266.207031 657.839844 267.113281 654.890625 268.820312 C 642.191406 276.214844 641.003906 291.519531 641.441406 300 C 641.46875 300.335938 641.339844 300.648438 641.105469 300.90625 C 640.796875 301.242188 640.277344 301.449219 639.8125 301.449219 C 639.527344 301.449219 639.140625 301.371094 638.832031 301.0625 C 636.347656 298.449219 633.039062 297.027344 629.496094 297.027344 C 624.8125 297.027344 620.339844 299.40625 617.46875 303.386719 C 612.738281 310.007812 612.738281 319.054688 617.46875 328.234375 C 617.753906 328.777344 617.726562 329.269531 617.441406 329.761719 C 617.132812 330.328125 616.511719 330.691406 615.917969 330.691406 Z M 615.917969 330.691406 " fill-opacity="1" fill-rule="nonzero"/><path fill="#eb3f47" d="M 561.117188 520.523438 C 560.78125 520.523438 560.472656 520.367188 560.160156 520.054688 C 555.582031 515.171875 555.660156 507.050781 560.34375 502.683594 C 562.4375 500.714844 565.28125 499.628906 568.386719 499.628906 C 569.753906 499.628906 571.125 499.835938 572.445312 500.277344 L 574.386719 500.898438 L 574.203125 498.882812 C 572.9375 485.203125 577.515625 473.75 586.796875 467.464844 C 590.316406 465.089844 594.710938 463.769531 599.132812 463.769531 C 607.28125 463.769531 614.160156 467.984375 617.082031 474.757812 C 617.390625 475.480469 617.183594 476.050781 616.953125 476.414062 C 616.589844 476.957031 615.96875 477.316406 615.453125 477.316406 C 615.195312 477.316406 614.832031 477.238281 614.546875 476.59375 C 611.910156 470.492188 606.167969 466.847656 599.210938 466.847656 C 595.023438 466.847656 590.859375 468.214844 587.496094 470.722656 C 578.496094 477.394531 574.980469 489.882812 578.109375 504.128906 C 578.265625 504.777344 577.953125 505.292969 577.746094 505.527344 C 577.410156 505.941406 576.945312 506.199219 576.503906 506.199219 C 576.167969 506.199219 575.859375 506.042969 575.574219 505.734375 C 573.765625 503.792969 571.101562 502.628906 568.410156 502.628906 C 566.238281 502.628906 564.195312 503.378906 562.644531 504.777344 C 560.964844 506.277344 559.980469 508.449219 559.875 510.878906 C 559.746094 513.464844 560.652344 515.996094 562.332031 517.78125 C 562.800781 518.273438 562.902344 518.816406 562.644531 519.410156 C 562.332031 520.054688 561.6875 520.523438 561.117188 520.523438 Z M 561.117188 520.523438 " fill-opacity="1" fill-rule="nonzero"/><path fill="#eb3f47" d="M 343.835938 243.429688 C 336.929688 243.429688 330.230469 238.464844 326.921875 233.886719 C 321.207031 225.925781 321.308594 214.960938 327.179688 206.585938 L 327.929688 205.5 L 326.871094 204.722656 C 322.5 201.570312 320.015625 196.476562 320.25 191.070312 C 320.535156 184.273438 324.773438 177.832031 331.914062 173.464844 C 332.171875 173.308594 332.429688 173.207031 332.6875 173.207031 C 333.359375 173.207031 333.929688 173.851562 334.085938 174.472656 C 334.214844 174.964844 334.214844 175.660156 333.414062 176.179688 C 330.128906 178.195312 324.4375 182.667969 323.457031 189.832031 C 322.679688 195.621094 325.757812 201.492188 330.621094 203.484375 C 331.265625 203.742188 331.730469 204.257812 331.859375 204.828125 C 331.964844 205.292969 331.808594 205.757812 331.421875 206.171875 C 325.085938 212.996094 323.921875 223.132812 328.601562 230.835938 C 331.472656 235.542969 337.835938 240.429688 343.550781 240.429688 C 346.136719 240.429688 348.386719 239.472656 350.195312 237.613281 C 350.507812 237.300781 350.816406 237.144531 351.152344 237.144531 C 351.75 237.144531 352.421875 237.636719 352.703125 238.285156 C 352.9375 238.851562 352.835938 239.371094 352.367188 239.835938 C 350.066406 242.214844 347.171875 243.429688 343.835938 243.429688 Z M 343.835938 243.429688 " fill-opacity="1" fill-rule="nonzero"/><path fill="#eb3f47" d="M 701.957031 229.207031 L 701.234375 229.027344 C 697.585938 227.347656 694.949219 223.519531 694.328125 219.074219 C 693.914062 216.175781 694.378906 213.050781 695.671875 209.765625 L 696.398438 207.929688 L 694.429688 207.929688 C 688.507812 207.929688 682.714844 204.722656 679.664062 199.757812 C 675.476562 192.933594 676.871094 183.160156 682.921875 177.03125 C 683.234375 176.722656 683.542969 176.566406 683.90625 176.566406 C 684.527344 176.566406 685.199219 177.058594 685.457031 177.703125 C 685.691406 178.273438 685.585938 178.789062 685.121094 179.253906 C 679.976562 184.453125 678.835938 192.441406 682.40625 198.234375 C 684.886719 202.265625 689.464844 204.773438 694.40625 204.773438 C 696.113281 204.773438 697.792969 204.464844 699.371094 203.871094 L 699.757812 203.792969 C 700.199219 203.792969 700.664062 204.128906 700.949219 204.644531 C 701.179688 205.058594 701.308594 205.679688 701.027344 206.171875 C 699.835938 208.085938 696.085938 214.78125 697.84375 220.652344 C 698.621094 223.261719 700.378906 225.226562 703.042969 226.46875 C 703.636719 226.753906 703.84375 227.140625 703.714844 227.707031 C 703.535156 228.433594 702.835938 229.207031 701.957031 229.207031 Z M 701.957031 229.207031 " fill-opacity="1" fill-rule="nonzero"/><path fill="#eb3f47" d="M 636.917969 401.070312 C 636.320312 401.070312 635.15625 400.734375 635.003906 399.492188 C 634.070312 391.839844 637.589844 382.296875 646.121094 378.964844 C 647.90625 378.265625 649.820312 377.902344 651.8125 377.902344 C 656.15625 377.902344 660.320312 379.609375 663.292969 382.558594 L 664.457031 383.722656 L 665.363281 382.375 C 669.914062 375.578125 677.597656 371.363281 685.40625 371.363281 C 685.84375 371.363281 686.285156 371.386719 686.699219 371.414062 C 696.5 372.007812 705.007812 378.601562 708.371094 388.167969 C 708.527344 388.609375 708.5 388.96875 708.292969 389.28125 C 708.035156 389.667969 707.4375 389.925781 706.871094 389.925781 C 706.429688 389.925781 705.65625 389.796875 705.320312 388.839844 C 702.394531 380.488281 694.355469 374.621094 685.792969 374.515625 C 677.15625 374.515625 669.449219 379.765625 665.90625 387.910156 C 665.648438 388.476562 664.925781 388.503906 664.71875 388.503906 C 664.097656 388.503906 663.527344 388.21875 663.320312 387.832031 C 661.226562 383.695312 656.753906 381.007812 651.890625 381.007812 C 650.003906 381.007812 648.167969 381.417969 646.484375 382.195312 C 639.605469 385.453125 637.332031 393.417969 638.132812 399.855469 C 638.183594 400.242188 638.105469 400.550781 637.949219 400.734375 C 637.742188 400.941406 637.355469 401.070312 636.917969 401.070312 Z M 636.917969 401.070312 " fill-opacity="1" fill-rule="nonzero"/><path fill="#eb3f47" d="M 375.875 387.574219 C 375.230469 387.574219 374.558594 387.082031 374.273438 386.4375 C 374.066406 385.894531 374.167969 385.402344 374.636719 384.960938 C 377.660156 382.039062 379.210938 378.109375 379.003906 373.871094 C 378.773438 369.292969 376.574219 365.027344 372.929688 362.15625 C 369.695312 359.597656 365.714844 358.253906 361.421875 358.253906 C 356.453125 358.253906 351.28125 360.113281 347.25 363.371094 C 346.886719 363.65625 346.472656 363.839844 346.03125 363.839844 C 345.566406 363.839844 345.101562 363.632812 344.816406 363.296875 C 344.53125 362.933594 344.429688 362.441406 344.558594 361.898438 L 344.714844 361.175781 C 345.800781 356.03125 347.042969 350.1875 344.84375 345.015625 C 343.5 341.835938 340.136719 338.394531 335.972656 338.394531 C 335.300781 338.394531 334.628906 338.5 333.980469 338.679688 L 333.515625 338.757812 C 332.6875 338.757812 332.222656 338.007812 332.121094 337.308594 C 332.066406 336.921875 332.066406 335.992188 333.179688 335.679688 C 334.085938 335.421875 335.015625 335.292969 335.945312 335.292969 C 340.1875 335.292969 344.378906 337.90625 346.859375 342.121094 C 349.007812 345.738281 349.574219 350.132812 348.722656 356.390625 L 348.386719 358.847656 L 350.609375 357.789062 C 354.128906 356.132812 357.902344 355.253906 361.550781 355.253906 C 366.644531 355.253906 371.429688 356.960938 375.359375 360.167969 C 379.445312 363.527344 381.902344 368.519531 382.109375 373.894531 C 382.316406 379.015625 380.453125 383.746094 376.886719 387.183594 C 376.546875 387.417969 376.210938 387.574219 375.875 387.574219 Z M 375.875 387.574219 " fill-opacity="1" fill-rule="nonzero"/><path fill="#7a97ed" d="M 348.71875 421.441406 L 376.082031 390.550781 L 388.359375 401.417969 L 360.992188 432.308594 Z M 348.71875 421.441406 " fill-opacity="1" fill-rule="nonzero"/><path fill="#4863b3" d="M 368.222656 399.441406 C 368.222656 399.441406 372.386719 405.515625 380.503906 410.300781 L 384.382812 405.90625 L 372.101562 395.046875 Z M 368.222656 399.441406 " fill-opacity="1" fill-rule="nonzero"/><path fill="#222f54" d="M 370.417969 309.074219 C 394.859375 281.460938 437.21875 278.878906 464.839844 303.335938 C 492.457031 327.769531 495.042969 370.121094 470.578125 397.734375 C 446.140625 425.347656 403.78125 427.933594 376.160156 403.5 C 348.566406 379.039062 345.980469 336.691406 370.417969 309.074219 Z M 382.265625 319.546875 C 363.59375 340.644531 365.558594 372.964844 386.660156 391.632812 C 407.761719 410.300781 440.089844 408.335938 458.761719 387.238281 C 477.433594 366.140625 475.46875 333.820312 454.363281 315.152344 C 433.261719 296.511719 400.9375 298.476562 382.265625 319.546875 Z M 382.265625 319.546875 " fill-opacity="1" fill-rule="nonzero"/><path fill="#4863b3" d="M 379.546875 317.632812 C 399.410156 295.191406 433.855469 293.097656 456.304688 312.953125 C 478.75 332.835938 480.847656 367.25 460.984375 389.695312 C 441.125 412.136719 406.675781 414.230469 384.230469 394.375 C 361.78125 374.515625 359.660156 340.101562 379.546875 317.632812 Z M 383.660156 321.304688 C 365.789062 341.472656 367.703125 372.421875 387.851562 390.261719 C 408.023438 408.128906 438.976562 406.242188 456.820312 386.046875 C 474.664062 365.878906 472.804688 334.957031 452.605469 317.089844 C 432.460938 299.25 401.53125 301.136719 383.660156 321.304688 Z M 383.660156 321.304688 " fill-opacity="1" fill-rule="nonzero"/><path fill="#222f54" d="M 240.90625 550.746094 L 245.746094 555.011719 C 249.363281 558.246094 254.949219 557.910156 258.15625 554.261719 L 363.101562 435.714844 C 366.332031 432.070312 365.972656 426.511719 362.351562 423.304688 L 357.515625 419.039062 C 353.867188 415.808594 348.308594 416.144531 345.101562 419.789062 L 240.160156 538.3125 C 236.925781 541.957031 237.261719 547.515625 240.90625 550.746094 Z M 240.90625 550.746094 " fill-opacity="1" fill-rule="nonzero"/><path fill="#ff9b7d" d="M 249.261719 760.203125 L 259.398438 760.539062 L 262.761719 735.769531 L 249.234375 735.5625 Z M 249.261719 760.203125 " fill-opacity="1" fill-rule="nonzero"/><path fill="#0b1533" d="M 270.363281 764.417969 C 268.5 763.070312 266.484375 762.0625 264.441406 761.03125 C 262.914062 760.253906 261.078125 759.503906 259.65625 758.574219 C 256.269531 759.761719 249.261719 758.238281 249.261719 758.238281 C 248.949219 760.589844 247.425781 768.65625 250.449219 770.699219 C 253.527344 772.769531 260.175781 772.84375 264.234375 772.691406 C 267.492188 772.585938 274.011719 772.742188 273.804688 768.914062 C 273.699219 766.925781 271.863281 765.503906 270.363281 764.417969 Z M 270.363281 764.417969 " fill-opacity="1" fill-rule="nonzero"/><path fill="#ff9b7d" d="M 187.480469 755.523438 L 197.410156 757.617188 L 205.140625 733.882812 L 191.851562 731.242188 Z M 187.480469 755.523438 " fill-opacity="1" fill-rule="nonzero"/><path fill="#0b1533" d="M 207.496094 763.40625 C 205.917969 761.777344 204.082031 760.382812 202.296875 759.011719 C 200.925781 757.976562 199.273438 756.917969 198.03125 755.730469 C 194.488281 756.296875 187.839844 753.53125 187.839844 753.53125 C 187.117188 755.804688 184.167969 763.433594 186.78125 765.992188 C 189.417969 768.578125 195.960938 769.847656 199.996094 770.414062 C 203.203125 770.878906 209.589844 772.199219 210.082031 768.398438 C 210.316406 766.484375 208.761719 764.753906 207.496094 763.40625 Z M 207.496094 763.40625 " fill-opacity="1" fill-rule="nonzero"/><path fill="#ff9b7d" d="M 263.046875 396.003906 C 263.226562 399.390625 263.742188 412.703125 261.132812 419.53125 C 258.492188 426.40625 251.976562 425.375 251.976562 425.375 C 251.71875 426.847656 251.847656 430.414062 251.847656 430.414062 C 245.484375 432.019531 235.089844 430.15625 235.089844 430.15625 C 236.769531 425.582031 235.8125 415.1875 235.8125 415.1875 C 243.675781 400.0625 263.046875 396.003906 263.046875 396.003906 Z M 263.046875 396.003906 " fill-opacity="1" fill-rule="nonzero"/><path fill="#402013" d="M 219.46875 391.425781 C 219.597656 391.8125 220.167969 391.867188 220.324219 391.476562 C 220.53125 392.382812 220.839844 393.261719 221.125 394.140625 C 221.460938 395.199219 221.824219 396.261719 222.210938 397.292969 C 222.339844 397.632812 222.832031 397.761719 223.011719 397.398438 C 223.195312 397.089844 223.398438 396.75 223.632812 396.46875 C 223.476562 400.785156 223.789062 405.15625 224.976562 409.164062 C 225.804688 411.953125 227.382812 414.074219 229.53125 416.015625 C 232.191406 418.417969 235.476562 420.796875 235.582031 424.726562 C 235.582031 425.117188 236.046875 425.296875 236.332031 425.039062 L 236.953125 424.496094 C 236.898438 424.882812 236.820312 425.296875 236.746094 425.683594 C 236.667969 426.019531 236.953125 426.304688 237.289062 426.226562 C 239.796875 425.660156 241.65625 423.976562 243.234375 422.011719 C 245.046875 419.738281 246.648438 417.4375 248.898438 415.546875 C 251.019531 413.765625 253.425781 412.472656 255.621094 410.816406 C 256.992188 409.78125 257.820312 408.515625 258.414062 407.09375 C 258.804688 407.273438 259.269531 407.351562 259.734375 407.273438 C 260.949219 407.09375 261.753906 405.980469 262.0625 404.871094 C 262.527344 403.265625 262.191406 401.535156 262.296875 399.90625 C 262.398438 398.511719 262.683594 397.140625 263.097656 395.820312 C 265.839844 394.296875 267.804688 391.734375 268.269531 388.503906 C 268.8125 384.882812 267.597656 382.429688 264.804688 380.332031 C 262.992188 378.964844 262.347656 376.867188 260.925781 375.164062 C 259.8125 373.816406 258.363281 372.730469 256.785156 371.980469 C 253.710938 370.507812 250.242188 370.300781 247.011719 371.414062 L 246.753906 371.699219 C 242.175781 370.378906 237.339844 369.941406 233.097656 372.65625 C 232.789062 372.863281 232.839844 373.222656 233.097656 373.40625 C 228.46875 374.101562 223.839844 375.292969 220.839844 379.171875 C 220.582031 379.507812 220.789062 380.050781 221.28125 379.921875 C 221.769531 379.738281 222.289062 379.714844 222.78125 379.738281 C 219.445312 382.53125 218.046875 387.132812 219.46875 391.425781 Z M 219.46875 391.425781 " fill-opacity="1" fill-rule="nonzero"/><path fill="#ff9b7d" d="M 254.382812 409.316406 C 254.976562 411.671875 256.734375 413.246094 258.3125 412.859375 C 259.863281 412.445312 260.640625 410.222656 260.046875 407.871094 C 259.449219 405.515625 257.796875 404.351562 256.242188 404.765625 C 254.667969 405.15625 253.785156 406.964844 254.382812 409.316406 Z M 254.382812 409.316406 " fill-opacity="1" fill-rule="nonzero"/><path fill="#ff9b7d" d="M 194.539062 525.097656 C 190.273438 518.503906 194.539062 497.304688 195.753906 493.246094 L 208.738281 493.246094 L 208.738281 535.183594 C 204.523438 533.941406 196.917969 528.769531 194.539062 525.097656 Z M 194.539062 525.097656 " fill-opacity="1" fill-rule="nonzero"/><path fill="#7a97ed" d="M 186.339844 745.308594 C 187.246094 734.011719 194.382812 684.78125 197.488281 673.484375 C 203.539062 651.402344 202.21875 597.753906 203.539062 580.660156 L 288.414062 578.128906 C 291.3125 597.753906 289.292969 627.019531 287.121094 648.972656 C 284.691406 673.507812 277.269531 718.136719 263.355469 751.179688 L 247.21875 750.765625 C 245.949219 719.246094 246.15625 687.753906 242.898438 656.390625 C 242.898438 656.339844 239.019531 669.242188 233.746094 682.300781 C 226.789062 699.519531 205.582031 741.585938 201.960938 748.902344 Z M 186.339844 745.308594 " fill-opacity="1" fill-rule="nonzero"/><path fill="#ffdec9" d="M 288.570312 496.035156 C 288.957031 518.867188 293.070312 590.203125 293.121094 590.71875 C 293.121094 590.71875 273.207031 587.230469 252.546875 590.71875 C 221.488281 595.96875 201.210938 590.71875 201.210938 590.71875 C 200.382812 565.433594 200.773438 529.054688 202.738281 503.792969 C 200.511719 502.707031 192.367188 499.0625 192.367188 499.0625 C 195.703125 476.152344 197.667969 461.882812 206.746094 449.730469 C 213.238281 441.042969 227.28125 435.277344 232.167969 432.921875 C 232.167969 432.921875 233.691406 430.285156 234.546875 428.710938 L 253.734375 428.503906 C 254.070312 428.527344 255.519531 432.976562 255.519531 432.976562 C 268.476562 436.777344 281.25 441.871094 288.492188 452.394531 C 299.25 468.035156 306.800781 479.980469 306.800781 479.980469 C 299.328125 487.375 295.371094 491.074219 288.570312 496.035156 Z M 288.570312 496.035156 " fill-opacity="1" fill-rule="nonzero"/><path fill="#4863b3" d="M 242.953125 656.367188 C 241.269531 641.449219 239.925781 626.503906 238.96875 611.535156 C 238.941406 611.066406 239.640625 611.09375 239.667969 611.535156 C 240.648438 626.503906 241.96875 641.449219 243.675781 656.367188 C 243.726562 656.832031 243.027344 656.804688 242.953125 656.367188 Z M 242.953125 656.367188 " fill-opacity="1" fill-rule="nonzero"/><path fill="#e6b08e" d="M 202.246094 503.664062 C 202.503906 487.6875 204.574219 471.785156 208.375 456.269531 C 208.480469 455.832031 209.152344 456.011719 209.046875 456.453125 C 205.246094 471.914062 203.203125 487.761719 202.945312 503.664062 C 202.945312 504.105469 202.21875 504.105469 202.246094 503.664062 Z M 202.246094 503.664062 " fill-opacity="1" fill-rule="nonzero"/><path fill="#e6b08e" d="M 273.15625 559.953125 C 265.191406 545.292969 258.648438 529.90625 253.605469 514.007812 C 253.476562 513.566406 254.148438 513.386719 254.277344 513.824219 C 259.296875 529.675781 265.8125 545.007812 273.75 559.617188 C 273.984375 559.976562 273.363281 560.339844 273.15625 559.953125 Z M 273.15625 559.953125 " fill-opacity="1" fill-rule="nonzero"/><path fill="#e6b08e" d="M 260.046875 541.179688 C 261.933594 553.925781 266.199219 566.207031 272.691406 577.351562 C 272.925781 577.738281 272.304688 578.101562 272.097656 577.714844 C 265.578125 566.519531 261.261719 554.1875 259.371094 541.386719 C 259.296875 540.921875 259.96875 540.714844 260.046875 541.179688 Z M 260.046875 541.179688 " fill-opacity="1" fill-rule="nonzero"/><path fill="#ff9b7d" d="M 303.59375 483.109375 C 303.59375 483.109375 306.15625 486.03125 311.121094 493.269531 C 313.550781 491.460938 320.585938 483.78125 329.480469 475.351562 C 329.222656 473.570312 328.964844 471.808594 328.730469 470.027344 C 328.550781 468.835938 328.371094 467.621094 328.214844 466.433594 C 328.085938 465.554688 327.773438 464.519531 327.90625 463.613281 C 327.980469 463.121094 328.316406 462.632812 328.835938 462.578125 C 329.402344 462.527344 329.6875 462.992188 329.949219 463.40625 C 331.085938 465.292969 333.152344 469.019531 334.085938 468.0625 C 337.757812 464.3125 344.015625 457.226562 344.015625 457.226562 C 345.878906 460.203125 345.308594 464.390625 344.53125 467.414062 C 343.5 471.371094 338.429688 477.136719 337.914062 477.628906 C 334.035156 486.652344 322.9375 508.058594 318.542969 512.6875 C 315.101562 516.308594 310.863281 517.9375 305.277344 517.472656 C 296.921875 516.746094 283.941406 502.0625 282.984375 500.691406 Z M 303.59375 483.109375 " fill-opacity="1" fill-rule="nonzero"/><path fill="#e6b08e" d="M 268.035156 440.9375 C 261.003906 449.679688 260.484375 461.90625 263.046875 472.40625 C 265.863281 484.015625 272.382812 494.355469 278.847656 504.257812 C 279.078125 504.648438 279.671875 504.234375 279.441406 503.871094 C 273.414062 494.667969 267.414062 485.125 264.339844 474.449219 C 261.210938 463.613281 261.210938 450.609375 268.578125 441.40625 C 268.839844 441.042969 268.292969 440.578125 268.035156 440.9375 Z M 268.035156 440.9375 " fill-opacity="1" fill-rule="nonzero"/><path fill="#e6b08e" d="M 282.519531 501 C 281.019531 502.085938 281.097656 502.191406 279.597656 503.277344 L 278.949219 503.742188 L 278.820312 504.207031 L 279.285156 504.335938 C 280.785156 503.226562 280.734375 503.148438 282.234375 502.0625 L 282.878906 501.597656 L 283.011719 501.105469 Z M 282.519531 501 " fill-opacity="1" fill-rule="nonzero"/><path fill="#ff9b7d" d="M 721.066406 761.3125 L 709.765625 761.933594 L 707.980469 733.828125 L 724.609375 733.828125 Z M 721.066406 761.3125 " fill-opacity="1" fill-rule="nonzero"/><path fill="#0b1533" d="M 695.59375 770.464844 C 695.105469 774.757812 699.863281 774.992188 703.507812 775.351562 C 708.085938 775.792969 715.585938 776.128906 719.179688 773.984375 C 722.722656 771.863281 721.457031 762.425781 721.25 759.738281 C 721.25 759.738281 713.308594 761.3125 709.558594 759.738281 C 707.878906 760.71875 701.90625 764.261719 699.757812 765.65625 C 698.027344 766.742188 695.855469 768.21875 695.59375 770.464844 Z M 695.59375 770.464844 " fill-opacity="1" fill-rule="nonzero"/><path fill="#ff9b7d" d="M 774.675781 749.394531 L 774.289062 758.832031 L 763.480469 758.832031 L 762.652344 749.394531 Z M 774.675781 749.394531 " fill-opacity="1" fill-rule="nonzero"/><path fill="#0b1533" d="M 764.253906 775.664062 C 763.351562 775.664062 762.472656 775.222656 762.003906 774.449219 C 761.257812 773.179688 760.972656 771.683594 761.101562 770.234375 C 761.308594 767.75 761.851562 765.21875 762.394531 762.789062 C 762.730469 761.183594 762.9375 760.046875 763.453125 758.597656 L 774.289062 758.753906 C 774.882812 760.046875 775.765625 762.117188 776.359375 765.242188 C 776.902344 768.191406 777.132812 771.605469 775.816406 774.292969 C 775.375 775.171875 774.445312 775.664062 773.488281 775.664062 Z M 764.253906 775.664062 " fill-opacity="1" fill-rule="nonzero"/><path fill="#7a97ed" d="M 773.253906 541.179688 L 716.285156 541.179688 C 709.09375 565.175781 703.199219 592.324219 704.257812 618.152344 C 704.828125 632.371094 704.050781 733.597656 707.722656 751.101562 L 724.171875 751.101562 C 734.824219 716.144531 731.824219 684.886719 732.914062 666.839844 C 733.6875 653.808594 741.136719 629.917969 743.851562 607.394531 C 746.566406 629.917969 750.703125 666.863281 751.402344 675.578125 C 753.058594 696.417969 752.28125 714.851562 759.703125 751.101562 L 776.152344 751.101562 C 784.144531 698.691406 777.960938 682.222656 777.988281 667.925781 C 777.988281 653.675781 783.859375 578.179688 773.253906 541.179688 Z M 773.253906 541.179688 " fill-opacity="1" fill-rule="nonzero"/><path fill="#ff9b7d" d="M 657.296875 440.394531 C 655.691406 437.863281 654.089844 435.355469 652.484375 432.820312 L 652.484375 432.640625 C 649.976562 425.734375 645.761719 419.503906 640.253906 414.59375 C 639.449219 413.867188 634.304688 408.800781 633.453125 411.566406 C 633.246094 412.1875 633.710938 412.730469 634.070312 413.171875 C 634.71875 413.921875 635.390625 414.644531 636.011719 415.417969 C 636.996094 416.6875 637.875 418.03125 638.699219 419.402344 C 637.667969 419.6875 636.863281 420.488281 636.605469 421.574219 C 635.90625 421.546875 635.234375 421.804688 634.746094 422.324219 C 634.484375 422.605469 634.355469 422.890625 634.226562 423.226562 C 634.070312 423.589844 634.046875 423.539062 633.789062 423.824219 C 632.363281 425.296875 633.503906 427.882812 634.304688 429.328125 C 635.496094 431.449219 637.253906 433.183594 639.011719 434.835938 C 640.589844 436.3125 642.269531 437.679688 643.949219 439 C 645.011719 441.507812 646.070312 444.042969 647.132812 446.550781 Z M 657.296875 440.394531 " fill-opacity="1" fill-rule="nonzero"/><path fill="#ffdec9" d="M 791.796875 461.960938 C 787.6875 448.460938 776.953125 445.695312 771.238281 444.121094 C 765.1875 442.464844 760.144531 442.695312 753.886719 442.957031 C 720.394531 442.621094 714.058594 450.53125 704.515625 455.082031 C 694.328125 459.941406 687.164062 461.261719 675.992188 462.734375 C 675.992188 462.734375 660.476562 440.65625 658.457031 438.300781 C 656.078125 438.300781 645.167969 446.160156 645.167969 446.160156 C 649.382812 457.589844 659.492188 478.25 666.785156 484.609375 C 675.269531 492.03125 711.1875 482.902344 711.1875 482.902344 C 708.394531 502.527344 714.9375 518.429688 713.335938 535.828125 C 711.113281 559.976562 697.691406 584.515625 697.484375 645.144531 C 697.484375 645.144531 716.75 650.574219 743.386719 652.308594 C 765.886719 653.753906 786.496094 649.617188 786.496094 649.617188 C 786.882812 627.640625 783.832031 581.152344 779.644531 565.769531 C 789.082031 555.296875 801.574219 539.164062 802.996094 527.839844 C 804.597656 515.375 794.953125 472.277344 791.796875 461.960938 Z M 782.332031 524.347656 C 780.882812 529.960938 777.003906 536.035156 777.003906 536.035156 C 777.003906 527.554688 778.558594 518.117188 779.875 511.757812 C 779.875 511.757812 782.796875 522.566406 782.332031 524.347656 Z M 782.332031 524.347656 " fill-opacity="1" fill-rule="nonzero"/><path fill="#402013" d="M 786.160156 450.503906 C 785.125 445.464844 783.445312 440.679688 781.425781 435.949219 C 780.417969 433.542969 779.382812 431.089844 778.894531 428.527344 C 778.296875 425.453125 778.503906 422.324219 778.738281 419.21875 C 779.460938 409.238281 778.324219 399.054688 772.972656 390.339844 C 770.644531 386.539062 767.332031 383.125 763.066406 381.550781 C 759.289062 380.179688 755.074219 380.257812 751.609375 382.246094 C 745.816406 379.738281 738.886719 383.101562 735.265625 388.039062 C 732.757812 391.453125 731.308594 395.535156 730.144531 399.570312 C 728.902344 403.941406 727.921875 408.386719 727.507812 412.9375 C 727.121094 417.28125 727.273438 421.726562 728.386719 425.96875 C 729.628906 430.699219 732.34375 434.449219 734.878906 438.558594 C 740.359375 447.453125 740.695312 457.976562 739.816406 468.113281 C 739.273438 474.1875 738.367188 480.238281 738.109375 486.339844 C 737.957031 489.882812 738.160156 493.996094 741.367188 496.191406 L 741.78125 496.089844 C 742.660156 494.511719 743.695312 493.089844 744.886719 491.746094 C 745.714844 494.253906 746.101562 496.785156 745.996094 499.449219 L 746.308594 499.761719 C 753.445312 499.0625 761.257812 498.027344 766.117188 492.289062 C 765.960938 494.5625 765.496094 496.734375 764.644531 498.882812 L 765.03125 499.242188 C 767.460938 498.777344 769.480469 497.484375 770.902344 495.597656 C 771.445312 497.121094 771.625 498.75 771.472656 500.433594 L 771.859375 500.742188 C 781.039062 498.542969 784.351562 488.433594 786.109375 480.289062 C 788.203125 470.492188 788.203125 460.277344 786.160156 450.503906 Z M 786.160156 450.503906 " fill-opacity="1" fill-rule="nonzero"/><path fill="#e6b08e" d="M 711.886719 483.003906 C 712.894531 482.875 715.199219 482.410156 717.628906 481.738281 C 721.480469 480.652344 725.257812 479 727.714844 475.6875 C 727.972656 475.351562 727.457031 474.9375 727.171875 475.273438 C 724.457031 478.765625 720.421875 480.238281 717.214844 481.117188 C 715.015625 481.738281 712.351562 482.257812 711.808594 482.332031 C 711.394531 482.386719 711.472656 483.058594 711.886719 483.003906 Z M 711.886719 483.003906 " fill-opacity="1" fill-rule="nonzero"/><path fill="#e6b08e" d="M 724.972656 518.738281 C 723.601562 528.511719 723.992188 538.414062 726.109375 548.03125 C 726.1875 548.445312 726.835938 548.265625 726.730469 547.851562 C 724.636719 538.335938 724.222656 528.539062 725.59375 518.894531 C 725.671875 518.480469 725.050781 518.324219 724.972656 518.738281 Z M 724.972656 518.738281 " fill-opacity="1" fill-rule="nonzero"/><path fill="#e6b08e" d="M 728.515625 536.242188 C 730.121094 544.59375 733.324219 552.558594 737.980469 559.667969 C 738.214844 560.027344 738.78125 559.691406 738.550781 559.332031 C 733.921875 552.273438 730.738281 544.359375 729.164062 536.0625 C 729.058594 535.621094 728.4375 535.800781 728.515625 536.242188 Z M 728.515625 536.242188 " fill-opacity="1" fill-rule="nonzero"/><path fill="#e6b08e" d="M 779.667969 566.105469 L 779.332031 565.820312 C 777.496094 554.03125 776.617188 544.308594 776.644531 536.035156 L 776.980469 535.699219 L 777.316406 536.035156 C 777.289062 544.257812 778.167969 553.980469 780.003906 565.71875 L 779.71875 566.105469 Z M 779.667969 566.105469 " fill-opacity="1" fill-rule="nonzero"/><path fill="#e6b08e" d="M 779.980469 512.117188 L 779.902344 512.117188 L 779.644531 511.707031 L 780.109375 509.664062 C 781.375 504.105469 782.695312 498.363281 783.523438 490.710938 L 783.882812 490.402344 L 784.195312 490.789062 C 783.339844 498.46875 782.023438 504.234375 780.753906 509.816406 L 780.289062 511.835938 Z M 779.980469 512.117188 " fill-opacity="1" fill-rule="nonzero"/><path fill="#cad5f8" d="M 957.488281 547.566406 L 945.695312 568.613281 C 964.886719 581.488281 977.582031 603.3125 977.582031 628.105469 C 977.582031 667.640625 945.410156 699.804688 905.871094 699.804688 C 891.648438 699.804688 878.457031 695.5625 867.3125 688.375 L 831.570312 688.375 C 849.15625 709.992188 875.898438 723.875 905.84375 723.875 C 958.652344 723.875 1001.632812 680.929688 1001.632812 628.105469 C 1001.660156 594.3125 984.023438 564.605469 957.488281 547.566406 Z M 957.488281 547.566406 " fill-opacity="1" fill-rule="nonzero"/><path fill="#cad5f8" d="M 917.636719 634.054688 L 884.457031 613.835938 C 883.578125 613.292969 883.292969 612.128906 883.835938 611.25 L 961.859375 483.210938 C 962.402344 482.332031 963.566406 482.050781 964.445312 482.566406 L 997.625 502.785156 C 998.503906 503.328125 998.789062 504.492188 998.246094 505.371094 L 920.222656 633.40625 C 919.679688 634.335938 918.515625 634.597656 917.636719 634.054688 Z M 917.636719 634.054688 " fill-opacity="1" fill-rule="nonzero"/><path fill="#cad5f8" d="M 969.519531 485.671875 L 987.496094 456.171875 L 1010.621094 470.257812 L 992.644531 499.757812 Z M 969.519531 485.671875 " fill-opacity="1" fill-rule="nonzero"/><path fill="#222f54" d="M 1011.332031 470.699219 L 986.6875 455.703125 C 986.011719 455.289062 985.804688 454.433594 986.21875 453.789062 L 987.175781 452.238281 C 987.589844 451.589844 988.445312 451.359375 989.089844 451.773438 L 1013.734375 466.769531 C 1014.410156 467.183594 1014.617188 468.035156 1014.203125 468.683594 L 1013.246094 470.234375 C 1012.855469 470.90625 1012.003906 471.113281 1011.332031 470.699219 Z M 1011.332031 470.699219 " fill-opacity="1" fill-rule="nonzero"/><path fill="#7a97ed" d="M 991.675781 499.941406 L 969.617188 486.496094 C 969.359375 486.339844 969.253906 485.980469 969.4375 485.71875 L 969.617188 485.4375 C 969.773438 485.175781 970.132812 485.074219 970.394531 485.253906 L 992.453125 498.699219 C 992.710938 498.855469 992.816406 499.21875 992.632812 499.476562 L 992.453125 499.761719 C 992.296875 500.019531 991.933594 500.121094 991.675781 499.941406 Z M 991.675781 499.941406 " fill-opacity="1" fill-rule="nonzero"/><path fill="#222f54" d="M 885.796875 621.914062 L 888.984375 616.683594 L 913.035156 631.335938 L 909.84375 636.566406 Z M 885.796875 621.914062 " fill-opacity="1" fill-rule="nonzero"/><path fill="#222f54" d="M 888.710938 628.597656 L 890.960938 624.914062 L 904.871094 633.394531 L 902.621094 637.078125 Z M 888.710938 628.597656 " fill-opacity="1" fill-rule="nonzero"/><path fill="#222f54" d="M 871.269531 688.453125 L 827.71875 688.453125 C 827.203125 688.453125 826.761719 688.039062 826.761719 687.496094 L 826.761719 684.058594 C 826.761719 683.539062 827.175781 683.101562 827.71875 683.101562 L 871.269531 683.101562 C 871.785156 683.101562 872.226562 683.515625 872.226562 684.058594 L 872.226562 687.496094 C 872.199219 688.011719 871.785156 688.453125 871.269531 688.453125 Z M 871.269531 688.453125 " fill-opacity="1" fill-rule="nonzero"/><path fill="#cad5f8" d="M 929.066406 752.417969 L 887.484375 752.417969 L 887.484375 722.738281 L 891.648438 696.882812 C 891.957031 694.996094 893.585938 693.625 895.472656 693.648438 L 920.972656 693.855469 C 922.835938 693.855469 924.4375 695.226562 924.75 697.0625 L 929.066406 722.738281 Z M 929.066406 752.417969 " fill-opacity="1" fill-rule="nonzero"/><path fill="#222f54" d="M 930.980469 757.773438 L 885.519531 757.773438 L 885.519531 753.375 C 885.519531 752.859375 885.929688 752.417969 886.472656 752.417969 L 930.050781 752.417969 C 930.566406 752.417969 931.007812 752.832031 931.007812 753.375 L 931.007812 757.773438 Z M 930.980469 757.773438 " fill-opacity="1" fill-rule="nonzero"/><path fill="#7a97ed" d="M 968.222656 556.226562 L 956.167969 576.007812 C 956.015625 576.265625 955.652344 576.371094 955.394531 576.1875 L 955.109375 576.007812 C 954.851562 575.851562 954.746094 575.492188 954.929688 575.230469 L 966.980469 555.453125 C 967.132812 555.195312 967.496094 555.089844 967.753906 555.273438 L 968.039062 555.453125 C 968.296875 555.609375 968.402344 555.96875 968.222656 556.226562 Z M 968.222656 556.226562 " fill-opacity="1" fill-rule="nonzero"/><path fill="#222f54" d="M 915.878906 708.828125 C 915.878906 709.328125 915.828125 709.820312 915.730469 710.308594 C 915.632812 710.800781 915.492188 711.273438 915.300781 711.734375 C 915.109375 712.199219 914.875 712.636719 914.597656 713.050781 C 914.320312 713.464844 914.003906 713.847656 913.652344 714.203125 C 913.296875 714.554688 912.914062 714.871094 912.5 715.148438 C 912.085938 715.425781 911.644531 715.660156 911.183594 715.851562 C 910.722656 716.039062 910.246094 716.183594 909.757812 716.28125 C 909.269531 716.378906 908.773438 716.429688 908.273438 716.429688 C 907.777344 716.429688 907.28125 716.378906 906.792969 716.28125 C 906.300781 716.183594 905.828125 716.039062 905.367188 715.851562 C 904.902344 715.660156 904.464844 715.425781 904.050781 715.148438 C 903.636719 714.871094 903.25 714.554688 902.898438 714.203125 C 902.546875 713.847656 902.230469 713.464844 901.953125 713.050781 C 901.675781 712.636719 901.441406 712.199219 901.25 711.734375 C 901.058594 711.273438 900.914062 710.800781 900.816406 710.308594 C 900.722656 709.820312 900.671875 709.328125 900.671875 708.828125 C 900.671875 708.328125 900.722656 707.832031 900.816406 707.34375 C 900.914062 706.855469 901.058594 706.378906 901.25 705.917969 C 901.441406 705.457031 901.675781 705.019531 901.953125 704.605469 C 902.230469 704.1875 902.546875 703.804688 902.898438 703.453125 C 903.25 703.097656 903.636719 702.785156 904.050781 702.507812 C 904.464844 702.230469 904.902344 701.996094 905.367188 701.804688 C 905.828125 701.613281 906.300781 701.46875 906.792969 701.371094 C 907.28125 701.273438 907.777344 701.226562 908.273438 701.226562 C 908.773438 701.226562 909.269531 701.273438 909.757812 701.371094 C 910.246094 701.46875 910.722656 701.613281 911.183594 701.804688 C 911.644531 701.996094 912.085938 702.230469 912.5 702.507812 C 912.914062 702.785156 913.296875 703.097656 913.652344 703.453125 C 914.003906 703.804688 914.320312 704.1875 914.597656 704.605469 C 914.875 705.019531 915.109375 705.457031 915.300781 705.917969 C 915.492188 706.378906 915.632812 706.855469 915.730469 707.34375 C 915.828125 707.832031 915.878906 708.328125 915.878906 708.828125 Z M 915.878906 708.828125 " fill-opacity="1" fill-rule="nonzero"/><path fill="#7a97ed" d="M 891.800781 699.105469 L 887.742188 721.339844 C 887.691406 721.652344 887.378906 721.859375 887.070312 721.78125 L 886.757812 721.730469 C 886.449219 721.675781 886.242188 721.367188 886.292969 721.082031 L 890.355469 698.847656 C 890.40625 698.535156 890.691406 698.328125 891 698.382812 L 891.308594 698.433594 C 891.648438 698.484375 891.855469 698.796875 891.800781 699.105469 Z M 891.800781 699.105469 " fill-opacity="1" fill-rule="nonzero"/><path fill="#7a97ed" d="M 924.257812 698.019531 L 928.316406 720.28125 C 928.371094 720.589844 928.679688 720.796875 928.964844 720.746094 L 929.273438 720.695312 C 929.585938 720.644531 929.792969 720.332031 929.738281 720.023438 L 925.679688 697.785156 C 925.628906 697.476562 925.316406 697.269531 925.007812 697.320312 L 924.695312 697.375 C 924.386719 697.398438 924.207031 697.710938 924.257812 698.019531 Z M 924.257812 698.019531 " fill-opacity="1" fill-rule="nonzero"/><path fill="#222f54" d="M 966.539062 766.640625 L 823.8125 766.640625 C 823.296875 766.640625 822.855469 766.226562 822.855469 765.683594 L 822.855469 758.675781 C 822.855469 758.160156 823.269531 757.71875 823.8125 757.71875 L 966.539062 757.71875 C 967.058594 757.71875 967.472656 758.132812 967.472656 758.675781 L 967.472656 765.683594 C 967.472656 766.226562 967.058594 766.640625 966.539062 766.640625 Z M 966.539062 766.640625 " fill-opacity="1" fill-rule="nonzero"/><path fill="#1f0f09" d="M 1102.179688 418.730469 C 1101.429688 414.851562 1100.886719 410.816406 1099.828125 406.964844 L 1086.015625 399.128906 C 1084.335938 407.121094 1082.398438 415.03125 1082.886719 423.253906 C 1083.148438 427.3125 1083.84375 431.347656 1084.777344 435.300781 C 1085.292969 437.371094 1087.128906 444.6875 1088.113281 445.542969 C 1089.949219 447.144531 1094.550781 447.015625 1096.800781 446.601562 C 1099.777344 446.058594 1102.515625 443.78125 1104.199219 441.328125 C 1106.1875 438.457031 1103.007812 423.097656 1102.179688 418.730469 Z M 1102.179688 418.730469 " fill-opacity="1" fill-rule="nonzero"/><path fill="#824938" d="M 1208.289062 424.261719 C 1207.796875 422.375 1207.253906 420.511719 1206.710938 418.652344 C 1206.324219 417.308594 1205.054688 414.617188 1203.296875 413.84375 C 1200.867188 412.78125 1198.898438 417.152344 1199.105469 419.480469 C 1199.367188 422.453125 1200.761719 425.21875 1199.804688 428.269531 C 1199.003906 430.828125 1196.988281 432.792969 1196.183594 435.355469 C 1195.511719 437.527344 1195.640625 439.851562 1196.46875 441.949219 C 1196.46875 441.949219 1193.210938 447.171875 1188.917969 453.96875 L 1199.289062 457.097656 C 1200.738281 451.332031 1201.898438 446.34375 1202.726562 443.214844 C 1203.789062 441.066406 1206.347656 436.699219 1207.382812 434.550781 C 1208.105469 433.027344 1208.804688 431.5 1209.011719 429.820312 C 1209.296875 427.933594 1208.753906 426.070312 1208.289062 424.261719 Z M 1208.289062 424.261719 " fill-opacity="1" fill-rule="nonzero"/><path fill="#824938" d="M 1123.386719 432.457031 C 1113.765625 430.777344 1098.84375 430.777344 1098.84375 430.777344 C 1092.792969 432.457031 1086.378906 434.085938 1080.222656 436.386719 C 1074.613281 438.484375 1075.234375 472.457031 1081.515625 471.707031 C 1106.371094 468.707031 1120.207031 469.019531 1127.394531 468.964844 C 1132.566406 473.699219 1129.28125 433.492188 1123.386719 432.457031 Z M 1123.386719 432.457031 " fill-opacity="1" fill-rule="nonzero"/><path fill="#824938" d="M 1097.136719 759.347656 L 1086.949219 759.503906 C 1085.164062 728.941406 1075.105469 695.175781 1075.464844 668.414062 C 1075.464844 668.414062 1103.242188 661.898438 1103.34375 668.957031 C 1103.730469 693.054688 1098.351562 728.089844 1097.136719 759.347656 Z M 1097.136719 759.347656 " fill-opacity="1" fill-rule="nonzero"/><path fill="#0b1533" d="M 1096.957031 757.230469 C 1095.921875 755.753906 1093.957031 755.261719 1092.09375 755.523438 C 1089.921875 755.832031 1086.613281 758.238281 1084.542969 762.683594 C 1083.015625 765.992188 1081.75 770.105469 1083.585938 773.363281 C 1084.59375 775.144531 1086.40625 776.257812 1088.421875 776.59375 C 1090.335938 776.929688 1092.765625 776.90625 1094.527344 775.949219 C 1096.335938 774.964844 1097.472656 773.050781 1097.808594 771.0625 C 1098.199219 768.65625 1098.300781 766.121094 1098.351562 763.691406 C 1098.429688 761.496094 1098.25 759.089844 1096.957031 757.230469 Z M 1096.957031 757.230469 " fill-opacity="1" fill-rule="nonzero"/><path fill="#824938" d="M 1128.585938 760.074219 L 1138.800781 760.5625 L 1141.335938 668.128906 L 1113.84375 675.886719 C 1115.292969 710.328125 1125.714844 721.160156 1128.585938 760.074219 Z M 1128.585938 760.074219 " fill-opacity="1" fill-rule="nonzero"/><path fill="#0b1533" d="M 1149.144531 765.425781 C 1147.359375 763.976562 1145.394531 762.839844 1143.429688 761.703125 C 1141.929688 760.847656 1140.273438 759.554688 1138.878906 758.519531 C 1135.410156 759.53125 1128.457031 757.875 1128.457031 757.875 C 1128.015625 760.226562 1125.972656 768.398438 1128.894531 770.621094 C 1131.84375 772.871094 1138.515625 773.3125 1142.601562 773.386719 C 1145.859375 773.441406 1152.402344 773.957031 1152.402344 770.128906 C 1152.351562 768.113281 1150.59375 766.589844 1149.144531 765.425781 Z M 1149.144531 765.425781 " fill-opacity="1" fill-rule="nonzero"/><path fill="#7a97ed" d="M 1136.085938 521.425781 L 1075.441406 521.425781 C 1060.335938 565.820312 1069.777344 588.652344 1070.5 642.894531 C 1070.707031 657.347656 1067.835938 665.90625 1064.890625 677.078125 C 1072.335938 678.859375 1079.242188 683.953125 1086.820312 683.773438 C 1094.578125 683.59375 1100.035156 680.824219 1107.6875 682.273438 C 1114.800781 683.644531 1137.015625 687.109375 1154.886719 674.285156 C 1152.710938 666.839844 1146.351562 658.488281 1145.136719 625.753906 C 1143.945312 593.875 1149.894531 552.066406 1136.085938 521.425781 Z M 1136.085938 521.425781 " fill-opacity="1" fill-rule="nonzero"/><path fill="#7a97ed" d="M 1135.230469 453.296875 L 1135.230469 439.335938 C 1135.230469 438.765625 1134.765625 438.300781 1134.195312 438.300781 C 1133.628906 438.300781 1133.160156 438.765625 1133.160156 439.335938 L 1133.160156 453.011719 C 1133.160156 453.011719 1121.007812 462.320312 1107.558594 462.320312 C 1093.878906 462.320312 1081.285156 452.910156 1081.285156 452.910156 L 1081.285156 439.335938 C 1081.285156 438.765625 1080.820312 438.300781 1080.25 438.300781 C 1079.679688 438.300781 1079.214844 438.765625 1079.214844 439.335938 L 1079.214844 453.609375 L 1072.59375 475.535156 C 1072.59375 475.535156 1072.519531 495.519531 1069.492188 525.355469 C 1069.492188 525.355469 1106.136719 537.199219 1143.378906 524.246094 C 1143.378906 524.246094 1138.488281 503.042969 1143.378906 473.363281 Z M 1135.230469 453.296875 " fill-opacity="1" fill-rule="nonzero"/><path fill="#ffdec9" d="M 1089.898438 433.261719 C 1080.921875 435.84375 1071.84375 439.027344 1064.65625 444.792969 C 1058.476562 449.753906 1054.027344 466.871094 1053.226562 479.4375 C 1052.011719 498.675781 1052.835938 512.558594 1057.441406 517.9375 C 1060.441406 521.453125 1064.578125 522.617188 1069.441406 519.953125 L 1069.957031 519.644531 C 1069.777344 521.503906 1056.640625 602.585938 1059.148438 643.929688 C 1059.148438 643.929688 1069.414062 649.800781 1083.277344 647.628906 C 1086.792969 650.601562 1090.128906 433.648438 1089.898438 433.261719 Z M 1089.898438 433.261719 " fill-opacity="1" fill-rule="nonzero"/><path fill="#ffdec9" d="M 1191.917969 449.238281 C 1186.746094 457.460938 1178.390625 470.648438 1173.296875 478.25 C 1166.160156 469.457031 1150.695312 443.679688 1142.472656 439.492188 C 1132.074219 434.191406 1129.28125 433.492188 1123.359375 432.457031 C 1122.585938 432.328125 1121.757812 432.199219 1120.902344 432.070312 L 1127.34375 646.671875 C 1127.34375 646.671875 1141.28125 648.117188 1154.859375 641.601562 C 1156.980469 596.332031 1141.308594 502.628906 1143.714844 474.707031 C 1148.886719 479.4375 1158.480469 496.347656 1169.652344 500.121094 C 1174.796875 501.855469 1181.859375 501.105469 1186.152344 494.175781 C 1192.488281 483.9375 1197.246094 465.398438 1200.324219 452.832031 Z M 1191.917969 449.238281 " fill-opacity="1" fill-rule="nonzero"/><path fill="#ffdec9" d="M 1098.84375 483.160156 C 1089.070312 488.125 1072.726562 494.539062 1069.441406 497.277344 L 1069.492188 519.980469 C 1073.476562 518.816406 1083.691406 510.644531 1089.921875 505.164062 C 1095.351562 500.378906 1098.871094 497.046875 1104.144531 492.46875 C 1104.121094 492.441406 1098.84375 482.722656 1098.84375 483.160156 Z M 1098.84375 483.160156 " fill-opacity="1" fill-rule="nonzero"/><path fill="#824938" d="M 1116.765625 431.269531 C 1116.765625 431.269531 1116.144531 420.097656 1115.964844 414.359375 C 1115.964844 414.359375 1113.84375 411.878906 1113.792969 408.152344 C 1113.457031 408.179688 1104.921875 381.78125 1100.785156 381.808594 C 1091.757812 381.859375 1089.972656 386.230469 1088.058594 391.21875 C 1086.613281 394.0625 1086.457031 396.90625 1085.550781 401.40625 C 1083.714844 410.816406 1085.191406 419.324219 1089.664062 423.226562 C 1091.964844 425.246094 1096.257812 424.984375 1098.894531 424.082031 L 1098.84375 431.164062 C 1098.84375 431.113281 1109.292969 434.007812 1116.765625 431.269531 Z M 1116.765625 431.269531 " fill-opacity="1" fill-rule="nonzero"/><path fill="#622f2a" d="M 1099.285156 424.574219 C 1102.285156 423.640625 1105.207031 422.21875 1107.429688 419.945312 C 1107.742188 419.609375 1107.25 419.117188 1106.9375 419.453125 C 1104.816406 421.652344 1102 422.996094 1099.101562 423.898438 C 1098.664062 424.03125 1098.84375 424.726562 1099.285156 424.574219 Z M 1099.285156 424.574219 " fill-opacity="1" fill-rule="nonzero"/><path fill="#1f0f09" d="M 1134.84375 423.824219 C 1133.808594 420.667969 1132 418.058594 1130.265625 415.238281 C 1125.867188 408.101562 1128.558594 400.085938 1126.335938 392.433594 C 1124.679688 386.773438 1120.335938 382.296875 1115.34375 379.378906 C 1109.964844 376.25 1102.621094 374.050781 1097.085938 377.644531 C 1092.535156 376.765625 1087.699219 378.394531 1084.855469 382.273438 C 1083.121094 384.601562 1082.242188 387.496094 1082.421875 390.390625 C 1082.65625 393.882812 1084.234375 397.140625 1085.785156 400.214844 L 1086.042969 399.726562 C 1087.621094 396.132812 1087.386719 392.253906 1089.636719 388.890625 C 1091.34375 386.359375 1093.929688 384.546875 1096.851562 383.773438 C 1097.265625 387.445312 1098.015625 391.117188 1099.621094 394.476562 C 1101.664062 398.71875 1105.15625 401.507812 1108.90625 404.171875 C 1110.609375 408.902344 1111.59375 413.816406 1111.59375 418.882812 C 1111.59375 425.0625 1110.480469 431.21875 1110.558594 437.398438 C 1110.585938 440.992188 1111.078125 445.308594 1114.359375 447.453125 C 1118.914062 450.429688 1124.808594 447.636719 1129.773438 448.644531 L 1130.007812 448.59375 C 1133.78125 444.117188 1135.902344 438.507812 1136.085938 432.664062 C 1136.1875 429.691406 1135.773438 426.667969 1134.84375 423.824219 Z M 1134.84375 423.824219 " fill-opacity="1" fill-rule="nonzero"/><path fill="#e6b08e" d="M 1070.292969 520.339844 L 1069.933594 520.109375 L 1070.113281 519.589844 C 1075.207031 517.1875 1081.929688 511.5 1087.207031 506.820312 L 1087.75 506.84375 L 1087.722656 507.386719 C 1082.398438 512.09375 1075.621094 517.832031 1070.449219 520.261719 Z M 1070.292969 520.339844 " fill-opacity="1" fill-rule="nonzero"/><path fill="#e6b08e" d="M 1064.914062 500.433594 L 1064.578125 500.25 L 1064.683594 499.707031 C 1076.113281 492.3125 1087.699219 488.074219 1087.828125 488.023438 L 1088.34375 488.253906 L 1088.113281 488.746094 C 1087.984375 488.796875 1076.476562 493.011719 1065.121094 500.355469 Z M 1064.914062 500.433594 " fill-opacity="1" fill-rule="nonzero"/><path fill="#e6b08e" d="M 1071.820312 496.296875 L 1071.433594 495.882812 L 1072.15625 475.535156 C 1072.15625 475.328125 1072.3125 475.171875 1072.570312 475.144531 L 1072.957031 475.558594 L 1072.234375 495.90625 Z M 1071.820312 496.296875 " fill-opacity="1" fill-rule="nonzero"/><path fill="#4863b3" d="M 1092.277344 515.195312 C 1093.722656 520.1875 1095.613281 525.019531 1097.886719 529.675781 C 1098.070312 530.0625 1098.636719 529.726562 1098.457031 529.339844 C 1096.207031 524.738281 1094.34375 519.925781 1092.894531 515.015625 C 1092.792969 514.625 1092.144531 514.78125 1092.277344 515.195312 Z M 1092.277344 515.195312 " fill-opacity="1" fill-rule="nonzero"/><path fill="#4863b3" d="M 1099.207031 522.253906 C 1104.765625 532.648438 1111.75 542.214844 1119.945312 550.695312 C 1120.230469 551.003906 1120.695312 550.539062 1120.414062 550.230469 C 1112.265625 541.773438 1105.308594 532.261719 1099.773438 521.917969 C 1099.59375 521.53125 1099.027344 521.867188 1099.207031 522.253906 Z M 1099.207031 522.253906 " fill-opacity="1" fill-rule="nonzero"/><path fill="#cad5f8" d="M 1193.933594 493.167969 L 1195.410156 493.167969 C 1199.289062 493.167969 1202.441406 490.011719 1202.441406 486.160156 L 1202.441406 404.300781 L 1186.902344 404.300781 L 1186.902344 486.160156 C 1186.925781 490.011719 1190.054688 493.167969 1193.933594 493.167969 Z M 1193.933594 493.167969 " fill-opacity="1" fill-rule="nonzero"/><path fill="#cad5f8" d="M 1186.488281 404.300781 L 1203.167969 404.300781 C 1203.867188 404.300781 1204.433594 403.734375 1204.433594 403.035156 L 1204.433594 399.75 C 1204.433594 399.054688 1203.867188 398.484375 1203.167969 398.484375 L 1186.488281 398.484375 C 1185.789062 398.484375 1185.21875 399.054688 1185.21875 399.75 L 1185.21875 403.035156 C 1185.21875 403.734375 1185.789062 404.300781 1186.488281 404.300781 Z M 1186.488281 404.300781 " fill-opacity="1" fill-rule="nonzero"/><path fill="#7a97ed" d="M 1187.289062 404.636719 L 1202.082031 404.636719 L 1202.390625 404.328125 L 1202.390625 404.25 L 1202.082031 403.941406 L 1187.289062 403.941406 L 1186.976562 404.25 L 1186.976562 404.328125 Z M 1187.289062 404.636719 " fill-opacity="1" fill-rule="nonzero"/><path fill="#cf361f" d="M 1199.417969 440.007812 L 1199.417969 485.617188 C 1199.417969 488.230469 1197.296875 490.347656 1194.683594 490.347656 C 1192.074219 490.347656 1189.953125 488.230469 1189.953125 485.617188 L 1189.953125 440.035156 Z M 1199.417969 440.007812 " fill-opacity="1" fill-rule="nonzero"/><path fill="#cad5f8" d="M 1161.273438 493.167969 L 1162.746094 493.167969 C 1166.625 493.167969 1169.78125 490.011719 1169.78125 486.160156 L 1169.78125 404.300781 L 1154.238281 404.300781 L 1154.238281 486.160156 C 1154.238281 490.011719 1157.394531 493.167969 1161.273438 493.167969 Z M 1161.273438 493.167969 " fill-opacity="1" fill-rule="nonzero"/><path fill="#cad5f8" d="M 1153.824219 404.300781 L 1170.503906 404.300781 C 1171.203125 404.300781 1171.773438 403.734375 1171.773438 403.035156 L 1171.773438 399.75 C 1171.773438 399.054688 1171.203125 398.484375 1170.503906 398.484375 L 1153.824219 398.484375 C 1153.125 398.484375 1152.558594 399.054688 1152.558594 399.75 L 1152.558594 403.035156 C 1152.558594 403.734375 1153.125 404.300781 1153.824219 404.300781 Z M 1153.824219 404.300781 " fill-opacity="1" fill-rule="nonzero"/><path fill="#7a97ed" d="M 1154.625 404.636719 L 1169.417969 404.636719 L 1169.730469 404.328125 L 1169.730469 404.25 L 1169.417969 403.941406 L 1154.625 403.941406 L 1154.316406 404.25 L 1154.316406 404.328125 Z M 1154.625 404.636719 " fill-opacity="1" fill-rule="nonzero"/><path fill="#cf361f" d="M 1166.753906 457.589844 L 1166.753906 485.589844 C 1166.753906 488.203125 1164.632812 490.324219 1162.023438 490.324219 C 1159.410156 490.324219 1157.289062 488.203125 1157.289062 485.589844 L 1157.289062 457.589844 Z M 1166.753906 457.589844 " fill-opacity="1" fill-rule="nonzero"/><path fill="#cad5f8" d="M 1128.609375 493.167969 L 1130.085938 493.167969 C 1133.964844 493.167969 1137.117188 490.011719 1137.117188 486.160156 L 1137.117188 404.300781 L 1121.601562 404.300781 L 1121.601562 486.160156 C 1121.578125 490.011719 1124.730469 493.167969 1128.609375 493.167969 Z M 1128.609375 493.167969 " fill-opacity="1" fill-rule="nonzero"/><path fill="#cad5f8" d="M 1121.164062 404.300781 L 1137.84375 404.300781 C 1138.539062 404.300781 1139.109375 403.734375 1139.109375 403.035156 L 1139.109375 399.75 C 1139.109375 399.054688 1138.539062 398.484375 1137.84375 398.484375 L 1121.164062 398.484375 C 1120.464844 398.484375 1119.894531 399.054688 1119.894531 399.75 L 1119.894531 403.035156 C 1119.894531 403.734375 1120.464844 404.300781 1121.164062 404.300781 Z M 1121.164062 404.300781 " fill-opacity="1" fill-rule="nonzero"/><path fill="#7a97ed" d="M 1121.964844 404.636719 L 1136.730469 404.636719 L 1137.042969 404.328125 L 1137.042969 404.25 L 1136.730469 403.941406 L 1121.964844 403.941406 L 1121.652344 404.25 L 1121.652344 404.328125 Z M 1121.964844 404.636719 " fill-opacity="1" fill-rule="nonzero"/><path fill="#cf361f" d="M 1134.066406 420.617188 L 1134.066406 485.617188 C 1134.066406 488.230469 1131.945312 490.347656 1129.335938 490.347656 C 1126.722656 490.347656 1124.601562 488.230469 1124.601562 485.617188 L 1124.601562 420.617188 Z M 1134.066406 420.617188 " fill-opacity="1" fill-rule="nonzero"/><path fill="#4863b3" d="M 1113.894531 492.855469 L 1207.769531 492.855469 L 1207.769531 495.285156 L 1113.894531 495.285156 Z M 1113.894531 492.855469 " fill-opacity="1" fill-rule="nonzero"/><path fill="#4863b3" d="M 1115.085938 470.15625 L 1208.960938 470.15625 L 1208.960938 472.585938 L 1115.085938 472.585938 Z M 1115.085938 470.15625 " fill-opacity="1" fill-rule="nonzero"/><path fill="#222f54" d="M 1113.871094 495.261719 L 1116.300781 495.261719 L 1116.300781 442.414062 C 1116.300781 438.84375 1119.195312 435.976562 1122.738281 435.976562 L 1201.28125 435.976562 C 1204.847656 435.976562 1207.71875 438.871094 1207.71875 442.414062 L 1207.71875 495.261719 L 1210.148438 495.261719 L 1210.148438 442.414062 C 1210.148438 437.527344 1206.167969 433.542969 1201.28125 433.542969 L 1122.738281 433.542969 C 1117.851562 433.542969 1113.871094 437.527344 1113.871094 442.414062 Z M 1113.871094 495.261719 " fill-opacity="1" fill-rule="nonzero"/><path fill="#824938" d="M 1129.230469 473.464844 C 1128.792969 471.65625 1119.273438 469.972656 1115.214844 471.007812 C 1114.285156 471.242188 1113.195312 471.5 1112.371094 472.015625 C 1111.59375 472.507812 1111.078125 473.414062 1110.535156 474.164062 C 1109.292969 475.894531 1108.101562 477.652344 1106.9375 479.410156 C 1106.886719 479.464844 1101.222656 482.359375 1094.265625 485.875 L 1098.714844 495.777344 C 1102.386719 492.339844 1106.058594 488.875 1109.707031 485.410156 C 1111.128906 485.410156 1112.550781 485.203125 1113.894531 484.6875 C 1115.757812 484.015625 1117.207031 482.824219 1118.78125 481.636719 C 1120.59375 480.289062 1122.738281 479.386719 1124.835938 478.585938 C 1126.4375 478.015625 1129.800781 475.871094 1129.230469 473.464844 Z M 1129.230469 473.464844 " fill-opacity="1" fill-rule="nonzero"/><path fill="#cad5f8" d="M 1234.304688 634.699219 L 1210.332031 634.699219 C 1209.347656 634.699219 1208.519531 633.898438 1208.519531 632.890625 L 1208.519531 628.160156 C 1208.519531 627.148438 1209.324219 626.347656 1210.332031 626.347656 L 1234.304688 626.347656 C 1235.3125 626.347656 1236.113281 627.148438 1236.113281 628.160156 L 1236.113281 632.890625 C 1236.113281 633.898438 1235.3125 634.699219 1234.304688 634.699219 Z M 1234.304688 634.699219 " fill-opacity="1" fill-rule="nonzero"/><path fill="#cad5f8" d="M 1233.476562 672.886719 L 1233.476562 634.699219 L 1211.183594 634.699219 L 1211.183594 672.886719 C 1211.183594 674.492188 1210.820312 676.09375 1210.148438 677.566406 L 1176.894531 748.207031 C 1173.453125 755.523438 1178.78125 763.898438 1186.847656 763.898438 L 1257.835938 763.898438 C 1265.90625 763.898438 1271.234375 755.496094 1267.792969 748.207031 L 1234.535156 677.566406 C 1233.839844 676.09375 1233.476562 674.515625 1233.476562 672.886719 Z M 1233.476562 672.886719 " fill-opacity="1" fill-rule="nonzero"/><path fill="#7a97ed" d="M 1232.933594 635.191406 L 1211.703125 635.191406 C 1211.46875 635.191406 1211.261719 634.984375 1211.261719 634.75 L 1211.261719 634.648438 C 1211.261719 634.414062 1211.46875 634.207031 1211.703125 634.207031 L 1232.933594 634.207031 C 1233.191406 634.207031 1233.371094 634.414062 1233.371094 634.648438 L 1233.371094 634.75 C 1233.371094 634.984375 1233.191406 635.191406 1232.933594 635.191406 Z M 1232.933594 635.191406 " fill-opacity="1" fill-rule="nonzero"/><path fill="#577d35" d="M 1262.800781 750.300781 L 1234.898438 691.011719 L 1209.789062 691.011719 L 1181.882812 750.300781 C 1179.96875 754.382812 1182.945312 759.089844 1187.46875 759.089844 L 1257.269531 759.089844 C 1261.742188 759.089844 1264.714844 754.382812 1262.800781 750.300781 Z M 1262.800781 750.300781 " fill-opacity="1" fill-rule="nonzero"/><path fill="#37591a" d="M 1219.226562 723.410156 C 1219.226562 723.824219 1219.1875 724.234375 1219.105469 724.640625 C 1219.023438 725.046875 1218.90625 725.441406 1218.746094 725.824219 C 1218.589844 726.207031 1218.394531 726.570312 1218.164062 726.914062 C 1217.933594 727.257812 1217.671875 727.578125 1217.378906 727.871094 C 1217.085938 728.164062 1216.765625 728.425781 1216.421875 728.65625 C 1216.078125 728.886719 1215.714844 729.078125 1215.332031 729.238281 C 1214.949219 729.398438 1214.554688 729.515625 1214.148438 729.597656 C 1213.742188 729.679688 1213.332031 729.71875 1212.917969 729.71875 C 1212.503906 729.71875 1212.09375 729.679688 1211.6875 729.597656 C 1211.28125 729.515625 1210.886719 729.398438 1210.503906 729.238281 C 1210.121094 729.078125 1209.753906 728.886719 1209.410156 728.65625 C 1209.066406 728.425781 1208.746094 728.164062 1208.457031 727.871094 C 1208.160156 727.578125 1207.902344 727.257812 1207.671875 726.914062 C 1207.441406 726.570312 1207.246094 726.207031 1207.085938 725.824219 C 1206.929688 725.441406 1206.808594 725.046875 1206.726562 724.640625 C 1206.648438 724.234375 1206.605469 723.824219 1206.605469 723.410156 C 1206.605469 722.996094 1206.648438 722.585938 1206.726562 722.179688 C 1206.808594 721.773438 1206.929688 721.378906 1207.085938 720.996094 C 1207.246094 720.613281 1207.441406 720.25 1207.671875 719.90625 C 1207.902344 719.558594 1208.160156 719.242188 1208.453125 718.949219 C 1208.746094 718.65625 1209.066406 718.394531 1209.410156 718.164062 C 1209.753906 717.933594 1210.121094 717.738281 1210.503906 717.582031 C 1210.886719 717.421875 1211.28125 717.304688 1211.6875 717.222656 C 1212.09375 717.140625 1212.503906 717.101562 1212.917969 717.101562 C 1213.332031 717.101562 1213.742188 717.140625 1214.148438 717.222656 C 1214.554688 717.304688 1214.949219 717.421875 1215.332031 717.582031 C 1215.714844 717.738281 1216.078125 717.933594 1216.421875 718.164062 C 1216.765625 718.394531 1217.085938 718.65625 1217.378906 718.949219 C 1217.671875 719.242188 1217.933594 719.558594 1218.164062 719.90625 C 1218.394531 720.25 1218.589844 720.613281 1218.746094 720.996094 C 1218.90625 721.378906 1219.023438 721.773438 1219.105469 722.179688 C 1219.1875 722.585938 1219.226562 722.996094 1219.226562 723.410156 Z M 1219.226562 723.410156 " fill-opacity="1" fill-rule="nonzero"/><path fill="#37591a" d="M 1227.242188 736.261719 C 1227.242188 738.457031 1225.460938 740.265625 1223.234375 740.265625 C 1221.011719 740.265625 1219.226562 738.484375 1219.226562 736.261719 C 1219.226562 734.035156 1221.011719 732.253906 1223.234375 732.253906 C 1225.433594 732.253906 1227.242188 734.035156 1227.242188 736.261719 Z M 1227.242188 736.261719 " fill-opacity="1" fill-rule="nonzero"/><path fill="#cad5f8" d="M 1049.292969 773.386719 L 1049.292969 710.042969 C 1049.292969 707.84375 1048.542969 705.722656 1047.148438 704.042969 L 1042.003906 697.8125 L 1009.417969 697.8125 L 1004.296875 704.042969 C 1002.898438 705.722656 1002.152344 707.84375 1002.152344 710.042969 L 1002.152344 773.386719 C 1002.152344 776.027344 1004.296875 778.171875 1006.933594 778.171875 L 1044.535156 778.171875 C 1047.175781 778.144531 1049.292969 776.027344 1049.292969 773.386719 Z M 1049.292969 773.386719 " fill-opacity="1" fill-rule="nonzero"/><path fill="#cad5f8" d="M 1009.417969 691.53125 L 1042.027344 691.53125 L 1042.027344 697.785156 L 1009.417969 697.785156 Z M 1009.417969 691.53125 " fill-opacity="1" fill-rule="nonzero"/><path fill="#222f54" d="M 1042.519531 691.53125 L 1008.824219 691.53125 C 1007.996094 691.53125 1007.324219 690.859375 1007.324219 690.03125 L 1007.324219 680.464844 C 1007.324219 679.636719 1007.996094 678.964844 1008.824219 678.964844 L 1042.519531 678.964844 C 1043.347656 678.964844 1044.019531 679.636719 1044.019531 680.464844 L 1044.019531 690.03125 C 1044.019531 690.859375 1043.347656 691.53125 1042.519531 691.53125 Z M 1042.519531 691.53125 " fill-opacity="1" fill-rule="nonzero"/><path fill="#ffc557" d="M 1006.082031 722.402344 L 1006.082031 770.3125 C 1006.082031 772.585938 1007.867188 774.449219 1010.0625 774.449219 L 1041.40625 774.449219 C 1043.605469 774.449219 1045.390625 772.613281 1045.390625 770.3125 L 1045.390625 722.402344 Z M 1006.082031 722.402344 " fill-opacity="1" fill-rule="nonzero"/><path fill="#ffad12" d="M 1020.71875 748.410156 C 1020.71875 751.101562 1018.546875 753.273438 1015.855469 753.273438 C 1013.167969 753.273438 1010.996094 751.101562 1010.996094 748.410156 C 1010.996094 745.722656 1013.167969 743.550781 1015.855469 743.550781 C 1018.546875 743.578125 1020.71875 745.75 1020.71875 748.410156 Z M 1020.71875 748.410156 " fill-opacity="1" fill-rule="nonzero"/><path fill="#ffad12" d="M 1026.691406 759.554688 C 1026.691406 759.953125 1026.617188 760.335938 1026.464844 760.703125 C 1026.3125 761.070312 1026.09375 761.394531 1025.8125 761.675781 C 1025.53125 761.957031 1025.207031 762.175781 1024.839844 762.328125 C 1024.472656 762.480469 1024.089844 762.554688 1023.691406 762.554688 C 1023.292969 762.554688 1022.910156 762.480469 1022.542969 762.328125 C 1022.175781 762.175781 1021.851562 761.957031 1021.570312 761.675781 C 1021.289062 761.394531 1021.074219 761.070312 1020.921875 760.703125 C 1020.769531 760.335938 1020.691406 759.953125 1020.691406 759.554688 C 1020.691406 759.15625 1020.769531 758.773438 1020.921875 758.40625 C 1021.074219 758.039062 1021.289062 757.714844 1021.570312 757.433594 C 1021.851562 757.152344 1022.175781 756.9375 1022.542969 756.785156 C 1022.910156 756.632812 1023.292969 756.554688 1023.691406 756.554688 C 1024.089844 756.554688 1024.472656 756.632812 1024.839844 756.785156 C 1025.207031 756.9375 1025.53125 757.152344 1025.8125 757.433594 C 1026.09375 757.714844 1026.3125 758.039062 1026.464844 758.40625 C 1026.617188 758.773438 1026.691406 759.15625 1026.691406 759.554688 Z M 1026.691406 759.554688 " fill-opacity="1" fill-rule="nonzero"/><path fill="#7a97ed" d="M 1035.976562 698.382812 L 1010.296875 698.382812 C 1009.984375 698.382812 1009.726562 698.125 1009.726562 697.8125 L 1009.726562 697.761719 C 1009.726562 697.449219 1009.984375 697.191406 1010.296875 697.191406 L 1035.976562 697.191406 C 1036.285156 697.191406 1036.546875 697.449219 1036.546875 697.761719 L 1036.546875 697.8125 C 1036.546875 698.148438 1036.285156 698.382812 1035.976562 698.382812 Z M 1035.976562 698.382812 " fill-opacity="1" fill-rule="nonzero"/><path fill="#4863b3" d="M 982.960938 341.316406 L 833.539062 341.316406 C 829.191406 341.316406 825.648438 337.800781 825.648438 333.433594 L 825.648438 143.472656 C 825.648438 139.128906 829.191406 135.613281 833.539062 135.613281 L 982.960938 135.613281 C 987.304688 135.613281 990.847656 139.128906 990.847656 143.472656 L 990.847656 333.457031 C 990.847656 337.800781 987.332031 341.316406 982.960938 341.316406 Z M 982.960938 341.316406 " fill-opacity="1" fill-rule="nonzero"/><path fill="#cad5f8" d="M 833.5625 337.929688 C 831.082031 337.929688 829.089844 335.914062 829.089844 333.457031 L 829.089844 143.472656 C 829.089844 141.015625 831.105469 139 833.5625 139 L 982.988281 139 C 985.46875 139 987.460938 141.015625 987.460938 143.472656 L 987.460938 333.457031 C 987.460938 335.941406 985.445312 337.929688 982.988281 337.929688 Z M 833.5625 337.929688 " fill-opacity="1" fill-rule="nonzero"/><path fill="#222f54" d="M 926.171875 149.210938 L 890.355469 149.210938 C 888.15625 149.210938 886.371094 147.429688 886.371094 145.230469 L 886.371094 144.816406 C 886.371094 142.617188 888.15625 140.835938 890.355469 140.835938 L 926.171875 140.835938 C 928.371094 140.835938 930.152344 142.617188 930.152344 144.816406 L 930.152344 145.230469 C 930.152344 147.429688 928.371094 149.210938 926.171875 149.210938 Z M 926.171875 149.210938 " fill-opacity="1" fill-rule="nonzero"/><path fill="#222f54" d="M 918.230469 145.023438 L 898.320312 145.023438 L 898.320312 137.523438 C 898.320312 132.300781 902.558594 128.0625 907.785156 128.0625 L 908.765625 128.0625 C 913.992188 128.0625 918.230469 132.300781 918.230469 137.523438 Z M 918.230469 145.023438 " fill-opacity="1" fill-rule="nonzero"/><path fill="#7a97ed" d="M 917.351562 196.914062 L 894.851562 196.914062 C 894.492188 196.914062 894.207031 196.628906 894.207031 196.242188 C 894.207031 195.882812 894.515625 195.597656 894.851562 195.597656 L 917.351562 195.597656 C 917.714844 195.597656 918 195.882812 918 196.242188 C 918 196.605469 917.714844 196.914062 917.351562 196.914062 Z M 917.351562 196.914062 " fill-opacity="1" fill-rule="nonzero"/><path fill="#7a97ed" d="M 973.988281 191.199219 L 894.828125 191.199219 C 894.464844 191.199219 894.179688 190.917969 894.179688 190.554688 C 894.179688 190.191406 894.492188 189.882812 894.828125 189.882812 L 973.988281 189.882812 C 974.351562 189.882812 974.632812 190.167969 974.632812 190.554688 C 974.660156 190.917969 974.351562 191.199219 973.988281 191.199219 Z M 973.988281 191.199219 " fill-opacity="1" fill-rule="nonzero"/><path fill="#7a97ed" d="M 955.367188 185.511719 L 894.828125 185.511719 C 894.464844 185.511719 894.179688 185.226562 894.179688 184.867188 C 894.179688 184.503906 894.492188 184.195312 894.828125 184.195312 L 955.367188 184.195312 C 955.730469 184.195312 956.015625 184.480469 956.015625 184.867188 C 956.039062 185.203125 955.730469 185.511719 955.367188 185.511719 Z M 955.367188 185.511719 " fill-opacity="1" fill-rule="nonzero"/><path fill="#7a97ed" d="M 966.824219 179.800781 L 894.851562 179.800781 C 894.492188 179.800781 894.207031 179.515625 894.207031 179.125 C 894.207031 178.765625 894.515625 178.453125 894.851562 178.453125 L 966.824219 178.453125 C 967.1875 178.453125 967.472656 178.738281 967.472656 179.125 C 967.472656 179.515625 967.1875 179.800781 966.824219 179.800781 Z M 966.824219 179.800781 " fill-opacity="1" fill-rule="nonzero"/><path fill="#7a97ed" d="M 973.988281 174.109375 L 894.828125 174.109375 C 894.464844 174.109375 894.179688 173.828125 894.179688 173.464844 C 894.179688 173.101562 894.492188 172.816406 894.828125 172.816406 L 973.988281 172.816406 C 974.351562 172.816406 974.632812 173.101562 974.632812 173.464844 C 974.660156 173.800781 974.351562 174.109375 973.988281 174.109375 Z M 973.988281 174.109375 " fill-opacity="1" fill-rule="nonzero"/><path fill="#7a97ed" d="M 960.667969 250.511719 L 894.851562 250.511719 C 894.492188 250.511719 894.207031 250.230469 894.207031 249.839844 C 894.207031 249.480469 894.515625 249.195312 894.851562 249.195312 L 960.667969 249.195312 C 961.03125 249.195312 961.34375 249.480469 961.34375 249.839844 C 961.316406 250.230469 961.03125 250.511719 960.667969 250.511719 Z M 960.667969 250.511719 " fill-opacity="1" fill-rule="nonzero"/><path fill="#7a97ed" d="M 939.542969 244.824219 L 894.851562 244.824219 C 894.492188 244.824219 894.207031 244.515625 894.207031 244.179688 C 894.207031 243.816406 894.515625 243.53125 894.851562 243.53125 L 939.542969 243.53125 C 939.902344 243.53125 940.1875 243.816406 940.1875 244.179688 C 940.1875 244.515625 939.902344 244.824219 939.542969 244.824219 Z M 939.542969 244.824219 " fill-opacity="1" fill-rule="nonzero"/><path fill="#7a97ed" d="M 973.988281 239.109375 L 894.828125 239.109375 C 894.464844 239.109375 894.179688 238.828125 894.179688 238.4375 C 894.179688 238.078125 894.492188 237.792969 894.828125 237.792969 L 973.988281 237.792969 C 974.351562 237.792969 974.632812 238.078125 974.632812 238.4375 C 974.660156 238.828125 974.351562 239.109375 973.988281 239.109375 Z M 973.988281 239.109375 " fill-opacity="1" fill-rule="nonzero"/><path fill="#7a97ed" d="M 965.066406 233.421875 L 894.851562 233.421875 C 894.492188 233.421875 894.207031 233.136719 894.207031 232.75 C 894.207031 232.390625 894.515625 232.105469 894.851562 232.105469 L 965.066406 232.105469 C 965.429688 232.105469 965.710938 232.414062 965.710938 232.75 C 965.710938 233.113281 965.429688 233.421875 965.066406 233.421875 Z M 965.066406 233.421875 " fill-opacity="1" fill-rule="nonzero"/><path fill="#7a97ed" d="M 973.988281 227.710938 L 894.828125 227.710938 C 894.464844 227.710938 894.179688 227.425781 894.179688 227.0625 C 894.179688 226.699219 894.492188 226.417969 894.828125 226.417969 L 973.988281 226.417969 C 974.351562 226.417969 974.632812 226.699219 974.632812 227.0625 C 974.660156 227.425781 974.351562 227.710938 973.988281 227.710938 Z M 973.988281 227.710938 " fill-opacity="1" fill-rule="nonzero"/><path fill="#7a97ed" d="M 928.808594 304.136719 L 894.851562 304.136719 C 894.492188 304.136719 894.207031 303.851562 894.207031 303.492188 C 894.207031 303.128906 894.515625 302.84375 894.851562 302.84375 L 928.808594 302.84375 C 929.171875 302.84375 929.457031 303.128906 929.457031 303.492188 C 929.457031 303.828125 929.144531 304.136719 928.808594 304.136719 Z M 928.808594 304.136719 " fill-opacity="1" fill-rule="nonzero"/><path fill="#7a97ed" d="M 947.453125 298.421875 L 894.851562 298.421875 C 894.492188 298.421875 894.207031 298.140625 894.207031 297.777344 C 894.207031 297.414062 894.515625 297.132812 894.851562 297.132812 L 947.453125 297.132812 C 947.816406 297.132812 948.125 297.414062 948.125 297.777344 C 948.125 298.140625 947.816406 298.421875 947.453125 298.421875 Z M 947.453125 298.421875 " fill-opacity="1" fill-rule="nonzero"/><path fill="#7a97ed" d="M 973.988281 292.734375 L 894.828125 292.734375 C 894.464844 292.734375 894.179688 292.449219 894.179688 292.0625 C 894.179688 291.703125 894.492188 291.417969 894.828125 291.417969 L 973.988281 291.417969 C 974.351562 291.417969 974.632812 291.703125 974.632812 292.0625 C 974.660156 292.425781 974.351562 292.734375 973.988281 292.734375 Z M 973.988281 292.734375 " fill-opacity="1" fill-rule="nonzero"/><path fill="#7a97ed" d="M 973.988281 287.019531 L 894.828125 287.019531 C 894.464844 287.019531 894.179688 286.738281 894.179688 286.375 C 894.179688 286.011719 894.492188 285.703125 894.828125 285.703125 L 973.988281 285.703125 C 974.351562 285.703125 974.632812 285.988281 974.632812 286.375 C 974.660156 286.738281 974.351562 287.019531 973.988281 287.019531 Z M 973.988281 287.019531 " fill-opacity="1" fill-rule="nonzero"/><path fill="#7a97ed" d="M 962.429688 281.332031 L 894.851562 281.332031 C 894.492188 281.332031 894.207031 281.046875 894.207031 280.6875 C 894.207031 280.324219 894.515625 280.015625 894.851562 280.015625 L 962.429688 280.015625 C 962.789062 280.015625 963.101562 280.300781 963.101562 280.6875 C 963.101562 281.074219 962.789062 281.332031 962.429688 281.332031 Z M 962.429688 281.332031 " fill-opacity="1" fill-rule="nonzero"/><path fill="#9fbd51" d="M 873.15625 203.199219 L 850.527344 203.199219 C 846.621094 203.199219 843.46875 200.042969 843.46875 196.164062 L 843.46875 173.542969 C 843.46875 169.636719 846.621094 166.507812 850.527344 166.507812 L 873.15625 166.507812 C 877.0625 166.507812 880.214844 169.664062 880.214844 173.542969 L 880.214844 196.164062 C 880.191406 200.042969 877.035156 203.199219 873.15625 203.199219 Z M 873.15625 203.199219 " fill-opacity="1" fill-rule="nonzero"/><path fill="#ffffff" d="M 851.847656 187.195312 C 853.683594 189.390625 855.542969 191.613281 857.382812 193.8125 C 857.640625 194.121094 857.898438 194.433594 858.15625 194.71875 C 858.675781 195.339844 859.707031 195.105469 860.070312 194.457031 C 860.457031 193.8125 860.871094 193.140625 861.261719 192.46875 C 862.21875 190.890625 863.148438 189.3125 864.105469 187.738281 C 865.242188 185.824219 866.40625 183.882812 867.570312 181.96875 C 868.554688 180.316406 869.5625 178.660156 870.542969 177.007812 C 871.035156 176.203125 871.527344 175.402344 871.992188 174.574219 L 872.019531 174.550781 C 872.328125 174.007812 872.148438 173.179688 871.578125 172.894531 C 870.984375 172.585938 870.257812 172.742188 869.898438 173.335938 C 869.484375 174.007812 869.097656 174.652344 868.707031 175.324219 C 867.75 176.902344 866.792969 178.480469 865.863281 180.058594 C 864.699219 181.96875 863.5625 183.910156 862.398438 185.824219 C 861.390625 187.476562 860.40625 189.132812 859.398438 190.789062 C 858.90625 191.589844 858.390625 192.390625 857.949219 193.21875 L 857.925781 193.269531 C 858.570312 193.191406 859.21875 193.113281 859.835938 193.011719 C 858 190.8125 856.140625 188.589844 854.328125 186.390625 C 854.042969 186.082031 853.8125 185.769531 853.554688 185.460938 C 853.140625 184.96875 852.234375 184.996094 851.820312 185.460938 C 851.382812 186.003906 851.40625 186.675781 851.847656 187.195312 Z M 851.847656 187.195312 " fill-opacity="1" fill-rule="nonzero"/><path fill="#ffc557" d="M 873.15625 310.421875 L 850.527344 310.421875 C 846.621094 310.421875 843.46875 307.265625 843.46875 303.386719 L 843.46875 280.765625 C 843.46875 276.886719 846.621094 273.730469 850.527344 273.730469 L 873.15625 273.730469 C 877.0625 273.730469 880.214844 276.886719 880.214844 280.765625 L 880.214844 303.386719 C 880.191406 307.265625 877.035156 310.421875 873.15625 310.421875 Z M 873.15625 310.421875 " fill-opacity="1" fill-rule="nonzero"/><path fill="#ffffff" d="M 851.847656 294.417969 C 853.683594 296.613281 855.542969 298.835938 857.382812 301.035156 C 857.640625 301.34375 857.898438 301.65625 858.15625 301.941406 C 858.675781 302.5625 859.707031 302.328125 860.070312 301.679688 C 860.457031 301.035156 860.871094 300.363281 861.261719 299.691406 C 862.21875 298.113281 863.148438 296.535156 864.105469 294.933594 C 865.242188 293.019531 866.40625 291.082031 867.570312 289.167969 C 868.554688 287.511719 869.5625 285.859375 870.542969 284.203125 C 871.035156 283.402344 871.527344 282.601562 871.992188 281.773438 L 872.019531 281.746094 C 872.25 281.152344 872.148438 280.375 871.578125 280.09375 C 870.984375 279.78125 870.257812 279.9375 869.898438 280.53125 C 869.507812 281.203125 869.097656 281.851562 868.707031 282.523438 C 867.75 284.101562 866.820312 285.675781 865.863281 287.253906 C 864.699219 289.167969 863.5625 291.082031 862.398438 293.019531 C 861.390625 294.675781 860.40625 296.328125 859.398438 297.984375 C 858.90625 298.785156 858.363281 299.585938 857.949219 300.414062 L 857.925781 300.441406 C 858.570312 300.363281 859.21875 300.285156 859.835938 300.183594 C 858 297.984375 856.140625 295.761719 854.328125 293.5625 C 854.042969 293.253906 853.8125 292.941406 853.554688 292.632812 C 853.140625 292.140625 852.261719 292.167969 851.820312 292.632812 C 851.382812 293.226562 851.40625 293.898438 851.847656 294.417969 Z M 851.847656 294.417969 " fill-opacity="1" fill-rule="nonzero"/><path fill="#cf361f" d="M 873.15625 256.820312 L 850.527344 256.820312 C 846.621094 256.820312 843.46875 253.667969 843.46875 249.789062 L 843.46875 227.167969 C 843.46875 223.261719 846.621094 220.109375 850.527344 220.109375 L 873.15625 220.109375 C 877.0625 220.109375 880.214844 223.261719 880.214844 227.167969 L 880.214844 249.789062 C 880.191406 253.667969 877.035156 256.820312 873.15625 256.820312 Z M 873.15625 256.820312 " fill-opacity="1" fill-rule="nonzero"/><path fill="#ffffff" d="M 851.847656 240.816406 C 853.683594 243.015625 855.542969 245.238281 857.382812 247.4375 C 857.640625 247.746094 857.898438 248.058594 858.15625 248.339844 C 858.675781 248.960938 859.707031 248.703125 860.070312 248.082031 C 860.457031 247.4375 860.871094 246.765625 861.261719 246.09375 C 862.21875 244.515625 863.148438 242.9375 864.105469 241.359375 C 865.242188 239.449219 866.40625 237.507812 867.570312 235.59375 C 868.554688 233.941406 869.5625 232.285156 870.542969 230.628906 C 871.035156 229.828125 871.527344 229.027344 871.992188 228.199219 L 872.019531 228.175781 C 872.328125 227.632812 872.148438 226.804688 871.578125 226.492188 C 870.984375 226.183594 870.257812 226.339844 869.898438 226.933594 C 869.507812 227.605469 869.097656 228.25 868.707031 228.925781 C 867.75 230.5 866.820312 232.078125 865.863281 233.65625 C 864.699219 235.570312 863.5625 237.507812 862.398438 239.421875 C 861.390625 241.078125 860.40625 242.730469 859.398438 244.386719 C 858.90625 245.1875 858.390625 245.988281 857.949219 246.816406 L 857.925781 246.84375 C 858.570312 246.765625 859.21875 246.6875 859.835938 246.609375 C 858 244.386719 856.140625 242.1875 854.328125 239.992188 C 854.042969 239.679688 853.8125 239.371094 853.554688 239.058594 C 853.140625 238.566406 852.261719 238.59375 851.820312 239.058594 C 851.382812 239.601562 851.40625 240.273438 851.847656 240.816406 Z M 851.847656 240.816406 " fill-opacity="1" fill-rule="nonzero"/></svg>