<svg xmlns="http://www.w3.org/2000/svg" xmlns:xlink="http://www.w3.org/1999/xlink" width="1920" zoomAndPan="magnify" viewBox="0 0 1440 809.999993" height="1080" preserveAspectRatio="xMidYMid meet" version="1.0"><path fill="#caddff" d="M 776.296875 0.191406 C 750.609375 0.152344 516.328125 3.765625 388.304688 198.953125 C 320.15625 302.851562 274.433594 472.753906 341.234375 565.324219 C 360.957031 592.664062 371.300781 586.648438 476.742188 651.355469 C 621.480469 740.175781 620.804688 763.042969 680.722656 783.367188 C 758.722656 809.828125 873.972656 809.769531 960.300781 744.800781 C 1058.257812 671.085938 1072.746094 548.589844 1087.253906 425.898438 C 1101.492188 305.484375 1115.917969 183.492188 1040.183594 93.640625 C 961.664062 0.492188 835.472656 0.285156 776.296875 0.191406 " fill-opacity="1" fill-rule="nonzero"/><path fill="#99b9ff" d="M 970.933594 665.609375 L 1069.582031 665.609375 C 1077.753906 665.609375 1084.382812 659.039062 1084.382812 650.9375 L 1084.382812 122.085938 C 1084.382812 113.058594 1076.996094 105.738281 1067.890625 105.738281 L 817.917969 105.738281 L 970.933594 665.609375 " fill-opacity="1" fill-rule="nonzero"/><path fill="#99b9ff" d="M 1084.382812 527.199219 L 1084.382812 117.363281 C 1084.382812 116.195312 1084.257812 115.058594 1084.03125 113.964844 L 1084.382812 527.199219 " fill-opacity="1" fill-rule="nonzero"/><path fill="#5479f7" d="M 1069.582031 667.050781 L 970.933594 667.050781 C 970.136719 667.050781 969.492188 666.402344 969.492188 665.609375 C 969.492188 664.808594 970.136719 664.160156 970.933594 664.160156 L 1069.582031 664.160156 C 1076.949219 664.160156 1082.941406 658.210938 1082.941406 650.894531 L 1082.941406 120.507812 C 1082.941406 112.261719 1076.191406 105.554688 1067.890625 105.554688 L 817.917969 105.554688 C 817.117188 105.554688 816.472656 104.910156 816.472656 104.109375 C 816.472656 103.316406 817.117188 102.664062 817.917969 102.664062 L 1067.890625 102.664062 C 1077.785156 102.664062 1085.828125 110.667969 1085.828125 120.507812 L 1085.828125 650.894531 C 1085.828125 659.804688 1078.539062 667.050781 1069.582031 667.050781 " fill-opacity="1" fill-rule="nonzero"/><path fill="#99b9ff" d="M 1084.035156 113.960938 C 1082.472656 106.480469 1075.835938 100.863281 1067.890625 100.863281 L 817.917969 100.863281 L 1084.035156 113.960938 " fill-opacity="1" fill-rule="nonzero"/><path fill="#ffffff" d="M 967.742188 689.804688 C 966.679688 695.140625 962 698.984375 956.5625 698.984375 L 380.148438 698.984375 C 372.96875 698.984375 367.578125 692.421875 368.972656 685.382812 L 483.582031 109.890625 C 484.636719 104.550781 489.316406 100.710938 494.757812 100.710938 L 1071.171875 100.710938 C 1078.351562 100.710938 1083.742188 107.269531 1082.347656 114.3125 L 967.742188 689.804688 " fill-opacity="1" fill-rule="nonzero"/><path fill="#000000" d="M 1013.332031 462.304688 C 1013.242188 462.304688 1013.148438 462.292969 1013.050781 462.273438 C 1012.269531 462.121094 1011.757812 461.359375 1011.917969 460.570312 L 1080.929688 114.027344 C 1081.507812 111.101562 1080.753906 108.097656 1078.859375 105.785156 C 1076.960938 103.476562 1074.160156 102.15625 1071.171875 102.15625 L 494.757812 102.15625 C 490.023438 102.15625 485.917969 105.527344 485 110.171875 L 445.011719 298.0625 C 444.847656 298.84375 444.078125 299.34375 443.300781 299.179688 C 442.519531 299.007812 442.019531 298.242188 442.1875 297.457031 L 482.167969 109.585938 C 483.347656 103.617188 488.644531 99.261719 494.757812 99.261719 L 1071.171875 99.261719 C 1075.027344 99.261719 1078.640625 100.96875 1081.09375 103.949219 C 1083.535156 106.929688 1084.511719 110.8125 1083.761719 114.597656 L 1014.75 461.140625 C 1014.613281 461.828125 1014.007812 462.304688 1013.332031 462.304688 " fill-opacity="1" fill-rule="nonzero"/><path fill="#caddff" d="M 458.894531 467.730469 L 470.960938 404.351562 L 537.785156 404.351562 L 525.71875 467.730469 L 458.894531 467.730469 " fill-opacity="1" fill-rule="nonzero"/><path fill="#caddff" d="M 534.070312 467.730469 L 546.136719 404.351562 L 612.964844 404.351562 L 600.898438 467.730469 L 534.070312 467.730469 " fill-opacity="1" fill-rule="nonzero"/><path fill="#caddff" d="M 609.25 467.730469 L 621.316406 404.351562 L 688.136719 404.351562 L 676.070312 467.730469 L 609.25 467.730469 " fill-opacity="1" fill-rule="nonzero"/><path fill="#caddff" d="M 684.425781 467.730469 L 696.492188 404.351562 L 763.316406 404.351562 L 751.253906 467.730469 L 684.425781 467.730469 " fill-opacity="1" fill-rule="nonzero"/><path fill="#caddff" d="M 759.605469 467.730469 L 771.671875 404.351562 L 838.496094 404.351562 L 826.429688 467.730469 L 759.605469 467.730469 " fill-opacity="1" fill-rule="nonzero"/><path fill="#99b9ff" d="M 834.78125 467.726562 L 846.847656 404.351562 L 913.671875 404.351562 L 901.609375 467.726562 L 834.78125 467.726562 " fill-opacity="1" fill-rule="nonzero"/><path fill="#99b9ff" d="M 909.960938 467.730469 L 922.027344 404.351562 L 988.851562 404.351562 L 976.78125 467.730469 L 909.960938 467.730469 " fill-opacity="1" fill-rule="nonzero"/><path fill="#caddff" d="M 445.527344 538.5625 L 457.59375 475.191406 L 524.417969 475.191406 L 512.355469 538.5625 L 445.527344 538.5625 " fill-opacity="1" fill-rule="nonzero"/><path fill="#caddff" d="M 520.707031 538.5625 L 532.773438 475.191406 L 599.597656 475.191406 L 587.53125 538.5625 L 520.707031 538.5625 " fill-opacity="1" fill-rule="nonzero"/><path fill="#caddff" d="M 595.882812 538.5625 L 607.949219 475.191406 L 674.773438 475.191406 L 662.707031 538.5625 L 595.882812 538.5625 " fill-opacity="1" fill-rule="nonzero"/><path fill="#caddff" d="M 671.0625 538.5625 L 683.128906 475.191406 L 749.953125 475.191406 L 737.886719 538.5625 L 671.0625 538.5625 " fill-opacity="1" fill-rule="nonzero"/><path fill="#caddff" d="M 746.238281 538.5625 L 758.304688 475.191406 L 825.128906 475.191406 L 813.066406 538.5625 L 746.238281 538.5625 " fill-opacity="1" fill-rule="nonzero"/><path fill="#99b9ff" d="M 821.421875 538.5625 L 833.484375 475.191406 L 900.3125 475.191406 L 888.238281 538.5625 L 821.421875 538.5625 " fill-opacity="1" fill-rule="nonzero"/><path fill="#99b9ff" d="M 896.59375 538.5625 L 908.660156 475.191406 L 975.484375 475.191406 L 963.421875 538.5625 L 896.59375 538.5625 " fill-opacity="1" fill-rule="nonzero"/><path fill="#caddff" d="M 485.621094 326.050781 L 497.691406 262.675781 L 564.511719 262.675781 L 552.449219 326.050781 L 485.621094 326.050781 " fill-opacity="1" fill-rule="nonzero"/><path fill="#caddff" d="M 560.832031 325.988281 L 572.902344 262.609375 L 639.722656 262.609375 L 627.660156 325.988281 L 560.832031 325.988281 " fill-opacity="1" fill-rule="nonzero"/><path fill="#caddff" d="M 635.976562 326.050781 L 648.042969 262.675781 L 714.867188 262.675781 L 702.804688 326.050781 L 635.976562 326.050781 " fill-opacity="1" fill-rule="nonzero"/><path fill="#caddff" d="M 711.15625 326.050781 L 723.222656 262.675781 L 790.046875 262.675781 L 777.980469 326.050781 L 711.15625 326.050781 " fill-opacity="1" fill-rule="nonzero"/><path fill="#caddff" d="M 786.332031 326.050781 L 798.402344 262.675781 L 865.226562 262.675781 L 853.160156 326.050781 L 786.332031 326.050781 " fill-opacity="1" fill-rule="nonzero"/><path fill="#99b9ff" d="M 861.515625 326.050781 L 873.578125 262.675781 L 940.40625 262.675781 L 928.335938 326.050781 L 861.515625 326.050781 " fill-opacity="1" fill-rule="nonzero"/><path fill="#99b9ff" d="M 936.691406 326.050781 L 948.757812 262.675781 L 1015.582031 262.675781 L 1003.511719 326.050781 L 936.691406 326.050781 " fill-opacity="1" fill-rule="nonzero"/><path fill="#caddff" d="M 472.257812 396.890625 L 484.324219 333.515625 L 551.148438 333.515625 L 539.082031 396.890625 L 472.257812 396.890625 " fill-opacity="1" fill-rule="nonzero"/><path fill="#caddff" d="M 547.4375 396.890625 L 559.5 333.515625 L 626.328125 333.515625 L 614.261719 396.890625 L 547.4375 396.890625 " fill-opacity="1" fill-rule="nonzero"/><path fill="#caddff" d="M 622.613281 396.890625 L 634.679688 333.515625 L 701.503906 333.515625 L 689.441406 396.890625 L 622.613281 396.890625 " fill-opacity="1" fill-rule="nonzero"/><path fill="#caddff" d="M 697.789062 396.890625 L 709.859375 333.515625 L 776.679688 333.515625 L 764.617188 396.890625 L 697.789062 396.890625 " fill-opacity="1" fill-rule="nonzero"/><path fill="#caddff" d="M 772.96875 396.890625 L 785.035156 333.515625 L 851.863281 333.515625 L 839.792969 396.890625 L 772.96875 396.890625 " fill-opacity="1" fill-rule="nonzero"/><path fill="#99b9ff" d="M 922.429688 396.890625 L 934.5 333.515625 L 1001.320312 333.515625 L 989.257812 396.890625 L 922.429688 396.890625 " fill-opacity="1" fill-rule="nonzero"/><path fill="#99b9ff" d="M 848.148438 396.890625 L 860.214844 333.511719 L 927.039062 333.511719 L 914.972656 396.890625 L 848.148438 396.890625 " fill-opacity="1" fill-rule="nonzero"/><path fill="#000000" d="M 605.222656 101.03125 C 604.425781 101.03125 603.777344 100.382812 603.777344 99.585938 C 603.777344 88.917969 600.316406 78.84375 593.773438 70.445312 C 593.28125 69.8125 593.394531 68.910156 594.027344 68.417969 C 594.65625 67.925781 595.5625 68.042969 596.054688 68.671875 C 602.996094 77.574219 606.667969 88.265625 606.667969 99.585938 C 606.667969 100.382812 606.019531 101.03125 605.222656 101.03125 " fill-opacity="1" fill-rule="nonzero"/><path fill="#000000" d="M 556.339844 149.917969 C 528.589844 149.917969 506.011719 127.339844 506.011719 99.585938 C 506.011719 71.835938 528.589844 49.257812 556.339844 49.257812 C 566.851562 49.257812 576.925781 52.46875 585.46875 58.535156 C 586.117188 59 586.269531 59.902344 585.808594 60.554688 C 585.34375 61.203125 584.441406 61.355469 583.792969 60.894531 C 575.742188 55.171875 566.25 52.148438 556.339844 52.148438 C 530.183594 52.148438 508.902344 73.425781 508.902344 99.585938 C 508.902344 125.742188 530.183594 147.027344 556.339844 147.027344 C 557.136719 147.027344 557.785156 147.675781 557.785156 148.472656 C 557.785156 149.269531 557.136719 149.917969 556.339844 149.917969 " fill-opacity="1" fill-rule="nonzero"/><path fill="#000000" d="M 670.707031 101.035156 C 669.914062 101.035156 669.261719 100.382812 669.261719 99.585938 C 669.261719 88.660156 665.652344 78.390625 658.816406 69.886719 C 658.320312 69.265625 658.421875 68.355469 659.039062 67.859375 C 659.664062 67.355469 660.570312 67.453125 661.074219 68.082031 C 668.21875 76.96875 672.15625 88.15625 672.15625 99.585938 C 672.15625 100.382812 671.507812 101.035156 670.707031 101.035156 " fill-opacity="1" fill-rule="nonzero"/><path fill="#000000" d="M 621.828125 149.917969 C 594.078125 149.917969 571.5 127.339844 571.5 99.585938 C 571.5 71.835938 594.078125 49.257812 621.828125 49.257812 C 631.761719 49.257812 641.363281 52.148438 649.605469 57.613281 C 650.273438 58.054688 650.453125 58.949219 650.011719 59.617188 C 649.570312 60.28125 648.675781 60.464844 648.007812 60.019531 C 640.238281 54.871094 631.1875 52.148438 621.828125 52.148438 C 595.671875 52.148438 574.390625 73.425781 574.390625 99.585938 C 574.390625 125.742188 595.671875 147.027344 621.828125 147.027344 C 622.625 147.027344 623.269531 147.675781 623.269531 148.472656 C 623.269531 149.269531 622.625 149.917969 621.828125 149.917969 " fill-opacity="1" fill-rule="nonzero"/><path fill="#000000" d="M 736.195312 101.03125 C 735.402344 101.03125 734.75 100.382812 734.75 99.589844 C 734.75 88.628906 730.933594 77.941406 723.992188 69.496094 C 723.484375 68.878906 723.570312 67.964844 724.183594 67.457031 C 724.804688 66.953125 725.71875 67.042969 726.21875 67.660156 C 733.585938 76.625 737.648438 87.960938 737.648438 99.589844 C 737.648438 100.382812 737 101.03125 736.195312 101.03125 " fill-opacity="1" fill-rule="nonzero"/><path fill="#000000" d="M 687.316406 149.917969 C 659.5625 149.917969 636.988281 127.339844 636.988281 99.585938 C 636.988281 71.835938 659.5625 49.257812 687.316406 49.257812 C 697.664062 49.257812 707.605469 52.375 716.0625 58.273438 C 716.714844 58.730469 716.882812 59.628906 716.417969 60.28125 C 715.96875 60.9375 715.066406 61.097656 714.410156 60.640625 C 706.4375 55.082031 697.070312 52.148438 687.316406 52.148438 C 661.15625 52.148438 639.878906 73.425781 639.878906 99.585938 C 639.878906 125.742188 661.15625 147.027344 687.316406 147.027344 C 688.113281 147.027344 688.757812 147.675781 688.757812 148.472656 C 688.757812 149.269531 688.113281 149.917969 687.316406 149.917969 " fill-opacity="1" fill-rule="nonzero"/><path fill="#000000" d="M 801.6875 101.035156 C 800.886719 101.035156 800.238281 100.382812 800.238281 99.585938 C 800.238281 88.476562 796.324219 77.671875 789.203125 69.164062 C 788.691406 68.554688 788.773438 67.640625 789.382812 67.128906 C 790 66.613281 790.90625 66.695312 791.417969 67.3125 C 798.972656 76.335938 803.128906 87.800781 803.128906 99.585938 C 803.128906 100.382812 802.484375 101.035156 801.6875 101.035156 " fill-opacity="1" fill-rule="nonzero"/><path fill="#000000" d="M 752.800781 149.917969 C 725.046875 149.917969 702.476562 127.339844 702.476562 99.585938 C 702.476562 71.835938 725.046875 49.257812 752.800781 49.257812 C 762.882812 49.257812 772.613281 52.230469 780.941406 57.851562 C 781.601562 58.300781 781.777344 59.195312 781.328125 59.859375 C 780.878906 60.519531 779.988281 60.695312 779.320312 60.25 C 771.480469 54.953125 762.304688 52.148438 752.800781 52.148438 C 726.644531 52.148438 705.367188 73.425781 705.367188 99.585938 C 705.367188 125.742188 726.644531 147.027344 752.800781 147.027344 C 753.601562 147.027344 754.25 147.675781 754.25 148.472656 C 754.25 149.269531 753.601562 149.917969 752.800781 149.917969 " fill-opacity="1" fill-rule="nonzero"/><path fill="#000000" d="M 867.171875 101.035156 C 866.375 101.035156 865.726562 100.390625 865.726562 99.589844 C 865.726562 88.765625 862.175781 78.574219 855.457031 70.109375 C 854.964844 69.488281 855.070312 68.578125 855.695312 68.082031 C 856.320312 67.585938 857.226562 67.6875 857.722656 68.3125 C 864.851562 77.289062 868.613281 88.105469 868.613281 99.589844 C 868.613281 100.390625 867.964844 101.035156 867.171875 101.035156 " fill-opacity="1" fill-rule="nonzero"/><path fill="#000000" d="M 818.285156 149.917969 C 790.539062 149.917969 767.960938 127.339844 767.960938 99.585938 C 767.960938 71.835938 790.539062 49.257812 818.285156 49.257812 C 828.335938 49.257812 838.035156 52.210938 846.335938 57.789062 C 847 58.234375 847.175781 59.132812 846.730469 59.796875 C 846.28125 60.460938 845.382812 60.636719 844.722656 60.1875 C 836.898438 54.929688 827.757812 52.148438 818.285156 52.148438 C 792.136719 52.148438 770.851562 73.425781 770.851562 99.585938 C 770.851562 125.742188 792.136719 147.027344 818.285156 147.027344 C 819.089844 147.027344 819.734375 147.675781 819.734375 148.472656 C 819.734375 149.269531 819.089844 149.917969 818.285156 149.917969 " fill-opacity="1" fill-rule="nonzero"/><path fill="#000000" d="M 932.660156 101.035156 C 931.859375 101.035156 931.214844 100.386719 931.214844 99.589844 C 931.214844 88.824219 927.699219 78.671875 921.046875 70.238281 C 920.550781 69.613281 920.660156 68.699219 921.285156 68.210938 C 921.910156 67.714844 922.820312 67.820312 923.3125 68.449219 C 930.375 77.402344 934.105469 88.167969 934.105469 99.589844 C 934.105469 100.386719 933.457031 101.035156 932.660156 101.035156 " fill-opacity="1" fill-rule="nonzero"/><path fill="#000000" d="M 883.777344 149.917969 C 856.03125 149.917969 833.453125 127.339844 833.453125 99.585938 C 833.453125 71.835938 856.03125 49.257812 883.777344 49.257812 C 893.589844 49.257812 903.105469 52.082031 911.277344 57.429688 C 911.949219 57.863281 912.136719 58.761719 911.695312 59.429688 C 911.261719 60.101562 910.363281 60.28125 909.703125 59.847656 C 901.992188 54.808594 893.035156 52.148438 883.777344 52.148438 C 857.621094 52.148438 836.34375 73.425781 836.34375 99.585938 C 836.34375 125.742188 857.621094 147.027344 883.777344 147.027344 C 884.574219 147.027344 885.226562 147.675781 885.226562 148.472656 C 885.226562 149.269531 884.574219 149.917969 883.777344 149.917969 " fill-opacity="1" fill-rule="nonzero"/><path fill="#000000" d="M 998.148438 101.03125 C 997.351562 101.03125 996.703125 100.382812 996.703125 99.585938 C 996.703125 88.691406 992.921875 78.046875 986.050781 69.628906 C 985.546875 69.007812 985.640625 68.097656 986.253906 67.59375 C 986.875 67.085938 987.78125 67.183594 988.28125 67.796875 C 995.574219 76.738281 999.59375 88.03125 999.59375 99.585938 C 999.59375 100.382812 998.949219 101.03125 998.148438 101.03125 " fill-opacity="1" fill-rule="nonzero"/><path fill="#000000" d="M 949.269531 149.917969 C 921.515625 149.917969 898.9375 127.339844 898.9375 99.585938 C 898.9375 71.835938 921.515625 49.257812 949.269531 49.257812 C 959.035156 49.257812 968.515625 52.0625 976.667969 57.363281 C 977.339844 57.796875 977.527344 58.695312 977.09375 59.363281 C 976.65625 60.035156 975.761719 60.222656 975.09375 59.785156 C 967.40625 54.792969 958.476562 52.148438 949.269531 52.148438 C 923.105469 52.148438 901.828125 73.425781 901.828125 99.585938 C 901.828125 125.742188 923.105469 147.027344 949.269531 147.027344 C 950.066406 147.027344 950.710938 147.675781 950.710938 148.472656 C 950.710938 149.269531 950.066406 149.917969 949.269531 149.917969 " fill-opacity="1" fill-rule="nonzero"/><path fill="#000000" d="M 1014.753906 149.921875 C 987.003906 149.921875 964.425781 127.339844 964.425781 99.589844 C 964.425781 71.839844 987.003906 49.261719 1014.753906 49.261719 C 1042.503906 49.261719 1065.078125 71.839844 1065.078125 99.589844 C 1065.078125 100.386719 1064.429688 101.035156 1063.632812 101.035156 C 1062.839844 101.035156 1062.191406 100.386719 1062.191406 99.589844 C 1062.191406 73.429688 1040.914062 52.152344 1014.753906 52.152344 C 988.597656 52.152344 967.3125 73.429688 967.3125 99.589844 C 967.3125 125.75 988.597656 147.027344 1014.753906 147.027344 C 1015.554688 147.027344 1016.195312 147.675781 1016.195312 148.476562 C 1016.195312 149.273438 1015.554688 149.921875 1014.753906 149.921875 " fill-opacity="1" fill-rule="nonzero"/><path fill="#99b9ff" d="M 557.28125 158.855469 C 554.34375 158.855469 551.519531 157.613281 549.53125 155.449219 C 548.992188 154.859375 549.03125 153.945312 549.621094 153.40625 C 550.210938 152.867188 551.125 152.90625 551.664062 153.492188 C 553.105469 155.0625 555.152344 155.960938 557.28125 155.960938 C 561.484375 155.960938 564.90625 152.539062 564.90625 148.339844 C 564.90625 144.140625 561.484375 140.714844 557.28125 140.714844 C 554.855469 140.714844 552.554688 141.886719 551.121094 143.84375 C 550.648438 144.492188 549.746094 144.628906 549.101562 144.15625 C 548.457031 143.6875 548.316406 142.78125 548.789062 142.136719 C 550.765625 139.4375 553.9375 137.824219 557.28125 137.824219 C 563.078125 137.824219 567.796875 142.539062 567.796875 148.339844 C 567.796875 154.140625 563.078125 158.855469 557.28125 158.855469 " fill-opacity="1" fill-rule="nonzero"/><path fill="#99b9ff" d="M 621.636719 158.855469 C 618.699219 158.855469 615.875 157.613281 613.886719 155.445312 C 613.351562 154.859375 613.390625 153.945312 613.980469 153.40625 C 614.566406 152.867188 615.480469 152.90625 616.019531 153.492188 C 617.460938 155.0625 619.511719 155.960938 621.636719 155.960938 C 625.839844 155.960938 629.261719 152.539062 629.261719 148.339844 C 629.261719 144.140625 625.839844 140.714844 621.636719 140.714844 C 619.210938 140.714844 616.914062 141.886719 615.480469 143.84375 C 615.007812 144.492188 614.101562 144.628906 613.460938 144.15625 C 612.816406 143.6875 612.671875 142.78125 613.144531 142.136719 C 615.121094 139.4375 618.292969 137.824219 621.636719 137.824219 C 627.433594 137.824219 632.152344 142.539062 632.152344 148.339844 C 632.152344 154.140625 627.433594 158.855469 621.636719 158.855469 " fill-opacity="1" fill-rule="nonzero"/><path fill="#99b9ff" d="M 685.992188 158.855469 C 683.054688 158.855469 680.230469 157.613281 678.246094 155.449219 C 677.703125 154.859375 677.742188 153.945312 678.335938 153.40625 C 678.921875 152.867188 679.839844 152.90625 680.375 153.492188 C 681.816406 155.0625 683.863281 155.960938 685.992188 155.960938 C 690.199219 155.960938 693.617188 152.539062 693.617188 148.339844 C 693.617188 144.140625 690.199219 140.714844 685.992188 140.714844 C 683.570312 140.714844 681.269531 141.886719 679.832031 143.84375 C 679.363281 144.492188 678.460938 144.628906 677.8125 144.15625 C 677.171875 143.6875 677.03125 142.78125 677.5 142.136719 C 679.476562 139.4375 682.652344 137.824219 685.992188 137.824219 C 691.789062 137.824219 696.503906 142.539062 696.503906 148.339844 C 696.503906 154.140625 691.789062 158.855469 685.992188 158.855469 " fill-opacity="1" fill-rule="nonzero"/><path fill="#99b9ff" d="M 752.195312 158.855469 C 749.261719 158.855469 746.4375 157.613281 744.449219 155.449219 C 743.910156 154.859375 743.945312 153.945312 744.535156 153.40625 C 745.128906 152.867188 746.039062 152.90625 746.574219 153.492188 C 748.019531 155.0625 750.066406 155.960938 752.195312 155.960938 C 756.398438 155.960938 759.816406 152.539062 759.816406 148.339844 C 759.816406 144.140625 756.398438 140.714844 752.195312 140.714844 C 749.773438 140.714844 747.46875 141.886719 746.039062 143.84375 C 745.566406 144.492188 744.664062 144.628906 744.019531 144.15625 C 743.375 143.6875 743.234375 142.78125 743.707031 142.136719 C 745.675781 139.4375 748.855469 137.824219 752.195312 137.824219 C 757.996094 137.824219 762.710938 142.539062 762.710938 148.339844 C 762.710938 154.140625 757.996094 158.855469 752.195312 158.855469 " fill-opacity="1" fill-rule="nonzero"/><path fill="#99b9ff" d="M 817.234375 158.855469 C 814.292969 158.855469 811.472656 157.613281 809.484375 155.449219 C 808.945312 154.859375 808.984375 153.945312 809.574219 153.40625 C 810.160156 152.867188 811.078125 152.90625 811.617188 153.492188 C 813.054688 155.0625 815.105469 155.960938 817.234375 155.960938 C 821.4375 155.960938 824.859375 152.539062 824.859375 148.339844 C 824.859375 144.140625 821.4375 140.714844 817.234375 140.714844 C 814.8125 140.714844 812.507812 141.886719 811.074219 143.84375 C 810.601562 144.492188 809.695312 144.628906 809.054688 144.15625 C 808.410156 143.6875 808.269531 142.78125 808.742188 142.136719 C 810.71875 139.4375 813.886719 137.824219 817.234375 137.824219 C 823.03125 137.824219 827.746094 142.539062 827.746094 148.339844 C 827.746094 154.140625 823.03125 158.855469 817.234375 158.855469 " fill-opacity="1" fill-rule="nonzero"/><path fill="#99b9ff" d="M 885.378906 158.855469 C 882.441406 158.855469 879.617188 157.613281 877.628906 155.449219 C 877.089844 154.859375 877.128906 153.945312 877.714844 153.40625 C 878.308594 152.867188 879.21875 152.90625 879.757812 153.492188 C 881.203125 155.0625 883.246094 155.960938 885.378906 155.960938 C 889.578125 155.960938 893.003906 152.539062 893.003906 148.339844 C 893.003906 144.140625 889.578125 140.714844 885.378906 140.714844 C 882.953125 140.714844 880.648438 141.886719 879.21875 143.84375 C 878.75 144.492188 877.839844 144.628906 877.199219 144.15625 C 876.554688 143.6875 876.410156 142.78125 876.882812 142.136719 C 878.863281 139.4375 882.035156 137.824219 885.378906 137.824219 C 891.175781 137.824219 895.890625 142.539062 895.890625 148.339844 C 895.890625 154.140625 891.175781 158.855469 885.378906 158.855469 " fill-opacity="1" fill-rule="nonzero"/><path fill="#99b9ff" d="M 949.734375 158.855469 C 946.796875 158.855469 943.972656 157.613281 941.980469 155.449219 C 941.445312 154.859375 941.484375 153.945312 942.070312 153.40625 C 942.660156 152.867188 943.574219 152.90625 944.117188 153.492188 C 945.554688 155.0625 947.605469 155.960938 949.734375 155.960938 C 953.933594 155.960938 957.359375 152.539062 957.359375 148.339844 C 957.359375 144.140625 953.933594 140.714844 949.734375 140.714844 C 947.308594 140.714844 945.007812 141.886719 943.574219 143.84375 C 943.101562 144.492188 942.199219 144.628906 941.554688 144.15625 C 940.914062 143.6875 940.769531 142.78125 941.242188 142.136719 C 943.21875 139.4375 946.386719 137.824219 949.734375 137.824219 C 955.53125 137.824219 960.246094 142.539062 960.246094 148.339844 C 960.246094 154.140625 955.53125 158.855469 949.734375 158.855469 " fill-opacity="1" fill-rule="nonzero"/><path fill="#99b9ff" d="M 1014.09375 158.847656 C 1011.15625 158.847656 1008.335938 157.609375 1006.347656 155.445312 C 1005.808594 154.855469 1005.84375 153.945312 1006.4375 153.402344 C 1007.019531 152.863281 1007.9375 152.902344 1008.476562 153.488281 C 1009.914062 155.0625 1011.964844 155.964844 1014.09375 155.964844 C 1018.296875 155.964844 1021.71875 152.539062 1021.71875 148.335938 C 1021.71875 144.132812 1018.296875 140.710938 1014.09375 140.710938 C 1011.671875 140.710938 1009.367188 141.882812 1007.9375 143.84375 C 1007.460938 144.488281 1006.5625 144.625 1005.914062 144.15625 C 1005.273438 143.683594 1005.136719 142.777344 1005.601562 142.136719 C 1007.578125 139.433594 1010.75 137.820312 1014.09375 137.820312 C 1019.894531 137.820312 1024.609375 142.539062 1024.609375 148.335938 C 1024.609375 154.136719 1019.894531 158.847656 1014.09375 158.847656 " fill-opacity="1" fill-rule="nonzero"/><path fill="#5479f7" d="M 734.269531 379.042969 C 733.835938 379.042969 733.40625 379 732.96875 378.917969 C 730.484375 378.449219 728.441406 376.699219 727.605469 374.320312 L 720.214844 355.035156 C 719.261719 352.546875 720.503906 349.765625 722.988281 348.8125 C 725.472656 347.855469 728.257812 349.097656 729.210938 351.585938 L 734.820312 366.21875 L 752.234375 338.414062 C 753.648438 336.160156 756.621094 335.476562 758.875 336.890625 C 761.132812 338.300781 761.8125 341.277344 760.402344 343.53125 L 739.921875 376.222656 L 739.726562 376.460938 C 738.371094 378.109375 736.359375 379.042969 734.269531 379.042969 " fill-opacity="1" fill-rule="nonzero"/><path fill="#000000" d="M 343.171875 224.066406 C 342.996094 224.066406 342.820312 224.035156 342.648438 223.964844 C 341.902344 223.675781 341.535156 222.835938 341.824219 222.09375 C 364.074219 165.019531 402.394531 116.085938 452.636719 80.585938 C 454.542969 79.234375 456.507812 77.878906 458.46875 76.558594 C 459.125 76.113281 460.027344 76.285156 460.472656 76.949219 C 460.917969 77.609375 460.746094 78.507812 460.082031 78.957031 C 458.140625 80.265625 456.195312 81.605469 454.304688 82.941406 C 404.523438 118.121094 366.5625 166.601562 344.519531 223.140625 C 344.296875 223.714844 343.75 224.066406 343.171875 224.066406 " fill-opacity="1" fill-rule="nonzero"/><path fill="#000000" d="M 340.203125 232 C 340.039062 232 339.875 231.972656 339.714844 231.914062 C 338.964844 231.648438 338.574219 230.820312 338.84375 230.066406 C 339.785156 227.4375 340.789062 224.753906 341.824219 222.089844 C 342.117188 221.347656 342.960938 220.984375 343.699219 221.273438 C 344.441406 221.5625 344.808594 222.398438 344.519531 223.144531 C 343.492188 225.78125 342.496094 228.4375 341.5625 231.042969 C 341.351562 231.636719 340.796875 232 340.203125 232 " fill-opacity="1" fill-rule="nonzero"/><path fill="#000000" d="M 321.828125 221.0625 C 321.675781 221.0625 321.515625 221.039062 321.363281 220.984375 C 320.605469 220.730469 320.203125 219.90625 320.460938 219.152344 C 332.554688 183.738281 352.1875 150.199219 378.816406 119.464844 C 403.851562 90.5625 435.113281 64.078125 471.726562 40.734375 C 472.398438 40.308594 473.289062 40.503906 473.722656 41.175781 C 474.148438 41.847656 473.953125 42.742188 473.28125 43.171875 C 398.292969 90.980469 346.394531 152.15625 323.195312 220.082031 C 322.992188 220.6875 322.429688 221.0625 321.828125 221.0625 " fill-opacity="1" fill-rule="nonzero"/><path fill="#000000" d="M 333.828125 240.523438 L 338.011719 250.230469 L 343.226562 243.234375 Z M 337.675781 254.542969 C 337.617188 254.542969 337.5625 254.539062 337.503906 254.535156 C 336.992188 254.472656 336.550781 254.144531 336.34375 253.667969 L 329.960938 238.859375 C 329.742188 238.347656 329.835938 237.753906 330.207031 237.335938 C 330.574219 236.914062 331.152344 236.746094 331.691406 236.898438 L 346.035156 241.035156 C 346.492188 241.167969 346.851562 241.515625 347.003906 241.96875 C 347.15625 242.414062 347.074219 242.910156 346.792969 243.292969 L 338.832031 253.964844 C 338.558594 254.332031 338.125 254.542969 337.675781 254.542969 " fill-opacity="1" fill-rule="nonzero"/><path fill="#5479f7" d="M 375.476562 629.09375 L 372.335938 665.011719 C 370.414062 686.980469 362.21875 707.941406 348.722656 725.390625 C 337.453125 739.960938 329.644531 756.636719 325.582031 774.175781 C 323.21875 784.378906 331.003906 794.117188 341.476562 794.117188 L 528.957031 794.117188 L 530.726562 793.75 L 542.339844 793.265625 C 543.285156 793.265625 543.582031 790.5 543.496094 789.558594 C 542.398438 777.164062 535.796875 702.601562 534.304688 682.746094 C 532.679688 661.070312 544.910156 549.539062 532.21875 521.890625 C 522.960938 501.730469 500.847656 495.875 486.671875 491.34375 C 475.960938 500.757812 467.445312 508.546875 452.066406 508.546875 C 433.351562 508.546875 418.164062 498.671875 407.007812 485.375 C 393.773438 488.597656 381.402344 493.824219 373.164062 497.265625 C 353.753906 505.367188 341.585938 525.089844 343.539062 546.03125 C 347.101562 584.308594 375.476562 629.09375 375.476562 629.09375 " fill-opacity="1" fill-rule="nonzero"/><path fill="#ffffff" d="M 563.601562 683.058594 C 563.601562 683.058594 587.902344 675.785156 604.21875 681.285156 C 604.21875 681.285156 606.171875 691.75 613.089844 696.714844 C 620.003906 701.683594 637.390625 704.699219 640.226562 714.8125 C 643.066406 724.925781 607.589844 732.726562 595.351562 727.050781 C 583.113281 721.375 572.472656 708.25 560.585938 708.25 C 548.703125 708.25 563.601562 683.058594 563.601562 683.058594 " fill-opacity="1" fill-rule="nonzero"/><path fill="#000000" d="M 564.554688 684.292969 C 560.773438 690.824219 555.832031 701.972656 557.914062 705.621094 C 558.203125 706.128906 558.792969 706.800781 560.585938 706.800781 C 568.421875 706.800781 575.394531 711.90625 582.773438 717.300781 C 587.03125 720.421875 591.433594 723.640625 595.957031 725.742188 C 604.878906 729.871094 628.90625 726.207031 636.769531 719.511719 C 638.527344 718.019531 639.222656 716.570312 638.835938 715.199219 C 637.105469 709.046875 628.929688 705.609375 621.71875 702.578125 C 618.070312 701.046875 614.621094 699.597656 612.246094 697.894531 C 606.050781 693.441406 603.628906 685.109375 602.988281 682.40625 C 588.628906 678.007812 568.132812 683.300781 564.554688 684.292969 Z M 607.035156 730.402344 C 602.148438 730.402344 597.765625 729.761719 594.742188 728.363281 C 589.957031 726.144531 585.4375 722.832031 581.066406 719.640625 C 574.078125 714.523438 567.476562 709.691406 560.585938 709.691406 C 557.546875 709.691406 556.089844 708.257812 555.402344 707.050781 C 551.742188 700.632812 561.261719 684.179688 562.359375 682.324219 C 562.542969 682.011719 562.839844 681.78125 563.1875 681.671875 C 564.199219 681.371094 588.121094 674.332031 604.683594 679.917969 C 605.175781 680.082031 605.542969 680.507812 605.640625 681.019531 C 605.660156 681.117188 607.582031 690.980469 613.933594 695.542969 C 616.042969 697.058594 619.34375 698.449219 622.839844 699.914062 C 630.652344 703.195312 639.515625 706.921875 641.621094 714.421875 C 642.113281 716.171875 641.992188 718.859375 638.640625 721.714844 C 632.472656 726.96875 618.382812 730.402344 607.035156 730.402344 " fill-opacity="1" fill-rule="nonzero"/><path fill="#5479f7" d="M 406.597656 543.328125 L 431.179688 608.984375 C 436.261719 622.566406 446.953125 633.285156 460.515625 638.402344 L 565.527344 678.03125 L 561.15625 714.988281 C 561.15625 714.988281 421.601562 694.75 398.25 675.644531 C 376.398438 657.765625 351.761719 579.09375 351.761719 579.09375 L 406.597656 543.328125 " fill-opacity="1" fill-rule="nonzero"/><path fill="#caddff" d="M 529.71875 713.238281 C 529.621094 713.238281 529.523438 713.230469 529.421875 713.207031 C 525.769531 712.445312 521.957031 711.660156 518.027344 710.851562 C 473.421875 701.644531 412.335938 689.039062 397.335938 676.765625 C 392.441406 672.761719 386.140625 664.941406 380.046875 655.308594 C 379.621094 654.636719 379.820312 653.746094 380.496094 653.316406 C 381.167969 652.890625 382.0625 653.09375 382.488281 653.765625 C 388.421875 663.144531 394.5 670.710938 399.167969 674.527344 C 413.617188 686.351562 474.300781 698.875 518.609375 708.019531 C 522.542969 708.832031 526.355469 709.617188 530.011719 710.378906 C 530.792969 710.539062 531.296875 711.304688 531.132812 712.085938 C 530.992188 712.769531 530.390625 713.238281 529.71875 713.238281 " fill-opacity="1" fill-rule="nonzero"/><path fill="#caddff" d="M 527.253906 663.203125 C 527.09375 663.203125 526.933594 663.175781 526.777344 663.121094 L 460.039062 639.765625 C 446.054688 634.492188 435.054688 623.460938 429.824219 609.492188 L 405.242188 543.835938 C 404.960938 543.089844 405.339844 542.257812 406.089844 541.976562 C 406.839844 541.699219 407.667969 542.074219 407.949219 542.820312 L 432.53125 608.480469 C 437.46875 621.664062 447.855469 632.078125 461.023438 637.046875 L 527.730469 660.390625 C 528.484375 660.65625 528.882812 661.480469 528.617188 662.234375 C 528.410156 662.828125 527.851562 663.203125 527.253906 663.203125 " fill-opacity="1" fill-rule="nonzero"/><path fill="#caddff" d="M 528.652344 786.261719 C 528.011719 786.261719 527.429688 785.832031 527.257812 785.1875 L 527.140625 784.742188 C 519.839844 756.96875 512.941406 730.734375 509.636719 708.753906 C 509.519531 707.964844 510.0625 707.226562 510.851562 707.109375 C 511.636719 706.988281 512.375 707.53125 512.496094 708.324219 C 515.777344 730.148438 522.652344 756.3125 529.9375 784.007812 L 530.054688 784.449219 C 530.257812 785.222656 529.796875 786.011719 529.023438 786.214844 C 528.898438 786.246094 528.777344 786.261719 528.652344 786.261719 " fill-opacity="1" fill-rule="nonzero"/><path fill="#caddff" d="M 504.796875 654.582031 C 504.039062 654.582031 503.402344 653.992188 503.355469 653.222656 C 500.679688 608.46875 505.601562 587.675781 505.8125 586.808594 C 506 586.035156 506.777344 585.558594 507.558594 585.75 C 508.332031 585.9375 508.808594 586.722656 508.621094 587.496094 C 508.570312 587.703125 503.59375 608.808594 506.242188 653.054688 C 506.289062 653.847656 505.679688 654.535156 504.882812 654.582031 C 504.855469 654.582031 504.824219 654.582031 504.796875 654.582031 " fill-opacity="1" fill-rule="nonzero"/><path fill="#caddff" d="M 457.882812 588.164062 C 457.519531 588.164062 457.160156 588.03125 456.878906 587.757812 C 456.304688 587.207031 456.289062 586.292969 456.84375 585.714844 C 461.976562 580.402344 464.800781 573.402344 464.800781 566.007812 C 464.800781 561.046875 463.5 556.164062 461.042969 551.882812 C 460.644531 551.191406 460.882812 550.308594 461.574219 549.910156 C 462.265625 549.515625 463.148438 549.75 463.546875 550.445312 C 466.257812 555.15625 467.691406 560.539062 467.691406 566.007812 C 467.691406 574.152344 464.578125 581.863281 458.921875 587.722656 C 458.640625 588.015625 458.261719 588.164062 457.882812 588.164062 " fill-opacity="1" fill-rule="nonzero"/><path fill="#caddff" d="M 507.527344 588.261719 C 507.167969 588.261719 506.804688 588.125 506.523438 587.851562 C 505.949219 587.296875 505.933594 586.386719 506.488281 585.808594 C 513.019531 579.046875 516.617188 570.136719 516.617188 560.730469 C 516.617188 554.410156 514.960938 548.199219 511.832031 542.753906 C 511.433594 542.058594 511.671875 541.175781 512.363281 540.78125 C 513.054688 540.382812 513.9375 540.621094 514.335938 541.3125 C 517.71875 547.195312 519.503906 553.90625 519.503906 560.730469 C 519.503906 570.894531 515.621094 580.511719 508.566406 587.820312 C 508.285156 588.109375 507.90625 588.261719 507.527344 588.261719 " fill-opacity="1" fill-rule="nonzero"/><path fill="#ffffff" d="M 497.910156 407.253906 C 497.699219 404.933594 486.546875 400.09375 484.019531 397.148438 C 481.492188 394.203125 481.914062 389.777344 480.441406 385.777344 C 478.96875 381.777344 473.425781 376.902344 473.425781 376.902344 C 442.460938 339.476562 407.5625 380.851562 407.5625 380.851562 C 400.175781 391.167969 402.824219 406.339844 406.5 414.957031 C 413.617188 431.640625 433.179688 443.386719 433.179688 443.386719 C 433.382812 444.234375 433.558594 445.066406 433.703125 445.878906 C 436.492188 461.558594 423.851562 483.628906 408.375 487.371094 C 408.230469 487.40625 408.097656 487.445312 407.953125 487.480469 C 417.980469 499.429688 433.015625 507.039062 449.835938 507.039062 C 463.65625 507.039062 476.242188 501.871094 485.867188 493.410156 C 481.136719 491.898438 476.707031 490.300781 473.035156 487.824219 C 459.480469 478.691406 469.074219 449.355469 472.441406 446.617188 C 475.808594 443.882812 491.609375 448.558594 495.058594 444.078125 C 500.140625 437.46875 492.648438 417.777344 492.648438 415.882812 C 492.648438 414.984375 493.882812 413.511719 495.15625 411.972656 C 496.566406 410.261719 498.023438 408.464844 497.910156 407.253906 " fill-opacity="1" fill-rule="nonzero"/><path fill="#000000" d="M 496.503906 407.523438 Z M 410.550781 488.25 C 420.640625 499.300781 434.832031 505.597656 449.835938 505.597656 C 461.867188 505.597656 473.527344 501.488281 482.945312 493.972656 C 479.332031 492.742188 475.488281 491.222656 472.230469 489.023438 C 467.570312 485.882812 464.933594 480.183594 464.589844 472.539062 C 464.066406 460.8125 468.90625 447.628906 471.53125 445.492188 C 473.453125 443.929688 477.480469 444.179688 482.136719 444.460938 C 486.734375 444.742188 492.457031 445.085938 493.910156 443.195312 C 497.445312 438.601562 493.707031 425.363281 492.113281 419.714844 C 491.464844 417.425781 491.203125 416.472656 491.203125 415.882812 C 491.203125 414.554688 492.242188 413.234375 493.9375 411.175781 L 494.042969 411.050781 C 494.753906 410.1875 496.390625 408.207031 496.46875 407.460938 C 495.929688 406.546875 492.441406 404.480469 490.117188 403.097656 C 487.078125 401.292969 484.210938 399.589844 482.921875 398.089844 C 481.101562 395.964844 480.613281 393.273438 480.144531 390.679688 C 479.878906 389.207031 479.601562 387.683594 479.085938 386.28125 C 477.757812 382.671875 472.523438 378.03125 472.472656 377.988281 C 472.414062 377.933594 472.359375 377.882812 472.3125 377.820312 C 464.039062 367.824219 454.738281 362.726562 444.671875 362.679688 C 444.621094 362.679688 444.574219 362.679688 444.527344 362.679688 C 425.441406 362.679688 409.554688 380.757812 408.703125 381.742188 C 401.398438 392.003906 404.714844 407.089844 407.828125 414.390625 C 414.679688 430.457031 433.730469 442.03125 433.925781 442.148438 C 434.253906 442.347656 434.492188 442.671875 434.585938 443.046875 C 434.789062 443.894531 434.972656 444.757812 435.125 445.625 C 438.050781 462.09375 425.621094 483.226562 410.550781 488.25 Z M 449.835938 508.488281 C 433.222656 508.488281 417.550781 501.167969 406.847656 488.40625 C 406.527344 488.023438 406.425781 487.503906 406.582031 487.023438 C 406.734375 486.554688 407.125 486.191406 407.613281 486.070312 L 408.042969 485.96875 C 422.351562 482.503906 435.039062 461.65625 432.28125 446.132812 C 432.171875 445.519531 432.046875 444.910156 431.910156 444.300781 C 428.644531 442.25 411.8125 431.101562 405.171875 415.527344 C 401.8125 407.652344 398.289062 391.316406 406.390625 380.007812 C 406.410156 379.976562 406.433594 379.945312 406.460938 379.917969 C 407.152344 379.09375 423.683594 359.789062 444.523438 359.789062 C 444.578125 359.789062 444.628906 359.789062 444.683594 359.789062 C 455.617188 359.839844 465.640625 365.261719 474.46875 375.894531 C 475.230469 376.574219 480.300781 381.226562 481.796875 385.28125 C 482.398438 386.917969 482.699219 388.566406 482.988281 390.164062 C 483.425781 392.585938 483.804688 394.679688 485.117188 396.207031 C 486.09375 397.347656 489.015625 399.082031 491.59375 400.609375 C 496.570312 403.566406 499.175781 405.195312 499.351562 407.121094 C 499.503906 408.824219 498.171875 410.585938 496.273438 412.890625 L 496.164062 413.015625 C 495.375 413.976562 494.183594 415.421875 494.089844 415.929688 C 494.121094 416.191406 494.515625 417.582031 494.894531 418.925781 C 496.898438 426.015625 500.621094 439.214844 496.203125 444.957031 C 493.8125 448.066406 487.789062 447.699219 481.960938 447.347656 C 478.59375 447.136719 474.402344 446.886719 473.351562 447.738281 C 471.726562 449.0625 466.976562 461.175781 467.476562 472.410156 C 467.78125 479.199219 469.921875 483.984375 473.84375 486.628906 C 477.175781 488.875 481.238281 490.414062 486.308594 492.035156 C 486.804688 492.191406 487.175781 492.605469 487.285156 493.117188 C 487.390625 493.625 487.214844 494.152344 486.824219 494.496094 C 476.558594 503.519531 463.421875 508.488281 449.835938 508.488281 " fill-opacity="1" fill-rule="nonzero"/><path fill="#000000" d="M 307.691406 389.773438 C 307.691406 362.382812 308.050781 337.800781 331.3125 326.890625 C 340.113281 322.765625 353.320312 316.082031 363.683594 316.082031 C 401.4375 316.082031 432.046875 346.6875 432.046875 384.445312 C 432.046875 422.203125 401.4375 452.808594 363.683594 452.808594 C 346.15625 452.808594 335.855469 442.664062 323.753906 431.816406 C 309.792969 419.300781 307.691406 410 307.691406 389.773438 " fill-opacity="1" fill-rule="nonzero"/><path fill="#000000" d="M 476.878906 372.613281 C 448.464844 341.527344 422.289062 360.71875 411.582031 371.425781 C 407.21875 375.789062 403.8125 381.066406 402.085938 386.984375 C 398.699219 398.609375 401.9375 408.777344 404.96875 415.886719 C 410.890625 429.761719 425.011719 440.382812 430.621094 444.203125 C 432 445.136719 433.839844 444.988281 435.070312 443.863281 C 438.363281 440.871094 441.113281 438.011719 443.429688 435.28125 C 444.53125 433.984375 444.214844 432.027344 442.746094 431.164062 C 442.347656 430.929688 441.953125 430.671875 441.566406 430.386719 C 436.421875 426.570312 434.953125 419.824219 438.292969 415.320312 C 441.628906 410.8125 448.511719 410.253906 453.65625 414.066406 C 454.015625 414.332031 454.347656 414.613281 454.667969 414.90625 C 457.238281 405.519531 456.34375 397.8125 459.851562 390.609375 C 464.828125 380.378906 473.792969 378.871094 478.09375 378.769531 C 479.90625 376.605469 476.878906 372.613281 476.878906 372.613281 " fill-opacity="1" fill-rule="nonzero"/><path fill="#ffffff" d="M 645.867188 684.84375 C 645.867188 684.84375 611.140625 673.996094 607.769531 674.53125 C 604.398438 675.066406 600.140625 681.09375 591.625 685.351562 C 583.113281 689.609375 576.726562 692.09375 578.5 695.816406 C 580.078125 699.132812 595.671875 698.65625 606.839844 694.402344 C 609.089844 693.539062 611.65625 694.253906 613.183594 696.113281 C 616.917969 700.664062 634.097656 709.34375 649.664062 709.832031 L 645.867188 684.84375 " fill-opacity="1" fill-rule="nonzero"/><path fill="#000000" d="M 608.8125 692.589844 C 610.886719 692.589844 612.914062 693.511719 614.300781 695.195312 C 617.734375 699.378906 633.582031 707.273438 647.96875 708.296875 L 644.570312 685.953125 C 628.28125 680.882812 610.140625 675.699219 607.984375 675.960938 C 606.789062 676.148438 605.003906 677.621094 602.949219 679.328125 C 600.253906 681.554688 596.902344 684.328125 592.273438 686.644531 C 591.226562 687.167969 590.210938 687.664062 589.242188 688.140625 C 582.808594 691.289062 578.910156 693.316406 579.808594 695.195312 C 580.738281 697.011719 594.457031 697.570312 606.320312 693.050781 C 607.136719 692.738281 607.980469 692.589844 608.8125 692.589844 Z M 649.664062 711.273438 C 649.648438 711.273438 649.636719 711.273438 649.617188 711.273438 C 633.417969 710.765625 615.847656 701.632812 612.066406 697.03125 C 610.914062 695.628906 609.019531 695.113281 607.355469 695.746094 C 597.398438 699.542969 579.558594 701.398438 577.195312 696.4375 C 575.027344 691.878906 580.453125 689.21875 587.96875 685.542969 C 588.933594 685.070312 589.941406 684.578125 590.980469 684.058594 C 595.316406 681.890625 598.523438 679.234375 601.101562 677.101562 C 603.6875 674.964844 605.550781 673.417969 607.542969 673.105469 C 611 672.578125 638.078125 680.898438 646.296875 683.464844 C 646.824219 683.628906 647.210938 684.078125 647.296875 684.625 L 651.09375 709.613281 C 651.15625 710.039062 651.027344 710.46875 650.746094 710.789062 C 650.46875 711.101562 650.074219 711.273438 649.664062 711.273438 " fill-opacity="1" fill-rule="nonzero"/><path fill="#000000" d="M 1024.421875 520.511719 C 997.609375 481.082031 910.609375 463.660156 910.535156 463.636719 C 903.988281 468.023438 863.34375 470.792969 855.644531 467.191406 C 854.886719 467.621094 783.472656 488.535156 762.125 517.40625 C 743.175781 543.035156 747.964844 628.082031 729.644531 643.875 C 712.460938 658.695312 645.042969 681.070312 645.042969 681.070312 L 649.949219 716.558594 C 649.949219 716.558594 747.910156 707.21875 754.769531 705.84375 C 761.628906 704.472656 786.320312 698.984375 791.804688 677.953125 C 793.378906 671.90625 795.679688 659.542969 798.148438 645.007812 L 814.074219 758.917969 L 815.339844 781.699219 C 815.554688 785.574219 818.199219 788.910156 821.941406 789.941406 C 847.636719 797.03125 889.648438 796.542969 919.089844 793.617188 C 928.199219 792.714844 937.089844 790.289062 945.425781 786.5 L 960.261719 779.753906 C 963.59375 778.238281 965.832031 775.03125 966.117188 771.386719 L 979.746094 593.238281 C 979.746094 593.238281 982.863281 601.335938 987.378906 613.671875 C 1005.578125 663.429688 1034.382812 535.15625 1024.421875 520.511719 " fill-opacity="1" fill-rule="nonzero"/><path fill="#caddff" d="M 799.289062 657.769531 C 798.546875 657.769531 797.917969 657.203125 797.851562 656.449219 C 796.015625 635.214844 792.238281 616.492188 787.863281 594.808594 C 786.597656 588.519531 785.28125 582.011719 783.941406 575.09375 C 783.792969 574.304688 784.304688 573.550781 785.089844 573.394531 C 785.875 573.246094 786.628906 573.761719 786.785156 574.542969 C 788.117188 581.453125 789.429688 587.949219 790.695312 594.238281 C 795.089844 616.007812 798.882812 634.804688 800.734375 656.199219 C 800.796875 656.996094 800.210938 657.695312 799.417969 657.765625 C 799.375 657.765625 799.335938 657.769531 799.289062 657.769531 " fill-opacity="1" fill-rule="nonzero"/><path fill="#caddff" d="M 872.828125 619.878906 C 872.242188 619.878906 871.6875 619.515625 871.472656 618.929688 L 854.882812 573.734375 C 854.605469 572.984375 854.992188 572.15625 855.746094 571.882812 C 856.488281 571.605469 857.320312 571.988281 857.597656 572.738281 L 874.183594 617.9375 C 874.460938 618.683594 874.074219 619.515625 873.328125 619.789062 C 873.160156 619.851562 872.996094 619.878906 872.828125 619.878906 " fill-opacity="1" fill-rule="nonzero"/><path fill="#000000" d="M 843.980469 380.191406 L 843.992188 380.191406 Z M 843.128906 367.628906 C 842.324219 367.628906 841.238281 368.121094 840.078125 369.027344 C 838.210938 370.5 836.398438 372.84375 834.988281 375.617188 C 833.574219 378.394531 832.753906 381.234375 832.667969 383.613281 C 832.597656 385.550781 833.042969 386.953125 833.863281 387.371094 C 835.472656 388.191406 839.609375 385.601562 842.695312 379.535156 C 844.105469 376.757812 844.929688 373.917969 845.015625 371.535156 C 845.085938 369.601562 844.640625 368.195312 843.816406 367.777344 C 843.621094 367.679688 843.386719 367.628906 843.128906 367.628906 Z M 834.53125 390.410156 C 833.832031 390.410156 833.164062 390.257812 832.550781 389.949219 C 830.648438 388.976562 829.664062 386.695312 829.777344 383.511719 C 829.875 380.71875 830.8125 377.449219 832.414062 374.304688 C 834.007812 371.164062 836.097656 368.484375 838.296875 366.753906 C 840.796875 364.789062 843.222656 364.234375 845.128906 365.207031 C 847.03125 366.171875 848.019531 368.457031 847.90625 371.640625 C 847.804688 374.433594 846.867188 377.699219 845.269531 380.847656 C 842.289062 386.714844 838 390.410156 834.53125 390.410156 " fill-opacity="1" fill-rule="nonzero"/><path fill="#ffffff" d="M 879.402344 482.675781 C 887.371094 482.675781 895.03125 481.382812 902.214844 479.039062 C 908.707031 476.925781 914.816406 473.96875 920.382812 470.242188 C 896.167969 461.742188 904.695312 424.882812 904.695312 424.882812 C 922.984375 384.601562 908.757812 358.9375 887.15625 353.597656 C 856.480469 346.023438 852.59375 363.839844 852.59375 363.839844 C 850.269531 368.625 844.847656 379.78125 842.75 381.0625 C 840.175781 382.640625 834.023438 384.214844 833.023438 385.5 C 832.023438 386.789062 832.597656 390.933594 836.453125 394.511719 C 836.453125 394.511719 825.296875 417.828125 829.019531 424.839844 C 832.738281 431.851562 859.203125 437.710938 859.203125 437.710938 C 859.203125 437.710938 865.421875 466.03125 848.222656 475.734375 C 854.761719 478.792969 861.808594 480.933594 869.222656 481.957031 C 872.550781 482.417969 875.945312 482.675781 879.402344 482.675781 " fill-opacity="1" fill-rule="nonzero"/><path fill="#000000" d="M 851.238281 475.5 C 857.078125 477.972656 863.179688 479.664062 869.421875 480.523438 C 872.792969 480.992188 876.148438 481.226562 879.402344 481.226562 C 886.984375 481.226562 894.507812 480.03125 901.769531 477.664062 C 907.242188 475.882812 912.449219 473.484375 917.269531 470.519531 C 895.363281 460.050781 903.207031 424.925781 903.289062 424.554688 C 903.308594 424.464844 903.34375 424.375 903.378906 424.285156 C 912.617188 403.9375 914.140625 385.375 907.675781 372.011719 C 903.464844 363.328125 896.050781 357.285156 886.8125 355 C 875.386719 352.175781 866.199219 352.648438 860.230469 356.363281 C 855.054688 359.589844 854.019531 364.101562 854.007812 364.144531 C 853.984375 364.257812 853.941406 364.367188 853.898438 364.476562 C 848.195312 376.21875 845.285156 381.210938 843.507812 382.292969 C 842.238281 383.074219 840.296875 383.808594 838.425781 384.507812 C 836.894531 385.085938 834.585938 385.953125 834.15625 386.402344 C 833.769531 386.957031 834.019531 390.285156 837.441406 393.449219 C 837.902344 393.882812 838.035156 394.5625 837.765625 395.132812 C 834.75 401.4375 827.527344 418.941406 830.300781 424.160156 C 833.089844 429.429688 852.332031 434.710938 859.515625 436.300781 C 860.066406 436.421875 860.496094 436.855469 860.617188 437.402344 C 860.871094 438.550781 866.328125 464.355469 851.238281 475.5 Z M 879.402344 484.121094 C 876.015625 484.121094 872.53125 483.871094 869.027344 483.390625 C 861.632812 482.367188 854.429688 480.234375 847.613281 477.046875 C 847.125 476.816406 846.800781 476.335938 846.78125 475.792969 C 846.757812 475.253906 847.042969 474.742188 847.511719 474.476562 C 861.921875 466.351562 858.800781 443.691406 857.960938 438.914062 C 852.679688 437.683594 831.378906 432.367188 827.746094 425.511719 C 824.105469 418.671875 832.453125 399.699219 834.71875 394.816406 C 831.203125 391.097656 830.363281 386.574219 831.886719 384.609375 C 832.652344 383.625 834.394531 382.933594 837.410156 381.804688 C 839.152344 381.148438 840.957031 380.464844 842 379.832031 C 842.808594 379.320312 845.0625 376.039062 851.226562 363.339844 C 851.5 362.308594 853.058594 357.421875 858.703125 353.914062 C 865.441406 349.710938 875.136719 349.136719 887.503906 352.195312 C 897.597656 354.6875 905.6875 361.277344 910.273438 370.757812 C 917.109375 384.871094 915.621094 404.25 906.078125 425.339844 C 905.558594 427.734375 898.859375 461.152344 920.859375 468.878906 C 921.371094 469.058594 921.746094 469.515625 921.816406 470.058594 C 921.878906 470.597656 921.636719 471.140625 921.183594 471.4375 C 915.503906 475.242188 909.28125 478.257812 902.660156 480.414062 C 895.113281 482.871094 887.285156 484.121094 879.402344 484.121094 " fill-opacity="1" fill-rule="nonzero"/><path fill="#000000" d="M 904.359375 342.589844 C 896.648438 340.367188 887.613281 340.8125 883.90625 339.183594 C 877.929688 336.554688 878.6875 329.472656 870.058594 328.027344 C 862.480469 326.75 855.253906 327.558594 850.894531 333.078125 C 850.171875 333.996094 849.515625 335.039062 848.960938 336.234375 C 841.511719 352.242188 849.136719 360.933594 852.59375 363.839844 C 852.59375 363.839844 874.90625 377.035156 878.648438 380.597656 C 882.148438 383.929688 885.957031 391.472656 882.644531 401.617188 C 882.222656 402.90625 882.691406 404.320312 883.816406 405.089844 L 883.871094 405.125 C 885.214844 406.042969 887.03125 405.800781 888.066406 404.550781 C 891.3125 400.632812 898.34375 393.113281 902.875 395.382812 C 908.402344 398.144531 908.886719 413.234375 897 414.757812 C 894.839844 415.035156 893.578125 417.296875 894.453125 419.289062 C 895.820312 422.414062 898.699219 425.867188 904.695312 424.882812 C 904.695312 424.882812 931.285156 409.191406 936.28125 385.910156 C 941.28125 362.632812 914.609375 345.550781 904.359375 342.589844 " fill-opacity="1" fill-rule="nonzero"/><path fill="#000000" d="M 859.03125 373.789062 C 856.113281 373.789062 852.410156 376.742188 850.175781 381.148438 C 847.472656 386.457031 847.734375 392.234375 850.742188 393.757812 C 852.105469 394.453125 853.90625 394.195312 855.816406 393.03125 C 857.945312 391.726562 859.882812 389.511719 861.269531 386.789062 C 862.652344 384.0625 863.300781 381.191406 863.097656 378.707031 C 862.910156 376.472656 862.058594 374.867188 860.699219 374.175781 C 860.1875 373.914062 859.625 373.789062 859.03125 373.789062 Z M 852.398438 397.035156 C 851.347656 397.035156 850.347656 396.808594 849.429688 396.339844 C 844.875 394.023438 844.070312 386.773438 847.59375 379.835938 C 851.121094 372.898438 857.453125 369.277344 862.007812 371.59375 C 864.296875 372.757812 865.710938 375.203125 865.980469 378.46875 C 866.226562 381.484375 865.46875 384.902344 863.84375 388.097656 C 862.222656 391.296875 859.90625 393.921875 857.324219 395.496094 C 855.648438 396.519531 853.96875 397.035156 852.398438 397.035156 " fill-opacity="1" fill-rule="nonzero"/><path fill="#000000" d="M 849.121094 381.007812 C 848.570312 381.007812 848.046875 380.695312 847.804688 380.164062 C 847.777344 380.113281 846.898438 378.316406 845.5 378.347656 C 844.707031 378.410156 844.027344 377.765625 843.996094 376.96875 C 843.960938 376.167969 844.582031 375.496094 845.378906 375.464844 C 848.09375 375.359375 849.832031 377.617188 850.441406 378.976562 C 850.769531 379.699219 850.441406 380.558594 849.710938 380.886719 C 849.519531 380.96875 849.320312 381.007812 849.121094 381.007812 " fill-opacity="1" fill-rule="nonzero"/><path fill="#000000" d="M 890.265625 395.582031 C 890.0625 395.582031 889.855469 395.535156 889.660156 395.445312 L 863.882812 383.566406 C 863.15625 383.226562 862.839844 382.367188 863.175781 381.652344 C 863.503906 380.921875 864.367188 380.601562 865.09375 380.941406 L 890.871094 392.820312 C 891.597656 393.152344 891.910156 394.015625 891.578125 394.738281 C 891.332031 395.265625 890.8125 395.582031 890.265625 395.582031 " fill-opacity="1" fill-rule="nonzero"/><path fill="#ffffff" d="M 894.214844 684.289062 L 974.179688 590.53125 C 976.214844 588.136719 979.796875 587.855469 982.1875 589.890625 L 1104.753906 694.4375 C 1107.140625 696.472656 1107.425781 700.058594 1105.390625 702.449219 L 1025.425781 796.207031 C 1023.390625 798.59375 1019.800781 798.878906 1017.414062 796.847656 L 894.847656 692.296875 C 892.460938 690.265625 892.179688 686.675781 894.214844 684.289062 " fill-opacity="1" fill-rule="nonzero"/><path fill="#000000" d="M 894.21875 684.289062 L 894.230469 684.289062 Z M 978.515625 589.976562 C 978.398438 589.976562 978.28125 589.980469 978.167969 589.988281 C 977.039062 590.082031 976.015625 590.601562 975.28125 591.464844 L 895.316406 685.226562 C 894.578125 686.089844 894.230469 687.183594 894.316406 688.308594 C 894.40625 689.4375 894.925781 690.464844 895.789062 691.199219 L 1018.355469 795.742188 C 1019.222656 796.476562 1020.308594 796.824219 1021.4375 796.746094 C 1022.566406 796.652344 1023.59375 796.128906 1024.328125 795.265625 L 1104.296875 701.507812 C 1105.8125 699.730469 1105.601562 697.054688 1103.820312 695.535156 L 981.253906 590.992188 C 980.480469 590.332031 979.515625 589.976562 978.515625 589.976562 Z M 1021.09375 799.648438 C 1019.402344 799.648438 1017.78125 799.054688 1016.484375 797.941406 L 893.910156 693.398438 C 892.46875 692.164062 891.589844 690.4375 891.429688 688.535156 C 891.285156 686.644531 891.886719 684.800781 893.117188 683.351562 L 973.082031 589.589844 C 974.316406 588.140625 976.042969 587.257812 977.941406 587.109375 C 979.835938 586.953125 981.683594 587.554688 983.128906 588.792969 L 1105.695312 693.335938 C 1108.683594 695.886719 1109.042969 700.394531 1106.496094 703.382812 L 1026.527344 797.148438 C 1025.292969 798.59375 1023.570312 799.472656 1021.667969 799.625 C 1021.476562 799.640625 1021.285156 799.648438 1021.09375 799.648438 " fill-opacity="1" fill-rule="nonzero"/><path fill="#99b9ff" d="M 1023.402344 780.0625 L 1089.128906 702.996094 L 973.105469 604.03125 L 907.371094 681.097656 L 1023.402344 780.0625 " fill-opacity="1" fill-rule="nonzero"/><path fill="#ffffff" d="M 910.988281 654.054688 L 946.976562 611.859375 C 949.464844 608.9375 953.84375 608.589844 956.761719 611.078125 L 966.421875 619.316406 L 921.414062 672.082031 L 911.761719 663.84375 C 908.84375 661.355469 908.496094 656.972656 910.988281 654.054688 " fill-opacity="1" fill-rule="nonzero"/><path fill="#ffffff" d="M 917.214844 626.792969 C 915.976562 625.734375 915.832031 623.875 916.882812 622.640625 C 917.945312 621.402344 919.800781 621.253906 921.035156 622.3125 C 922.277344 623.363281 922.425781 625.222656 921.363281 626.460938 C 920.308594 627.695312 918.449219 627.84375 917.214844 626.792969 Z M 913.191406 639.074219 L 924.527344 648.746094 L 943.871094 626.066406 L 932.53125 616.394531 C 926.269531 611.054688 916.863281 611.800781 911.519531 618.066406 C 906.179688 624.324219 906.929688 633.734375 913.191406 639.074219 " fill-opacity="1" fill-rule="nonzero"/><path fill="#ffffff" d="M 935.828125 692.773438 L 989.121094 630.285156 L 983.9375 625.871094 L 930.652344 688.355469 L 935.828125 692.773438 " fill-opacity="1" fill-rule="nonzero"/><path fill="#ffffff" d="M 946.445312 701.832031 L 999.738281 639.347656 L 994.558594 634.929688 L 941.265625 697.414062 L 946.445312 701.832031 " fill-opacity="1" fill-rule="nonzero"/><path fill="#ffffff" d="M 957.074219 710.894531 L 1010.363281 648.40625 L 1005.183594 643.988281 L 951.894531 706.472656 L 957.074219 710.894531 " fill-opacity="1" fill-rule="nonzero"/><path fill="#ffffff" d="M 1008.746094 762.996094 C 1008.746094 762.996094 979.472656 796.003906 961.019531 791.375 C 942.582031 786.753906 946.679688 773.429688 946.679688 773.429688 L 975.023438 758.3125 C 975.023438 758.3125 948.84375 761.9375 951.78125 753.019531 C 953.289062 748.433594 955.550781 748.667969 961.492188 748.578125 C 976.886719 748.339844 1005.4375 746.753906 1005.4375 746.753906 L 1008.746094 762.996094 " fill-opacity="1" fill-rule="nonzero"/><path fill="#000000" d="M 947.9375 774.398438 C 947.699219 775.664062 947.34375 778.96875 949.214844 782.257812 C 951.269531 785.867188 955.363281 788.464844 961.378906 789.972656 C 977.511719 794.03125 1003.34375 766.746094 1007.183594 762.566406 L 1004.269531 748.269531 C 998.59375 748.570312 974.933594 749.8125 961.519531 750.023438 L 960.566406 750.039062 C 955.160156 750.105469 954.230469 750.214844 953.160156 753.476562 C 952.820312 754.496094 953.089844 755.003906 953.363281 755.328125 C 955.828125 758.285156 967.839844 757.847656 974.824219 756.878906 C 975.527344 756.789062 976.183594 757.199219 976.402344 757.867188 C 976.621094 758.53125 976.324219 759.257812 975.703125 759.585938 Z M 964.75 793.261719 C 963.355469 793.261719 961.996094 793.109375 960.675781 792.78125 C 953.835938 791.0625 949.128906 787.984375 946.671875 783.632812 C 943.699219 778.367188 945.230469 773.222656 945.304688 773.007812 C 945.414062 772.640625 945.664062 772.332031 946 772.15625 L 968.035156 760.402344 C 961.941406 760.707031 953.847656 760.425781 951.140625 757.179688 C 950.410156 756.296875 949.679688 754.78125 950.414062 752.570312 C 952.160156 747.253906 955.3125 747.214844 960.53125 747.144531 L 961.472656 747.128906 C 976.664062 746.894531 1005.078125 745.324219 1005.359375 745.3125 C 1006.085938 745.28125 1006.710938 745.761719 1006.855469 746.464844 L 1010.164062 762.707031 C 1010.257812 763.152344 1010.132812 763.617188 1009.828125 763.957031 C 1008.695312 765.234375 983.601562 793.261719 964.75 793.261719 " fill-opacity="1" fill-rule="nonzero"/><path fill="#ffffff" d="M 977.507812 778.675781 C 977.507812 778.675781 970.824219 784.292969 956.507812 789.902344 L 977.507812 778.675781 " fill-opacity="1" fill-rule="nonzero"/><path fill="#000000" d="M 956.511719 791.347656 C 955.933594 791.347656 955.386719 791 955.164062 790.433594 C 954.871094 789.683594 955.234375 788.847656 955.984375 788.558594 C 969.859375 783.113281 976.519531 777.625 976.582031 777.566406 C 977.195312 777.054688 978.105469 777.136719 978.617188 777.746094 C 979.132812 778.359375 979.046875 779.269531 978.441406 779.785156 C 978.164062 780.019531 971.410156 785.613281 957.039062 791.25 C 956.867188 791.316406 956.6875 791.347656 956.511719 791.347656 " fill-opacity="1" fill-rule="nonzero"/><path fill="#ffffff" d="M 972.550781 772.40625 C 972.550781 772.40625 963.773438 778.246094 948.820312 784.292969 L 972.550781 772.40625 " fill-opacity="1" fill-rule="nonzero"/><path fill="#000000" d="M 948.828125 785.734375 C 948.253906 785.734375 947.710938 785.390625 947.480469 784.832031 C 947.1875 784.089844 947.546875 783.25 948.285156 782.949219 C 962.929688 777.023438 971.667969 771.257812 971.753906 771.195312 C 972.421875 770.761719 973.320312 770.9375 973.757812 771.605469 C 974.203125 772.269531 974.015625 773.164062 973.359375 773.605469 C 972.988281 773.847656 964.28125 779.59375 949.367188 785.628906 C 949.1875 785.703125 949.003906 785.734375 948.828125 785.734375 " fill-opacity="1" fill-rule="nonzero"/><path fill="#000000" d="M 962.023438 491.011719 C 981.148438 491.335938 1005.425781 498.601562 1017.582031 513.382812 C 1049.9375 552.710938 1103.464844 634.105469 1098.84375 682.515625 C 1092.539062 748.625 1008.183594 770.21875 1008.183594 770.21875 L 998.738281 741.628906 C 1074.699219 674.417969 981.285156 582.960938 981.285156 582.960938 L 955.917969 490.90625 L 962.023438 491.011719 " fill-opacity="1" fill-rule="nonzero"/></svg>