<svg xmlns="http://www.w3.org/2000/svg" xmlns:xlink="http://www.w3.org/1999/xlink" width="1920" zoomAndPan="magnify" viewBox="0 0 1440 809.999993" height="1080" preserveAspectRatio="xMidYMid meet" version="1.0"><path fill="#e6ecff" d="M 1440 405 C 1440 411.628906 1439.835938 418.253906 1439.511719 424.871094 C 1439.1875 431.492188 1438.699219 438.101562 1438.050781 444.695312 C 1437.398438 451.292969 1436.589844 457.871094 1435.617188 464.425781 C 1434.644531 470.980469 1433.511719 477.511719 1432.21875 484.011719 C 1430.925781 490.511719 1429.472656 496.976562 1427.863281 503.40625 C 1426.253906 509.835938 1424.484375 516.222656 1422.5625 522.566406 C 1420.636719 528.90625 1418.558594 535.199219 1416.324219 541.441406 C 1414.09375 547.679688 1411.707031 553.863281 1409.171875 559.988281 C 1406.632812 566.109375 1403.949219 572.167969 1401.117188 578.160156 C 1398.28125 584.152344 1395.300781 590.070312 1392.179688 595.914062 C 1389.054688 601.761719 1385.789062 607.527344 1382.378906 613.210938 C 1378.972656 618.898438 1375.425781 624.496094 1371.746094 630.007812 C 1368.0625 635.515625 1364.246094 640.933594 1360.300781 646.257812 C 1356.351562 651.582031 1352.273438 656.804688 1348.070312 661.929688 C 1343.863281 667.054688 1339.535156 672.070312 1335.085938 676.980469 C 1330.632812 681.890625 1326.066406 686.691406 1321.378906 691.378906 C 1316.691406 696.066406 1311.890625 700.632812 1306.980469 705.085938 C 1302.070312 709.535156 1297.054688 713.863281 1291.929688 718.070312 C 1286.804688 722.273438 1281.582031 726.351562 1276.257812 730.300781 C 1270.933594 734.246094 1265.515625 738.0625 1260.003906 741.746094 C 1254.496094 745.425781 1248.898438 748.972656 1243.210938 752.378906 C 1237.527344 755.789062 1231.761719 759.054688 1225.914062 762.179688 C 1220.070312 765.300781 1214.152344 768.28125 1208.160156 771.117188 C 1202.167969 773.949219 1196.109375 776.632812 1189.988281 779.171875 C 1183.863281 781.707031 1177.679688 784.09375 1171.441406 786.324219 C 1165.199219 788.558594 1158.90625 790.636719 1152.566406 792.5625 C 1146.222656 794.484375 1139.835938 796.253906 1133.40625 797.863281 C 1126.976562 799.472656 1120.511719 800.925781 1114.011719 802.21875 C 1107.511719 803.511719 1100.980469 804.644531 1094.425781 805.617188 C 1087.871094 806.589844 1081.292969 807.398438 1074.695312 808.050781 C 1068.101562 808.699219 1061.492188 809.1875 1054.871094 809.511719 C 1048.253906 809.835938 1041.628906 810 1035 810 C 1028.371094 810 1021.746094 809.835938 1015.128906 809.511719 C 1008.507812 809.1875 1001.898438 808.699219 995.304688 808.050781 C 988.707031 807.398438 982.128906 806.589844 975.574219 805.617188 C 969.019531 804.644531 962.488281 803.511719 955.988281 802.21875 C 949.488281 800.925781 943.023438 799.472656 936.59375 797.863281 C 930.164062 796.253906 923.777344 794.484375 917.433594 792.5625 C 911.09375 790.636719 904.800781 788.558594 898.558594 786.324219 C 892.320312 784.09375 886.136719 781.707031 880.011719 779.171875 C 873.890625 776.632812 867.832031 773.949219 861.839844 771.117188 C 855.847656 768.28125 849.929688 765.300781 844.085938 762.179688 C 838.238281 759.054688 832.472656 755.789062 826.789062 752.378906 C 821.101562 748.972656 815.503906 745.425781 809.992188 741.746094 C 804.484375 738.0625 799.066406 734.246094 793.742188 730.300781 C 788.417969 726.351562 783.195312 722.273438 778.070312 718.070312 C 772.945312 713.863281 767.929688 709.535156 763.019531 705.085938 C 758.109375 700.632812 753.308594 696.066406 748.621094 691.378906 C 743.933594 686.691406 739.367188 681.890625 734.914062 676.980469 C 730.464844 672.070312 726.136719 667.054688 721.929688 661.929688 C 717.726562 656.804688 713.648438 651.582031 709.699219 646.257812 C 705.753906 640.933594 701.9375 635.515625 698.253906 630.007812 C 694.574219 624.496094 691.027344 618.898438 687.621094 613.210938 C 684.210938 607.527344 680.945312 601.761719 677.820312 595.914062 C 674.699219 590.070312 671.71875 584.152344 668.882812 578.160156 C 666.050781 572.167969 663.363281 566.109375 660.828125 559.988281 C 658.292969 553.863281 655.90625 547.679688 653.675781 541.441406 C 651.441406 535.199219 649.363281 528.90625 647.4375 522.566406 C 645.515625 516.222656 643.746094 509.835938 642.136719 503.40625 C 640.527344 496.976562 639.074219 490.511719 637.78125 484.011719 C 636.488281 477.511719 635.355469 470.980469 634.382812 464.425781 C 633.410156 457.871094 632.601562 451.292969 631.949219 444.695312 C 631.300781 438.101562 630.8125 431.492188 630.488281 424.871094 C 630.164062 418.253906 630 411.628906 630 405 C 630 398.371094 630.164062 391.746094 630.488281 385.128906 C 630.8125 378.507812 631.300781 371.898438 631.949219 365.304688 C 632.601562 358.707031 633.410156 352.128906 634.382812 345.574219 C 635.355469 339.019531 636.488281 332.488281 637.78125 325.988281 C 639.074219 319.488281 640.527344 313.023438 642.136719 306.59375 C 643.746094 300.164062 645.515625 293.777344 647.4375 287.433594 C 649.363281 281.09375 651.441406 274.800781 653.675781 268.558594 C 655.90625 262.320312 658.292969 256.136719 660.828125 250.011719 C 663.363281 243.890625 666.050781 237.832031 668.882812 231.839844 C 671.71875 225.847656 674.699219 219.929688 677.820312 214.085938 C 680.945312 208.238281 684.210938 202.472656 687.621094 196.789062 C 691.027344 191.101562 694.574219 185.503906 698.253906 179.992188 C 701.9375 174.484375 705.753906 169.066406 709.699219 163.742188 C 713.648438 158.417969 717.726562 153.195312 721.929688 148.070312 C 726.136719 142.945312 730.464844 137.929688 734.914062 133.019531 C 739.367188 128.109375 743.933594 123.308594 748.621094 118.621094 C 753.308594 113.933594 758.109375 109.367188 763.019531 104.914062 C 767.929688 100.464844 772.945312 96.136719 778.070312 91.929688 C 783.195312 87.726562 788.417969 83.648438 793.742188 79.699219 C 799.066406 75.753906 804.484375 71.9375 809.992188 68.253906 C 815.503906 64.574219 821.101562 61.027344 826.789062 57.621094 C 832.472656 54.210938 838.238281 50.945312 844.085938 47.820312 C 849.929688 44.699219 855.847656 41.71875 861.839844 38.882812 C 867.832031 36.050781 873.890625 33.367188 880.011719 30.828125 C 886.136719 28.292969 892.320312 25.90625 898.558594 23.675781 C 904.800781 21.441406 911.09375 19.363281 917.433594 17.4375 C 923.777344 15.515625 930.164062 13.746094 936.59375 12.136719 C 943.023438 10.527344 949.488281 9.074219 955.988281 7.78125 C 962.488281 6.488281 969.019531 5.355469 975.574219 4.382812 C 982.128906 3.410156 988.707031 2.601562 995.304688 1.949219 C 1001.898438 1.300781 1008.507812 0.8125 1015.128906 0.488281 C 1021.746094 0.164062 1028.371094 0 1035 0 C 1041.628906 0 1048.253906 0.164062 1054.871094 0.488281 C 1061.492188 0.8125 1068.101562 1.300781 1074.695312 1.949219 C 1081.292969 2.601562 1087.871094 3.410156 1094.425781 4.382812 C 1100.980469 5.355469 1107.511719 6.488281 1114.011719 7.78125 C 1120.511719 9.074219 1126.976562 10.527344 1133.40625 12.136719 C 1139.835938 13.746094 1146.222656 15.515625 1152.566406 17.4375 C 1158.90625 19.363281 1165.199219 21.441406 1171.441406 23.675781 C 1177.679688 25.90625 1183.863281 28.292969 1189.988281 30.828125 C 1196.109375 33.367188 1202.167969 36.050781 1208.160156 38.882812 C 1214.152344 41.71875 1220.070312 44.699219 1225.914062 47.820312 C 1231.761719 50.945312 1237.527344 54.210938 1243.210938 57.621094 C 1248.898438 61.027344 1254.496094 64.574219 1260.003906 68.253906 C 1265.515625 71.9375 1270.933594 75.753906 1276.257812 79.699219 C 1281.582031 83.648438 1286.804688 87.726562 1291.929688 91.929688 C 1297.054688 96.136719 1302.070312 100.464844 1306.980469 104.914062 C 1311.890625 109.367188 1316.691406 113.933594 1321.378906 118.621094 C 1326.066406 123.308594 1330.632812 128.109375 1335.085938 133.019531 C 1339.535156 137.929688 1343.863281 142.945312 1348.070312 148.070312 C 1352.273438 153.195312 1356.351562 158.417969 1360.300781 163.742188 C 1364.246094 169.066406 1368.0625 174.484375 1371.746094 179.992188 C 1375.425781 185.503906 1378.972656 191.101562 1382.378906 196.789062 C 1385.789062 202.472656 1389.054688 208.238281 1392.179688 214.085938 C 1395.300781 219.929688 1398.28125 225.847656 1401.117188 231.839844 C 1403.949219 237.832031 1406.632812 243.890625 1409.171875 250.011719 C 1411.707031 256.136719 1414.09375 262.320312 1416.324219 268.558594 C 1418.558594 274.800781 1420.636719 281.09375 1422.5625 287.433594 C 1424.484375 293.777344 1426.253906 300.164062 1427.863281 306.59375 C 1429.472656 313.023438 1430.925781 319.488281 1432.21875 325.988281 C 1433.511719 332.488281 1434.644531 339.019531 1435.617188 345.574219 C 1436.589844 352.128906 1437.398438 358.707031 1438.050781 365.304688 C 1438.699219 371.898438 1439.1875 378.507812 1439.511719 385.128906 C 1439.835938 391.746094 1440 398.371094 1440 405 Z M 1440 405 " fill-opacity="1" fill-rule="nonzero"/><path fill="#4294ff" d="M 1360.007812 646.363281 C 1355.304688 640.070312 1350.425781 633.917969 1345.363281 627.90625 C 1340.304688 621.894531 1335.078125 616.035156 1329.679688 610.328125 C 1324.277344 604.621094 1318.71875 599.074219 1312.996094 593.691406 C 1307.277344 588.304688 1301.402344 583.089844 1295.378906 578.046875 C 1289.355469 573.003906 1283.191406 568.140625 1276.882812 563.453125 C 1270.578125 558.769531 1264.140625 554.269531 1257.570312 549.960938 C 1251.003906 545.648438 1244.316406 541.53125 1237.507812 537.609375 C 1230.703125 533.683594 1223.789062 529.960938 1216.765625 526.441406 C 1209.742188 522.917969 1202.621094 519.605469 1195.40625 516.496094 C 1188.191406 513.386719 1180.890625 510.492188 1173.507812 507.808594 C 1166.125 505.125 1158.667969 502.65625 1151.140625 500.40625 C 1143.613281 498.152344 1136.027344 496.121094 1128.382812 494.3125 C 1120.738281 492.5 1113.046875 490.914062 1105.308594 489.550781 C 1097.570312 488.1875 1089.800781 487.046875 1082 486.136719 C 1074.195312 485.222656 1066.371094 484.535156 1058.527344 484.078125 C 1050.683594 483.621094 1042.835938 483.390625 1034.980469 483.386719 C 1027.121094 483.382812 1019.273438 483.609375 1011.429688 484.0625 C 1003.585938 484.515625 995.761719 485.199219 987.957031 486.105469 C 980.152344 487.011719 972.382812 488.148438 964.644531 489.503906 C 956.90625 490.863281 949.214844 492.449219 941.566406 494.253906 C 933.921875 496.058594 926.335938 498.085938 918.804688 500.332031 C 911.277344 502.578125 903.820312 505.042969 896.433594 507.71875 C 889.050781 510.398438 881.746094 513.292969 874.53125 516.394531 C 867.3125 519.5 860.191406 522.808594 853.164062 526.328125 C 846.140625 529.84375 839.222656 533.5625 832.414062 537.480469 C 825.605469 541.398438 818.914062 545.511719 812.34375 549.820312 C 805.773438 554.128906 799.332031 558.621094 793.023438 563.304688 C 786.714844 567.984375 780.546875 572.84375 774.519531 577.886719 C 768.492188 582.925781 762.617188 588.132812 756.890625 593.515625 C 751.167969 598.894531 745.601562 604.4375 740.199219 610.144531 C 734.796875 615.847656 729.5625 621.703125 724.5 627.710938 C 719.4375 633.71875 714.554688 639.867188 709.847656 646.160156 C 714.53125 652.484375 719.390625 658.664062 724.433594 664.703125 C 729.476562 670.742188 734.691406 676.632812 740.074219 682.367188 C 745.460938 688.101562 751.007812 693.675781 756.71875 699.085938 C 762.429688 704.5 768.292969 709.738281 774.3125 714.808594 C 780.328125 719.878906 786.484375 724.769531 792.789062 729.480469 C 799.089844 734.191406 805.523438 738.710938 812.089844 743.046875 C 818.65625 747.382812 825.339844 751.523438 832.148438 755.46875 C 838.953125 759.414062 845.871094 763.15625 852.898438 766.695312 C 859.921875 770.238281 867.046875 773.570312 874.265625 776.699219 C 881.484375 779.824219 888.789062 782.738281 896.179688 785.4375 C 903.570312 788.136719 911.03125 790.617188 918.566406 792.882812 C 926.101562 795.148438 933.695312 797.1875 941.347656 799.011719 C 949.003906 800.832031 956.703125 802.429688 964.449219 803.800781 C 972.199219 805.171875 979.976562 806.316406 987.792969 807.234375 C 995.605469 808.152344 1003.441406 808.84375 1011.292969 809.304688 C 1019.148438 809.765625 1027.007812 809.996094 1034.875 810 C 1042.742188 810.003906 1050.605469 809.777344 1058.460938 809.320312 C 1066.3125 808.863281 1074.148438 808.179688 1081.960938 807.265625 C 1089.777344 806.351562 1097.558594 805.210938 1105.304688 803.84375 C 1113.054688 802.476562 1120.753906 800.886719 1128.410156 799.070312 C 1136.066406 797.253906 1143.660156 795.214844 1151.195312 792.957031 C 1158.734375 790.695312 1166.195312 788.21875 1173.589844 785.523438 C 1180.980469 782.828125 1188.285156 779.921875 1195.507812 776.796875 C 1202.730469 773.675781 1209.855469 770.347656 1216.882812 766.8125 C 1223.910156 763.273438 1230.828125 759.535156 1237.640625 755.59375 C 1244.449219 751.652344 1251.136719 747.519531 1257.707031 743.1875 C 1264.273438 738.855469 1270.710938 734.339844 1277.015625 729.632812 C 1283.320312 724.925781 1289.480469 720.039062 1295.5 714.972656 C 1301.519531 709.90625 1307.386719 704.671875 1313.101562 699.261719 C 1318.816406 693.855469 1324.367188 688.285156 1329.757812 682.550781 C 1335.144531 676.820312 1340.363281 670.9375 1345.410156 664.898438 C 1350.453125 658.863281 1355.320312 652.683594 1360.007812 646.363281 Z M 1360.007812 646.363281 " fill-opacity="1" fill-rule="nonzero"/><path fill="#4294ff" d="M 1191.773438 274.355469 C 1191.773438 276.921875 1191.710938 279.484375 1191.585938 282.046875 C 1191.460938 284.609375 1191.269531 287.167969 1191.019531 289.722656 C 1190.769531 292.273438 1190.453125 294.820312 1190.078125 297.359375 C 1189.699219 299.894531 1189.261719 302.421875 1188.761719 304.941406 C 1188.261719 307.457031 1187.699219 309.957031 1187.074219 312.449219 C 1186.453125 314.9375 1185.769531 317.410156 1185.023438 319.863281 C 1184.277344 322.320312 1183.472656 324.753906 1182.609375 327.171875 C 1181.746094 329.585938 1180.820312 331.980469 1179.839844 334.351562 C 1178.859375 336.71875 1177.820312 339.066406 1176.722656 341.382812 C 1175.625 343.703125 1174.472656 345.996094 1173.261719 348.257812 C 1172.054688 350.519531 1170.789062 352.753906 1169.46875 354.953125 C 1168.152344 357.152344 1166.777344 359.320312 1165.351562 361.453125 C 1163.925781 363.585938 1162.449219 365.683594 1160.921875 367.746094 C 1159.394531 369.804688 1157.816406 371.828125 1156.1875 373.8125 C 1154.558594 375.792969 1152.886719 377.738281 1151.160156 379.636719 C 1149.4375 381.539062 1147.671875 383.398438 1145.855469 385.210938 C 1144.042969 387.023438 1142.183594 388.792969 1140.28125 390.515625 C 1138.382812 392.238281 1136.441406 393.914062 1134.457031 395.542969 C 1132.472656 397.171875 1130.449219 398.75 1128.390625 400.277344 C 1126.328125 401.804688 1124.230469 403.28125 1122.097656 404.707031 C 1119.964844 406.132812 1117.796875 407.503906 1115.597656 408.824219 C 1113.398438 410.144531 1111.164062 411.40625 1108.902344 412.617188 C 1106.640625 413.828125 1104.347656 414.980469 1102.03125 416.078125 C 1099.710938 417.175781 1097.363281 418.214844 1094.996094 419.195312 C 1092.625 420.175781 1090.230469 421.101562 1087.816406 421.964844 C 1085.398438 422.828125 1082.964844 423.632812 1080.507812 424.378906 C 1078.054688 425.125 1075.582031 425.808594 1073.09375 426.429688 C 1070.605469 427.054688 1068.101562 427.617188 1065.585938 428.117188 C 1063.070312 428.617188 1060.542969 429.054688 1058.003906 429.433594 C 1055.464844 429.808594 1052.921875 430.121094 1050.367188 430.375 C 1047.8125 430.625 1045.253906 430.8125 1042.691406 430.941406 C 1040.128906 431.066406 1037.566406 431.128906 1035 431.128906 C 1032.433594 431.128906 1029.871094 431.066406 1027.308594 430.941406 C 1024.746094 430.8125 1022.1875 430.625 1019.632812 430.375 C 1017.078125 430.121094 1014.535156 429.808594 1011.996094 429.433594 C 1009.457031 429.054688 1006.929688 428.617188 1004.414062 428.117188 C 1001.898438 427.617188 999.394531 427.054688 996.90625 426.429688 C 994.417969 425.808594 991.945312 425.125 989.492188 424.378906 C 987.035156 423.632812 984.601562 422.828125 982.183594 421.964844 C 979.769531 421.101562 977.375 420.175781 975.003906 419.195312 C 972.632812 418.214844 970.289062 417.175781 967.96875 416.078125 C 965.652344 414.980469 963.359375 413.828125 961.097656 412.617188 C 958.835938 411.40625 956.601562 410.144531 954.402344 408.824219 C 952.203125 407.503906 950.035156 406.132812 947.902344 404.707031 C 945.765625 403.28125 943.671875 401.804688 941.609375 400.277344 C 939.550781 398.75 937.527344 397.171875 935.542969 395.542969 C 933.558594 393.914062 931.617188 392.238281 929.71875 390.515625 C 927.816406 388.792969 925.957031 387.023438 924.144531 385.210938 C 922.328125 383.398438 920.5625 381.539062 918.839844 379.636719 C 917.113281 377.738281 915.441406 375.792969 913.8125 373.8125 C 912.183594 371.828125 910.605469 369.804688 909.078125 367.746094 C 907.550781 365.683594 906.074219 363.585938 904.648438 361.453125 C 903.222656 359.320312 901.847656 357.152344 900.53125 354.953125 C 899.210938 352.753906 897.945312 350.519531 896.738281 348.257812 C 895.527344 345.996094 894.375 343.703125 893.277344 341.382812 C 892.179688 339.066406 891.140625 336.71875 890.160156 334.351562 C 889.175781 331.980469 888.253906 329.585938 887.390625 327.171875 C 886.527344 324.753906 885.722656 322.320312 884.976562 319.863281 C 884.230469 317.410156 883.546875 314.9375 882.925781 312.449219 C 882.300781 309.957031 881.738281 307.457031 881.238281 304.941406 C 880.738281 302.421875 880.300781 299.894531 879.921875 297.359375 C 879.546875 294.820312 879.230469 292.273438 878.980469 289.722656 C 878.730469 287.167969 878.539062 284.609375 878.414062 282.046875 C 878.289062 279.484375 878.226562 276.921875 878.226562 274.355469 C 878.226562 271.789062 878.289062 269.226562 878.414062 266.664062 C 878.539062 264.101562 878.730469 261.542969 878.980469 258.988281 C 879.230469 256.433594 879.546875 253.890625 879.921875 251.351562 C 880.300781 248.8125 880.738281 246.285156 881.238281 243.769531 C 881.738281 241.253906 882.300781 238.75 882.925781 236.261719 C 883.546875 233.773438 884.230469 231.300781 884.976562 228.847656 C 885.722656 226.390625 886.527344 223.953125 887.390625 221.539062 C 888.253906 219.125 889.175781 216.730469 890.160156 214.359375 C 891.140625 211.988281 892.179688 209.644531 893.277344 207.324219 C 894.375 205.003906 895.527344 202.714844 896.738281 200.453125 C 897.945312 198.1875 899.210938 195.957031 900.53125 193.757812 C 901.847656 191.554688 903.222656 189.390625 904.648438 187.253906 C 906.074219 185.121094 907.550781 183.023438 909.078125 180.964844 C 910.605469 178.902344 912.183594 176.882812 913.8125 174.898438 C 915.441406 172.914062 917.113281 170.972656 918.839844 169.070312 C 920.5625 167.171875 922.328125 165.3125 924.144531 163.5 C 925.957031 161.683594 927.816406 159.914062 929.71875 158.191406 C 931.617188 156.46875 933.558594 154.792969 935.542969 153.167969 C 937.527344 151.539062 939.550781 149.960938 941.609375 148.433594 C 943.671875 146.902344 945.765625 145.425781 947.902344 144 C 950.035156 142.578125 952.203125 141.203125 954.402344 139.886719 C 956.601562 138.566406 958.835938 137.300781 961.097656 136.09375 C 963.359375 134.882812 965.652344 133.730469 967.96875 132.632812 C 970.289062 131.535156 972.632812 130.496094 975.003906 129.515625 C 977.375 128.53125 979.769531 127.609375 982.183594 126.746094 C 984.601562 125.878906 987.035156 125.074219 989.492188 124.332031 C 991.945312 123.585938 994.417969 122.902344 996.90625 122.277344 C 999.394531 121.65625 1001.898438 121.09375 1004.414062 120.59375 C 1006.929688 120.09375 1009.457031 119.652344 1011.996094 119.277344 C 1014.535156 118.902344 1017.078125 118.585938 1019.632812 118.335938 C 1022.1875 118.085938 1024.746094 117.894531 1027.308594 117.769531 C 1029.871094 117.644531 1032.433594 117.582031 1035 117.582031 C 1037.566406 117.582031 1040.128906 117.644531 1042.691406 117.769531 C 1045.253906 117.894531 1047.8125 118.085938 1050.367188 118.335938 C 1052.921875 118.585938 1055.464844 118.902344 1058.003906 119.277344 C 1060.542969 119.652344 1063.070312 120.09375 1065.585938 120.59375 C 1068.101562 121.09375 1070.605469 121.65625 1073.09375 122.277344 C 1075.582031 122.902344 1078.054688 123.585938 1080.507812 124.332031 C 1082.964844 125.074219 1085.398438 125.878906 1087.816406 126.746094 C 1090.230469 127.609375 1092.625 128.53125 1094.996094 129.515625 C 1097.363281 130.496094 1099.710938 131.535156 1102.03125 132.632812 C 1104.347656 133.730469 1106.640625 134.882812 1108.902344 136.09375 C 1111.164062 137.300781 1113.398438 138.566406 1115.597656 139.886719 C 1117.796875 141.203125 1119.964844 142.578125 1122.097656 144 C 1124.230469 145.425781 1126.328125 146.902344 1128.390625 148.433594 C 1130.449219 149.960938 1132.472656 151.539062 1134.457031 153.167969 C 1136.441406 154.792969 1138.382812 156.46875 1140.28125 158.191406 C 1142.183594 159.914062 1144.042969 161.683594 1145.855469 163.5 C 1147.671875 165.3125 1149.4375 167.171875 1151.160156 169.070312 C 1152.886719 170.972656 1154.558594 172.914062 1156.1875 174.898438 C 1157.816406 176.882812 1159.394531 178.902344 1160.921875 180.964844 C 1162.449219 183.023438 1163.925781 185.121094 1165.351562 187.253906 C 1166.777344 189.390625 1168.152344 191.554688 1169.46875 193.757812 C 1170.789062 195.957031 1172.054688 198.1875 1173.261719 200.453125 C 1174.472656 202.714844 1175.625 205.003906 1176.722656 207.324219 C 1177.820312 209.644531 1178.859375 211.988281 1179.839844 214.359375 C 1180.820312 216.730469 1181.746094 219.125 1182.609375 221.539062 C 1183.472656 223.953125 1184.277344 226.390625 1185.023438 228.847656 C 1185.769531 231.300781 1186.453125 233.773438 1187.074219 236.261719 C 1187.699219 238.75 1188.261719 241.253906 1188.761719 243.769531 C 1189.261719 246.285156 1189.699219 248.8125 1190.078125 251.351562 C 1190.453125 253.890625 1190.769531 256.433594 1191.019531 258.988281 C 1191.269531 261.542969 1191.460938 264.101562 1191.585938 266.664062 C 1191.710938 269.226562 1191.773438 271.789062 1191.773438 274.355469 Z M 1191.773438 274.355469 " fill-opacity="1" fill-rule="nonzero"/></svg>