<svg xmlns="http://www.w3.org/2000/svg" xmlns:xlink="http://www.w3.org/1999/xlink" width="1920" zoomAndPan="magnify" viewBox="0 0 1440 809.999993" height="1080" preserveAspectRatio="xMidYMid meet" version="1.0"><defs><clipPath id="210ad7df80"><path d="M 101.582031 127 L 1030 127 L 1030 706 L 101.582031 706 Z M 101.582031 127 " clip-rule="nonzero"/></clipPath><clipPath id="e1655c41c8"><path d="M 334 59.109375 L 355 59.109375 L 355 177 L 334 177 Z M 334 59.109375 " clip-rule="nonzero"/></clipPath><clipPath id="07700ce049"><path d="M 755 59.109375 L 777 59.109375 L 777 177 L 755 177 Z M 755 59.109375 " clip-rule="nonzero"/></clipPath><clipPath id="018f571a26"><rect x="0" width="1212" y="0" height="810"/></clipPath></defs><g transform="matrix(1, 0, 0, 1, 114, 0.000000000000039746)"><g clip-path="url(#018f571a26)"><path fill="#99d7dc" d="M 739.871094 478.972656 C 651.800781 478.972656 525.511719 540.003906 467.953125 459.625 C 433.507812 414.640625 471.726562 382.550781 479.433594 337.5625 C 490.914062 286.125 444.988281 250.734375 444.988281 199.296875 C 444.988281 125.367188 521.582031 64.335938 609.652344 73.929688 C 655.574219 77.078125 678.535156 102.875 720.683594 109.324219 C 785.792969 122.222656 816.460938 83.527344 862.382812 57.886719 C 900.601562 38.539062 965.710938 0 1011.632812 6.449219 C 1049.851562 12.898438 1118.890625 64.335938 1145.628906 89.976562 C 1210.738281 151.007812 1203.03125 231.386719 1168.589844 299.023438 C 1153.332031 334.417969 1126.441406 350.460938 1103.480469 382.550781 C 1076.742188 424.390625 1091.996094 475.828125 1046.074219 507.917969 C 1019.339844 530.410156 961.777344 540.003906 923.5625 536.859375 C 866.160156 530.410156 804.980469 473.46875 739.871094 478.972656 " fill-opacity="1" fill-rule="nonzero"/><path fill="#99d7dc" d="M 307.496094 748.972656 C 219.425781 748.972656 93.136719 810.003906 35.578125 729.625 C 1.132812 684.640625 39.351562 652.550781 47.058594 607.5625 C 58.539062 556.125 12.617188 520.734375 12.617188 469.296875 C 12.617188 395.367188 89.207031 334.335938 177.277344 343.929688 C 223.199219 347.078125 246.160156 372.875 288.308594 379.324219 C 353.417969 392.222656 384.085938 353.527344 430.007812 327.886719 C 468.226562 308.539062 533.335938 270 579.257812 276.449219 C 617.476562 282.898438 686.515625 334.335938 713.253906 359.976562 C 778.363281 421.007812 770.65625 501.386719 736.214844 569.023438 C 720.957031 604.417969 694.066406 620.460938 671.105469 652.550781 C 644.367188 694.390625 659.625 745.828125 613.699219 777.917969 C 586.964844 800.410156 529.402344 810.003906 491.1875 806.859375 C 433.785156 800.410156 372.605469 743.46875 307.496094 748.972656 " fill-opacity="1" fill-rule="nonzero"/><g clip-path="url(#210ad7df80)"><path fill="#e6e6e6" d="M 101.582031 127.632812 L 1029.457031 127.632812 L 1029.457031 705.191406 L 101.582031 705.191406 Z M 101.582031 127.632812 " fill-opacity="1" fill-rule="nonzero"/></g><path fill="#ffffff" d="M 163.800781 238.898438 L 333.742188 238.898438 L 333.742188 349.3125 L 163.800781 349.3125 Z M 163.800781 238.898438 " fill-opacity="1" fill-rule="nonzero"/><path fill="#ffffff" d="M 374.964844 238.898438 L 544.90625 238.898438 L 544.90625 349.3125 L 374.964844 349.3125 Z M 374.964844 238.898438 " fill-opacity="1" fill-rule="nonzero"/><path fill="#ffffff" d="M 586.128906 238.898438 L 756.070312 238.898438 L 756.070312 349.3125 L 586.128906 349.3125 Z M 586.128906 238.898438 " fill-opacity="1" fill-rule="nonzero"/><path fill="#ffffff" d="M 797.292969 238.898438 L 967.234375 238.898438 L 967.234375 349.3125 L 797.292969 349.3125 Z M 797.292969 238.898438 " fill-opacity="1" fill-rule="nonzero"/><path fill="#ffffff" d="M 163.800781 395.179688 L 333.742188 395.179688 L 333.742188 505.59375 L 163.800781 505.59375 Z M 163.800781 395.179688 " fill-opacity="1" fill-rule="nonzero"/><path fill="#ffffff" d="M 374.964844 395.179688 L 544.90625 395.179688 L 544.90625 505.59375 L 374.964844 505.59375 Z M 374.964844 395.179688 " fill-opacity="1" fill-rule="nonzero"/><path fill="#ffffff" d="M 586.128906 395.179688 L 756.070312 395.179688 L 756.070312 505.59375 L 586.128906 505.59375 Z M 586.128906 395.179688 " fill-opacity="1" fill-rule="nonzero"/><path fill="#ffffff" d="M 797.292969 395.179688 L 967.234375 395.179688 L 967.234375 505.59375 L 797.292969 505.59375 Z M 797.292969 395.179688 " fill-opacity="1" fill-rule="nonzero"/><path fill="#ffffff" d="M 163.800781 551.457031 L 333.742188 551.457031 L 333.742188 661.871094 L 163.800781 661.871094 Z M 163.800781 551.457031 " fill-opacity="1" fill-rule="nonzero"/><path fill="#ffffff" d="M 374.964844 551.457031 L 544.90625 551.457031 L 544.90625 661.871094 L 374.964844 661.871094 Z M 374.964844 551.457031 " fill-opacity="1" fill-rule="nonzero"/><path fill="#ffffff" d="M 586.128906 551.457031 L 756.070312 551.457031 L 756.070312 661.871094 L 586.128906 661.871094 Z M 586.128906 551.457031 " fill-opacity="1" fill-rule="nonzero"/><path fill="#ffffff" d="M 797.292969 551.457031 L 967.234375 551.457031 L 967.234375 661.871094 L 797.292969 661.871094 Z M 797.292969 551.457031 " fill-opacity="1" fill-rule="nonzero"/><path fill="#ffffff" d="M 370.085938 170.101562 C 370.085938 170.933594 370.046875 171.765625 369.964844 172.597656 C 369.882812 173.429688 369.761719 174.253906 369.597656 175.070312 C 369.433594 175.890625 369.230469 176.699219 368.988281 177.496094 C 368.746094 178.296875 368.464844 179.082031 368.144531 179.851562 C 367.828125 180.621094 367.46875 181.375 367.078125 182.113281 C 366.683594 182.847656 366.253906 183.5625 365.789062 184.257812 C 365.328125 184.949219 364.832031 185.621094 364.300781 186.265625 C 363.769531 186.910156 363.210938 187.527344 362.621094 188.117188 C 362.03125 188.707031 361.414062 189.265625 360.765625 189.796875 C 360.121094 190.324219 359.453125 190.824219 358.757812 191.285156 C 358.0625 191.75 357.347656 192.179688 356.613281 192.570312 C 355.875 192.964844 355.121094 193.320312 354.351562 193.640625 C 353.578125 193.960938 352.792969 194.242188 351.996094 194.484375 C 351.195312 194.726562 350.386719 194.929688 349.570312 195.089844 C 348.75 195.253906 347.925781 195.375 347.09375 195.457031 C 346.265625 195.539062 345.429688 195.582031 344.597656 195.582031 C 343.761719 195.582031 342.929688 195.539062 342.097656 195.457031 C 341.265625 195.375 340.441406 195.253906 339.625 195.089844 C 338.804688 194.929688 337.996094 194.726562 337.195312 194.484375 C 336.398438 194.242188 335.613281 193.960938 334.839844 193.640625 C 334.070312 193.320312 333.316406 192.964844 332.582031 192.570312 C 331.84375 192.179688 331.128906 191.75 330.433594 191.285156 C 329.742188 190.824219 329.070312 190.324219 328.425781 189.796875 C 327.78125 189.265625 327.164062 188.707031 326.570312 188.117188 C 325.980469 187.527344 325.421875 186.910156 324.890625 186.265625 C 324.363281 185.621094 323.867188 184.949219 323.402344 184.257812 C 322.9375 183.5625 322.507812 182.847656 322.117188 182.113281 C 321.722656 181.375 321.367188 180.621094 321.046875 179.851562 C 320.726562 179.082031 320.445312 178.296875 320.203125 177.496094 C 319.960938 176.699219 319.757812 175.890625 319.59375 175.070312 C 319.433594 174.253906 319.308594 173.429688 319.230469 172.597656 C 319.148438 171.765625 319.105469 170.933594 319.105469 170.101562 C 319.105469 169.265625 319.148438 168.433594 319.230469 167.601562 C 319.308594 166.773438 319.433594 165.949219 319.59375 165.128906 C 319.757812 164.3125 319.960938 163.503906 320.203125 162.703125 C 320.445312 161.90625 320.726562 161.121094 321.046875 160.351562 C 321.367188 159.578125 321.722656 158.824219 322.117188 158.089844 C 322.507812 157.351562 322.9375 156.636719 323.402344 155.945312 C 323.867188 155.25 324.363281 154.582031 324.890625 153.9375 C 325.421875 153.292969 325.980469 152.671875 326.570312 152.082031 C 327.164062 151.492188 327.78125 150.933594 328.425781 150.40625 C 329.070312 149.875 329.742188 149.378906 330.433594 148.914062 C 331.128906 148.453125 331.84375 148.023438 332.582031 147.628906 C 333.316406 147.234375 334.070312 146.878906 334.839844 146.558594 C 335.613281 146.242188 336.398438 145.960938 337.195312 145.71875 C 337.996094 145.476562 338.804688 145.273438 339.625 145.109375 C 340.441406 144.949219 341.265625 144.824219 342.097656 144.742188 C 342.929688 144.660156 343.761719 144.621094 344.597656 144.621094 C 345.429688 144.621094 346.265625 144.660156 347.09375 144.742188 C 347.925781 144.824219 348.75 144.949219 349.570312 145.109375 C 350.386719 145.273438 351.195312 145.476562 351.996094 145.71875 C 352.792969 145.960938 353.578125 146.242188 354.351562 146.558594 C 355.121094 146.878906 355.875 147.234375 356.613281 147.628906 C 357.347656 148.023438 358.0625 148.453125 358.757812 148.914062 C 359.453125 149.378906 360.121094 149.875 360.765625 150.40625 C 361.414062 150.933594 362.03125 151.492188 362.621094 152.082031 C 363.210938 152.671875 363.769531 153.292969 364.300781 153.9375 C 364.832031 154.582031 365.328125 155.25 365.789062 155.945312 C 366.253906 156.636719 366.683594 157.351562 367.078125 158.089844 C 367.46875 158.824219 367.828125 159.578125 368.144531 160.351562 C 368.464844 161.121094 368.746094 161.90625 368.988281 162.703125 C 369.230469 163.503906 369.433594 164.3125 369.597656 165.128906 C 369.761719 165.949219 369.882812 166.773438 369.964844 167.601562 C 370.046875 168.433594 370.085938 169.265625 370.085938 170.101562 Z M 370.085938 170.101562 " fill-opacity="1" fill-rule="nonzero"/><path fill="#ffffff" d="M 791.539062 170.101562 C 791.539062 170.933594 791.496094 171.765625 791.417969 172.597656 C 791.335938 173.429688 791.210938 174.253906 791.050781 175.070312 C 790.886719 175.890625 790.683594 176.699219 790.441406 177.496094 C 790.199219 178.296875 789.917969 179.082031 789.597656 179.851562 C 789.277344 180.621094 788.921875 181.375 788.527344 182.113281 C 788.136719 182.847656 787.707031 183.5625 787.242188 184.257812 C 786.777344 184.949219 786.28125 185.621094 785.753906 186.265625 C 785.222656 186.910156 784.664062 187.527344 784.074219 188.117188 C 783.484375 188.707031 782.863281 189.265625 782.21875 189.796875 C 781.574219 190.324219 780.902344 190.824219 780.210938 191.285156 C 779.515625 191.75 778.800781 192.179688 778.066406 192.570312 C 777.328125 192.964844 776.574219 193.320312 775.804688 193.640625 C 775.03125 193.960938 774.246094 194.242188 773.449219 194.484375 C 772.648438 194.726562 771.839844 194.929688 771.019531 195.089844 C 770.203125 195.253906 769.378906 195.375 768.546875 195.457031 C 767.714844 195.539062 766.882812 195.582031 766.046875 195.582031 C 765.214844 195.582031 764.378906 195.539062 763.550781 195.457031 C 762.71875 195.375 761.894531 195.253906 761.074219 195.089844 C 760.257812 194.929688 759.449219 194.726562 758.648438 194.484375 C 757.851562 194.242188 757.066406 193.960938 756.292969 193.640625 C 755.523438 193.320312 754.769531 192.964844 754.03125 192.570312 C 753.296875 192.179688 752.582031 191.75 751.886719 191.285156 C 751.191406 190.824219 750.523438 190.324219 749.878906 189.796875 C 749.230469 189.265625 748.613281 188.707031 748.023438 188.117188 C 747.433594 187.527344 746.875 186.910156 746.34375 186.265625 C 745.8125 185.621094 745.316406 184.949219 744.855469 184.257812 C 744.390625 183.5625 743.960938 182.847656 743.566406 182.113281 C 743.175781 181.375 742.816406 180.621094 742.5 179.851562 C 742.179688 179.082031 741.898438 178.296875 741.65625 177.496094 C 741.414062 176.699219 741.210938 175.890625 741.046875 175.070312 C 740.886719 174.253906 740.761719 173.429688 740.679688 172.597656 C 740.597656 171.765625 740.558594 170.933594 740.558594 170.101562 C 740.558594 169.265625 740.597656 168.433594 740.679688 167.601562 C 740.761719 166.773438 740.886719 165.949219 741.046875 165.128906 C 741.210938 164.3125 741.414062 163.503906 741.65625 162.703125 C 741.898438 161.90625 742.179688 161.121094 742.5 160.351562 C 742.816406 159.578125 743.175781 158.824219 743.566406 158.089844 C 743.960938 157.351562 744.390625 156.636719 744.855469 155.945312 C 745.316406 155.25 745.8125 154.582031 746.34375 153.9375 C 746.875 153.292969 747.433594 152.671875 748.023438 152.082031 C 748.613281 151.492188 749.230469 150.933594 749.878906 150.40625 C 750.523438 149.875 751.191406 149.378906 751.886719 148.914062 C 752.582031 148.453125 753.296875 148.023438 754.03125 147.628906 C 754.769531 147.234375 755.523438 146.878906 756.292969 146.558594 C 757.066406 146.242188 757.851562 145.960938 758.648438 145.71875 C 759.449219 145.476562 760.257812 145.273438 761.074219 145.109375 C 761.894531 144.949219 762.71875 144.824219 763.550781 144.742188 C 764.378906 144.660156 765.214844 144.621094 766.046875 144.621094 C 766.882812 144.621094 767.714844 144.660156 768.546875 144.742188 C 769.378906 144.824219 770.203125 144.949219 771.019531 145.109375 C 771.839844 145.273438 772.648438 145.476562 773.449219 145.71875 C 774.246094 145.960938 775.03125 146.242188 775.804688 146.558594 C 776.574219 146.878906 777.328125 147.234375 778.066406 147.628906 C 778.800781 148.023438 779.515625 148.453125 780.210938 148.914062 C 780.902344 149.378906 781.574219 149.875 782.21875 150.40625 C 782.863281 150.933594 783.484375 151.492188 784.074219 152.082031 C 784.664062 152.671875 785.222656 153.292969 785.753906 153.9375 C 786.28125 154.582031 786.777344 155.25 787.242188 155.945312 C 787.707031 156.636719 788.136719 157.351562 788.527344 158.089844 C 788.921875 158.824219 789.277344 159.578125 789.597656 160.351562 C 789.917969 161.121094 790.199219 161.90625 790.441406 162.703125 C 790.683594 163.503906 790.886719 164.3125 791.050781 165.128906 C 791.210938 165.949219 791.335938 166.773438 791.417969 167.601562 C 791.496094 168.433594 791.539062 169.265625 791.539062 170.101562 Z M 791.539062 170.101562 " fill-opacity="1" fill-rule="nonzero"/><g clip-path="url(#e1655c41c8)"><path fill="#e6e6e6" d="M 334.398438 59.6875 L 354.792969 59.6875 L 354.792969 176.894531 L 334.398438 176.894531 Z M 334.398438 59.6875 " fill-opacity="1" fill-rule="nonzero"/></g><g clip-path="url(#07700ce049)"><path fill="#e6e6e6" d="M 755.851562 59.6875 L 776.246094 59.6875 L 776.246094 176.894531 L 755.851562 176.894531 Z M 755.851562 59.6875 " fill-opacity="1" fill-rule="nonzero"/></g><path fill="#84bb8d" d="M 920.695312 294.105469 C 920.691406 294.867188 920.667969 295.625 920.625 296.386719 C 920.578125 297.144531 920.507812 297.902344 920.417969 298.65625 C 920.328125 299.414062 920.214844 300.164062 920.078125 300.914062 C 919.941406 301.660156 919.78125 302.40625 919.601562 303.144531 C 919.421875 303.882812 919.21875 304.617188 918.996094 305.34375 C 918.773438 306.070312 918.527344 306.789062 918.257812 307.503906 C 917.992188 308.214844 917.703125 308.917969 917.394531 309.613281 C 917.085938 310.308594 916.757812 310.996094 916.40625 311.671875 C 916.058594 312.347656 915.6875 313.011719 915.300781 313.664062 C 914.910156 314.320312 914.5 314.960938 914.074219 315.589844 C 913.644531 316.21875 913.199219 316.835938 912.734375 317.4375 C 912.273438 318.042969 911.789062 318.628906 911.289062 319.203125 C 910.792969 319.777344 910.273438 320.335938 909.742188 320.878906 C 909.210938 321.421875 908.660156 321.949219 908.097656 322.460938 C 907.535156 322.972656 906.953125 323.464844 906.359375 323.941406 C 905.769531 324.417969 905.160156 324.875 904.539062 325.316406 C 903.917969 325.753906 903.285156 326.175781 902.640625 326.578125 C 901.992188 326.980469 901.335938 327.363281 900.667969 327.726562 C 900 328.089844 899.320312 328.433594 898.628906 328.757812 C 897.941406 329.078125 897.242188 329.382812 896.535156 329.664062 C 895.828125 329.945312 895.113281 330.203125 894.390625 330.441406 C 893.667969 330.679688 892.941406 330.898438 892.203125 331.09375 C 891.46875 331.289062 890.726562 331.460938 889.980469 331.613281 C 889.234375 331.761719 888.484375 331.890625 887.730469 332 C 886.980469 332.105469 886.222656 332.1875 885.464844 332.25 C 884.707031 332.3125 883.945312 332.351562 883.183594 332.367188 C 882.425781 332.382812 881.664062 332.375 880.902344 332.347656 C 880.140625 332.316406 879.382812 332.265625 878.625 332.191406 C 877.867188 332.117188 877.113281 332.019531 876.363281 331.902344 C 875.609375 331.78125 874.863281 331.640625 874.121094 331.476562 C 873.375 331.3125 872.640625 331.125 871.90625 330.917969 C 871.175781 330.710938 870.449219 330.480469 869.730469 330.230469 C 869.011719 329.980469 868.300781 329.707031 867.601562 329.414062 C 866.898438 329.121094 866.203125 328.808594 865.519531 328.472656 C 864.835938 328.136719 864.164062 327.785156 863.503906 327.410156 C 862.839844 327.035156 862.1875 326.640625 861.550781 326.226562 C 860.910156 325.8125 860.285156 325.382812 859.671875 324.929688 C 859.058594 324.480469 858.460938 324.011719 857.875 323.527344 C 857.289062 323.039062 856.71875 322.535156 856.164062 322.015625 C 855.609375 321.496094 855.070312 320.960938 854.546875 320.40625 C 854.023438 319.855469 853.515625 319.289062 853.027344 318.703125 C 852.539062 318.121094 852.066406 317.527344 851.613281 316.914062 C 851.15625 316.304688 850.722656 315.679688 850.304688 315.042969 C 849.890625 314.40625 849.492188 313.757812 849.113281 313.097656 C 848.734375 312.4375 848.378906 311.769531 848.039062 311.085938 C 847.699219 310.40625 847.382812 309.714844 847.085938 309.011719 C 846.789062 308.3125 846.515625 307.605469 846.257812 306.886719 C 846.003906 306.171875 845.769531 305.445312 845.558594 304.714844 C 845.347656 303.984375 845.160156 303.25 844.992188 302.507812 C 844.824219 301.765625 844.679688 301.015625 844.554688 300.265625 C 844.433594 299.515625 844.332031 298.761719 844.253906 298.003906 C 844.175781 297.25 844.121094 296.492188 844.085938 295.730469 C 844.054688 294.96875 844.042969 294.210938 844.054688 293.449219 C 844.066406 292.6875 844.101562 291.929688 844.160156 291.171875 C 844.21875 290.410156 844.296875 289.65625 844.402344 288.902344 C 844.503906 288.148438 844.628906 287.398438 844.777344 286.652344 C 844.921875 285.90625 845.09375 285.164062 845.285156 284.429688 C 845.476562 283.691406 845.6875 282.960938 845.925781 282.238281 C 846.160156 281.515625 846.414062 280.796875 846.691406 280.089844 C 846.972656 279.382812 847.269531 278.683594 847.589844 277.992188 C 847.910156 277.300781 848.25 276.621094 848.609375 275.949219 C 848.96875 275.28125 849.347656 274.621094 849.746094 273.972656 C 850.144531 273.328125 850.566406 272.691406 851 272.070312 C 851.4375 271.445312 851.894531 270.835938 852.367188 270.242188 C 852.839844 269.644531 853.332031 269.0625 853.839844 268.496094 C 854.347656 267.929688 854.871094 267.378906 855.414062 266.84375 C 855.953125 266.308594 856.511719 265.792969 857.082031 265.289062 C 857.652344 264.789062 858.242188 264.304688 858.839844 263.835938 C 859.441406 263.367188 860.054688 262.917969 860.683594 262.488281 C 861.3125 262.058594 861.949219 261.648438 862.601562 261.253906 C 863.253906 260.863281 863.917969 260.488281 864.589844 260.136719 C 865.265625 259.785156 865.949219 259.449219 866.644531 259.136719 C 867.339844 258.828125 868.039062 258.535156 868.753906 258.265625 C 869.464844 257.996094 870.183594 257.746094 870.910156 257.519531 C 871.632812 257.289062 872.367188 257.085938 873.105469 256.902344 C 873.84375 256.714844 874.585938 256.554688 875.335938 256.414062 C 876.082031 256.273438 876.835938 256.15625 877.589844 256.0625 C 878.34375 255.96875 879.101562 255.894531 879.863281 255.847656 C 880.621094 255.796875 881.382812 255.769531 882.144531 255.765625 C 882.902344 255.761719 883.664062 255.777344 884.425781 255.820312 C 885.183594 255.859375 885.941406 255.921875 886.699219 256.007812 C 887.457031 256.09375 888.207031 256.203125 888.957031 256.332031 C 889.707031 256.464844 890.453125 256.617188 891.191406 256.792969 C 891.933594 256.96875 892.667969 257.164062 893.398438 257.382812 C 894.125 257.601562 894.847656 257.84375 895.5625 258.105469 C 896.277344 258.367188 896.984375 258.648438 897.679688 258.953125 C 898.378906 259.257812 899.066406 259.582031 899.746094 259.925781 C 900.425781 260.269531 901.089844 260.636719 901.746094 261.019531 C 902.40625 261.40625 903.050781 261.808594 903.683594 262.230469 C 904.3125 262.65625 904.933594 263.097656 905.539062 263.558594 C 906.144531 264.015625 906.738281 264.496094 907.316406 264.988281 C 907.894531 265.484375 908.457031 265.996094 909.003906 266.523438 C 909.550781 267.054688 910.082031 267.597656 910.597656 268.160156 C 911.109375 268.71875 911.609375 269.292969 912.089844 269.882812 C 912.570312 270.472656 913.03125 271.078125 913.476562 271.695312 C 913.921875 272.3125 914.347656 272.941406 914.753906 273.585938 C 916.699219 276.65625 918.175781 279.933594 919.183594 283.421875 C 920.195312 286.914062 920.695312 290.472656 920.695312 294.105469 Z M 920.695312 294.105469 " fill-opacity="1" fill-rule="nonzero"/><path fill="#ffffff" d="M 914.753906 273.585938 L 876.925781 311.390625 C 874.546875 307.710938 861.300781 290.613281 861.300781 290.613281 C 863 288.898438 864.808594 287.300781 866.722656 285.828125 L 877.707031 300.46875 L 910.324219 267.867188 C 911.980469 269.632812 913.457031 271.539062 914.753906 273.585938 Z M 914.753906 273.585938 " fill-opacity="1" fill-rule="nonzero"/><path fill="#84bb8d" d="M 498.367188 450.386719 C 498.363281 451.144531 498.339844 451.90625 498.296875 452.664062 C 498.25 453.425781 498.179688 454.183594 498.089844 454.9375 C 498 455.691406 497.886719 456.445312 497.75 457.195312 C 497.613281 457.941406 497.453125 458.6875 497.273438 459.425781 C 497.09375 460.164062 496.890625 460.898438 496.667969 461.625 C 496.445312 462.351562 496.199219 463.070312 495.933594 463.785156 C 495.664062 464.496094 495.375 465.199219 495.066406 465.894531 C 494.757812 466.589844 494.429688 467.277344 494.082031 467.953125 C 493.730469 468.628906 493.359375 469.292969 492.972656 469.945312 C 492.582031 470.597656 492.171875 471.242188 491.746094 471.871094 C 491.320312 472.5 490.871094 473.117188 490.410156 473.71875 C 489.945312 474.320312 489.460938 474.910156 488.960938 475.484375 C 488.464844 476.058594 487.949219 476.617188 487.414062 477.160156 C 486.882812 477.703125 486.332031 478.230469 485.769531 478.742188 C 485.207031 479.25 484.625 479.746094 484.035156 480.222656 C 483.441406 480.699219 482.832031 481.15625 482.210938 481.59375 C 481.589844 482.035156 480.957031 482.457031 480.3125 482.859375 C 479.664062 483.261719 479.007812 483.644531 478.339844 484.007812 C 477.671875 484.371094 476.992188 484.714844 476.304688 485.035156 C 475.613281 485.359375 474.914062 485.660156 474.207031 485.941406 C 473.5 486.222656 472.785156 486.484375 472.0625 486.722656 C 471.339844 486.960938 470.613281 487.175781 469.875 487.371094 C 469.140625 487.566406 468.398438 487.742188 467.652344 487.890625 C 466.90625 488.042969 466.15625 488.171875 465.40625 488.277344 C 464.652344 488.382812 463.894531 488.46875 463.136719 488.53125 C 462.378906 488.589844 461.617188 488.628906 460.855469 488.644531 C 460.097656 488.664062 459.335938 488.65625 458.574219 488.625 C 457.8125 488.597656 457.054688 488.546875 456.296875 488.472656 C 455.539062 488.398438 454.785156 488.300781 454.035156 488.179688 C 453.28125 488.0625 452.535156 487.921875 451.792969 487.757812 C 451.046875 487.59375 450.3125 487.40625 449.578125 487.199219 C 448.847656 486.992188 448.121094 486.761719 447.402344 486.511719 C 446.683594 486.261719 445.972656 485.988281 445.273438 485.695312 C 444.570312 485.402344 443.875 485.085938 443.191406 484.753906 C 442.507812 484.417969 441.835938 484.0625 441.175781 483.6875 C 440.511719 483.3125 439.859375 482.921875 439.222656 482.507812 C 438.582031 482.09375 437.957031 481.660156 437.34375 481.210938 C 436.730469 480.761719 436.132812 480.292969 435.546875 479.804688 C 434.960938 479.320312 434.390625 478.816406 433.835938 478.296875 C 433.28125 477.773438 432.742188 477.238281 432.21875 476.6875 C 431.695312 476.132812 431.1875 475.566406 430.699219 474.984375 C 430.210938 474.402344 429.738281 473.804688 429.285156 473.195312 C 428.828125 472.582031 428.394531 471.960938 427.976562 471.324219 C 427.5625 470.6875 427.164062 470.039062 426.785156 469.378906 C 426.40625 468.71875 426.050781 468.046875 425.710938 467.367188 C 425.375 466.683594 425.054688 465.992188 424.757812 465.292969 C 424.460938 464.59375 424.1875 463.882812 423.929688 463.167969 C 423.675781 462.449219 423.445312 461.726562 423.230469 460.996094 C 423.019531 460.265625 422.832031 459.527344 422.664062 458.785156 C 422.496094 458.042969 422.351562 457.296875 422.226562 456.546875 C 422.105469 455.796875 422.003906 455.042969 421.925781 454.285156 C 421.847656 453.527344 421.792969 452.769531 421.757812 452.011719 C 421.726562 451.25 421.714844 450.488281 421.726562 449.730469 C 421.738281 448.96875 421.773438 448.207031 421.832031 447.449219 C 421.890625 446.691406 421.96875 445.933594 422.074219 445.179688 C 422.175781 444.429688 422.300781 443.675781 422.449219 442.929688 C 422.59375 442.183594 422.765625 441.445312 422.957031 440.707031 C 423.148438 439.972656 423.359375 439.242188 423.597656 438.515625 C 423.832031 437.792969 424.085938 437.078125 424.367188 436.371094 C 424.644531 435.660156 424.941406 434.960938 425.261719 434.273438 C 425.582031 433.582031 425.921875 432.902344 426.28125 432.230469 C 426.640625 431.558594 427.019531 430.902344 427.417969 430.253906 C 427.820312 429.605469 428.238281 428.972656 428.675781 428.347656 C 429.109375 427.726562 429.566406 427.117188 430.039062 426.519531 C 430.511719 425.925781 431.003906 425.34375 431.511719 424.777344 C 432.019531 424.210938 432.542969 423.660156 433.085938 423.125 C 433.625 422.589844 434.183594 422.070312 434.753906 421.570312 C 435.328125 421.066406 435.914062 420.582031 436.511719 420.117188 C 437.113281 419.648438 437.726562 419.199219 438.355469 418.769531 C 438.984375 418.339844 439.621094 417.925781 440.273438 417.535156 C 440.925781 417.140625 441.589844 416.769531 442.265625 416.417969 C 442.9375 416.0625 443.621094 415.730469 444.316406 415.417969 C 445.011719 415.105469 445.714844 414.816406 446.425781 414.542969 C 447.136719 414.273438 447.855469 414.023438 448.582031 413.796875 C 449.308594 413.570312 450.039062 413.363281 450.777344 413.179688 C 451.515625 412.996094 452.257812 412.835938 453.007812 412.695312 C 453.757812 412.554688 454.507812 412.4375 455.261719 412.34375 C 456.019531 412.246094 456.773438 412.175781 457.535156 412.125 C 458.292969 412.074219 459.054688 412.046875 459.816406 412.042969 C 460.578125 412.039062 461.335938 412.058594 462.097656 412.097656 C 462.855469 412.140625 463.613281 412.203125 464.371094 412.289062 C 465.128906 412.375 465.878906 412.484375 466.628906 412.613281 C 467.378906 412.746094 468.125 412.898438 468.867188 413.074219 C 469.605469 413.246094 470.339844 413.445312 471.070312 413.664062 C 471.800781 413.882812 472.519531 414.121094 473.234375 414.382812 C 473.949219 414.644531 474.65625 414.929688 475.355469 415.234375 C 476.050781 415.535156 476.738281 415.863281 477.417969 416.207031 C 478.097656 416.550781 478.761719 416.917969 479.421875 417.300781 C 480.078125 417.683594 480.722656 418.089844 481.355469 418.511719 C 481.988281 418.933594 482.605469 419.375 483.210938 419.835938 C 483.816406 420.296875 484.410156 420.773438 484.988281 421.269531 C 485.566406 421.765625 486.128906 422.277344 486.675781 422.804688 C 487.222656 423.332031 487.753906 423.878906 488.269531 424.4375 C 488.785156 425 489.28125 425.574219 489.761719 426.164062 C 490.242188 426.753906 490.703125 427.359375 491.148438 427.976562 C 491.59375 428.59375 492.019531 429.222656 492.425781 429.867188 C 494.371094 432.933594 495.847656 436.214844 496.855469 439.703125 C 497.867188 443.191406 498.371094 446.753906 498.367188 450.386719 Z M 498.367188 450.386719 " fill-opacity="1" fill-rule="nonzero"/><path fill="#ffffff" d="M 492.425781 429.867188 L 454.597656 467.671875 C 452.21875 463.992188 438.972656 446.894531 438.972656 446.894531 C 440.675781 445.175781 442.480469 443.582031 444.398438 442.109375 L 455.378906 456.75 L 487.996094 424.144531 C 489.65625 425.914062 491.132812 427.820312 492.425781 429.867188 Z M 492.425781 429.867188 " fill-opacity="1" fill-rule="nonzero"/><path fill="#84bb8d" d="M 287.203125 450.386719 C 287.203125 451.144531 287.179688 451.90625 287.132812 452.664062 C 287.085938 453.425781 287.015625 454.183594 286.925781 454.9375 C 286.835938 455.691406 286.722656 456.445312 286.585938 457.195312 C 286.449219 457.941406 286.292969 458.6875 286.109375 459.425781 C 285.929688 460.164062 285.726562 460.898438 285.503906 461.625 C 285.28125 462.351562 285.035156 463.070312 284.769531 463.785156 C 284.5 464.496094 284.214844 465.199219 283.902344 465.894531 C 283.59375 466.589844 283.265625 467.277344 282.917969 467.953125 C 282.566406 468.628906 282.195312 469.292969 281.808594 469.945312 C 281.417969 470.597656 281.011719 471.242188 280.582031 471.871094 C 280.15625 472.5 279.707031 473.117188 279.246094 473.71875 C 278.78125 474.320312 278.296875 474.910156 277.800781 475.484375 C 277.300781 476.058594 276.785156 476.617188 276.25 477.160156 C 275.71875 477.703125 275.167969 478.230469 274.605469 478.742188 C 274.042969 479.25 273.464844 479.746094 272.871094 480.222656 C 272.277344 480.699219 271.667969 481.15625 271.046875 481.597656 C 270.425781 482.035156 269.792969 482.457031 269.148438 482.859375 C 268.5 483.261719 267.84375 483.644531 267.175781 484.007812 C 266.507812 484.371094 265.828125 484.714844 265.140625 485.035156 C 264.449219 485.359375 263.75 485.660156 263.042969 485.941406 C 262.335938 486.222656 261.621094 486.484375 260.898438 486.722656 C 260.175781 486.960938 259.449219 487.179688 258.710938 487.371094 C 257.976562 487.566406 257.234375 487.742188 256.488281 487.890625 C 255.742188 488.042969 254.992188 488.171875 254.242188 488.277344 C 253.488281 488.386719 252.730469 488.46875 251.972656 488.53125 C 251.214844 488.589844 250.453125 488.628906 249.691406 488.644531 C 248.933594 488.664062 248.171875 488.65625 247.410156 488.625 C 246.648438 488.597656 245.890625 488.546875 245.132812 488.472656 C 244.375 488.398438 243.621094 488.300781 242.871094 488.179688 C 242.117188 488.0625 241.371094 487.921875 240.628906 487.757812 C 239.882812 487.59375 239.148438 487.40625 238.414062 487.199219 C 237.683594 486.992188 236.957031 486.761719 236.238281 486.511719 C 235.519531 486.261719 234.808594 485.988281 234.109375 485.695312 C 233.40625 485.402344 232.710938 485.085938 232.027344 484.753906 C 231.34375 484.417969 230.671875 484.0625 230.011719 483.6875 C 229.347656 483.316406 228.695312 482.921875 228.058594 482.507812 C 227.417969 482.09375 226.792969 481.660156 226.179688 481.210938 C 225.566406 480.761719 224.96875 480.292969 224.382812 479.804688 C 223.796875 479.320312 223.226562 478.816406 222.671875 478.296875 C 222.117188 477.777344 221.578125 477.238281 221.054688 476.6875 C 220.53125 476.132812 220.023438 475.566406 219.535156 474.984375 C 219.046875 474.402344 218.574219 473.804688 218.121094 473.195312 C 217.664062 472.585938 217.230469 471.960938 216.8125 471.324219 C 216.398438 470.6875 216 470.039062 215.621094 469.378906 C 215.242188 468.71875 214.886719 468.046875 214.546875 467.367188 C 214.210938 466.683594 213.890625 465.992188 213.59375 465.292969 C 213.296875 464.59375 213.023438 463.882812 212.765625 463.167969 C 212.511719 462.449219 212.28125 461.726562 212.066406 460.996094 C 211.855469 460.265625 211.667969 459.527344 211.5 458.785156 C 211.332031 458.042969 211.1875 457.296875 211.0625 456.546875 C 210.941406 455.796875 210.839844 455.042969 210.761719 454.285156 C 210.683594 453.527344 210.628906 452.769531 210.59375 452.011719 C 210.5625 451.25 210.550781 450.488281 210.5625 449.730469 C 210.574219 448.96875 210.609375 448.207031 210.667969 447.449219 C 210.726562 446.691406 210.804688 445.933594 210.910156 445.183594 C 211.011719 444.429688 211.136719 443.679688 211.285156 442.929688 C 211.429688 442.183594 211.601562 441.445312 211.792969 440.707031 C 211.984375 439.972656 212.195312 439.242188 212.433594 438.519531 C 212.667969 437.792969 212.921875 437.078125 213.203125 436.371094 C 213.480469 435.660156 213.777344 434.960938 214.097656 434.273438 C 214.417969 433.582031 214.757812 432.902344 215.117188 432.230469 C 215.476562 431.558594 215.855469 430.902344 216.253906 430.253906 C 216.65625 429.605469 217.074219 428.972656 217.511719 428.347656 C 217.945312 427.726562 218.402344 427.117188 218.875 426.519531 C 219.347656 425.925781 219.839844 425.34375 220.347656 424.777344 C 220.855469 424.210938 221.378906 423.660156 221.921875 423.125 C 222.460938 422.589844 223.019531 422.070312 223.589844 421.570312 C 224.164062 421.066406 224.75 420.582031 225.347656 420.117188 C 225.949219 419.648438 226.5625 419.199219 227.191406 418.769531 C 227.820312 418.339844 228.457031 417.925781 229.109375 417.535156 C 229.761719 417.140625 230.425781 416.769531 231.101562 416.417969 C 231.773438 416.0625 232.457031 415.730469 233.152344 415.417969 C 233.847656 415.105469 234.550781 414.816406 235.261719 414.542969 C 235.972656 414.273438 236.691406 414.023438 237.417969 413.796875 C 238.144531 413.570312 238.875 413.363281 239.613281 413.179688 C 240.351562 412.996094 241.097656 412.835938 241.84375 412.695312 C 242.59375 412.554688 243.34375 412.4375 244.097656 412.34375 C 244.855469 412.246094 245.609375 412.175781 246.371094 412.125 C 247.128906 412.074219 247.890625 412.046875 248.652344 412.042969 C 249.414062 412.039062 250.171875 412.058594 250.933594 412.097656 C 251.691406 412.140625 252.449219 412.203125 253.207031 412.289062 C 253.964844 412.375 254.714844 412.484375 255.464844 412.613281 C 256.214844 412.746094 256.960938 412.898438 257.703125 413.074219 C 258.441406 413.246094 259.175781 413.445312 259.90625 413.664062 C 260.636719 413.882812 261.355469 414.121094 262.070312 414.382812 C 262.785156 414.644531 263.492188 414.929688 264.191406 415.234375 C 264.886719 415.535156 265.574219 415.863281 266.253906 416.207031 C 266.933594 416.550781 267.601562 416.914062 268.257812 417.300781 C 268.914062 417.683594 269.558594 418.089844 270.191406 418.511719 C 270.824219 418.933594 271.441406 419.375 272.046875 419.835938 C 272.65625 420.296875 273.246094 420.773438 273.824219 421.269531 C 274.402344 421.765625 274.964844 422.277344 275.511719 422.804688 C 276.058594 423.332031 276.589844 423.878906 277.105469 424.4375 C 277.621094 425 278.117188 425.574219 278.597656 426.164062 C 279.078125 426.753906 279.542969 427.359375 279.984375 427.976562 C 280.429688 428.59375 280.855469 429.222656 281.261719 429.867188 C 283.207031 432.933594 284.683594 436.214844 285.691406 439.703125 C 286.703125 443.191406 287.207031 446.753906 287.203125 450.386719 Z M 287.203125 450.386719 " fill-opacity="1" fill-rule="nonzero"/><path fill="#ffffff" d="M 281.261719 429.867188 L 243.433594 467.671875 C 241.054688 463.992188 227.8125 446.894531 227.8125 446.894531 C 229.511719 445.175781 231.316406 443.582031 233.234375 442.109375 L 244.214844 456.75 L 276.832031 424.144531 C 278.492188 425.914062 279.96875 427.820312 281.261719 429.867188 Z M 281.261719 429.867188 " fill-opacity="1" fill-rule="nonzero"/></g></g></svg>