<svg xmlns="http://www.w3.org/2000/svg" xmlns:xlink="http://www.w3.org/1999/xlink" width="512" zoomAndPan="magnify" viewBox="0 0 384 383.999986" height="512" preserveAspectRatio="xMidYMid meet" version="1.0"><defs><clipPath id="a5715ba3f5"><path d="M 3 0 L 383.125 0 L 383.125 380.25 L 3 380.25 Z M 3 0 " clip-rule="nonzero"/></clipPath></defs><rect x="-38.4" width="460.8" fill="#ffffff" y="-38.399999" height="460.799983" fill-opacity="1"/><rect x="-38.4" width="460.8" fill="#ffffff" y="-38.399999" height="460.799983" fill-opacity="1"/><path fill="#9bca91" d="M 191.898438 265.4375 L 194.238281 265.4375 C 200.578125 265.4375 205.734375 260.28125 205.734375 253.941406 L 205.734375 253.21875 C 205.734375 246.875 200.578125 241.71875 194.238281 241.71875 L 191.898438 241.71875 C 185.566406 241.71875 180.40625 246.875 180.40625 253.21875 L 180.40625 253.941406 C 180.40625 260.28125 185.566406 265.4375 191.898438 265.4375 " fill-opacity="1" fill-rule="nonzero"/><path fill="#9bca91" d="M 245.082031 265.4375 L 247.417969 265.4375 C 253.757812 265.4375 258.914062 260.28125 258.914062 253.941406 L 258.914062 253.21875 C 258.914062 246.875 253.757812 241.71875 247.417969 241.71875 L 245.082031 241.71875 C 238.742188 241.71875 233.585938 246.875 233.585938 253.21875 L 233.585938 253.941406 C 233.585938 260.28125 238.742188 265.4375 245.082031 265.4375 " fill-opacity="1" fill-rule="nonzero"/><path fill="#9bca91" d="M 191.898438 214.644531 L 194.238281 214.644531 C 200.578125 214.644531 205.734375 209.488281 205.734375 203.148438 L 205.734375 202.421875 C 205.734375 196.082031 200.578125 190.925781 194.238281 190.925781 L 191.898438 190.925781 C 185.566406 190.925781 180.40625 196.082031 180.40625 202.421875 L 180.40625 203.148438 C 180.40625 209.488281 185.566406 214.644531 191.898438 214.644531 " fill-opacity="1" fill-rule="nonzero"/><path fill="#9bca91" d="M 138.71875 214.644531 L 141.058594 214.644531 C 147.398438 214.644531 152.554688 209.488281 152.554688 203.148438 L 152.554688 202.421875 C 152.554688 196.082031 147.398438 190.925781 141.058594 190.925781 L 138.71875 190.925781 C 132.386719 190.925781 127.230469 196.082031 127.230469 202.421875 L 127.230469 203.148438 C 127.230469 209.488281 132.386719 214.644531 138.71875 214.644531 " fill-opacity="1" fill-rule="nonzero"/><path fill="#9bca91" d="M 138.71875 265.4375 L 141.058594 265.4375 C 147.398438 265.4375 152.554688 260.28125 152.554688 253.941406 L 152.554688 253.21875 C 152.554688 246.875 147.398438 241.71875 141.058594 241.71875 L 138.71875 241.71875 C 132.386719 241.71875 127.230469 246.875 127.230469 253.21875 L 127.230469 253.941406 C 127.230469 260.28125 132.386719 265.4375 138.71875 265.4375 " fill-opacity="1" fill-rule="nonzero"/><g clip-path="url(#a5715ba3f5)"><path fill="#9bca91" d="M 303.421875 146.082031 L 82.714844 146.082031 L 82.714844 120.695312 C 82.714844 111.484375 90.183594 104.015625 99.390625 104.015625 L 125.484375 104.015625 L 125.484375 88.316406 C 125.484375 81.542969 130.976562 76.050781 137.746094 76.050781 C 144.515625 76.050781 150.007812 81.542969 150.007812 88.316406 L 150.007812 104.015625 L 236.132812 104.015625 L 236.132812 88.316406 C 236.132812 81.542969 241.621094 76.050781 248.394531 76.050781 C 255.164062 76.050781 260.65625 81.542969 260.65625 88.316406 L 260.65625 104.015625 L 286.75 104.015625 C 295.957031 104.015625 303.421875 111.484375 303.421875 120.695312 Z M 303.421875 287.515625 C 303.421875 296.730469 295.957031 304.199219 286.75 304.199219 L 99.390625 304.199219 C 90.183594 304.199219 82.714844 296.730469 82.714844 287.515625 L 82.714844 164.007812 L 303.421875 164.007812 Z M 193.070312 0 C 88.105469 0 3.015625 85.121094 3.015625 190.125 C 3.015625 295.128906 88.105469 380.25 193.070312 380.25 C 298.035156 380.25 383.125 295.128906 383.125 190.125 C 383.125 85.121094 298.035156 0 193.070312 0 " fill-opacity="1" fill-rule="nonzero"/></g><path fill="#9bca91" d="M 245.082031 214.644531 L 247.417969 214.644531 C 253.757812 214.644531 258.914062 209.488281 258.914062 203.148438 L 258.914062 202.421875 C 258.914062 196.082031 253.757812 190.925781 247.417969 190.925781 L 245.082031 190.925781 C 238.742188 190.925781 233.585938 196.082031 233.585938 202.421875 L 233.585938 203.148438 C 233.585938 209.488281 238.742188 214.644531 245.082031 214.644531 " fill-opacity="1" fill-rule="nonzero"/></svg>