<svg xmlns="http://www.w3.org/2000/svg" xmlns:xlink="http://www.w3.org/1999/xlink" width="1920" zoomAndPan="magnify" viewBox="0 0 1440 809.999993" height="1080" preserveAspectRatio="xMidYMid meet" version="1.0"><path fill="#9bca91" d="M 1032.507812 565.429688 L 1037.492188 565.429688 C 1050.996094 565.429688 1061.984375 554.445312 1061.984375 540.941406 L 1061.984375 539.398438 C 1061.984375 525.886719 1050.996094 514.902344 1037.492188 514.902344 L 1032.507812 514.902344 C 1019.007812 514.902344 1008.015625 525.886719 1008.015625 539.398438 L 1008.015625 540.941406 C 1008.015625 554.445312 1019.007812 565.429688 1032.507812 565.429688 " fill-opacity="1" fill-rule="nonzero"/><path fill="#9bca91" d="M 1145.832031 565.429688 L 1150.8125 565.429688 C 1164.320312 565.429688 1175.308594 554.445312 1175.308594 540.941406 L 1175.308594 539.398438 C 1175.308594 525.886719 1164.320312 514.902344 1150.8125 514.902344 L 1145.832031 514.902344 C 1132.328125 514.902344 1121.339844 525.886719 1121.339844 539.398438 L 1121.339844 540.941406 C 1121.339844 554.445312 1132.328125 565.429688 1145.832031 565.429688 " fill-opacity="1" fill-rule="nonzero"/><path fill="#9bca91" d="M 1032.507812 457.230469 L 1037.492188 457.230469 C 1050.996094 457.230469 1061.984375 446.246094 1061.984375 432.742188 L 1061.984375 431.191406 C 1061.984375 417.6875 1050.996094 406.703125 1037.492188 406.703125 L 1032.507812 406.703125 C 1019.007812 406.703125 1008.015625 417.6875 1008.015625 431.191406 L 1008.015625 432.742188 C 1008.015625 446.246094 1019.007812 457.230469 1032.507812 457.230469 " fill-opacity="1" fill-rule="nonzero"/><path fill="#9bca91" d="M 919.183594 457.230469 L 924.167969 457.230469 C 937.671875 457.230469 948.660156 446.246094 948.660156 432.742188 L 948.660156 431.191406 C 948.660156 417.6875 937.671875 406.703125 924.167969 406.703125 L 919.183594 406.703125 C 905.683594 406.703125 894.699219 417.6875 894.699219 431.191406 L 894.699219 432.742188 C 894.699219 446.246094 905.683594 457.230469 919.183594 457.230469 " fill-opacity="1" fill-rule="nonzero"/><path fill="#9bca91" d="M 919.183594 565.429688 L 924.167969 565.429688 C 937.671875 565.429688 948.660156 554.445312 948.660156 540.941406 L 948.660156 539.398438 C 948.660156 525.886719 937.671875 514.902344 924.167969 514.902344 L 919.183594 514.902344 C 905.683594 514.902344 894.699219 525.886719 894.699219 539.398438 L 894.699219 540.941406 C 894.699219 554.445312 905.683594 565.429688 919.183594 565.429688 " fill-opacity="1" fill-rule="nonzero"/><path fill="#9bca91" d="M 1270.160156 311.179688 L 799.839844 311.179688 L 799.839844 257.105469 C 799.839844 237.480469 815.75 221.574219 835.371094 221.574219 L 890.976562 221.574219 L 890.976562 188.128906 C 890.976562 173.699219 902.679688 162 917.105469 162 C 931.535156 162 943.234375 173.699219 943.234375 188.128906 L 943.234375 221.574219 L 1126.765625 221.574219 L 1126.765625 188.128906 C 1126.765625 173.699219 1138.464844 162 1152.894531 162 C 1167.320312 162 1179.023438 173.699219 1179.023438 188.128906 L 1179.023438 221.574219 L 1234.628906 221.574219 C 1254.25 221.574219 1270.160156 237.480469 1270.160156 257.105469 Z M 1270.160156 612.460938 C 1270.160156 632.089844 1254.25 648 1234.628906 648 L 835.371094 648 C 815.75 648 799.839844 632.089844 799.839844 612.460938 L 799.839844 349.363281 L 1270.160156 349.363281 Z M 1035 0 C 811.324219 0 630 181.324219 630 405 C 630 628.675781 811.324219 810 1035 810 C 1258.675781 810 1440 628.675781 1440 405 C 1440 181.324219 1258.675781 0 1035 0 " fill-opacity="1" fill-rule="nonzero"/><path fill="#9bca91" d="M 1145.832031 457.230469 L 1150.8125 457.230469 C 1164.320312 457.230469 1175.308594 446.246094 1175.308594 432.742188 L 1175.308594 431.191406 C 1175.308594 417.6875 1164.320312 406.703125 1150.8125 406.703125 L 1145.832031 406.703125 C 1132.328125 406.703125 1121.339844 417.6875 1121.339844 431.191406 L 1121.339844 432.742188 C 1121.339844 446.246094 1132.328125 457.230469 1145.832031 457.230469 " fill-opacity="1" fill-rule="nonzero"/></svg>