<svg xmlns="http://www.w3.org/2000/svg" xmlns:xlink="http://www.w3.org/1999/xlink" width="1920" zoomAndPan="magnify" viewBox="0 0 1440 809.999993" height="1080" preserveAspectRatio="xMidYMid meet" version="1.0"><defs><filter x="0%" y="0%" width="100%" height="100%" id="f58371255a"><feColorMatrix values="0 0 0 0 1 0 0 0 0 1 0 0 0 0 1 0 0 0 1 0" color-interpolation-filters="sRGB"/></filter><clipPath id="8d96a23e96"><path d="M 409 26.332031 L 1106.179688 26.332031 L 1106.179688 669 L 409 669 Z M 409 26.332031 " clip-rule="nonzero"/></clipPath><mask id="63c07cbf3a"><g filter="url(#f58371255a)"><rect x="-144" width="1728" fill="#000000" y="-80.999999" height="971.999992" fill-opacity="0.5"/></g></mask><clipPath id="22b06ad322"><rect x="0" width="698" y="0" height="643"/></clipPath><clipPath id="b3557490ce"><path d="M 327 776 L 1104 776 L 1104 783.574219 L 327 783.574219 Z M 327 776 " clip-rule="nonzero"/></clipPath><clipPath id="7495eea4ad"><path d="M 674 149.074219 L 751 149.074219 L 751 226 L 674 226 Z M 674 149.074219 " clip-rule="nonzero"/></clipPath></defs><path fill="#caddff" d="M 929.4375 155.582031 C 809.644531 162.503906 689.621094 164.914062 569.695312 161.515625 C 513.890625 160.9375 457.492188 167.363281 404.328125 186.984375 C 375.566406 207.230469 363.535156 248.292969 368.855469 284.554688 C 371.035156 394.660156 369.78125 504.847656 372.992188 614.917969 C 374.191406 635.40625 382.792969 657.609375 400.945312 665.746094 C 424.375 678.308594 450.734375 681.25 474.953125 691.40625 C 580.804688 725.585938 686.53125 765.058594 796.980469 775.824219 C 848.871094 780.519531 902.472656 783.535156 952.796875 765.847656 C 989.128906 744.484375 1008.5 697.75 1008.539062 653.316406 C 1017.070312 512.613281 1035.234375 372.25 1031.9375 230.949219 C 1029.019531 197.882812 1007.117188 165.875 976.679688 160.191406 C 961.285156 155.742188 945.253906 155.300781 929.4375 155.582031 Z M 926.953125 685.222656 C 929.296875 690.28125 925.511719 684.160156 926.953125 685.222656 Z M 926.953125 685.222656 " fill-opacity="1" fill-rule="nonzero"/><g clip-path="url(#8d96a23e96)"><g mask="url(#63c07cbf3a)"><g transform="matrix(1, 0, 0, 1, 409, 26)"><g clip-path="url(#22b06ad322)"><path fill="#caddff" d="M 548.171875 4.515625 C 430.304688 27.011719 311.625 45.066406 192.28125 57.351562 C 136.878906 64.0625 81.800781 77.792969 31.652344 104.1875 C 5.78125 128.015625 -0.789062 170.296875 9.21875 205.554688 C 25.753906 314.433594 38.890625 423.839844 56.441406 532.550781 C 60.308594 552.707031 71.734375 573.597656 90.792969 579.296875 C 115.660156 588.691406 142.179688 588.167969 167.511719 595.078125 C 276.925781 615.148438 386.894531 640.480469 497.804688 636.738281 C 549.863281 634.625 603.402344 630.617188 650.988281 606.507812 C 684.21875 580.585938 697.324219 531.722656 691.566406 487.667969 C 681.65625 347.050781 681.34375 205.519531 659.632812 65.859375 C 652.421875 33.457031 626.527344 4.578125 595.613281 2.917969 C 579.769531 0.515625 563.816406 2.171875 548.171875 4.515625 Z M 614.84375 529.945312 C 617.824219 534.65625 613.273438 529.082031 614.84375 529.945312 Z M 614.84375 529.945312 " fill-opacity="1" fill-rule="nonzero"/></g></g></g></g><g clip-path="url(#b3557490ce)"><path fill="#1a3a49" d="M 327.265625 776.074219 L 1103.910156 776.074219 L 1103.910156 783.308594 L 327.265625 783.308594 Z M 327.265625 776.074219 " fill-opacity="1" fill-rule="nonzero"/></g><path fill="#fec3bd" d="M 751.460938 396.859375 C 748.535156 392.503906 743.578125 386.402344 740.03125 388.832031 C 734.695312 392.460938 746.394531 408.078125 746.394531 408.078125 C 746.394531 408.078125 734.859375 397.09375 735.28125 406.136719 C 735.710938 415.199219 769.242188 447.84375 769.242188 447.84375 L 793.007812 425.449219 C 793.007812 425.449219 789.472656 392.679688 782.988281 395.144531 C 779.972656 396.292969 777.964844 408.808594 777.964844 408.808594 C 777.964844 408.808594 765.550781 381.347656 759.632812 384.519531 C 756.457031 386.246094 758.640625 391.890625 761.320312 396.742188 C 756.265625 389.226562 748.863281 379.207031 746.582031 381.199219 C 744.132812 383.347656 748.492188 391.785156 751.460938 396.859375 Z M 751.460938 396.859375 " fill-opacity="1" fill-rule="nonzero"/><path fill="#47adf7" d="M 764.332031 447.417969 C 764.332031 447.417969 808.789062 518.46875 830.125 526.882812 C 839.105469 530.421875 847.402344 526.054688 861.226562 520.382812 C 876.945312 513.949219 893.28125 504.15625 904.558594 496.824219 C 913.335938 491.109375 919.0625 486.890625 919.0625 486.890625 L 926.851562 402.460938 C 914.90625 407.792969 875.078125 438.320312 840.011719 464.710938 L 794.316406 414.832031 Z M 764.332031 447.417969 " fill-opacity="1" fill-rule="nonzero"/><path fill="#218ae5" d="M 861.226562 520.382812 C 876.945312 513.949219 893.28125 504.15625 904.558594 496.824219 L 908.902344 429.625 C 908.902344 429.625 881.667969 493.066406 861.226562 520.382812 Z M 861.226562 520.382812 " fill-opacity="1" fill-rule="nonzero"/><path fill="#0e1738" d="M 928.851562 259.296875 C 928.851562 259.296875 922.878906 291.71875 942.8125 303.820312 C 958.335938 313.246094 960.628906 282.015625 960.882812 267.75 C 960.929688 265.113281 957.824219 263.679688 955.839844 265.417969 L 942.457031 277.128906 " fill-opacity="1" fill-rule="nonzero"/><path fill="#11153a" d="M 895.835938 775.925781 L 897.902344 623.886719 L 977.285156 623.886719 L 961.464844 775.925781 Z M 895.835938 775.925781 " fill-opacity="1" fill-rule="nonzero"/><path fill="#090e2b" d="M 954.207031 775.925781 L 946.800781 623.886719 L 977.28125 623.886719 L 961.464844 775.925781 Z M 954.207031 775.925781 " fill-opacity="1" fill-rule="nonzero"/><path fill="#11153a" d="M 961.53125 775.925781 L 946.800781 623.886719 L 1035.398438 623.886719 L 1035.398438 775.925781 Z M 961.53125 775.925781 " fill-opacity="1" fill-rule="nonzero"/><path fill="#47adf7" d="M 1046.871094 651.558594 C 1046.871094 665.617188 893.1875 665.617188 893.1875 651.558594 C 892.808594 639.738281 899.160156 604.765625 900.210938 565.738281 C 901.921875 502.101562 893.046875 441.839844 916.148438 411.050781 C 924.90625 399.375 939.597656 398.496094 955.839844 396.175781 C 973.492188 393.664062 1001.351562 394.28125 1001.351562 394.28125 C 1001.351562 394.28125 1050.523438 403.035156 1054.410156 411.050781 C 1068.417969 439.921875 1046.34375 546.292969 1046.34375 546.292969 Z M 1046.871094 651.558594 " fill-opacity="1" fill-rule="nonzero"/><path fill="#218ae5" d="M 1043.792969 560 L 1014.667969 601 L 1047.136719 585.949219 L 1051.789062 572.515625 Z M 1043.792969 560 " fill-opacity="1" fill-rule="nonzero"/><path fill="#fec3bd" d="M 955.269531 396.929688 C 955.597656 399.660156 959.695312 413.484375 966.414062 416.214844 C 972.238281 418.59375 997.265625 399.320312 1000.140625 395.589844 C 1000.527344 395.105469 1000.726562 394.523438 1000.753906 393.894531 C 1001.507812 378.976562 1009.167969 344.617188 1012.570312 333.953125 C 1013.324219 331.605469 1011.117188 329.398438 1008.769531 330.140625 L 958.671875 345.753906 C 957.132812 346.238281 956.238281 347.847656 956.648438 349.414062 C 957.277344 351.847656 957.730469 354.28125 958.042969 356.644531 C 958.160156 357.496094 958.246094 358.335938 958.328125 359.179688 C 958.96875 366.308594 958.386719 372.800781 957.605469 377.554688 C 957.433594 378.59375 957.21875 380.402344 956.960938 382.480469 C 956.960938 382.496094 956.960938 382.496094 956.960938 382.496094 C 956.351562 387.832031 955.597656 394.976562 955.367188 395.761719 C 955.253906 396.144531 955.226562 396.53125 955.269531 396.929688 Z M 955.269531 396.929688 " fill-opacity="1" fill-rule="nonzero"/><path fill="#f18b89" d="M 956.960938 382.480469 C 956.960938 382.496094 956.960938 382.496094 956.960938 382.496094 C 956.960938 382.496094 984.71875 372.265625 989.621094 363.476562 C 996.089844 351.875 962.386719 357.496094 962.386719 357.496094 C 962.386719 357.496094 960.621094 358.222656 958.328125 359.179688 C 958.96875 366.308594 958.386719 372.800781 957.605469 377.554688 C 957.433594 378.59375 957.21875 380.402344 956.960938 382.480469 Z M 956.960938 382.480469 " fill-opacity="1" fill-rule="nonzero"/><path fill="#218ae5" d="M 1028.792969 492.296875 C 1034.449219 516.324219 1047.09375 590.992188 1047.265625 592.46875 L 1046.339844 545.867188 C 1046.339844 545.867188 1054.46875 519.261719 1060.21875 489.722656 C 1045.8125 478.734375 1028.800781 466.039062 1028.800781 466.039062 C 1028.800781 466.039062 1025.574219 478.613281 1028.792969 492.296875 Z M 1028.792969 492.296875 " fill-opacity="1" fill-rule="nonzero"/><path fill="#fdd1c4" d="M 1017.164062 604.816406 C 1017.164062 604.816406 982.195312 611.929688 980.21875 617.78125 C 978.28125 623.570312 995.820312 622.609375 995.820312 622.609375 " fill-opacity="1" fill-rule="nonzero"/><path fill="#fdd1c4" d="M 995.820312 622.609375 C 992.707031 624.582031 969.582031 639.289062 975.277344 643.457031 C 977.339844 644.972656 983.328125 643.804688 985.578125 642.761719 C 979.925781 647.585938 973.152344 655.96875 975.824219 658.171875 C 979.546875 661.234375 986.265625 655.199219 988.519531 652.984375 C 986.304688 655.324219 980.191406 662.347656 984.445312 664.59375 C 987.035156 665.960938 992.636719 660.960938 995.414062 658.871094 C 993.964844 661.101562 992.492188 669.601562 997.511719 668.261719 C 1005.210938 666.222656 1036.699219 630.890625 1036.699219 630.890625 L 1017.164062 604.816406 " fill-opacity="1" fill-rule="nonzero"/><path fill="#47adf7" d="M 1028.800781 466.039062 C 1030.152344 498.390625 1056.535156 554.390625 1056.535156 554.390625 L 1014.667969 601 L 1035.386719 639.84375 C 1035.386719 639.84375 1092.28125 594.054688 1102.46875 565.308594 C 1116.019531 527.066406 1054.410156 411.050781 1054.410156 411.050781 C 1054.410156 411.050781 1027.121094 425.792969 1028.800781 466.039062 Z M 1028.800781 466.039062 " fill-opacity="1" fill-rule="nonzero"/><path fill="#fec3bd" d="M 951.117188 373.203125 C 978.671875 380.628906 1003.273438 352.886719 1010.007812 341.34375 L 1010.007812 341.328125 C 1011.195312 339.285156 1012.003906 337.691406 1012.425781 336.824219 C 1012.660156 336.339844 1013.007812 335.941406 1013.453125 335.644531 C 1017.011719 333.261719 1033.132812 321.761719 1029.085938 311.5625 C 1026.441406 304.925781 1021.925781 304.136719 1018.601562 304.648438 C 1016.644531 304.949219 1014.941406 303.230469 1015.203125 301.269531 C 1022.371094 248.007812 963.695312 250.3125 947.550781 274.351562 C 946.839844 275.40625 946.113281 276.703125 945.386719 278.210938 C 934.882812 299.691406 921.515625 365.226562 951.117188 373.203125 Z M 951.117188 373.203125 " fill-opacity="1" fill-rule="nonzero"/><path fill="#f18b89" d="M 956.605469 357.183594 C 954.214844 357.183594 951.828125 356.40625 949.933594 354.898438 C 949.542969 354.589844 949.476562 354.019531 949.789062 353.628906 C 950.097656 353.238281 950.667969 353.171875 951.058594 353.484375 C 953.660156 355.554688 957.554688 355.957031 960.519531 354.46875 C 960.96875 354.25 961.511719 354.429688 961.734375 354.875 C 961.957031 355.320312 961.777344 355.863281 961.332031 356.085938 C 959.859375 356.824219 958.230469 357.183594 956.605469 357.183594 Z M 956.605469 357.183594 " fill-opacity="1" fill-rule="nonzero"/><path fill="#0e1738" d="M 932.847656 280.925781 C 939.726562 303.699219 996.199219 273.328125 993.820312 283.535156 C 992.074219 291.082031 999.136719 293.691406 1002.933594 294.542969 C 1004.285156 294.84375 1005.242188 296.03125 1005.285156 297.414062 L 1005.730469 312.683594 C 1005.777344 314.175781 1006.902344 315.417969 1008.382812 315.609375 C 1009.792969 315.789062 1011.136719 314.972656 1011.628906 313.640625 L 1013.980469 307.230469 C 1014.269531 306.441406 1014.867188 305.796875 1015.644531 305.480469 C 1018.484375 304.316406 1025.503906 302.566406 1029.085938 311.5625 C 1033.132812 321.761719 1017.011719 333.261719 1013.453125 335.644531 C 1013.007812 335.941406 1012.660156 336.339844 1012.425781 336.824219 C 1012.003906 337.691406 1011.195312 339.285156 1010.007812 341.328125 L 1010.007812 341.34375 L 1007.425781 351.445312 C 1006.6875 354.324219 1003.980469 370.914062 1003.980469 370.914062 C 1003.980469 370.914062 1049.695312 318.957031 1047.214844 291.0625 C 1043.777344 252.453125 1023.492188 270.722656 1020.402344 255.777344 C 1017.3125 240.832031 994.0625 234.894531 978.871094 237.984375 C 963.695312 241.074219 937.941406 242.480469 931.777344 250.082031 C 926.339844 256.773438 929.453125 269.695312 932.847656 280.925781 Z M 932.847656 280.925781 " fill-opacity="1" fill-rule="nonzero"/><path fill="#160f0f" d="M 945.515625 306.980469 C 945.878906 307.054688 946.203125 307.230469 946.496094 307.503906 C 946.785156 307.78125 947.019531 308.140625 947.199219 308.574219 C 947.375 309.011719 947.480469 309.496094 947.515625 310.027344 C 947.554688 310.558594 947.515625 311.097656 947.40625 311.644531 C 947.292969 312.1875 947.117188 312.699219 946.878906 313.171875 C 946.636719 313.648438 946.351562 314.054688 946.015625 314.386719 C 945.683594 314.71875 945.328125 314.957031 944.953125 315.097656 C 944.578125 315.238281 944.207031 315.273438 943.847656 315.199219 C 943.484375 315.125 943.160156 314.949219 942.867188 314.675781 C 942.578125 314.398438 942.34375 314.042969 942.164062 313.605469 C 941.988281 313.167969 941.882812 312.683594 941.847656 312.152344 C 941.808594 311.621094 941.847656 311.082031 941.957031 310.539062 C 942.070312 309.992188 942.246094 309.480469 942.484375 309.007812 C 942.726562 308.53125 943.011719 308.128906 943.347656 307.792969 C 943.679688 307.460938 944.035156 307.222656 944.410156 307.082031 C 944.785156 306.941406 945.15625 306.90625 945.515625 306.980469 Z M 945.515625 306.980469 " fill-opacity="1" fill-rule="nonzero"/><path fill="#160f0f" d="M 949.609375 306.8125 C 949.390625 306.8125 949.167969 306.730469 948.996094 306.570312 C 945.117188 302.976562 942.425781 304.871094 942.3125 304.953125 C 941.914062 305.246094 941.351562 305.164062 941.050781 304.765625 C 940.753906 304.367188 940.828125 303.808594 941.222656 303.507812 C 941.261719 303.480469 945.191406 300.578125 950.222656 305.246094 C 950.589844 305.585938 950.609375 306.15625 950.273438 306.523438 C 950.09375 306.714844 949.851562 306.8125 949.609375 306.8125 Z M 949.609375 306.8125 " fill-opacity="1" fill-rule="nonzero"/><path fill="#160f0f" d="M 974.9375 311.132812 C 975.296875 311.207031 975.625 311.378906 975.917969 311.65625 C 976.207031 311.933594 976.441406 312.289062 976.617188 312.726562 C 976.796875 313.164062 976.902344 313.648438 976.9375 314.179688 C 976.976562 314.710938 976.9375 315.25 976.828125 315.792969 C 976.714844 316.339844 976.539062 316.847656 976.300781 317.324219 C 976.058594 317.800781 975.773438 318.203125 975.4375 318.539062 C 975.105469 318.871094 974.75 319.109375 974.375 319.25 C 974 319.390625 973.628906 319.421875 973.269531 319.351562 C 972.90625 319.277344 972.582031 319.101562 972.289062 318.824219 C 972 318.550781 971.765625 318.191406 971.585938 317.753906 C 971.410156 317.320312 971.304688 316.835938 971.265625 316.304688 C 971.230469 315.769531 971.269531 315.234375 971.378906 314.6875 C 971.488281 314.144531 971.664062 313.632812 971.90625 313.15625 C 972.148438 312.683594 972.433594 312.277344 972.765625 311.945312 C 973.101562 311.613281 973.457031 311.375 973.832031 311.234375 C 974.207031 311.09375 974.578125 311.058594 974.9375 311.132812 Z M 974.9375 311.132812 " fill-opacity="1" fill-rule="nonzero"/><path fill="#160f0f" d="M 979.03125 310.964844 C 978.8125 310.964844 978.589844 310.882812 978.417969 310.722656 C 974.484375 307.078125 971.769531 309.078125 971.742188 309.097656 C 971.347656 309.402344 970.78125 309.324219 970.476562 308.929688 C 970.171875 308.53125 970.25 307.964844 970.644531 307.660156 C 970.683594 307.632812 974.613281 304.730469 979.644531 309.398438 C 980.011719 309.734375 980.03125 310.308594 979.695312 310.675781 C 979.515625 310.867188 979.273438 310.964844 979.03125 310.964844 Z M 979.03125 310.964844 " fill-opacity="1" fill-rule="nonzero"/><path fill="#f18b89" d="M 954.667969 339.613281 C 954.414062 339.613281 954.164062 339.507812 953.984375 339.304688 C 951.34375 336.273438 951.199219 331.417969 953.664062 328.242188 C 954.125 327.640625 954.652344 327.125 955.160156 326.621094 C 955.460938 326.328125 955.761719 326.03125 956.042969 325.722656 C 957.914062 323.675781 959.179688 320.769531 959.699219 317.316406 C 960.179688 314.144531 960.023438 310.855469 959.871094 307.671875 C 959.847656 307.171875 960.234375 306.75 960.730469 306.726562 C 961.226562 306.710938 961.652344 307.085938 961.675781 307.585938 C 961.832031 310.855469 961.992188 314.238281 961.488281 317.585938 C 960.914062 321.394531 959.492188 324.628906 957.378906 326.941406 C 957.074219 327.273438 956.753906 327.59375 956.429688 327.910156 C 955.941406 328.390625 955.480469 328.84375 955.09375 329.347656 C 953.171875 331.824219 953.289062 335.753906 955.347656 338.113281 C 955.675781 338.492188 955.636719 339.0625 955.261719 339.390625 C 955.089844 339.539062 954.878906 339.613281 954.667969 339.613281 Z M 954.667969 339.613281 " fill-opacity="1" fill-rule="nonzero"/><path fill="#d7daf4" d="M 520.867188 332.707031 L 517.253906 332.542969 C 517.414062 329 518.097656 324.566406 518.890625 319.429688 C 521.179688 304.566406 524.316406 284.207031 515.292969 274.433594 C 510.972656 269.75 504.292969 267.804688 494.910156 268.488281 L 494.648438 264.882812 C 505.0625 264.128906 512.90625 266.511719 517.953125 271.980469 C 528.15625 283.035156 524.867188 304.390625 522.464844 319.980469 C 521.6875 325.011719 521.019531 329.359375 520.867188 332.707031 Z M 520.867188 332.707031 " fill-opacity="1" fill-rule="nonzero"/><path fill="#fe6081" d="M 525.003906 337.058594 C 525.003906 337.714844 524.976562 338.367188 524.929688 339.019531 C 524.878906 339.667969 524.804688 340.316406 524.703125 340.957031 C 524.605469 341.597656 524.480469 342.230469 524.332031 342.859375 C 524.183594 343.484375 524.011719 344.097656 523.816406 344.703125 C 523.621094 345.308594 523.402344 345.898438 523.164062 346.476562 C 522.921875 347.050781 522.660156 347.613281 522.378906 348.15625 C 522.09375 348.699219 521.789062 349.226562 521.46875 349.730469 C 521.144531 350.234375 520.800781 350.71875 520.441406 351.183594 C 520.082031 351.644531 519.703125 352.085938 519.308594 352.5 C 518.914062 352.914062 518.503906 353.304688 518.082031 353.667969 C 517.65625 354.03125 517.21875 354.367188 516.769531 354.675781 C 516.320312 354.984375 515.859375 355.261719 515.386719 355.511719 C 514.917969 355.761719 514.4375 355.984375 513.949219 356.171875 C 513.460938 356.363281 512.964844 356.519531 512.464844 356.648438 C 511.964844 356.777344 511.460938 356.871094 510.953125 356.9375 C 510.445312 357 509.9375 357.03125 509.425781 357.03125 C 508.917969 357.03125 508.40625 357 507.898438 356.9375 C 507.390625 356.871094 506.886719 356.777344 506.386719 356.648438 C 505.886719 356.519531 505.394531 356.363281 504.90625 356.171875 C 504.417969 355.984375 503.9375 355.761719 503.464844 355.511719 C 502.996094 355.261719 502.535156 354.984375 502.085938 354.675781 C 501.632812 354.367188 501.199219 354.03125 500.773438 353.667969 C 500.347656 353.304688 499.941406 352.914062 499.546875 352.5 C 499.152344 352.085938 498.773438 351.644531 498.414062 351.183594 C 498.050781 350.71875 497.710938 350.234375 497.386719 349.730469 C 497.0625 349.226562 496.757812 348.699219 496.476562 348.15625 C 496.191406 347.613281 495.929688 347.050781 495.691406 346.476562 C 495.449219 345.898438 495.230469 345.308594 495.035156 344.703125 C 494.839844 344.097656 494.667969 343.484375 494.523438 342.859375 C 494.375 342.230469 494.25 341.597656 494.148438 340.957031 C 494.050781 340.316406 493.976562 339.667969 493.925781 339.019531 C 493.875 338.367188 493.851562 337.714844 493.851562 337.058594 C 493.851562 336.40625 493.875 335.753906 493.925781 335.101562 C 493.976562 334.453125 494.050781 333.804688 494.148438 333.164062 C 494.25 332.523438 494.375 331.886719 494.523438 331.261719 C 494.667969 330.636719 494.839844 330.019531 495.035156 329.417969 C 495.230469 328.8125 495.449219 328.222656 495.691406 327.644531 C 495.929688 327.066406 496.191406 326.507812 496.476562 325.964844 C 496.757812 325.417969 497.0625 324.894531 497.386719 324.390625 C 497.710938 323.882812 498.050781 323.398438 498.414062 322.9375 C 498.773438 322.472656 499.152344 322.035156 499.546875 321.621094 C 499.941406 321.207031 500.347656 320.816406 500.773438 320.453125 C 501.199219 320.089844 501.632812 319.753906 502.085938 319.445312 C 502.535156 319.136719 502.996094 318.859375 503.464844 318.609375 C 503.9375 318.355469 504.417969 318.136719 504.90625 317.945312 C 505.394531 317.757812 505.886719 317.597656 506.386719 317.472656 C 506.886719 317.34375 507.390625 317.246094 507.898438 317.183594 C 508.40625 317.121094 508.917969 317.085938 509.425781 317.085938 C 509.9375 317.085938 510.445312 317.121094 510.953125 317.183594 C 511.460938 317.246094 511.964844 317.34375 512.464844 317.472656 C 512.964844 317.597656 513.460938 317.757812 513.949219 317.945312 C 514.4375 318.136719 514.917969 318.355469 515.386719 318.609375 C 515.859375 318.859375 516.320312 319.136719 516.769531 319.445312 C 517.21875 319.753906 517.65625 320.089844 518.082031 320.453125 C 518.503906 320.816406 518.914062 321.207031 519.308594 321.621094 C 519.703125 322.035156 520.082031 322.472656 520.441406 322.9375 C 520.800781 323.398438 521.144531 323.882812 521.46875 324.390625 C 521.789062 324.894531 522.09375 325.417969 522.378906 325.964844 C 522.660156 326.507812 522.921875 327.066406 523.164062 327.644531 C 523.402344 328.222656 523.621094 328.8125 523.816406 329.417969 C 524.011719 330.019531 524.183594 330.636719 524.332031 331.261719 C 524.480469 331.886719 524.605469 332.523438 524.703125 333.164062 C 524.804688 333.804688 524.878906 334.453125 524.929688 335.101562 C 524.976562 335.753906 525.003906 336.40625 525.003906 337.058594 Z M 525.003906 337.058594 " fill-opacity="1" fill-rule="nonzero"/><path fill="#fe6081" d="M 509.429688 317.089844 C 518.03125 317.089844 525.003906 326.03125 525.003906 337.0625 C 525.003906 348.089844 518.03125 357.035156 509.429688 357.035156 " fill-opacity="1" fill-rule="nonzero"/><path fill="#b94768" d="M 511.992188 357.035156 C 520.597656 357.035156 527.570312 348.089844 527.570312 337.0625 C 527.570312 326.03125 520.597656 317.089844 511.992188 317.089844 L 509.429688 317.089844 C 518.03125 317.089844 525.003906 326.03125 525.003906 337.0625 C 525.003906 348.089844 518.03125 357.035156 509.429688 357.035156 Z M 511.992188 357.035156 " fill-opacity="1" fill-rule="nonzero"/><path fill="#fec3bd" d="M 727.210938 553.300781 L 719.363281 589.160156 L 554.566406 589.160156 L 553.710938 587.449219 L 537.75 555.519531 L 514.652344 509.308594 L 506.960938 493.941406 L 565.101562 481.074219 L 589.457031 536.503906 Z M 727.210938 553.300781 " fill-opacity="1" fill-rule="nonzero"/><path fill="#f18b89" d="M 725.78125 559.800781 L 719.363281 589.160156 L 554.566406 589.160156 L 553.710938 587.449219 L 537.75 555.519531 L 514.652344 509.308594 L 506.960938 493.941406 L 531.890625 488.429688 L 550.753906 526.15625 C 561.070312 546.765625 582.132812 559.800781 605.199219 559.800781 Z M 725.78125 559.800781 " fill-opacity="1" fill-rule="nonzero"/><path fill="#06112d" d="M 390.597656 706.144531 L 410.632812 706.144531 L 410.632812 775.925781 L 390.597656 775.925781 Z M 390.597656 706.144531 " fill-opacity="1" fill-rule="nonzero"/><path fill="#06112d" d="M 449.828125 706.144531 L 469.863281 706.144531 L 469.863281 775.925781 L 449.828125 775.925781 Z M 449.828125 706.144531 " fill-opacity="1" fill-rule="nonzero"/><path fill="#06112d" d="M 564.039062 706.144531 L 584.078125 706.144531 L 584.078125 775.925781 L 564.039062 775.925781 Z M 564.039062 706.144531 " fill-opacity="1" fill-rule="nonzero"/><path fill="#fe6081" d="M 482.058594 428.609375 L 358.09375 428.609375 C 338.503906 428.609375 323.972656 446.769531 328.265625 465.878906 L 381.546875 696.875 C 384.683594 710.824219 397.070312 720.738281 411.371094 720.738281 L 535.335938 720.738281 C 554.921875 720.738281 569.457031 702.578125 565.164062 683.46875 L 511.882812 452.472656 C 508.746094 438.523438 496.359375 428.609375 482.058594 428.609375 Z M 482.058594 428.609375 " fill-opacity="1" fill-rule="nonzero"/><path fill="#b94768" d="M 430.976562 720.730469 L 411.375 720.730469 C 397.078125 720.730469 384.679688 710.820312 381.539062 696.878906 L 328.269531 465.875 C 323.96875 446.777344 338.5 428.601562 358.085938 428.601562 L 377.691406 428.601562 C 358.105469 428.601562 343.574219 446.777344 347.855469 465.875 L 401.144531 696.878906 C 404.285156 710.820312 416.664062 720.730469 430.976562 720.730469 Z M 430.976562 720.730469 " fill-opacity="1" fill-rule="nonzero"/><path fill="#fe6081" d="M 568.34375 679.296875 L 464.78125 679.296875 C 443.507812 679.296875 426.265625 694.0625 426.265625 712.273438 L 426.265625 720.738281 L 568.34375 720.738281 Z M 568.34375 679.296875 " fill-opacity="1" fill-rule="nonzero"/><path fill="#37c092" d="M 580.164062 480.320312 L 549.703125 503.152344 L 522.578125 523.464844 L 520.074219 525.339844 L 492.515625 465.742188 L 498.710938 403.125 C 498.710938 403.125 511.074219 404.625 518.898438 408.5625 C 536.339844 417.332031 580.164062 480.320312 580.164062 480.320312 Z M 580.164062 480.320312 " fill-opacity="1" fill-rule="nonzero"/><path fill="#238a6f" d="M 549.703125 503.152344 L 522.578125 523.464844 L 533.578125 443.339844 Z M 549.703125 503.152344 " fill-opacity="1" fill-rule="nonzero"/><path fill="#06112d" d="M 527.59375 303.949219 C 527.59375 303.949219 526.507812 336.171875 509.15625 332.300781 C 494.621094 329.058594 505.230469 306.007812 505.230469 306.007812 L 518.972656 301.597656 Z M 527.59375 303.949219 " fill-opacity="1" fill-rule="nonzero"/><path fill="#0e1738" d="M 560.753906 671.402344 L 572.972656 775.925781 L 640.472656 775.925781 L 643.902344 655.484375 C 644.625 635.953125 630.660156 618.945312 611.359375 615.847656 L 539.015625 602.28125 L 529.613281 589.164062 L 504.632812 598.421875 L 469.886719 606.785156 L 497.695312 625.582031 Z M 560.753906 671.402344 " fill-opacity="1" fill-rule="nonzero"/><path fill="#06112d" d="M 560.753906 671.402344 L 572.972656 775.925781 L 601.414062 775.925781 L 605.042969 650.410156 C 605.917969 629.15625 590.457031 610.71875 569.367188 607.882812 L 518.34375 601.695312 L 504.632812 598.421875 L 469.886719 606.785156 L 497.695312 625.582031 Z M 560.753906 671.402344 " fill-opacity="1" fill-rule="nonzero"/><path fill="#0e1738" d="M 477.664062 679.296875 L 522.578125 679.296875 L 523.152344 775.925781 L 590.65625 775.925781 L 594.277344 650.410156 C 595.15625 629.148438 579.699219 610.71875 558.609375 607.882812 L 515.167969 601.695312 L 420.523438 579.058594 L 419.601562 624.519531 C 421.390625 655.269531 446.863281 679.296875 477.664062 679.296875 Z M 477.664062 679.296875 " fill-opacity="1" fill-rule="nonzero"/><path fill="#37c092" d="M 410.984375 531.765625 C 411.070312 532.609375 418.175781 588.578125 418.507812 605.589844 C 419.71875 621.078125 542.925781 611.4375 541.710938 595.953125 C 541.710938 595.953125 539.480469 445.199219 527.035156 423.371094 C 522.199219 414.902344 509.894531 406.644531 498.703125 403.128906 C 497.160156 402.640625 495.714844 402.253906 494.414062 401.984375 C 480.390625 399.035156 457.585938 396.804688 443.863281 398.851562 C 439.945312 399.4375 434.921875 400.109375 429.527344 401.582031 C 418.984375 404.402344 407.476562 410.460938 403.824219 418.222656 C 391.609375 444.183594 408.609375 508.605469 410.984375 531.765625 Z M 410.984375 531.765625 " fill-opacity="1" fill-rule="nonzero"/><path fill="#238a6f" d="M 433.425781 428.417969 C 433.425781 428.417969 442.421875 440.488281 449.980469 459.804688 C 457.539062 479.121094 466.820312 538.457031 466.820312 538.457031 L 540.175781 556.792969 L 505.179688 565.054688 L 430.230469 555.535156 L 418.382812 478.269531 Z M 433.425781 428.417969 " fill-opacity="1" fill-rule="nonzero"/><path fill="#fec3bd" d="M 444.472656 398.066406 C 444.472656 398.066406 455.609375 427.976562 476.667969 426.054688 C 488.136719 425.007812 480.398438 404.269531 480.398438 404.269531 L 480.964844 397.496094 L 481.875 386.398438 L 457.058594 369.121094 L 446.316406 361.644531 Z M 444.472656 398.066406 " fill-opacity="1" fill-rule="nonzero"/><path fill="#f18b89" d="M 457.324219 373.664062 C 465.5625 388.082031 478.234375 395.925781 480.964844 397.496094 L 481.875 386.398438 L 457.058594 369.121094 C 456.132812 370.113281 456.136719 371.574219 457.324219 373.664062 Z M 457.324219 373.664062 " fill-opacity="1" fill-rule="nonzero"/><path fill="#fec3bd" d="M 438.957031 352.148438 C 438.957031 352.148438 441.753906 356.195312 446.324219 361.691406 C 456.9375 374.457031 477.136719 395.097656 494.105469 391.265625 C 516.546875 386.214844 516.324219 345.324219 513.695312 318.714844 C 512.382812 305.476562 510.488281 295.773438 510.488281 295.773438 L 490.992188 292.375 L 471.785156 289.964844 L 452.476562 313.875 L 446.511719 337.550781 C 446.511719 337.550781 439.757812 314.867188 430.679688 323.191406 C 419.832031 333.140625 438.957031 352.148438 438.957031 352.148438 Z M 438.957031 352.148438 " fill-opacity="1" fill-rule="nonzero"/><path fill="#06112d" d="M 445.890625 370.152344 L 446.324219 361.691406 C 441.753906 356.195312 438.957031 352.148438 438.957031 352.148438 C 438.957031 352.148438 419.832031 333.140625 430.679688 323.191406 C 439.757812 314.867188 446.511719 337.550781 446.511719 337.550781 L 448.734375 344.175781 C 448.734375 344.175781 449.929688 323.960938 457.484375 320.53125 C 465.027344 317.097656 466.03125 307.007812 466.03125 307.007812 C 474.640625 317.011719 499.6875 320 513.695312 318.714844 C 517.960938 318.324219 521.199219 317.535156 522.65625 316.4375 C 528.875 311.722656 536.117188 289.15625 496.644531 268.972656 C 457.171875 248.792969 442.257812 277.375 442.257812 277.375 C 388.125 306.203125 429.96875 361.28125 445.890625 370.152344 Z M 445.890625 370.152344 " fill-opacity="1" fill-rule="nonzero"/><path fill="#06112d" d="M 485.171875 342.605469 C 485.234375 343.105469 485.234375 343.597656 485.167969 344.074219 C 485.105469 344.550781 484.980469 344.984375 484.796875 345.367188 C 484.613281 345.75 484.382812 346.054688 484.109375 346.285156 C 483.835938 346.511719 483.539062 346.648438 483.214844 346.691406 C 482.890625 346.730469 482.566406 346.675781 482.246094 346.519531 C 481.921875 346.367188 481.625 346.128906 481.347656 345.804688 C 481.074219 345.480469 480.847656 345.09375 480.664062 344.648438 C 480.484375 344.199219 480.359375 343.726562 480.296875 343.226562 C 480.234375 342.726562 480.234375 342.238281 480.296875 341.757812 C 480.363281 341.28125 480.488281 340.851562 480.671875 340.46875 C 480.855469 340.085938 481.082031 339.777344 481.359375 339.546875 C 481.632812 339.320312 481.929688 339.183594 482.253906 339.144531 C 482.578125 339.101562 482.902344 339.15625 483.222656 339.3125 C 483.546875 339.464844 483.84375 339.703125 484.117188 340.027344 C 484.390625 340.355469 484.621094 340.738281 484.800781 341.1875 C 484.984375 341.632812 485.109375 342.105469 485.171875 342.605469 Z M 485.171875 342.605469 " fill-opacity="1" fill-rule="nonzero"/><path fill="#06112d" d="M 478.859375 337.246094 C 478.582031 337.246094 478.3125 337.121094 478.132812 336.882812 C 477.835938 336.480469 477.917969 335.914062 478.316406 335.617188 C 482.25 332.679688 485.425781 333.980469 486.554688 335.082031 C 486.914062 335.429688 486.917969 336 486.570312 336.359375 C 486.226562 336.714844 485.65625 336.722656 485.296875 336.382812 C 485.191406 336.28125 483.019531 334.359375 479.398438 337.066406 C 479.238281 337.1875 479.046875 337.246094 478.859375 337.246094 Z M 478.859375 337.246094 " fill-opacity="1" fill-rule="nonzero"/><path fill="#06112d" d="M 506.121094 344.140625 C 506.183594 344.640625 506.183594 345.128906 506.121094 345.605469 C 506.054688 346.085938 505.929688 346.515625 505.746094 346.898438 C 505.5625 347.28125 505.335938 347.585938 505.058594 347.816406 C 504.785156 348.046875 504.488281 348.179688 504.164062 348.222656 C 503.839844 348.265625 503.515625 348.207031 503.195312 348.054688 C 502.871094 347.902344 502.574219 347.660156 502.300781 347.335938 C 502.027344 347.011719 501.796875 346.625 501.617188 346.179688 C 501.433594 345.734375 501.308594 345.257812 501.246094 344.757812 C 501.183594 344.257812 501.183594 343.769531 501.25 343.292969 C 501.3125 342.8125 501.4375 342.382812 501.621094 342 C 501.804688 341.617188 502.035156 341.3125 502.308594 341.082031 C 502.582031 340.851562 502.882812 340.714844 503.203125 340.675781 C 503.527344 340.632812 503.851562 340.691406 504.171875 340.84375 C 504.496094 340.996094 504.796875 341.238281 505.070312 341.5625 C 505.34375 341.886719 505.570312 342.273438 505.753906 342.71875 C 505.933594 343.164062 506.058594 343.640625 506.121094 344.140625 Z M 506.121094 344.140625 " fill-opacity="1" fill-rule="nonzero"/><path fill="#06112d" d="M 499.808594 338.777344 C 499.53125 338.777344 499.261719 338.652344 499.082031 338.414062 C 498.785156 338.015625 498.867188 337.449219 499.265625 337.148438 C 503.199219 334.210938 506.371094 335.511719 507.503906 336.613281 C 507.859375 336.960938 507.867188 337.53125 507.519531 337.890625 C 507.171875 338.246094 506.605469 338.257812 506.246094 337.914062 C 506.144531 337.820312 503.976562 335.886719 500.347656 338.597656 C 500.183594 338.71875 499.996094 338.777344 499.808594 338.777344 Z M 499.808594 338.777344 " fill-opacity="1" fill-rule="nonzero"/><path fill="#f18b89" d="M 497.800781 363.964844 C 497.542969 363.964844 497.289062 363.859375 497.109375 363.644531 C 496.789062 363.265625 496.835938 362.695312 497.21875 362.371094 C 497.808594 361.871094 498.160156 361.175781 498.203125 360.410156 C 498.257812 359.53125 497.917969 358.652344 497.253906 357.933594 C 496.957031 357.617188 496.613281 357.332031 496.273438 357.046875 C 496.03125 356.84375 495.789062 356.640625 495.558594 356.429688 C 493.929688 354.925781 492.816406 352.902344 492.339844 350.574219 C 491.921875 348.550781 492.007812 346.5625 492.089844 344.640625 C 492.113281 344.140625 492.539062 343.757812 493.03125 343.777344 C 493.53125 343.796875 493.917969 344.21875 493.898438 344.71875 C 493.820312 346.53125 493.738281 348.40625 494.109375 350.210938 C 494.511719 352.164062 495.4375 353.855469 496.785156 355.097656 C 496.996094 355.292969 497.214844 355.476562 497.4375 355.664062 C 497.835938 355.996094 498.230469 356.332031 498.574219 356.703125 C 499.582031 357.785156 500.09375 359.136719 500.011719 360.519531 C 499.933594 361.78125 499.355469 362.933594 498.382812 363.753906 C 498.214844 363.898438 498.007812 363.964844 497.800781 363.964844 Z M 497.800781 363.964844 " fill-opacity="1" fill-rule="nonzero"/><path fill="#f18b89" d="M 492.113281 373.988281 C 492.101562 373.988281 492.089844 373.988281 492.082031 373.988281 C 488.71875 373.871094 485.3125 371.875 483.398438 368.910156 C 483.128906 368.488281 483.25 367.929688 483.667969 367.660156 C 484.085938 367.386719 484.644531 367.507812 484.917969 367.929688 C 486.519531 370.414062 489.355469 372.082031 492.144531 372.179688 C 492.644531 372.199219 493.035156 372.617188 493.015625 373.117188 C 493 373.605469 492.597656 373.988281 492.113281 373.988281 Z M 492.113281 373.988281 " fill-opacity="1" fill-rule="nonzero"/><path fill="#fe8b70" d="M 868.402344 601.859375 L 882.121094 601.859375 L 882.121094 775.925781 L 868.402344 775.925781 Z M 868.402344 601.859375 " fill-opacity="1" fill-rule="nonzero"/><path fill="#fe8b70" d="M 424.152344 601.859375 L 437.871094 601.859375 L 437.871094 775.925781 L 424.152344 775.925781 Z M 424.152344 601.859375 " fill-opacity="1" fill-rule="nonzero"/><path fill="#fcc283" d="M 385.078125 589.164062 L 921.191406 589.164062 L 921.191406 613.253906 L 385.078125 613.253906 Z M 385.078125 589.164062 " fill-opacity="1" fill-rule="nonzero"/><path fill="#1c5ab5" d="M 556.90625 589.164062 L 754.003906 589.164062 L 754.003906 587.972656 C 754.003906 580.816406 748.203125 575.015625 741.046875 575.015625 L 569.867188 575.015625 C 562.710938 575.015625 556.90625 580.816406 556.90625 587.972656 Z M 556.90625 589.164062 " fill-opacity="1" fill-rule="nonzero"/><path fill="#1c5ab5" d="M 623.070312 589.164062 L 763.148438 589.164062 L 780.898438 467.226562 C 781.726562 461.621094 777.363281 456.570312 771.675781 456.570312 L 650.414062 456.570312 C 645.792969 456.570312 641.863281 459.964844 641.191406 464.542969 Z M 623.070312 589.164062 " fill-opacity="1" fill-rule="nonzero"/><path fill="#3a6dc9" d="M 631.953125 589.164062 L 772.03125 589.164062 L 789.78125 467.226562 C 790.609375 461.621094 786.246094 456.570312 780.5625 456.570312 L 659.296875 456.570312 C 654.675781 456.570312 650.75 459.964844 650.078125 464.542969 Z M 631.953125 589.164062 " fill-opacity="1" fill-rule="nonzero"/><path fill="#1c5ab5" d="M 708.371094 546.128906 C 716.109375 546.128906 723.535156 539.832031 724.953125 532.09375 C 726.355469 524.335938 721.222656 518.058594 713.464844 518.058594 C 705.726562 518.058594 698.300781 524.335938 696.878906 532.09375 C 695.480469 539.851562 700.613281 546.128906 708.371094 546.128906 Z M 708.371094 546.128906 " fill-opacity="1" fill-rule="nonzero"/><path fill="#fec3bd" d="M 593.058594 574.671875 C 596.652344 575.195312 607.222656 576.699219 605.324219 581.148438 C 604.128906 583.953125 596.082031 581.921875 592.472656 582.039062 C 595.109375 582.898438 606.296875 586.910156 601.359375 589.128906 C 601.324219 589.128906 601.289062 589.144531 601.257812 589.160156 L 422.796875 589.160156 C 411.238281 589.160156 401.511719 580.476562 400.203125 568.988281 L 394.609375 498.425781 L 453.941406 501.367188 L 455.203125 543.355469 L 540.175781 556.792969 C 540.175781 556.792969 571.359375 543.289062 576.785156 546.714844 C 579.503906 548.445312 573.574219 555.753906 570.484375 558.894531 C 580.007812 557.367188 600.199219 555.519531 598.820312 560.777344 C 598.148438 563.363281 592.554688 566.335938 590.050781 566.972656 C 597.78125 567.15625 608.78125 566.773438 608.078125 570.300781 C 607.121094 575.054688 596.601562 574.976562 593.058594 574.671875 Z M 593.058594 574.671875 " fill-opacity="1" fill-rule="nonzero"/><path fill="#37c092" d="M 459.5 523.464844 L 389.527344 520.375 C 388.429688 505.539062 384.746094 481.378906 386.464844 464.230469 C 391.109375 417.945312 409.238281 411.527344 409.238281 411.527344 C 446.394531 415.941406 457.535156 496.605469 459.5 523.464844 Z M 459.5 523.464844 " fill-opacity="1" fill-rule="nonzero"/><path fill="#d7daf4" d="M 440.644531 333.242188 L 437.25 332.003906 C 438.207031 329.367188 461.175781 267.320312 494.648438 264.882812 L 494.910156 268.488281 C 463.75 270.757812 440.875 332.617188 440.644531 333.242188 Z M 440.644531 333.242188 " fill-opacity="1" fill-rule="nonzero"/><path fill="#06112d" d="M 472.800781 375.089844 C 456.097656 372.921875 444.183594 352.445312 443.6875 351.574219 L 445.253906 350.675781 C 445.375 350.878906 457.222656 371.246094 473.03125 373.296875 Z M 472.800781 375.089844 " fill-opacity="1" fill-rule="nonzero"/><path fill="#b94768" d="M 440.210938 357.84375 C 448.8125 357.84375 455.785156 348.902344 455.785156 337.871094 C 455.785156 326.84375 448.8125 317.898438 440.210938 317.898438 L 437.644531 317.898438 C 446.246094 317.898438 453.21875 326.84375 453.21875 337.871094 C 453.21875 348.902344 446.246094 357.84375 437.644531 357.84375 Z M 440.210938 357.84375 " fill-opacity="1" fill-rule="nonzero"/><path fill="#fe6081" d="M 453.21875 337.875 C 453.21875 338.527344 453.195312 339.179688 453.144531 339.832031 C 453.09375 340.480469 453.019531 341.128906 452.921875 341.769531 C 452.820312 342.410156 452.699219 343.046875 452.550781 343.671875 C 452.402344 344.296875 452.230469 344.914062 452.035156 345.515625 C 451.839844 346.121094 451.621094 346.710938 451.382812 347.289062 C 451.140625 347.867188 450.878906 348.425781 450.59375 348.96875 C 450.3125 349.515625 450.007812 350.039062 449.683594 350.542969 C 449.359375 351.050781 449.019531 351.535156 448.65625 351.996094 C 448.296875 352.460938 447.921875 352.898438 447.527344 353.3125 C 447.132812 353.726562 446.722656 354.117188 446.296875 354.480469 C 445.875 354.84375 445.4375 355.179688 444.988281 355.488281 C 444.535156 355.796875 444.078125 356.074219 443.605469 356.324219 C 443.132812 356.578125 442.652344 356.796875 442.164062 356.988281 C 441.675781 357.175781 441.183594 357.335938 440.683594 357.460938 C 440.183594 357.589844 439.679688 357.6875 439.171875 357.75 C 438.664062 357.8125 438.15625 357.847656 437.644531 357.847656 C 437.132812 357.847656 436.625 357.8125 436.117188 357.75 C 435.609375 357.6875 435.105469 357.589844 434.605469 357.460938 C 434.105469 357.335938 433.609375 357.175781 433.121094 356.988281 C 432.632812 356.796875 432.15625 356.578125 431.683594 356.324219 C 431.210938 356.074219 430.75 355.796875 430.300781 355.488281 C 429.851562 355.179688 429.414062 354.84375 428.992188 354.480469 C 428.566406 354.117188 428.15625 353.726562 427.761719 353.3125 C 427.367188 352.898438 426.992188 352.460938 426.628906 351.996094 C 426.269531 351.535156 425.925781 351.050781 425.605469 350.542969 C 425.28125 350.039062 424.976562 349.515625 424.691406 348.96875 C 424.410156 348.425781 424.148438 347.867188 423.90625 347.289062 C 423.667969 346.710938 423.449219 346.121094 423.253906 345.515625 C 423.058594 344.914062 422.886719 344.296875 422.738281 343.671875 C 422.589844 343.046875 422.46875 342.410156 422.367188 341.769531 C 422.269531 341.128906 422.191406 340.480469 422.144531 339.832031 C 422.09375 339.179688 422.066406 338.527344 422.066406 337.875 C 422.066406 337.21875 422.09375 336.566406 422.144531 335.914062 C 422.191406 335.265625 422.269531 334.617188 422.367188 333.976562 C 422.46875 333.335938 422.589844 332.703125 422.738281 332.074219 C 422.886719 331.449219 423.058594 330.835938 423.253906 330.230469 C 423.449219 329.625 423.667969 329.035156 423.90625 328.457031 C 424.148438 327.882812 424.410156 327.320312 424.691406 326.777344 C 424.976562 326.234375 425.28125 325.707031 425.605469 325.203125 C 425.925781 324.699219 426.269531 324.214844 426.628906 323.75 C 426.992188 323.289062 427.367188 322.847656 427.761719 322.433594 C 428.15625 322.019531 428.566406 321.628906 428.992188 321.265625 C 429.414062 320.902344 429.851562 320.566406 430.300781 320.257812 C 430.75 319.949219 431.210938 319.671875 431.683594 319.421875 C 432.15625 319.171875 432.632812 318.949219 433.121094 318.761719 C 433.609375 318.570312 434.105469 318.414062 434.605469 318.285156 C 435.105469 318.15625 435.609375 318.0625 436.117188 317.996094 C 436.625 317.933594 437.132812 317.902344 437.644531 317.902344 C 438.15625 317.902344 438.664062 317.933594 439.171875 317.996094 C 439.679688 318.0625 440.183594 318.15625 440.683594 318.285156 C 441.183594 318.414062 441.675781 318.570312 442.164062 318.761719 C 442.652344 318.949219 443.132812 319.171875 443.605469 319.421875 C 444.078125 319.671875 444.535156 319.949219 444.988281 320.257812 C 445.4375 320.566406 445.875 320.902344 446.296875 321.265625 C 446.722656 321.628906 447.132812 322.019531 447.527344 322.433594 C 447.921875 322.847656 448.296875 323.289062 448.65625 323.75 C 449.019531 324.214844 449.359375 324.699219 449.683594 325.203125 C 450.007812 325.707031 450.3125 326.234375 450.59375 326.777344 C 450.878906 327.320312 451.140625 327.882812 451.382812 328.457031 C 451.621094 329.035156 451.839844 329.625 452.035156 330.230469 C 452.230469 330.835938 452.402344 331.449219 452.550781 332.074219 C 452.699219 332.703125 452.820312 333.335938 452.921875 333.976562 C 453.019531 334.617188 453.09375 335.265625 453.144531 335.914062 C 453.195312 336.566406 453.21875 337.21875 453.21875 337.875 Z M 453.21875 337.875 " fill-opacity="1" fill-rule="nonzero"/><path fill="#b94768" d="M 447.015625 337.875 C 447.015625 338.664062 446.957031 339.445312 446.835938 340.21875 C 446.714844 340.992188 446.539062 341.742188 446.304688 342.472656 C 446.066406 343.203125 445.777344 343.894531 445.4375 344.550781 C 445.09375 345.207031 444.707031 345.8125 444.269531 346.371094 C 443.835938 346.929688 443.363281 347.425781 442.851562 347.867188 C 442.339844 348.304688 441.800781 348.675781 441.230469 348.976562 C 440.664062 349.277344 440.078125 349.507812 439.472656 349.660156 C 438.867188 349.8125 438.257812 349.890625 437.644531 349.890625 C 437.027344 349.890625 436.417969 349.8125 435.816406 349.660156 C 435.210938 349.507812 434.625 349.277344 434.058594 348.976562 C 433.488281 348.675781 432.949219 348.304688 432.4375 347.867188 C 431.925781 347.425781 431.453125 346.929688 431.015625 346.371094 C 430.582031 345.8125 430.195312 345.207031 429.851562 344.550781 C 429.511719 343.894531 429.222656 343.203125 428.984375 342.472656 C 428.75 341.742188 428.574219 340.992188 428.453125 340.21875 C 428.332031 339.445312 428.273438 338.664062 428.273438 337.875 C 428.273438 337.085938 428.332031 336.304688 428.453125 335.527344 C 428.574219 334.753906 428.75 334.003906 428.984375 333.273438 C 429.222656 332.546875 429.511719 331.851562 429.851562 331.195312 C 430.195312 330.539062 430.582031 329.933594 431.015625 329.375 C 431.453125 328.816406 431.925781 328.320312 432.4375 327.882812 C 432.949219 327.441406 433.488281 327.074219 434.058594 326.769531 C 434.625 326.46875 435.210938 326.242188 435.816406 326.085938 C 436.417969 325.933594 437.027344 325.855469 437.644531 325.855469 C 438.257812 325.855469 438.867188 325.933594 439.472656 326.085938 C 440.078125 326.242188 440.664062 326.46875 441.230469 326.769531 C 441.800781 327.074219 442.339844 327.441406 442.851562 327.882812 C 443.363281 328.320312 443.835938 328.816406 444.269531 329.375 C 444.707031 329.933594 445.09375 330.539062 445.4375 331.195312 C 445.777344 331.851562 446.066406 332.546875 446.304688 333.273438 C 446.539062 334.003906 446.714844 334.753906 446.835938 335.527344 C 446.957031 336.304688 447.015625 337.085938 447.015625 337.875 Z M 447.015625 337.875 " fill-opacity="1" fill-rule="nonzero"/><path fill="#06112d" d="M 474.910156 369.808594 C 475.28125 369.84375 475.648438 369.90625 476.011719 370 C 476.371094 370.089844 476.71875 370.207031 477.054688 370.351562 C 477.386719 370.496094 477.703125 370.660156 478 370.851562 C 478.292969 371.042969 478.5625 371.25 478.808594 371.480469 C 479.050781 371.707031 479.265625 371.953125 479.453125 372.210938 C 479.636719 372.472656 479.789062 372.742188 479.90625 373.019531 C 480.023438 373.300781 480.101562 373.585938 480.148438 373.875 C 480.195312 374.164062 480.203125 374.453125 480.175781 374.742188 C 480.148438 375.027344 480.085938 375.3125 479.984375 375.585938 C 479.882812 375.863281 479.75 376.125 479.582031 376.378906 C 479.414062 376.628906 479.214844 376.867188 478.984375 377.085938 C 478.753906 377.304688 478.496094 377.503906 478.210938 377.683594 C 477.929688 377.859375 477.621094 378.015625 477.296875 378.144531 C 476.972656 378.273438 476.628906 378.378906 476.273438 378.457031 C 475.917969 378.53125 475.554688 378.582031 475.183594 378.601562 C 474.8125 378.625 474.4375 378.617188 474.066406 378.578125 C 473.691406 378.542969 473.324219 378.480469 472.964844 378.390625 C 472.601562 378.296875 472.253906 378.179688 471.917969 378.035156 C 471.585938 377.894531 471.269531 377.726562 470.976562 377.535156 C 470.679688 377.347656 470.410156 377.136719 470.164062 376.910156 C 469.921875 376.679688 469.707031 376.433594 469.523438 376.175781 C 469.335938 375.917969 469.1875 375.648438 469.070312 375.367188 C 468.953125 375.085938 468.871094 374.804688 468.824219 374.511719 C 468.777344 374.222656 468.769531 373.933594 468.796875 373.648438 C 468.824219 373.359375 468.890625 373.078125 468.988281 372.800781 C 469.089844 372.527344 469.222656 372.261719 469.390625 372.011719 C 469.558594 371.757812 469.761719 371.523438 469.992188 371.304688 C 470.222656 371.082031 470.476562 370.882812 470.761719 370.707031 C 471.046875 370.527344 471.351562 370.375 471.675781 370.242188 C 472.003906 370.113281 472.34375 370.011719 472.699219 369.933594 C 473.054688 369.855469 473.417969 369.808594 473.789062 369.785156 C 474.164062 369.765625 474.535156 369.773438 474.910156 369.808594 Z M 474.910156 369.808594 " fill-opacity="1" fill-rule="nonzero"/><path fill="#fcc283" d="M 796.152344 287.496094 L 867.175781 287.496094 L 867.175781 339.015625 L 796.152344 339.015625 Z M 796.152344 287.496094 " fill-opacity="1" fill-rule="nonzero"/><path fill="#fe8b70" d="M 867.167969 287.496094 L 859.003906 293.417969 L 831.65625 313.25 L 804.316406 293.417969 L 796.152344 287.496094 Z M 867.167969 287.496094 " fill-opacity="1" fill-rule="nonzero"/><path fill="#fe8b70" d="M 867.167969 287.496094 L 796.152344 287.496094 L 831.667969 261.746094 Z M 867.167969 287.496094 " fill-opacity="1" fill-rule="nonzero"/><path fill="#e8e9fd" d="M 859.003906 262.109375 L 859.003906 293.417969 L 831.65625 313.25 L 804.316406 293.417969 L 804.316406 262.109375 C 804.316406 260.8125 805.363281 259.765625 806.671875 259.765625 L 856.660156 259.765625 C 857.957031 259.765625 859.003906 260.8125 859.003906 262.109375 Z M 859.003906 262.109375 " fill-opacity="1" fill-rule="nonzero"/><path fill="#fe8b70" d="M 867.167969 339.011719 L 796.152344 339.011719 L 831.667969 305.570312 Z M 867.167969 339.011719 " fill-opacity="1" fill-rule="nonzero"/><path fill="#d2d4e9" d="M 811.304688 266.164062 L 852.015625 266.164062 L 852.015625 269.75 L 811.304688 269.75 Z M 811.304688 266.164062 " fill-opacity="1" fill-rule="nonzero"/><path fill="#d2d4e9" d="M 811.304688 274.625 L 852.015625 274.625 L 852.015625 278.207031 L 811.304688 278.207031 Z M 811.304688 274.625 " fill-opacity="1" fill-rule="nonzero"/><path fill="#d2d4e9" d="M 811.304688 283.082031 L 852.015625 283.082031 L 852.015625 286.667969 L 811.304688 286.667969 Z M 811.304688 283.082031 " fill-opacity="1" fill-rule="nonzero"/><path fill="#d7daf4" d="M 577.960938 293.054688 C 565.109375 280.203125 565.109375 259.296875 577.960938 246.445312 C 588.488281 235.917969 604.839844 233.753906 617.722656 241.183594 L 615.914062 244.316406 C 604.449219 237.707031 589.894531 239.628906 580.519531 249.003906 C 569.078125 260.441406 569.078125 279.054688 580.519531 290.496094 Z M 577.960938 293.054688 " fill-opacity="1" fill-rule="nonzero"/><path fill="#fe6081" d="M 622.167969 264.308594 L 618.769531 263.066406 L 624.601562 247.125 L 640.542969 252.957031 L 639.300781 256.355469 L 626.757812 251.765625 Z M 622.167969 264.308594 " fill-opacity="1" fill-rule="nonzero"/><path fill="#fe6081" d="M 601.300781 302.730469 C 597.003906 302.730469 592.667969 301.886719 588.523438 300.152344 L 589.921875 296.816406 C 600.960938 301.4375 613.558594 298.957031 622.019531 290.496094 C 632.707031 279.808594 633.574219 262.929688 624.035156 251.234375 L 626.835938 248.949219 C 637.554688 262.085938 636.582031 281.046875 624.574219 293.054688 C 618.246094 299.378906 609.859375 302.730469 601.300781 302.730469 Z M 601.300781 302.730469 " fill-opacity="1" fill-rule="nonzero"/><path fill="#d7daf4" d="M 581.957031 294.1875 L 565.042969 292.765625 L 565.347656 289.160156 L 578.65625 290.28125 L 579.777344 276.972656 L 583.382812 277.273438 Z M 581.957031 294.1875 " fill-opacity="1" fill-rule="nonzero"/><path fill="#0c8ff9" d="M 590.148438 277.039062 L 590.148438 275.925781 L 591.566406 274.550781 C 594.976562 271.304688 596.519531 269.578125 596.539062 267.5625 C 596.539062 266.207031 595.882812 264.953125 593.890625 264.953125 C 592.675781 264.953125 591.667969 265.570312 591.050781 266.082031 L 590.476562 264.808594 C 591.402344 264.027344 592.71875 263.453125 594.257812 263.453125 C 597.136719 263.453125 598.347656 265.425781 598.347656 267.335938 C 598.347656 269.804688 596.558594 271.796875 593.746094 274.507812 L 592.675781 275.496094 L 592.675781 275.535156 L 598.679688 275.535156 L 598.679688 277.039062 Z M 590.148438 277.039062 " fill-opacity="1" fill-rule="nonzero"/><path fill="#0c8ff9" d="M 606.285156 277.039062 L 606.285156 273.398438 L 600.078125 273.398438 L 600.078125 272.207031 L 606.039062 263.679688 L 607.992188 263.679688 L 607.992188 271.980469 L 609.859375 271.980469 L 609.859375 273.398438 L 607.992188 273.398438 L 607.992188 277.039062 Z M 606.285156 271.980469 L 606.285156 267.523438 C 606.285156 266.824219 606.304688 266.125 606.347656 265.425781 L 606.285156 265.425781 C 605.875 266.207031 605.542969 266.78125 605.175781 267.398438 L 601.90625 271.941406 L 601.90625 271.980469 Z M 606.285156 271.980469 " fill-opacity="1" fill-rule="nonzero"/><g clip-path="url(#7495eea4ad)"><path fill="#f7b3c2" d="M 750.625 187.390625 C 750.625 188.636719 750.5625 189.878906 750.441406 191.121094 C 750.316406 192.359375 750.136719 193.59375 749.890625 194.8125 C 749.648438 196.035156 749.347656 197.242188 748.984375 198.4375 C 748.625 199.628906 748.203125 200.800781 747.726562 201.953125 C 747.25 203.101562 746.71875 204.226562 746.128906 205.328125 C 745.542969 206.425781 744.902344 207.492188 744.210938 208.527344 C 743.519531 209.566406 742.777344 210.566406 741.984375 211.527344 C 741.195312 212.492188 740.359375 213.414062 739.476562 214.292969 C 738.597656 215.175781 737.675781 216.011719 736.710938 216.800781 C 735.746094 217.59375 734.75 218.335938 733.710938 219.027344 C 732.675781 219.71875 731.609375 220.359375 730.507812 220.945312 C 729.410156 221.535156 728.285156 222.066406 727.132812 222.542969 C 725.980469 223.019531 724.808594 223.4375 723.617188 223.800781 C 722.425781 224.160156 721.21875 224.464844 719.996094 224.707031 C 718.773438 224.949219 717.542969 225.132812 716.300781 225.253906 C 715.0625 225.378906 713.816406 225.4375 712.570312 225.4375 C 711.324219 225.4375 710.082031 225.378906 708.839844 225.253906 C 707.601562 225.132812 706.371094 224.949219 705.148438 224.707031 C 703.925781 224.464844 702.71875 224.160156 701.523438 223.800781 C 700.332031 223.4375 699.160156 223.019531 698.007812 222.542969 C 696.859375 222.066406 695.734375 221.535156 694.632812 220.945312 C 693.535156 220.359375 692.46875 219.71875 691.429688 219.027344 C 690.394531 218.335938 689.394531 217.59375 688.429688 216.800781 C 687.46875 216.011719 686.546875 215.175781 685.664062 214.292969 C 684.78125 213.414062 683.945312 212.492188 683.15625 211.527344 C 682.367188 210.566406 681.625 209.566406 680.933594 208.527344 C 680.238281 207.492188 679.601562 206.425781 679.011719 205.328125 C 678.425781 204.226562 677.894531 203.101562 677.414062 201.953125 C 676.9375 200.800781 676.519531 199.628906 676.15625 198.4375 C 675.796875 197.242188 675.492188 196.035156 675.25 194.8125 C 675.007812 193.59375 674.824219 192.359375 674.703125 191.121094 C 674.582031 189.878906 674.519531 188.636719 674.519531 187.390625 C 674.519531 186.144531 674.582031 184.902344 674.703125 183.660156 C 674.824219 182.421875 675.007812 181.191406 675.25 179.96875 C 675.492188 178.746094 675.796875 177.539062 676.15625 176.347656 C 676.519531 175.15625 676.9375 173.984375 677.414062 172.832031 C 677.894531 171.679688 678.425781 170.554688 679.011719 169.457031 C 679.601562 168.355469 680.238281 167.289062 680.933594 166.253906 C 681.625 165.21875 682.367188 164.21875 683.15625 163.253906 C 683.945312 162.292969 684.78125 161.367188 685.664062 160.488281 C 686.546875 159.605469 687.46875 158.769531 688.429688 157.980469 C 689.394531 157.191406 690.394531 156.449219 691.429688 155.757812 C 692.46875 155.0625 693.535156 154.425781 694.632812 153.835938 C 695.734375 153.25 696.859375 152.71875 698.007812 152.242188 C 699.160156 151.761719 700.332031 151.34375 701.523438 150.984375 C 702.71875 150.621094 703.925781 150.316406 705.148438 150.074219 C 706.371094 149.832031 707.601562 149.648438 708.839844 149.527344 C 710.082031 149.40625 711.324219 149.34375 712.570312 149.34375 C 713.816406 149.34375 715.0625 149.40625 716.300781 149.527344 C 717.542969 149.648438 718.773438 149.832031 719.996094 150.074219 C 721.21875 150.316406 722.425781 150.621094 723.617188 150.984375 C 724.808594 151.34375 725.980469 151.761719 727.132812 152.242188 C 728.285156 152.71875 729.410156 153.25 730.507812 153.835938 C 731.609375 154.425781 732.675781 155.0625 733.710938 155.757812 C 734.75 156.449219 735.746094 157.191406 736.710938 157.980469 C 737.675781 158.769531 738.597656 159.605469 739.476562 160.488281 C 740.359375 161.367188 741.195312 162.292969 741.984375 163.253906 C 742.777344 164.21875 743.519531 165.21875 744.210938 166.253906 C 744.902344 167.289062 745.542969 168.355469 746.128906 169.457031 C 746.71875 170.554688 747.25 171.679688 747.726562 172.832031 C 748.203125 173.984375 748.625 175.15625 748.984375 176.347656 C 749.347656 177.539062 749.648438 178.746094 749.890625 179.96875 C 750.136719 181.191406 750.316406 182.421875 750.441406 183.664062 C 750.5625 184.902344 750.625 186.144531 750.625 187.390625 Z M 750.625 187.390625 " fill-opacity="1" fill-rule="nonzero"/></g><path fill="#ffffff" d="M 699.492188 205.960938 L 689.40625 190.726562 L 696.941406 185.734375 L 702.042969 193.433594 L 730.460938 174.621094 L 735.453125 182.160156 Z M 699.492188 205.960938 " fill-opacity="1" fill-rule="nonzero"/><path fill="#3a6dc9" d="M 610.246094 364.929688 L 610.246094 407.0625 L 619.65625 407.0625 L 619.65625 417.34375 L 633.703125 407.0625 L 702.035156 407.0625 L 702.035156 364.929688 Z M 610.246094 364.929688 " fill-opacity="1" fill-rule="nonzero"/><path fill="#ffffff" d="M 680.277344 385.667969 C 680.277344 385.9375 680.25 386.203125 680.199219 386.464844 C 680.144531 386.726562 680.070312 386.984375 679.964844 387.230469 C 679.863281 387.476562 679.738281 387.714844 679.589844 387.9375 C 679.441406 388.160156 679.269531 388.363281 679.082031 388.554688 C 678.890625 388.742188 678.6875 388.914062 678.464844 389.0625 C 678.242188 389.210938 678.003906 389.335938 677.757812 389.4375 C 677.511719 389.539062 677.253906 389.617188 676.992188 389.671875 C 676.730469 389.722656 676.464844 389.75 676.195312 389.75 C 675.929688 389.75 675.664062 389.722656 675.402344 389.671875 C 675.136719 389.617188 674.882812 389.539062 674.636719 389.4375 C 674.386719 389.335938 674.152344 389.210938 673.929688 389.0625 C 673.707031 388.910156 673.503906 388.742188 673.3125 388.554688 C 673.125 388.363281 672.953125 388.15625 672.804688 387.9375 C 672.65625 387.710938 672.53125 387.476562 672.429688 387.230469 C 672.324219 386.984375 672.25 386.726562 672.195312 386.464844 C 672.144531 386.203125 672.117188 385.9375 672.117188 385.667969 C 672.117188 385.402344 672.144531 385.136719 672.195312 384.875 C 672.25 384.609375 672.324219 384.355469 672.429688 384.109375 C 672.53125 383.859375 672.65625 383.625 672.804688 383.402344 C 672.953125 383.179688 673.125 382.976562 673.3125 382.785156 C 673.503906 382.597656 673.707031 382.425781 673.929688 382.277344 C 674.152344 382.128906 674.386719 382.003906 674.636719 381.902344 C 674.882812 381.796875 675.136719 381.722656 675.402344 381.667969 C 675.664062 381.617188 675.929688 381.589844 676.195312 381.589844 C 676.464844 381.589844 676.730469 381.617188 676.992188 381.667969 C 677.253906 381.722656 677.511719 381.796875 677.757812 381.902344 C 678.003906 382.003906 678.242188 382.128906 678.464844 382.277344 C 678.6875 382.425781 678.890625 382.597656 679.082031 382.785156 C 679.269531 382.976562 679.441406 383.179688 679.589844 383.402344 C 679.738281 383.625 679.863281 383.859375 679.964844 384.109375 C 680.070312 384.355469 680.144531 384.609375 680.199219 384.875 C 680.25 385.136719 680.277344 385.402344 680.277344 385.667969 Z M 680.277344 385.667969 " fill-opacity="1" fill-rule="nonzero"/><path fill="#ffffff" d="M 662.9375 385.667969 C 662.9375 385.9375 662.914062 386.203125 662.859375 386.464844 C 662.808594 386.726562 662.730469 386.984375 662.628906 387.230469 C 662.527344 387.476562 662.402344 387.714844 662.25 387.9375 C 662.101562 388.160156 661.933594 388.363281 661.746094 388.554688 C 661.554688 388.742188 661.347656 388.914062 661.125 389.0625 C 660.902344 389.210938 660.667969 389.335938 660.421875 389.4375 C 660.171875 389.539062 659.917969 389.617188 659.65625 389.671875 C 659.394531 389.722656 659.128906 389.75 658.859375 389.75 C 658.59375 389.75 658.328125 389.722656 658.0625 389.671875 C 657.800781 389.617188 657.546875 389.539062 657.300781 389.4375 C 657.050781 389.335938 656.816406 389.210938 656.59375 389.0625 C 656.371094 388.910156 656.164062 388.742188 655.976562 388.554688 C 655.785156 388.363281 655.617188 388.15625 655.46875 387.9375 C 655.320312 387.710938 655.195312 387.476562 655.089844 387.230469 C 654.988281 386.984375 654.910156 386.726562 654.859375 386.464844 C 654.808594 386.203125 654.78125 385.9375 654.78125 385.667969 C 654.78125 385.402344 654.808594 385.136719 654.859375 384.875 C 654.910156 384.609375 654.988281 384.355469 655.089844 384.109375 C 655.195312 383.859375 655.320312 383.625 655.46875 383.402344 C 655.617188 383.179688 655.785156 382.976562 655.976562 382.785156 C 656.164062 382.597656 656.371094 382.425781 656.59375 382.277344 C 656.816406 382.128906 657.050781 382.003906 657.300781 381.902344 C 657.546875 381.796875 657.800781 381.722656 658.0625 381.667969 C 658.328125 381.617188 658.59375 381.589844 658.859375 381.589844 C 659.128906 381.589844 659.394531 381.617188 659.65625 381.667969 C 659.917969 381.722656 660.171875 381.796875 660.421875 381.902344 C 660.667969 382.003906 660.902344 382.128906 661.125 382.277344 C 661.347656 382.425781 661.554688 382.597656 661.746094 382.785156 C 661.933594 382.976562 662.101562 383.179688 662.25 383.402344 C 662.402344 383.625 662.527344 383.859375 662.628906 384.109375 C 662.730469 384.355469 662.808594 384.609375 662.859375 384.875 C 662.914062 385.136719 662.9375 385.402344 662.9375 385.667969 Z M 662.9375 385.667969 " fill-opacity="1" fill-rule="nonzero"/><path fill="#ffffff" d="M 645.601562 385.667969 C 645.601562 385.9375 645.574219 386.203125 645.523438 386.464844 C 645.46875 386.726562 645.390625 386.984375 645.289062 387.230469 C 645.1875 387.476562 645.0625 387.714844 644.914062 387.9375 C 644.765625 388.160156 644.59375 388.363281 644.40625 388.554688 C 644.214844 388.742188 644.011719 388.914062 643.789062 389.0625 C 643.566406 389.210938 643.328125 389.335938 643.082031 389.4375 C 642.835938 389.539062 642.578125 389.617188 642.316406 389.671875 C 642.054688 389.722656 641.789062 389.75 641.519531 389.75 C 641.253906 389.75 640.988281 389.722656 640.726562 389.671875 C 640.460938 389.617188 640.207031 389.539062 639.960938 389.4375 C 639.710938 389.335938 639.476562 389.210938 639.253906 389.0625 C 639.03125 388.910156 638.824219 388.742188 638.636719 388.554688 C 638.445312 388.363281 638.277344 388.15625 638.128906 387.9375 C 637.980469 387.710938 637.855469 387.476562 637.753906 387.230469 C 637.648438 386.984375 637.570312 386.726562 637.519531 386.464844 C 637.46875 386.203125 637.441406 385.9375 637.441406 385.667969 C 637.441406 385.402344 637.46875 385.136719 637.519531 384.875 C 637.570312 384.609375 637.648438 384.355469 637.753906 384.109375 C 637.855469 383.859375 637.980469 383.625 638.128906 383.402344 C 638.277344 383.179688 638.445312 382.976562 638.636719 382.785156 C 638.824219 382.597656 639.03125 382.425781 639.253906 382.277344 C 639.476562 382.128906 639.710938 382.003906 639.960938 381.902344 C 640.207031 381.796875 640.460938 381.722656 640.726562 381.667969 C 640.988281 381.617188 641.253906 381.589844 641.519531 381.589844 C 641.789062 381.589844 642.054688 381.617188 642.316406 381.667969 C 642.578125 381.722656 642.835938 381.796875 643.082031 381.902344 C 643.328125 382.003906 643.566406 382.128906 643.789062 382.277344 C 644.011719 382.425781 644.214844 382.597656 644.40625 382.785156 C 644.59375 382.976562 644.765625 383.179688 644.914062 383.402344 C 645.0625 383.625 645.1875 383.859375 645.289062 384.109375 C 645.390625 384.355469 645.46875 384.609375 645.523438 384.875 C 645.574219 385.136719 645.601562 385.402344 645.601562 385.667969 Z M 645.601562 385.667969 " fill-opacity="1" fill-rule="nonzero"/></svg>