<svg xmlns="http://www.w3.org/2000/svg" xmlns:xlink="http://www.w3.org/1999/xlink" width="1920" zoomAndPan="magnify" viewBox="0 0 1440 809.999993" height="1080" preserveAspectRatio="xMidYMid meet" version="1.0"><defs><clipPath id="c60bf362b0"><path d="M 456.246094 717 L 1098.996094 717 L 1098.996094 722 L 456.246094 722 Z M 456.246094 717 " clip-rule="nonzero"/></clipPath><clipPath id="4d216fb9b7"><path d="M 696 359 L 779 359 L 779 735.1875 L 696 735.1875 Z M 696 359 " clip-rule="nonzero"/></clipPath></defs><path fill="#fbead0" d="M 944.261719 261.570312 C 839.621094 267.617188 734.777344 269.71875 630.019531 266.753906 C 581.273438 266.25 532.007812 271.859375 485.566406 289 C 460.445312 306.683594 449.933594 342.550781 454.582031 374.222656 C 456.488281 470.398438 455.390625 566.640625 458.195312 662.785156 C 459.246094 680.679688 466.757812 700.078125 482.613281 707.183594 C 503.078125 718.15625 526.105469 720.726562 547.257812 729.597656 C 639.726562 759.453125 732.078125 793.929688 828.558594 803.332031 C 873.882812 807.433594 920.710938 810.066406 964.667969 794.617188 C 996.402344 775.960938 1013.324219 735.136719 1013.359375 696.328125 C 1020.808594 573.425781 1036.679688 450.824219 1033.796875 327.402344 C 1031.25 298.519531 1012.117188 270.558594 985.53125 265.59375 C 972.082031 261.710938 958.078125 261.324219 944.261719 261.570312 Z M 942.09375 724.195312 C 944.140625 728.613281 940.835938 723.269531 942.09375 724.195312 Z M 942.09375 724.195312 " fill-opacity="1" fill-rule="nonzero"/><path fill="#fbead0" d="M 968.492188 152.328125 C 865.53125 171.980469 761.863281 187.75 657.609375 198.480469 C 609.214844 204.34375 561.101562 216.335938 517.300781 239.390625 C 494.699219 260.199219 488.960938 297.132812 497.703125 327.929688 C 512.144531 423.03125 523.621094 518.597656 538.953125 613.550781 C 542.328125 631.15625 552.308594 649.40625 568.957031 654.382812 C 590.679688 662.589844 613.84375 662.132812 635.976562 668.167969 C 731.546875 685.699219 827.609375 707.824219 924.492188 704.554688 C 969.96875 702.710938 1016.734375 699.207031 1058.300781 678.152344 C 1087.328125 655.507812 1098.773438 612.828125 1093.75 574.347656 C 1085.089844 451.523438 1084.816406 327.898438 1065.855469 205.910156 C 1059.554688 177.605469 1036.933594 152.382812 1009.929688 150.929688 C 996.089844 148.835938 982.15625 150.28125 968.492188 152.328125 Z M 1026.726562 611.273438 C 1029.332031 615.390625 1025.359375 610.523438 1026.726562 611.273438 Z M 1026.726562 611.273438 " fill-opacity="0.5" fill-rule="nonzero"/><g clip-path="url(#c60bf362b0)"><path fill="#3f3d56" d="M -360.59375 717.824219 L 1139.421875 717.824219 L 1139.421875 721.621094 L -360.59375 721.621094 Z M -360.59375 717.824219 " fill-opacity="1" fill-rule="nonzero"/></g><path fill="#ff6584" d="M 678.660156 42.851562 L 753.105469 -0.136719 L 796.089844 74.320312 L 721.640625 117.308594 Z M 678.660156 42.851562 " fill-opacity="1" fill-rule="nonzero"/><path fill="#2f2e41" d="M 754.054688 132.828125 L 709.171875 55.082031 L 786.910156 10.191406 L 831.789062 87.941406 Z M 714.359375 56.472656 L 755.445312 127.640625 L 826.601562 86.550781 L 785.519531 15.382812 Z M 714.359375 56.472656 " fill-opacity="1" fill-rule="nonzero"/><path fill="#d0cde1" d="M 720.484375 305.671875 C 720.484375 306.855469 720.425781 308.035156 720.308594 309.210938 C 720.195312 310.386719 720.019531 311.554688 719.789062 312.710938 C 719.558594 313.871094 719.273438 315.015625 718.929688 316.148438 C 718.585938 317.277344 718.1875 318.390625 717.738281 319.480469 C 717.285156 320.574219 716.78125 321.640625 716.222656 322.683594 C 715.667969 323.726562 715.058594 324.738281 714.402344 325.71875 C 713.746094 326.703125 713.042969 327.648438 712.292969 328.5625 C 711.542969 329.476562 710.753906 330.351562 709.917969 331.1875 C 709.082031 332.023438 708.207031 332.816406 707.292969 333.566406 C 706.378906 334.316406 705.433594 335.019531 704.449219 335.675781 C 703.46875 336.332031 702.457031 336.9375 701.414062 337.496094 C 700.371094 338.050781 699.304688 338.554688 698.210938 339.007812 C 697.121094 339.460938 696.011719 339.859375 694.878906 340.203125 C 693.75 340.542969 692.605469 340.832031 691.445312 341.0625 C 690.285156 341.292969 689.117188 341.464844 687.941406 341.582031 C 686.765625 341.699219 685.589844 341.753906 684.40625 341.753906 C 683.226562 341.753906 682.046875 341.699219 680.871094 341.582031 C 679.695312 341.464844 678.527344 341.292969 677.367188 341.0625 C 676.210938 340.832031 675.066406 340.542969 673.933594 340.203125 C 672.804688 339.859375 671.691406 339.460938 670.601562 339.007812 C 669.507812 338.554688 668.441406 338.050781 667.402344 337.496094 C 666.359375 336.9375 665.347656 336.332031 664.363281 335.675781 C 663.382812 335.019531 662.433594 334.316406 661.519531 333.566406 C 660.605469 332.816406 659.734375 332.023438 658.898438 331.1875 C 658.0625 330.351562 657.269531 329.476562 656.519531 328.5625 C 655.769531 327.648438 655.066406 326.703125 654.410156 325.71875 C 653.753906 324.738281 653.148438 323.726562 652.589844 322.683594 C 652.035156 321.640625 651.527344 320.574219 651.078125 319.480469 C 650.625 318.390625 650.226562 317.277344 649.882812 316.148438 C 649.539062 315.015625 649.253906 313.871094 649.023438 312.710938 C 648.792969 311.554688 648.621094 310.386719 648.503906 309.210938 C 648.386719 308.035156 648.332031 306.855469 648.332031 305.671875 C 648.332031 304.492188 648.386719 303.3125 648.503906 302.136719 C 648.621094 300.960938 648.792969 299.792969 649.023438 298.632812 C 649.253906 297.476562 649.542969 296.332031 649.882812 295.199219 C 650.226562 294.070312 650.625 292.957031 651.078125 291.867188 C 651.527344 290.773438 652.035156 289.707031 652.589844 288.664062 C 653.148438 287.621094 653.753906 286.609375 654.410156 285.628906 C 655.066406 284.644531 655.769531 283.695312 656.519531 282.785156 C 657.269531 281.871094 658.0625 280.996094 658.898438 280.160156 C 659.734375 279.324219 660.605469 278.53125 661.519531 277.78125 C 662.433594 277.03125 663.382812 276.328125 664.363281 275.671875 C 665.347656 275.015625 666.359375 274.410156 667.402344 273.851562 C 668.441406 273.296875 669.507812 272.789062 670.601562 272.339844 C 671.691406 271.886719 672.804688 271.488281 673.933594 271.144531 C 675.066406 270.804688 676.210938 270.515625 677.367188 270.285156 C 678.527344 270.054688 679.695312 269.882812 680.871094 269.765625 C 682.046875 269.648438 683.226562 269.59375 684.40625 269.59375 C 685.589844 269.59375 686.765625 269.648438 687.941406 269.765625 C 689.117188 269.882812 690.285156 270.054688 691.445312 270.285156 C 692.605469 270.515625 693.75 270.804688 694.878906 271.144531 C 696.011719 271.488281 697.121094 271.886719 698.210938 272.339844 C 699.304688 272.789062 700.371094 273.296875 701.414062 273.851562 C 702.457031 274.410156 703.46875 275.015625 704.449219 275.671875 C 705.433594 276.328125 706.378906 277.03125 707.292969 277.78125 C 708.207031 278.53125 709.082031 279.324219 709.917969 280.160156 C 710.753906 280.996094 711.542969 281.871094 712.292969 282.785156 C 713.042969 283.695312 713.746094 284.644531 714.402344 285.628906 C 715.058594 286.609375 715.667969 287.621094 716.222656 288.664062 C 716.78125 289.707031 717.285156 290.773438 717.738281 291.867188 C 718.1875 292.957031 718.585938 294.070312 718.929688 295.199219 C 719.273438 296.332031 719.558594 297.476562 719.789062 298.632812 C 720.019531 299.792969 720.195312 300.960938 720.308594 302.136719 C 720.425781 303.3125 720.484375 304.492188 720.484375 305.671875 Z M 720.484375 305.671875 " fill-opacity="1" fill-rule="nonzero"/><path fill="#2f2e41" d="M 710.992188 343.652344 C 709.746094 343.652344 708.507812 343.59375 707.269531 343.472656 C 706.03125 343.347656 704.800781 343.167969 703.582031 342.921875 C 702.363281 342.679688 701.15625 342.378906 699.964844 342.019531 C 698.777344 341.65625 697.605469 341.238281 696.457031 340.761719 C 695.308594 340.285156 694.1875 339.753906 693.089844 339.167969 C 691.992188 338.582031 690.925781 337.945312 689.890625 337.253906 C 688.859375 336.5625 687.859375 335.820312 686.898438 335.03125 C 685.9375 334.242188 685.015625 333.410156 684.136719 332.527344 C 683.257812 331.648438 682.425781 330.730469 681.636719 329.765625 C 680.847656 328.804688 680.105469 327.808594 679.414062 326.773438 C 678.722656 325.738281 678.085938 324.675781 677.5 323.578125 C 676.914062 322.480469 676.382812 321.355469 675.90625 320.207031 C 675.429688 319.058594 675.011719 317.886719 674.648438 316.699219 C 674.289062 315.507812 673.988281 314.300781 673.746094 313.082031 C 673.503906 311.863281 673.320312 310.632812 673.199219 309.394531 C 673.078125 308.15625 673.015625 306.917969 673.015625 305.671875 C 673.015625 304.429688 673.078125 303.1875 673.199219 301.949219 C 673.320312 300.710938 673.503906 299.484375 673.746094 298.261719 C 673.988281 297.042969 674.289062 295.835938 674.648438 294.648438 C 675.011719 293.457031 675.429688 292.289062 675.90625 291.136719 C 676.382812 289.988281 676.914062 288.867188 677.5 287.769531 C 678.085938 286.671875 678.722656 285.605469 679.414062 284.570312 C 680.105469 283.539062 680.847656 282.539062 681.636719 281.578125 C 682.425781 280.617188 683.257812 279.695312 684.136719 278.816406 C 685.015625 277.9375 685.9375 277.101562 686.898438 276.3125 C 687.859375 275.523438 688.859375 274.785156 689.890625 274.09375 C 690.925781 273.402344 691.992188 272.761719 693.089844 272.175781 C 694.1875 271.589844 695.308594 271.058594 696.457031 270.582031 C 697.605469 270.105469 698.777344 269.6875 699.964844 269.328125 C 701.15625 268.964844 702.363281 268.664062 703.582031 268.421875 C 704.800781 268.179688 706.03125 267.996094 707.269531 267.875 C 708.507812 267.753906 709.746094 267.691406 710.992188 267.691406 C 712.234375 267.691406 713.476562 267.753906 714.710938 267.875 C 715.949219 267.996094 717.179688 268.179688 718.398438 268.421875 C 719.617188 268.664062 720.824219 268.964844 722.015625 269.328125 C 723.203125 269.6875 724.375 270.105469 725.523438 270.582031 C 726.671875 271.058594 727.792969 271.589844 728.890625 272.175781 C 729.988281 272.761719 731.054688 273.402344 732.089844 274.09375 C 733.121094 274.785156 734.121094 275.523438 735.082031 276.3125 C 736.042969 277.101562 736.964844 277.9375 737.84375 278.816406 C 738.722656 279.695312 739.554688 280.617188 740.34375 281.578125 C 741.132812 282.539062 741.875 283.539062 742.566406 284.570312 C 743.257812 285.605469 743.894531 286.671875 744.480469 287.769531 C 745.066406 288.867188 745.597656 289.988281 746.074219 291.136719 C 746.550781 292.289062 746.96875 293.457031 747.332031 294.648438 C 747.691406 295.835938 747.992188 297.042969 748.234375 298.261719 C 748.476562 299.484375 748.660156 300.710938 748.78125 301.949219 C 748.90625 303.1875 748.964844 304.429688 748.964844 305.671875 C 748.964844 306.917969 748.90625 308.15625 748.78125 309.394531 C 748.660156 310.632812 748.476562 311.863281 748.234375 313.082031 C 747.992188 314.300781 747.691406 315.507812 747.332031 316.699219 C 746.96875 317.886719 746.550781 319.058594 746.074219 320.207031 C 745.597656 321.355469 745.066406 322.480469 744.480469 323.578125 C 743.894531 324.675781 743.257812 325.738281 742.566406 326.773438 C 741.875 327.808594 741.132812 328.804688 740.34375 329.765625 C 739.554688 330.730469 738.722656 331.648438 737.84375 332.527344 C 736.964844 333.410156 736.042969 334.242188 735.082031 335.03125 C 734.121094 335.820312 733.121094 336.5625 732.089844 337.253906 C 731.054688 337.945312 729.988281 338.582031 728.890625 339.167969 C 727.792969 339.753906 726.671875 340.285156 725.523438 340.761719 C 724.375 341.238281 723.203125 341.65625 722.015625 342.019531 C 720.824219 342.378906 719.617188 342.679688 718.398438 342.921875 C 717.179688 343.167969 715.949219 343.347656 714.710938 343.472656 C 713.476562 343.59375 712.234375 343.652344 710.992188 343.652344 Z M 710.992188 271.492188 C 709.871094 271.492188 708.753906 271.546875 707.640625 271.65625 C 706.527344 271.765625 705.421875 271.929688 704.324219 272.148438 C 703.222656 272.367188 702.140625 272.636719 701.070312 272.960938 C 699.996094 273.289062 698.945312 273.664062 697.910156 274.09375 C 696.875 274.519531 695.867188 275 694.878906 275.527344 C 693.890625 276.054688 692.933594 276.628906 692.003906 277.25 C 691.070312 277.875 690.171875 278.539062 689.308594 279.25 C 688.441406 279.960938 687.613281 280.710938 686.824219 281.503906 C 686.03125 282.292969 685.28125 283.121094 684.570312 283.988281 C 683.859375 284.851562 683.195312 285.75 682.574219 286.683594 C 681.949219 287.613281 681.375 288.570312 680.847656 289.558594 C 680.320312 290.546875 679.84375 291.558594 679.414062 292.589844 C 678.984375 293.625 678.609375 294.679688 678.285156 295.75 C 677.960938 296.820312 677.6875 297.90625 677.46875 299.003906 C 677.25 300.101562 677.085938 301.207031 676.976562 302.324219 C 676.867188 303.4375 676.8125 304.554688 676.8125 305.671875 C 676.8125 306.792969 676.867188 307.910156 676.976562 309.023438 C 677.085938 310.136719 677.25 311.242188 677.46875 312.339844 C 677.6875 313.4375 677.960938 314.523438 678.285156 315.59375 C 678.609375 316.667969 678.984375 317.71875 679.414062 318.753906 C 679.84375 319.789062 680.320312 320.800781 680.847656 321.785156 C 681.375 322.773438 681.949219 323.734375 682.574219 324.664062 C 683.195312 325.59375 683.859375 326.492188 684.570312 327.359375 C 685.28125 328.222656 686.03125 329.050781 686.824219 329.84375 C 687.613281 330.636719 688.441406 331.386719 689.308594 332.097656 C 690.171875 332.804688 691.070312 333.472656 692.003906 334.09375 C 692.933594 334.714844 693.890625 335.292969 694.878906 335.820312 C 695.867188 336.347656 696.875 336.824219 697.910156 337.253906 C 698.945312 337.683594 699.996094 338.058594 701.070312 338.382812 C 702.140625 338.707031 703.222656 338.980469 704.324219 339.199219 C 705.421875 339.417969 706.527344 339.582031 707.640625 339.691406 C 708.753906 339.800781 709.871094 339.855469 710.992188 339.855469 C 712.109375 339.855469 713.226562 339.800781 714.339844 339.691406 C 715.453125 339.582031 716.558594 339.417969 717.65625 339.199219 C 718.753906 338.980469 719.839844 338.707031 720.910156 338.382812 C 721.984375 338.058594 723.035156 337.683594 724.070312 337.253906 C 725.101562 336.824219 726.113281 336.347656 727.101562 335.820312 C 728.089844 335.292969 729.046875 334.714844 729.976562 334.09375 C 730.910156 333.472656 731.808594 332.804688 732.671875 332.097656 C 733.539062 331.386719 734.367188 330.636719 735.15625 329.84375 C 735.949219 329.050781 736.699219 328.222656 737.410156 327.359375 C 738.121094 326.492188 738.785156 325.59375 739.40625 324.664062 C 740.03125 323.734375 740.605469 322.773438 741.132812 321.785156 C 741.660156 320.800781 742.136719 319.789062 742.566406 318.753906 C 742.996094 317.71875 743.371094 316.667969 743.695312 315.59375 C 744.019531 314.523438 744.292969 313.4375 744.511719 312.339844 C 744.730469 311.242188 744.894531 310.136719 745.003906 309.023438 C 745.113281 307.910156 745.167969 306.792969 745.167969 305.671875 C 745.167969 304.554688 745.113281 303.4375 745.003906 302.324219 C 744.894531 301.207031 744.730469 300.101562 744.511719 299.003906 C 744.292969 297.90625 744.019531 296.820312 743.695312 295.75 C 743.371094 294.679688 742.996094 293.625 742.566406 292.589844 C 742.136719 291.558594 741.660156 290.546875 741.132812 289.558594 C 740.605469 288.570312 740.03125 287.613281 739.40625 286.683594 C 738.785156 285.75 738.121094 284.851562 737.410156 283.988281 C 736.699219 283.121094 735.949219 282.292969 735.15625 281.503906 C 734.367188 280.710938 733.539062 279.960938 732.671875 279.25 C 731.808594 278.539062 730.910156 277.875 729.976562 277.25 C 729.046875 276.628906 728.089844 276.054688 727.101562 275.527344 C 726.113281 275 725.101562 274.519531 724.070312 274.09375 C 723.035156 273.664062 721.984375 273.289062 720.910156 272.960938 C 719.839844 272.636719 718.753906 272.367188 717.65625 272.148438 C 716.558594 271.929688 715.453125 271.765625 714.339844 271.65625 C 713.226562 271.546875 712.109375 271.492188 710.992188 271.492188 Z M 710.992188 271.492188 " fill-opacity="1" fill-rule="nonzero"/><path fill="#84bb8d" d="M 911.996094 726.460938 L 562.625 726.460938 C 562.097656 726.460938 561.570312 726.433594 561.042969 726.382812 C 560.519531 726.328125 559.996094 726.25 559.476562 726.148438 C 558.960938 726.042969 558.449219 725.914062 557.941406 725.761719 C 557.4375 725.609375 556.941406 725.429688 556.453125 725.226562 C 555.964844 725.023438 555.488281 724.800781 555.019531 724.550781 C 554.554688 724.300781 554.101562 724.027344 553.664062 723.734375 C 553.222656 723.441406 552.800781 723.125 552.390625 722.792969 C 551.984375 722.457031 551.589844 722.101562 551.21875 721.726562 C 550.84375 721.355469 550.488281 720.964844 550.15625 720.554688 C 549.820312 720.144531 549.503906 719.722656 549.210938 719.28125 C 548.917969 718.84375 548.644531 718.390625 548.398438 717.925781 C 548.148438 717.457031 547.921875 716.980469 547.71875 716.492188 C 547.515625 716.003906 547.339844 715.507812 547.183594 715.003906 C 547.03125 714.496094 546.902344 713.984375 546.796875 713.46875 C 546.695312 712.949219 546.617188 712.425781 546.566406 711.902344 C 546.511719 711.375 546.484375 710.847656 546.484375 710.320312 L 546.484375 385.585938 C 546.484375 385.054688 546.511719 384.527344 546.566406 384.003906 C 546.617188 383.476562 546.695312 382.957031 546.796875 382.4375 C 546.902344 381.917969 547.03125 381.40625 547.183594 380.902344 C 547.339844 380.394531 547.515625 379.898438 547.71875 379.410156 C 547.921875 378.921875 548.148438 378.445312 548.398438 377.980469 C 548.644531 377.511719 548.917969 377.0625 549.210938 376.621094 C 549.503906 376.183594 549.820312 375.757812 550.15625 375.347656 C 550.488281 374.941406 550.84375 374.550781 551.21875 374.175781 C 551.59375 373.800781 551.984375 373.449219 552.390625 373.113281 C 552.800781 372.777344 553.222656 372.464844 553.664062 372.167969 C 554.101562 371.875 554.554688 371.605469 555.019531 371.355469 C 555.488281 371.105469 555.964844 370.878906 556.453125 370.675781 C 556.941406 370.472656 557.4375 370.296875 557.941406 370.140625 C 558.449219 369.988281 558.960938 369.859375 559.476562 369.757812 C 559.996094 369.652344 560.519531 369.574219 561.042969 369.523438 C 561.570312 369.46875 562.097656 369.445312 562.625 369.441406 L 911.996094 369.441406 C 912.523438 369.445312 913.050781 369.46875 913.578125 369.523438 C 914.101562 369.574219 914.625 369.652344 915.144531 369.757812 C 915.660156 369.859375 916.171875 369.988281 916.679688 370.140625 C 917.183594 370.296875 917.679688 370.472656 918.167969 370.675781 C 918.65625 370.878906 919.132812 371.105469 919.601562 371.355469 C 920.066406 371.605469 920.519531 371.875 920.957031 372.167969 C 921.398438 372.460938 921.820312 372.777344 922.230469 373.113281 C 922.636719 373.449219 923.027344 373.800781 923.402344 374.175781 C 923.777344 374.550781 924.128906 374.941406 924.464844 375.347656 C 924.800781 375.757812 925.117188 376.183594 925.410156 376.621094 C 925.703125 377.0625 925.976562 377.511719 926.222656 377.980469 C 926.472656 378.445312 926.699219 378.921875 926.902344 379.410156 C 927.105469 379.898438 927.28125 380.394531 927.4375 380.902344 C 927.589844 381.40625 927.71875 381.917969 927.820312 382.4375 C 927.925781 382.957031 928.003906 383.476562 928.054688 384.003906 C 928.109375 384.527344 928.132812 385.054688 928.136719 385.585938 L 928.136719 710.320312 C 928.132812 710.847656 928.109375 711.375 928.054688 711.902344 C 928.003906 712.425781 927.925781 712.949219 927.820312 713.46875 C 927.71875 713.984375 927.589844 714.496094 927.4375 715.003906 C 927.28125 715.507812 927.105469 716.003906 926.902344 716.492188 C 926.699219 716.980469 926.472656 717.457031 926.222656 717.925781 C 925.972656 718.390625 925.703125 718.84375 925.410156 719.28125 C 925.117188 719.722656 924.800781 720.144531 924.464844 720.554688 C 924.128906 720.964844 923.777344 721.355469 923.402344 721.726562 C 923.027344 722.101562 922.636719 722.457031 922.230469 722.792969 C 921.820312 723.125 921.398438 723.441406 920.957031 723.734375 C 920.519531 724.027344 920.066406 724.300781 919.601562 724.550781 C 919.132812 724.800781 918.65625 725.023438 918.167969 725.226562 C 917.679688 725.429688 917.183594 725.609375 916.679688 725.761719 C 916.171875 725.914062 915.660156 726.042969 915.144531 726.148438 C 914.625 726.25 914.101562 726.328125 913.578125 726.382812 C 913.050781 726.433594 912.523438 726.460938 911.996094 726.460938 Z M 911.996094 726.460938 " fill-opacity="1" fill-rule="nonzero"/><g clip-path="url(#4d216fb9b7)"><path fill="#3f3d56" d="M 761.992188 737.863281 L 712.625 737.863281 C 712.09375 737.863281 711.570312 737.835938 711.042969 737.785156 C 710.515625 737.730469 709.996094 737.652344 709.476562 737.550781 C 708.957031 737.445312 708.445312 737.316406 707.941406 737.164062 C 707.4375 737.011719 706.9375 736.832031 706.449219 736.628906 C 705.960938 736.425781 705.484375 736.199219 705.019531 735.953125 C 704.554688 735.703125 704.101562 735.429688 703.660156 735.136719 C 703.222656 734.84375 702.796875 734.527344 702.390625 734.191406 C 701.980469 733.859375 701.589844 733.503906 701.21875 733.128906 C 700.84375 732.757812 700.488281 732.363281 700.152344 731.957031 C 699.820312 731.546875 699.503906 731.125 699.210938 730.683594 C 698.917969 730.246094 698.644531 729.792969 698.394531 729.328125 C 698.144531 728.859375 697.921875 728.382812 697.71875 727.894531 C 697.515625 727.40625 697.335938 726.910156 697.183594 726.40625 C 697.03125 725.898438 696.902344 725.386719 696.796875 724.867188 C 696.695312 724.351562 696.617188 723.828125 696.5625 723.304688 C 696.511719 722.777344 696.484375 722.25 696.484375 721.722656 L 696.484375 375.9375 C 696.484375 375.410156 696.511719 374.882812 696.5625 374.355469 C 696.617188 373.828125 696.695312 373.308594 696.796875 372.789062 C 696.902344 372.273438 697.03125 371.757812 697.183594 371.253906 C 697.335938 370.75 697.515625 370.25 697.71875 369.761719 C 697.921875 369.273438 698.144531 368.796875 698.394531 368.332031 C 698.644531 367.867188 698.917969 367.414062 699.210938 366.972656 C 699.503906 366.535156 699.816406 366.109375 700.152344 365.703125 C 700.488281 365.292969 700.84375 364.902344 701.21875 364.527344 C 701.589844 364.15625 701.980469 363.800781 702.390625 363.464844 C 702.796875 363.128906 703.222656 362.816406 703.660156 362.523438 C 704.101562 362.226562 704.554688 361.957031 705.019531 361.707031 C 705.484375 361.457031 705.960938 361.230469 706.449219 361.03125 C 706.9375 360.828125 707.433594 360.648438 707.941406 360.496094 C 708.445312 360.339844 708.957031 360.210938 709.476562 360.109375 C 709.996094 360.003906 710.515625 359.925781 711.042969 359.875 C 711.566406 359.824219 712.09375 359.796875 712.625 359.796875 L 761.992188 359.796875 C 762.519531 359.796875 763.046875 359.824219 763.574219 359.875 C 764.097656 359.925781 764.621094 360.003906 765.140625 360.109375 C 765.65625 360.210938 766.167969 360.339844 766.675781 360.496094 C 767.179688 360.648438 767.675781 360.828125 768.164062 361.03125 C 768.652344 361.230469 769.128906 361.457031 769.597656 361.707031 C 770.0625 361.957031 770.515625 362.226562 770.953125 362.523438 C 771.394531 362.816406 771.816406 363.128906 772.226562 363.464844 C 772.632812 363.800781 773.023438 364.15625 773.398438 364.527344 C 773.773438 364.902344 774.125 365.292969 774.460938 365.703125 C 774.796875 366.109375 775.113281 366.535156 775.40625 366.972656 C 775.699219 367.414062 775.96875 367.867188 776.21875 368.332031 C 776.46875 368.796875 776.695312 369.273438 776.898438 369.761719 C 777.101562 370.25 777.277344 370.75 777.433594 371.253906 C 777.585938 371.757812 777.714844 372.273438 777.816406 372.789062 C 777.921875 373.308594 778 373.828125 778.050781 374.355469 C 778.105469 374.882812 778.128906 375.410156 778.132812 375.9375 L 778.132812 721.722656 C 778.128906 722.25 778.105469 722.777344 778.050781 723.304688 C 778 723.828125 777.921875 724.351562 777.816406 724.867188 C 777.714844 725.386719 777.585938 725.898438 777.433594 726.40625 C 777.277344 726.910156 777.101562 727.40625 776.898438 727.894531 C 776.695312 728.382812 776.46875 728.859375 776.21875 729.328125 C 775.96875 729.792969 775.699219 730.246094 775.40625 730.683594 C 775.113281 731.125 774.796875 731.546875 774.460938 731.957031 C 774.125 732.363281 773.773438 732.757812 773.398438 733.128906 C 773.023438 733.503906 772.632812 733.859375 772.226562 734.195312 C 771.816406 734.527344 771.394531 734.84375 770.953125 735.136719 C 770.515625 735.429688 770.0625 735.703125 769.597656 735.953125 C 769.128906 736.199219 768.652344 736.425781 768.164062 736.628906 C 767.675781 736.832031 767.179688 737.011719 766.675781 737.164062 C 766.167969 737.316406 765.65625 737.445312 765.140625 737.550781 C 764.621094 737.652344 764.097656 737.730469 763.574219 737.785156 C 763.046875 737.835938 762.519531 737.863281 761.992188 737.863281 Z M 761.992188 737.863281 " fill-opacity="1" fill-rule="nonzero"/></g><path fill="#3f3d56" d="M 1004.820312 337.296875 C 1002.777344 370.796875 957.535156 395.296875 957.535156 395.296875 C 957.535156 395.296875 915.597656 365.484375 917.636719 331.984375 C 919.679688 298.484375 964.925781 273.984375 964.925781 273.984375 C 964.925781 273.984375 1006.859375 303.796875 1004.820312 337.296875 Z M 1004.820312 337.296875 " fill-opacity="1" fill-rule="nonzero"/><path fill="#3f3d56" d="M 1006.867188 441.820312 C 973.367188 439.882812 948.730469 394.707031 948.730469 394.707031 C 948.730469 394.707031 978.40625 352.671875 1011.910156 354.609375 C 1045.410156 356.546875 1070.046875 401.71875 1070.046875 401.71875 C 1070.046875 401.71875 1040.371094 443.753906 1006.867188 441.820312 Z M 1006.867188 441.820312 " fill-opacity="1" fill-rule="nonzero"/><path fill="#000000" d="M 927.183594 409.171875 L 927.183594 533.140625 L 803.898438 370.394531 L 897.8125 370.394531 Z M 927.183594 409.171875 " fill-opacity="0.1" fill-rule="nonzero"/><path fill="#84bb8d" d="M 1031.847656 621.378906 C 1030.601562 621.382812 1029.371094 621.242188 1028.15625 620.957031 C 1026.941406 620.675781 1025.773438 620.253906 1024.65625 619.699219 C 1023.539062 619.148438 1022.5 618.472656 1021.539062 617.675781 C 1020.578125 616.882812 1019.71875 615.984375 1018.964844 614.992188 L 762.113281 275.9375 C 761.792969 275.515625 761.496094 275.078125 761.21875 274.628906 C 760.945312 274.175781 760.691406 273.714844 760.460938 273.238281 C 760.230469 272.761719 760.023438 272.277344 759.839844 271.78125 C 759.65625 271.285156 759.496094 270.78125 759.363281 270.269531 C 759.230469 269.757812 759.121094 269.242188 759.039062 268.71875 C 758.957031 268.199219 758.898438 267.671875 758.867188 267.144531 C 758.835938 266.617188 758.828125 266.089844 758.851562 265.5625 C 758.871094 265.03125 758.917969 264.507812 758.988281 263.984375 C 759.0625 263.460938 759.160156 262.941406 759.28125 262.425781 C 759.40625 261.914062 759.554688 261.40625 759.726562 260.90625 C 759.898438 260.40625 760.097656 259.917969 760.316406 259.4375 C 760.539062 258.957031 760.78125 258.488281 761.050781 258.03125 C 761.316406 257.574219 761.605469 257.132812 761.917969 256.707031 C 762.226562 256.277344 762.558594 255.867188 762.910156 255.472656 C 763.257812 255.074219 763.628906 254.699219 764.015625 254.339844 C 764.40625 253.980469 764.808594 253.640625 765.230469 253.320312 L 803.066406 224.652344 C 803.488281 224.332031 803.925781 224.035156 804.375 223.757812 C 804.824219 223.480469 805.289062 223.226562 805.761719 222.996094 C 806.238281 222.765625 806.726562 222.558594 807.222656 222.375 C 807.714844 222.191406 808.21875 222.035156 808.730469 221.898438 C 809.242188 221.765625 809.757812 221.65625 810.28125 221.574219 C 810.804688 221.492188 811.328125 221.433594 811.855469 221.402344 C 812.382812 221.371094 812.910156 221.367188 813.441406 221.386719 C 813.96875 221.40625 814.496094 221.453125 815.019531 221.527344 C 815.542969 221.597656 816.058594 221.695312 816.574219 221.820312 C 817.089844 221.941406 817.59375 222.089844 818.09375 222.265625 C 818.59375 222.4375 819.082031 222.632812 819.5625 222.855469 C 820.042969 223.078125 820.511719 223.320312 820.96875 223.585938 C 821.425781 223.855469 821.867188 224.144531 822.292969 224.453125 C 822.722656 224.765625 823.132812 225.097656 823.527344 225.445312 C 823.921875 225.796875 824.300781 226.167969 824.660156 226.554688 C 825.019531 226.945312 825.359375 227.347656 825.675781 227.769531 L 1082.53125 566.824219 C 1082.847656 567.246094 1083.148438 567.679688 1083.421875 568.132812 C 1083.699219 568.582031 1083.953125 569.046875 1084.183594 569.519531 C 1084.414062 569.996094 1084.621094 570.484375 1084.804688 570.980469 C 1084.988281 571.472656 1085.144531 571.976562 1085.28125 572.488281 C 1085.414062 573 1085.523438 573.519531 1085.605469 574.039062 C 1085.6875 574.5625 1085.746094 575.085938 1085.777344 575.613281 C 1085.808594 576.140625 1085.8125 576.671875 1085.792969 577.199219 C 1085.773438 577.726562 1085.726562 578.253906 1085.652344 578.777344 C 1085.582031 579.300781 1085.484375 579.820312 1085.359375 580.332031 C 1085.238281 580.847656 1085.089844 581.355469 1084.917969 581.855469 C 1084.742188 582.355469 1084.546875 582.84375 1084.324219 583.324219 C 1084.105469 583.804688 1083.859375 584.273438 1083.59375 584.726562 C 1083.328125 585.183594 1083.039062 585.625 1082.726562 586.054688 C 1082.417969 586.480469 1082.085938 586.894531 1081.734375 587.289062 C 1081.382812 587.683594 1081.015625 588.0625 1080.625 588.421875 C 1080.238281 588.78125 1079.832031 589.117188 1079.414062 589.4375 L 1041.578125 618.109375 C 1040.179688 619.171875 1038.644531 619.984375 1036.980469 620.542969 C 1035.316406 621.101562 1033.605469 621.378906 1031.847656 621.378906 Z M 1031.847656 621.378906 " fill-opacity="1" fill-rule="nonzero"/><path fill="#3f3d56" d="M 863.960938 407.234375 L 929.035156 357.917969 L 978.34375 423.007812 L 913.265625 472.320312 Z M 863.960938 407.234375 " fill-opacity="1" fill-rule="nonzero"/><path fill="#d0cde1" d="M 572.023438 192.941406 L 594.269531 109.894531 L 677.304688 132.144531 L 655.054688 215.191406 Z M 572.023438 192.941406 " fill-opacity="1" fill-rule="nonzero"/><path fill="#2f2e41" d="M 619.832031 227.609375 L 533.128906 204.375 L 556.359375 117.65625 L 643.0625 140.890625 Z M 537.777344 201.6875 L 617.148438 222.957031 L 638.414062 143.578125 L 559.046875 122.308594 Z M 537.777344 201.6875 " fill-opacity="1" fill-rule="nonzero"/></svg>