<svg xmlns="http://www.w3.org/2000/svg" xmlns:xlink="http://www.w3.org/1999/xlink" width="1920" zoomAndPan="magnify" viewBox="0 0 1440 809.999993" height="1080" preserveAspectRatio="xMidYMid meet" version="1.0"><path fill="#ff3131" d="M 1050.441406 662.75 C 1053.257812 661.3125 1056.183594 659.933594 1059.164062 658.628906 C 1069.945312 653.902344 1074.859375 641.332031 1070.144531 630.550781 C 1065.417969 619.765625 1052.828125 614.878906 1042.0625 619.578125 C 1038.320312 621.214844 1034.691406 622.933594 1031.074219 624.769531 C 991.070312 645.273438 969.019531 672.632812 969.019531 701.820312 C 969.019531 731.160156 991.070312 758.554688 1031.109375 778.96875 C 1070.402344 798.976562 1122.683594 810 1178.324219 810 C 1233.980469 810 1286.25 798.976562 1325.527344 778.96875 C 1365.558594 758.546875 1387.609375 731.152344 1387.609375 701.820312 C 1387.609375 672.640625 1365.566406 645.28125 1325.527344 624.753906 C 1321.414062 622.65625 1317.136719 620.65625 1312.753906 618.769531 C 1301.929688 614.125 1289.402344 619.101562 1284.746094 629.902344 C 1280.09375 640.71875 1285.082031 653.265625 1295.890625 657.910156 C 1299.425781 659.4375 1302.847656 661.042969 1306.113281 662.695312 C 1334.804688 677.402344 1344.984375 692.953125 1344.984375 701.8125 C 1344.984375 710.746094 1334.816406 726.371094 1306.167969 740.980469 C 1272.777344 758.007812 1227.371094 767.367188 1178.324219 767.367188 C 1129.28125 767.367188 1083.875 758.007812 1050.476562 740.980469 C 1021.8125 726.382812 1011.660156 710.757812 1011.660156 701.8125 C 1011.652344 692.964844 1021.820312 677.410156 1050.441406 662.75 Z M 1050.441406 662.75 " fill-opacity="1" fill-rule="nonzero"/><path fill="#ff3131" d="M 1181.140625 0.0703125 C 1180.5625 0.0273438 1179.988281 0 1179.402344 0 L 1177.25 0 C 1176.667969 0 1176.089844 0.0273438 1175.53125 0.0703125 C 1035.078125 2.140625 921.09375 117.683594 921.09375 257.976562 C 918.878906 397.558594 1025.683594 525.292969 1103.667969 618.550781 C 1126.535156 645.902344 1146.292969 669.535156 1159.65625 689.101562 C 1163.617188 694.917969 1170.214844 698.398438 1177.261719 698.398438 L 1179.410156 698.398438 C 1186.457031 698.398438 1193.054688 694.917969 1197.023438 689.101562 C 1210.371094 669.527344 1230.136719 645.902344 1253.003906 618.542969 C 1330.980469 525.285156 1437.773438 397.539062 1435.570312 258.316406 C 1435.5625 117.691406 1321.566406 2.160156 1181.140625 0.0703125 Z M 1220.289062 591.199219 C 1204.628906 609.9375 1190.382812 626.976562 1178.324219 642.535156 C 1166.261719 626.976562 1152.023438 609.9375 1136.363281 591.210938 C 1062.671875 503.074219 961.753906 382.363281 963.71875 258.316406 C 963.71875 140.472656 1059.585938 43.738281 1177.441406 42.679688 C 1177.738281 42.679688 1178.027344 42.667969 1178.324219 42.652344 C 1178.621094 42.667969 1178.90625 42.679688 1179.214844 42.679688 C 1297.050781 43.738281 1392.925781 140.472656 1392.925781 258.652344 C 1394.890625 382.363281 1293.980469 503.0625 1220.289062 591.199219 Z M 1220.289062 591.199219 " fill-opacity="1" fill-rule="nonzero"/><path fill="#ff3131" d="M 1178.324219 164.140625 C 1126.230469 164.710938 1084.121094 206.648438 1084.121094 258.355469 C 1084.121094 310.058594 1126.1875 351.988281 1178.324219 352.558594 C 1230.46875 351.988281 1272.527344 310.058594 1272.527344 258.355469 C 1272.527344 206.648438 1230.414062 164.710938 1178.324219 164.140625 Z M 1178.324219 164.140625 " fill-opacity="1" fill-rule="nonzero"/></svg>