<svg xmlns="http://www.w3.org/2000/svg" xmlns:xlink="http://www.w3.org/1999/xlink" width="1920" zoomAndPan="magnify" viewBox="0 0 1440 809.999993" height="1080" preserveAspectRatio="xMidYMid meet" version="1.0"><defs><clipPath id="cebc9eae70"><path d="M 324 32 L 1109 32 L 1109 765 L 324 765 Z M 324 32 " clip-rule="nonzero"/></clipPath><clipPath id="4704946f7a"><path d="M 455.996094 -49.992188 L 1245.34375 372.914062 L 984.304688 860.140625 L 194.957031 437.234375 Z M 455.996094 -49.992188 " clip-rule="nonzero"/></clipPath><clipPath id="9527c76005"><path d="M 455.996094 -49.992188 L 1245.34375 372.914062 L 984.304688 860.140625 L 194.957031 437.234375 Z M 455.996094 -49.992188 " clip-rule="nonzero"/></clipPath><clipPath id="a90e69c502"><path d="M 277.757812 122.058594 L 922 122.058594 L 922 535 L 277.757812 535 Z M 277.757812 122.058594 " clip-rule="nonzero"/></clipPath><clipPath id="d6e5d21547"><path d="M 722 186 L 1023.257812 186 L 1023.257812 810 L 722 810 Z M 722 186 " clip-rule="nonzero"/></clipPath><clipPath id="c2788108db"><path d="M 1251.871094 343.082031 L 1260.625 343.082031 L 1260.625 352.117188 L 1251.871094 352.117188 Z M 1251.871094 343.082031 " clip-rule="nonzero"/></clipPath><clipPath id="a6bf3bb7ff"><path d="M 1260.601562 346.199219 C 1260.375 349.425781 1259.023438 351.074219 1258.125 351.675781 C 1257.449219 352.050781 1256.773438 352.199219 1256.023438 352.050781 C 1254.898438 351.824219 1253.023438 350.925781 1252.425781 349.875 C 1251.75 348.824219 1251.824219 346.726562 1252.199219 345.75 C 1252.425781 345 1252.949219 344.476562 1253.476562 344.023438 C 1254.074219 343.574219 1254.675781 343.199219 1255.425781 343.125 C 1256.550781 343.050781 1259.476562 344.398438 1259.476562 344.398438 " clip-rule="nonzero"/></clipPath><clipPath id="def0745d22"><path d="M 0.871094 0.0820312 L 9.625 0.0820312 L 9.625 9.117188 L 0.871094 9.117188 Z M 0.871094 0.0820312 " clip-rule="nonzero"/></clipPath><clipPath id="a6e33d1948"><path d="M 9.601562 3.199219 C 9.375 6.425781 8.023438 8.074219 7.125 8.675781 C 6.449219 9.050781 5.773438 9.199219 5.023438 9.050781 C 3.898438 8.824219 2.023438 7.925781 1.425781 6.875 C 0.75 5.824219 0.824219 3.726562 1.199219 2.75 C 1.425781 2 1.949219 1.476562 2.476562 1.023438 C 3.074219 0.574219 3.675781 0.199219 4.425781 0.125 C 5.550781 0.0507812 8.476562 1.398438 8.476562 1.398438 " clip-rule="nonzero"/></clipPath><clipPath id="1db0415794"><rect x="0" width="10" y="0" height="10"/></clipPath></defs><g clip-path="url(#cebc9eae70)"><g clip-path="url(#4704946f7a)"><g clip-path="url(#9527c76005)"><path fill="#d1ecf1" d="M 1108.242188 515.714844 C 1109.066406 425.320312 1076.511719 327.042969 998.269531 275.539062 C 956.363281 247.984375 906.414062 236.222656 859.730469 219.335938 C 813.210938 202.535156 777.507812 176.429688 743.675781 140.804688 C 712.277344 107.835938 681.972656 71.078125 640.960938 49.625 C 603.640625 30.046875 559.824219 26.46875 520.515625 42.285156 C 518.398438 43.128906 516.316406 44.097656 514.28125 44.984375 C 450.324219 44.78125 388.738281 85.847656 355.691406 143.25 C 313.445312 216.660156 316.226562 307.320312 352.433594 382.449219 C 369.898438 418.679688 396.015625 451.007812 428.199219 475.125 C 465.898438 503.34375 510.601562 517.503906 555.164062 530.960938 C 601.355469 544.875 649.636719 558.972656 684.078125 594.820312 C 714.96875 626.996094 733.710938 668.808594 762.117188 703.09375 C 818.644531 771.398438 911.867188 781.136719 988.339844 741.0625 C 1070.394531 698.148438 1107.34375 604.296875 1108.242188 515.714844 Z M 1108.242188 515.714844 " fill-opacity="1" fill-rule="nonzero"/></g></g></g><path fill="#ffcdc7" d="M 694.617188 714.449219 L 700.398438 717.277344 C 748.289062 740.699219 806.097656 720.863281 829.519531 672.96875 L 894.550781 540 L 802.058594 494.761719 L 694.617188 714.449219 " fill-opacity="1" fill-rule="nonzero"/><path fill="#ffd4cf" d="M 625.25 662.960938 L 631.03125 665.789062 C 678.917969 689.214844 736.726562 669.378906 760.15625 621.484375 L 825.183594 488.515625 L 732.691406 443.277344 L 625.25 662.960938 " fill-opacity="1" fill-rule="nonzero"/><path fill="#fdbf67" d="M 792.5625 568.09375 L 375.347656 685.550781 C 366.792969 687.957031 357.90625 682.972656 355.5 674.417969 L 290.628906 443.941406 L 715.34375 444.582031 L 792.5625 568.09375 " fill-opacity="1" fill-rule="nonzero"/><g clip-path="url(#a90e69c502)"><path fill="#25b1fa" d="M 905.175781 534.042969 L 293.847656 534.042969 C 284.960938 534.042969 277.757812 526.839844 277.757812 517.953125 L 277.757812 138.246094 C 277.757812 129.359375 284.960938 122.160156 293.847656 122.160156 L 905.175781 122.160156 C 914.0625 122.160156 921.261719 129.359375 921.261719 138.246094 L 921.261719 517.953125 C 921.261719 526.839844 914.0625 534.042969 905.175781 534.042969 " fill-opacity="1" fill-rule="nonzero"/></g><path fill="#fafdff" d="M 856.914062 250.871094 L 760.386719 250.871094 C 742.617188 250.871094 728.210938 236.46875 728.210938 218.695312 C 728.210938 200.921875 742.617188 186.515625 760.386719 186.515625 L 824.738281 186.515625 C 842.507812 186.515625 856.914062 200.921875 856.914062 218.695312 L 856.914062 250.871094 " fill-opacity="1" fill-rule="nonzero"/><g clip-path="url(#d6e5d21547)"><path fill="#ffd4cf" d="M 817.328125 817.210938 L 817.328125 611.269531 L 738.328125 482.65625 C 710.496094 439.347656 721.539062 381.824219 763.421875 351.894531 L 778.71875 340.972656 L 881.679688 469.683594 L 905.175781 469.683594 C 914.0625 469.683594 921.261719 462.484375 921.261719 453.597656 L 921.261719 186.515625 L 945.394531 186.515625 C 960.726562 186.515625 973.9375 197.34375 976.941406 212.382812 L 1023.25 443.941406 L 984.640625 624.140625 L 984.640625 817.210938 L 817.328125 817.210938 " fill-opacity="1" fill-rule="nonzero"/></g><path fill="#fafdff" d="M 393.589844 431.070312 L 329.238281 431.070312 L 329.238281 405.328125 L 393.589844 405.328125 L 393.589844 431.070312 " fill-opacity="1" fill-rule="nonzero"/><path fill="#fafdff" d="M 560.902344 431.070312 L 419.328125 431.070312 L 419.328125 405.328125 L 560.902344 405.328125 L 560.902344 431.070312 " fill-opacity="1" fill-rule="nonzero"/><path fill="#fafdff" d="M 354.980469 482.554688 L 329.238281 482.554688 L 329.238281 456.8125 L 354.980469 456.8125 L 354.980469 482.554688 " fill-opacity="1" fill-rule="nonzero"/><path fill="#fafdff" d="M 406.460938 482.554688 L 380.71875 482.554688 L 380.71875 456.8125 L 406.460938 456.8125 L 406.460938 482.554688 " fill-opacity="1" fill-rule="nonzero"/><path fill="#fafdff" d="M 457.941406 482.554688 L 432.199219 482.554688 L 432.199219 456.8125 L 457.941406 456.8125 L 457.941406 482.554688 " fill-opacity="1" fill-rule="nonzero"/><path fill="#fafdff" d="M 509.421875 482.554688 L 483.679688 482.554688 L 483.679688 456.8125 L 509.421875 456.8125 L 509.421875 482.554688 " fill-opacity="1" fill-rule="nonzero"/><path fill="#fafdff" d="M 560.902344 482.554688 L 535.160156 482.554688 L 535.160156 456.8125 L 560.902344 456.8125 L 560.902344 482.554688 " fill-opacity="1" fill-rule="nonzero"/><path fill="#fafdff" d="M 612.382812 482.554688 L 586.640625 482.554688 L 586.640625 456.8125 L 612.382812 456.8125 L 612.382812 482.554688 " fill-opacity="1" fill-rule="nonzero"/><path fill="#fafdff" d="M 869.78125 315.230469 L 792.5625 315.230469 L 792.5625 289.484375 L 869.78125 289.484375 L 869.78125 315.230469 " fill-opacity="1" fill-rule="nonzero"/><path fill="#fafdff" d="M 766.824219 315.230469 L 715.34375 315.230469 L 715.34375 289.484375 L 766.824219 289.484375 L 766.824219 315.230469 " fill-opacity="1" fill-rule="nonzero"/><path fill="#fafdff" d="M 522.289062 250.871094 L 457.941406 250.871094 L 457.941406 186.515625 L 406.460938 186.515625 L 406.460938 250.871094 L 342.109375 250.871094 L 342.109375 302.359375 L 406.460938 302.359375 L 406.460938 366.714844 L 457.941406 366.714844 L 457.941406 302.359375 L 522.289062 302.359375 L 522.289062 250.871094 " fill-opacity="1" fill-rule="nonzero"/><g clip-path="url(#c2788108db)"><g clip-path="url(#a6bf3bb7ff)"><g transform="matrix(1, 0, 0, 1, 1251, 343)"><g clip-path="url(#1db0415794)"><g clip-path="url(#def0745d22)"><g clip-path="url(#a6e33d1948)"><rect x="-1567.8" width="2073.6" fill="#ffffff" height="1166.39999" y="-521.199998" fill-opacity="1"/></g></g></g></g></g></g></svg>