<svg xmlns="http://www.w3.org/2000/svg" xmlns:xlink="http://www.w3.org/1999/xlink" width="1920" zoomAndPan="magnify" viewBox="0 0 1440 809.999993" height="1080" preserveAspectRatio="xMidYMid meet" version="1.0"><defs><clipPath id="15abd927c8"><path d="M 454 122 L 1003 122 L 1003 635 L 454 635 Z M 454 122 " clip-rule="nonzero"/></clipPath><clipPath id="e0553e0518"><path d="M 546.234375 64.832031 L 1097.589844 360.230469 L 915.179688 700.695312 L 363.824219 405.296875 Z M 546.234375 64.832031 " clip-rule="nonzero"/></clipPath><clipPath id="13e444e001"><path d="M 546.234375 64.832031 L 1097.589844 360.230469 L 915.179688 700.695312 L 363.824219 405.296875 Z M 546.234375 64.832031 " clip-rule="nonzero"/></clipPath><clipPath id="dad2164537"><path d="M 410.851562 215 L 861 215 L 861 503 L 410.851562 503 Z M 410.851562 215 " clip-rule="nonzero"/></clipPath><clipPath id="5905e36bd5"><path d="M 722 260 L 932.101562 260 L 932.101562 700.957031 L 722 700.957031 Z M 722 260 " clip-rule="nonzero"/></clipPath><clipPath id="926263feb6"><path d="M 1251.871094 343.082031 L 1260.625 343.082031 L 1260.625 352.117188 L 1251.871094 352.117188 Z M 1251.871094 343.082031 " clip-rule="nonzero"/></clipPath><clipPath id="bbb17cb0cd"><path d="M 1260.601562 346.199219 C 1260.375 349.425781 1259.023438 351.074219 1258.125 351.675781 C 1257.449219 352.050781 1256.773438 352.199219 1256.023438 352.050781 C 1254.898438 351.824219 1253.023438 350.925781 1252.425781 349.875 C 1251.75 348.824219 1251.824219 346.726562 1252.199219 345.75 C 1252.425781 345 1252.949219 344.476562 1253.476562 344.023438 C 1254.074219 343.574219 1254.675781 343.199219 1255.425781 343.125 C 1256.550781 343.050781 1259.476562 344.398438 1259.476562 344.398438 " clip-rule="nonzero"/></clipPath><clipPath id="7f32bfaea1"><path d="M 0.871094 0.0820312 L 9.625 0.0820312 L 9.625 9.117188 L 0.871094 9.117188 Z M 0.871094 0.0820312 " clip-rule="nonzero"/></clipPath><clipPath id="4e5ba9ebe5"><path d="M 9.601562 3.199219 C 9.375 6.425781 8.023438 8.074219 7.125 8.675781 C 6.449219 9.050781 5.773438 9.199219 5.023438 9.050781 C 3.898438 8.824219 2.023438 7.925781 1.425781 6.875 C 0.75 5.824219 0.824219 3.726562 1.199219 2.75 C 1.425781 2 1.949219 1.476562 2.476562 1.023438 C 3.074219 0.574219 3.675781 0.199219 4.425781 0.125 C 5.550781 0.0507812 8.476562 1.398438 8.476562 1.398438 " clip-rule="nonzero"/></clipPath><clipPath id="bd4091dd3e"><rect x="0" width="10" y="0" height="10"/></clipPath></defs><g clip-path="url(#15abd927c8)"><g clip-path="url(#e0553e0518)"><g clip-path="url(#13e444e001)"><path fill="#d1ecf1" d="M 1002.183594 460.285156 C 1002.757812 397.097656 980 328.398438 925.308594 292.394531 C 896.015625 273.132812 861.097656 264.910156 828.464844 253.105469 C 795.941406 241.363281 770.984375 223.113281 747.335938 198.210938 C 725.386719 175.164062 704.203125 149.464844 675.535156 134.472656 C 649.445312 120.785156 618.816406 118.285156 591.339844 129.339844 C 589.859375 129.929688 588.402344 130.605469 586.980469 131.226562 C 542.269531 131.085938 499.21875 159.792969 476.121094 199.917969 C 446.585938 251.234375 448.53125 314.609375 473.84375 367.128906 C 486.050781 392.457031 504.308594 415.054688 526.804688 431.914062 C 553.15625 451.640625 584.410156 461.539062 615.558594 470.945312 C 647.847656 480.671875 681.601562 490.527344 705.675781 515.585938 C 727.269531 538.078125 740.371094 567.304688 760.226562 591.269531 C 799.742188 639.019531 864.910156 645.828125 918.367188 617.816406 C 975.726562 587.816406 1001.554688 522.210938 1002.183594 460.285156 Z M 1002.183594 460.285156 " fill-opacity="1" fill-rule="nonzero"/></g></g></g><path fill="#ffcdc7" d="M 702.316406 629.050781 L 706.359375 631.027344 C 739.84375 647.402344 780.265625 633.539062 796.640625 600.058594 L 842.109375 507.109375 L 777.4375 475.488281 L 702.316406 629.050781 " fill-opacity="1" fill-rule="nonzero"/><path fill="#ffd4cf" d="M 653.816406 593.0625 L 657.859375 595.039062 C 691.339844 611.414062 731.761719 597.546875 748.140625 564.066406 L 793.609375 471.121094 L 728.9375 439.5 L 653.816406 593.0625 " fill-opacity="1" fill-rule="nonzero"/><path fill="#fdbf67" d="M 770.800781 526.746094 L 479.085938 608.851562 C 473.105469 610.535156 466.890625 607.050781 465.207031 601.070312 L 419.851562 439.964844 L 716.808594 440.414062 L 770.800781 526.746094 " fill-opacity="1" fill-rule="nonzero"/><g clip-path="url(#dad2164537)"><path fill="#25b1fa" d="M 849.539062 502.945312 L 422.101562 502.945312 C 415.886719 502.945312 410.851562 497.910156 410.851562 491.699219 L 410.851562 226.277344 C 410.851562 220.066406 415.886719 215.03125 422.101562 215.03125 L 849.539062 215.03125 C 855.75 215.03125 860.785156 220.066406 860.785156 226.277344 L 860.785156 491.699219 C 860.785156 497.910156 855.75 502.945312 849.539062 502.945312 " fill-opacity="1" fill-rule="nonzero"/></g><path fill="#fafdff" d="M 815.792969 305.003906 L 748.304688 305.003906 C 735.878906 305.003906 725.804688 294.9375 725.804688 282.511719 C 725.804688 270.085938 735.878906 260.019531 748.304688 260.019531 L 793.296875 260.019531 C 805.722656 260.019531 815.792969 270.085938 815.792969 282.511719 L 815.792969 305.003906 " fill-opacity="1" fill-rule="nonzero"/><g clip-path="url(#5905e36bd5)"><path fill="#ffd4cf" d="M 788.117188 700.886719 L 788.117188 556.929688 L 732.878906 467.027344 C 713.417969 436.753906 721.140625 396.542969 750.425781 375.621094 L 761.121094 367.984375 L 833.109375 457.957031 L 849.539062 457.957031 C 855.75 457.957031 860.785156 452.925781 860.785156 446.710938 L 860.785156 260.019531 L 877.660156 260.019531 C 888.378906 260.019531 897.617188 267.585938 899.714844 278.101562 L 932.09375 439.964844 L 905.097656 565.925781 L 905.097656 700.886719 L 788.117188 700.886719 " fill-opacity="1" fill-rule="nonzero"/></g><path fill="#fafdff" d="M 491.839844 430.96875 L 446.847656 430.96875 L 446.847656 412.972656 L 491.839844 412.972656 L 491.839844 430.96875 " fill-opacity="1" fill-rule="nonzero"/><path fill="#fafdff" d="M 608.824219 430.96875 L 509.835938 430.96875 L 509.835938 412.972656 L 608.824219 412.972656 L 608.824219 430.96875 " fill-opacity="1" fill-rule="nonzero"/><path fill="#fafdff" d="M 464.84375 466.957031 L 446.847656 466.957031 L 446.847656 448.960938 L 464.84375 448.960938 L 464.84375 466.957031 " fill-opacity="1" fill-rule="nonzero"/><path fill="#fafdff" d="M 500.839844 466.957031 L 482.839844 466.957031 L 482.839844 448.960938 L 500.839844 448.960938 L 500.839844 466.957031 " fill-opacity="1" fill-rule="nonzero"/><path fill="#fafdff" d="M 536.832031 466.957031 L 518.835938 466.957031 L 518.835938 448.960938 L 536.832031 448.960938 L 536.832031 466.957031 " fill-opacity="1" fill-rule="nonzero"/><path fill="#fafdff" d="M 572.828125 466.957031 L 554.832031 466.957031 L 554.832031 448.960938 L 572.828125 448.960938 L 572.828125 466.957031 " fill-opacity="1" fill-rule="nonzero"/><path fill="#fafdff" d="M 608.824219 466.957031 L 590.824219 466.957031 L 590.824219 448.960938 L 608.824219 448.960938 L 608.824219 466.957031 " fill-opacity="1" fill-rule="nonzero"/><path fill="#fafdff" d="M 644.816406 466.957031 L 626.820312 466.957031 L 626.820312 448.960938 L 644.816406 448.960938 L 644.816406 466.957031 " fill-opacity="1" fill-rule="nonzero"/><path fill="#fafdff" d="M 824.792969 349.992188 L 770.800781 349.992188 L 770.800781 331.996094 L 824.792969 331.996094 L 824.792969 349.992188 " fill-opacity="1" fill-rule="nonzero"/><path fill="#fafdff" d="M 752.800781 349.992188 L 716.808594 349.992188 L 716.808594 331.996094 L 752.800781 331.996094 L 752.800781 349.992188 " fill-opacity="1" fill-rule="nonzero"/><path fill="#fafdff" d="M 581.828125 305.003906 L 536.832031 305.003906 L 536.832031 260.019531 L 500.839844 260.019531 L 500.839844 305.003906 L 455.84375 305.003906 L 455.84375 340.992188 L 500.839844 340.992188 L 500.839844 385.980469 L 536.832031 385.980469 L 536.832031 340.992188 L 581.828125 340.992188 L 581.828125 305.003906 " fill-opacity="1" fill-rule="nonzero"/><g clip-path="url(#926263feb6)"><g clip-path="url(#bbb17cb0cd)"><g transform="matrix(1, 0, 0, 1, 1251, 343)"><g clip-path="url(#bd4091dd3e)"><g clip-path="url(#7f32bfaea1)"><g clip-path="url(#4e5ba9ebe5)"><rect x="-1567.8" width="2073.6" fill="#ffffff" height="1166.39999" y="-521.199998" fill-opacity="1"/></g></g></g></g></g></g></svg>