<svg xmlns="http://www.w3.org/2000/svg" xmlns:xlink="http://www.w3.org/1999/xlink" width="1920" zoomAndPan="magnify" viewBox="0 0 1440 809.999993" height="1080" preserveAspectRatio="xMidYMid meet" version="1.0"><path fill="#422e25" d="M 1029.039062 548.769531 L 1027.582031 773.335938 C 1027.582031 773.335938 1085.777344 767.898438 1090.679688 741.851562 C 1095.566406 715.824219 1050.175781 586.476562 1029.058594 548.769531 Z M 1029.039062 548.769531 " fill-opacity="1" fill-rule="evenodd"/><path fill="#422e25" d="M 859.203125 232.859375 C 858.453125 232.921875 857.722656 232.566406 857.308594 231.894531 C 857.25 231.777344 857.191406 231.660156 857.132812 231.539062 C 857.035156 231.738281 856.9375 231.933594 856.855469 232.09375 C 856.363281 233.078125 855.164062 233.492188 854.179688 233 C 853.191406 232.507812 852.78125 231.304688 853.273438 230.320312 C 855.28125 226.320312 862.492188 211.523438 875.90625 208.707031 L 876.695312 208.628906 L 877.503906 208.707031 L 878.332031 209 L 879.097656 209.554688 L 879.710938 210.339844 L 880.0625 211.285156 C 880.183594 211.839844 880.203125 212.507812 880.003906 213.296875 C 879.710938 214.578125 878.785156 216.410156 876.65625 218.851562 C 875.808594 219.835938 874.746094 220.921875 873.425781 222.144531 C 881.324219 218.992188 888.0625 217.078125 892.808594 216.703125 C 896.828125 216.390625 899.648438 217.277344 901.066406 218.890625 L 901.457031 219.445312 L 901.695312 220.054688 L 901.792969 220.664062 L 901.792969 221.257812 C 901.675781 222.398438 900.867188 224.074219 898.976562 225.769531 C 894.191406 230.023438 881.621094 235.5 859.203125 232.859375 Z M 858.628906 228.722656 C 869.425781 221.136719 874.054688 216.351562 875.652344 213.453125 C 875.769531 213.238281 875.867188 213 875.945312 212.785156 C 871.671875 213.886719 868.164062 216.449219 865.386719 219.324219 C 862.335938 222.457031 860.128906 226.023438 858.648438 228.703125 Z M 866.570312 229.453125 C 882.921875 230.222656 892.4375 226.222656 896.316406 222.773438 C 896.847656 222.300781 897.261719 221.847656 897.539062 221.414062 C 897.578125 221.355469 897.617188 221.277344 897.65625 221.195312 C 897.164062 220.902344 896.476562 220.761719 895.648438 220.683594 C 894.089844 220.546875 892.140625 220.703125 889.855469 221.136719 C 883.867188 222.28125 875.75 225.195312 866.570312 229.453125 Z M 866.570312 229.453125 " fill-opacity="1" fill-rule="evenodd"/><path fill="#422e25" d="M 1045.84375 545.023438 C 1047.042969 544.925781 1048.246094 544.867188 1049.390625 544.886719 C 1056.679688 544.964844 1062.488281 547.546875 1063.003906 554.5 C 1063.179688 557.003906 1062.609375 558.855469 1061.5625 560.214844 C 1060.066406 562.183594 1057.484375 563.171875 1054.175781 563.25 C 1043.914062 563.445312 1025.75 554.519531 1023.484375 553.773438 C 1022.929688 553.59375 1022.496094 553.179688 1022.28125 552.667969 C 1022.066406 552.136719 1022.066406 551.546875 1022.300781 551.035156 C 1025.984375 543.09375 1033.589844 534.484375 1040.839844 530.582031 C 1046.335938 527.628906 1051.65625 527.351562 1055.378906 530.976562 C 1056.402344 531.980469 1056.835938 533.085938 1056.835938 534.246094 C 1056.835938 535.644531 1056.144531 537.222656 1054.628906 538.839844 C 1052.816406 540.789062 1049.683594 542.898438 1045.84375 545.042969 Z M 1030.4375 552.414062 C 1035.636719 554.660156 1043.359375 557.753906 1049.78125 558.855469 C 1051.613281 559.171875 1053.347656 559.328125 1054.847656 559.210938 C 1056.226562 559.113281 1057.386719 558.816406 1058.15625 558.066406 C 1058.863281 557.378906 1059.121094 556.292969 1059.003906 554.816406 C 1058.648438 550.089844 1054.292969 548.964844 1049.351562 548.90625 C 1042.554688 548.847656 1034.4375 551.09375 1030.417969 552.414062 Z M 1027.933594 549.003906 C 1036.328125 545.574219 1044.976562 541.515625 1049.761719 537.8125 C 1050.945312 536.90625 1051.871094 536.039062 1052.421875 535.210938 C 1052.777344 534.699219 1052.996094 534.246094 1052.582031 533.832031 C 1050.058594 531.371094 1046.453125 532.078125 1042.730469 534.089844 C 1037.273438 537.046875 1031.597656 542.957031 1027.914062 549.003906 Z M 1027.933594 549.003906 " fill-opacity="1" fill-rule="evenodd"/><path fill="#238170" d="M 939.675781 785.097656 C 780.320312 798.476562 790.941406 676.261719 790.941406 676.261719 C 790.941406 676.261719 752.996094 486.074219 737.945312 446.769531 L 721.910156 450.769531 C 721.910156 450.769531 666.058594 419.992188 662.550781 411.542969 C 659.027344 403.070312 618.621094 389.613281 618.621094 389.613281 C 618.621094 389.613281 628.429688 357.183594 663.261719 337.183594 C 685.859375 324.199219 709.675781 298.132812 727.878906 284.421875 C 746.238281 270.589844 805.636719 239.046875 842.160156 233.53125 C 903.332031 224.269531 951.417969 235.480469 968.5 258.21875 C 985.578125 280.953125 972.65625 382.777344 975.296875 415.167969 C 976.714844 432.40625 995.625 447.203125 1024.644531 532.789062 C 1050.15625 608.050781 1051.554688 718.011719 1045.863281 756.882812 C 1043.320312 774.183594 1029.492188 777.570312 939.699219 785.097656 Z M 939.675781 785.097656 " fill-opacity="1" fill-rule="evenodd"/><path fill="#238170" d="M 841.53125 484.636719 L 864.914062 548.964844 C 864.914062 548.964844 874.015625 554.226562 889.066406 557.140625 C 900.492188 559.347656 915.347656 560.214844 932.230469 556.351562 C 986.230469 544.019531 1075.726562 522.269531 1078.347656 468.914062 C 1083.648438 361.0625 1025.257812 255.203125 926.578125 235.875 C 926.578125 235.875 903.152344 258.789062 919.289062 304.339844 C 935.402344 349.894531 981.128906 401.039062 962.765625 421.078125 C 934.554688 451.851562 841.550781 484.617188 841.550781 484.617188 Z M 841.53125 484.636719 " fill-opacity="1" fill-rule="evenodd"/><path fill="#fcc6a0" d="M 778.765625 215.03125 C 778.765625 215.03125 789.679688 240.445312 788.675781 253.941406 C 787.316406 272.304688 812.433594 271.496094 827.367188 268.503906 C 842.316406 265.527344 857.210938 250.375 860.109375 235.660156 C 860.875 231.796875 853.941406 224.035156 851.144531 217.632812 C 847.5 209.277344 844.464844 198.757812 841.371094 189.910156 C 838.300781 181.082031 778.765625 215.03125 778.765625 215.03125 Z M 778.765625 215.03125 " fill-opacity="1" fill-rule="evenodd"/><path fill="#fcc6a0" d="M 721.910156 70.019531 C 721.910156 70.019531 675.160156 93.664062 691.609375 144.59375 C 708.058594 195.523438 744.445312 241.707031 793.363281 229.019531 C 837.648438 217.53125 846.257812 193.359375 850.535156 162.03125 C 850.535156 162.03125 870.332031 152.160156 853.390625 119.433594 C 836.46875 86.710938 824.6875 116.300781 824.6875 116.300781 C 824.6875 116.300781 766.570312 46.496094 721.910156 70 Z M 721.910156 70.019531 " fill-opacity="1" fill-rule="evenodd"/><path fill="#238170" d="M 707.273438 180.511719 C 707.273438 180.511719 692.554688 124.714844 707.863281 101.839844 C 731.011719 67.261719 771.21875 81.921875 807.292969 105.878906 C 836.074219 124.992188 844.089844 120.914062 851.617188 144.832031 C 855.519531 157.242188 840.742188 169.972656 842.003906 190.933594 C 843.265625 211.917969 852.660156 203.800781 852.660156 203.800781 C 852.660156 203.800781 906.007812 153.972656 891.097656 107.789062 C 867.691406 35.226562 797.105469 0.136719 728.507812 29.257812 C 669.546875 54.296875 672.699219 132.515625 707.253906 180.492188 Z M 707.273438 180.511719 " fill-opacity="1" fill-rule="evenodd"/><path fill="#99a9d7" d="M 713.8125 191.484375 C 713.8125 191.484375 733.394531 182.34375 740.839844 168.238281 C 748.289062 154.128906 749.410156 152.417969 769.269531 152.554688 C 789.128906 152.710938 819.230469 132.96875 822.085938 138.605469 C 827.621094 149.539062 839.324219 178.34375 835.894531 195.328125 C 832.46875 212.332031 817.003906 229.234375 799.214844 232.011719 C 781.425781 234.792969 742.59375 238.652344 713.8125 191.464844 Z M 713.8125 191.484375 " fill-opacity="1" fill-rule="evenodd"/><path fill="#422e25" d="M 841.984375 131.335938 C 842.4375 130.328125 843.617188 129.875 844.625 130.328125 C 845.628906 130.78125 846.082031 131.964844 845.628906 132.96875 C 844.308594 135.90625 843.363281 139.273438 843.046875 141.972656 C 842.890625 143.394531 842.832031 144.59375 843.164062 145.265625 C 843.65625 146.25 843.265625 147.453125 842.257812 147.945312 C 841.273438 148.4375 840.074219 148.042969 839.582031 147.039062 C 839.128906 146.132812 838.871094 144.730469 838.949219 143.019531 C 839.066406 139.785156 840.230469 135.214844 841.964844 131.316406 Z M 841.984375 131.335938 " fill-opacity="1" fill-rule="evenodd"/><path fill="#f1efee" d="M 825.59375 118.390625 C 825.769531 117.308594 826.8125 116.558594 827.898438 116.734375 C 828.980469 116.914062 829.730469 117.957031 829.550781 119.039062 C 828.566406 124.929688 822.675781 139.15625 822.675781 139.15625 C 822.242188 140.179688 821.082031 140.652344 820.058594 140.238281 C 819.03125 139.808594 818.558594 138.644531 818.972656 137.621094 C 818.972656 137.621094 824.648438 124.023438 825.59375 118.390625 Z M 825.59375 118.390625 " fill-opacity="1" fill-rule="evenodd"/><path fill="#f1efee" d="M 846.335938 163.253906 C 846.257812 162.976562 846.238281 162.679688 846.277344 162.386719 C 846.4375 161.300781 847.460938 160.535156 848.5625 160.710938 L 848.996094 160.828125 L 849.410156 161.046875 L 849.804688 161.378906 L 850.140625 161.875 L 850.355469 162.5625 L 850.355469 163.527344 C 849.960938 166.9375 843.597656 183.878906 839.007812 194.441406 C 838.554688 195.464844 837.394531 195.917969 836.367188 195.484375 C 835.363281 195.050781 834.890625 193.871094 835.324219 192.84375 C 839.660156 182.875 845.746094 167.015625 846.335938 163.292969 Z M 847.460938 164.511719 C 847.617188 164.574219 847.777344 164.632812 847.953125 164.652344 C 847.777344 164.632812 847.617188 164.574219 847.460938 164.511719 Z M 847.460938 164.511719 " fill-opacity="1" fill-rule="evenodd"/><path fill="#422e25" d="M 726.519531 136.101562 C 727.621094 136.0625 728.570312 136.910156 728.609375 138.015625 C 728.648438 139.117188 727.800781 140.0625 726.695312 140.101562 C 726.695312 140.101562 716.492188 140.515625 712.691406 149.597656 C 712.257812 150.625 711.09375 151.097656 710.070312 150.683594 C 709.046875 150.25 708.574219 149.085938 708.984375 148.0625 C 713.753906 136.675781 726.519531 136.101562 726.519531 136.101562 Z M 726.519531 136.101562 " fill-opacity="1" fill-rule="evenodd"/><path fill="#422e25" d="M 724.195312 151.945312 C 726.777344 150.664062 730.222656 152.355469 731.917969 155.726562 C 733.59375 159.09375 732.882812 162.878906 730.320312 164.179688 C 727.742188 165.460938 724.292969 163.765625 722.597656 160.394531 C 720.90625 157.027344 721.632812 153.242188 724.195312 151.964844 Z M 724.195312 151.945312 " fill-opacity="1" fill-rule="evenodd"/><path fill="#422e25" d="M 774.902344 128.261719 C 777.484375 126.980469 780.933594 128.675781 782.625 132.042969 C 784.320312 135.414062 783.589844 139.195312 781.011719 140.476562 C 778.449219 141.757812 774.984375 140.0625 773.289062 136.695312 C 771.59375 133.324219 772.324219 129.542969 774.902344 128.261719 Z M 774.902344 128.261719 " fill-opacity="1" fill-rule="evenodd"/><path fill="#422e25" d="M 761.644531 122.230469 C 761.035156 123.160156 759.792969 123.394531 758.867188 122.785156 C 757.941406 122.171875 757.707031 120.933594 758.316406 120.007812 C 758.828125 119.238281 761.113281 115.808594 764.777344 113.089844 C 768.621094 110.214844 773.917969 108.125 780.242188 110.234375 C 781.285156 110.589844 781.859375 111.710938 781.503906 112.773438 C 781.148438 113.820312 780.027344 114.390625 778.960938 114.035156 C 774.136719 112.421875 770.097656 114.113281 767.160156 116.300781 C 764.027344 118.648438 762.078125 121.582031 761.644531 122.230469 Z M 761.644531 122.230469 " fill-opacity="1" fill-rule="evenodd"/><path fill="#422e25" d="M 744.132812 144.320312 C 743.972656 143.214844 744.742188 142.210938 745.84375 142.054688 C 746.949219 141.894531 747.953125 142.664062 748.109375 143.765625 C 748.957031 149.933594 748.582031 149.71875 749.449219 155.726562 C 749.609375 156.828125 748.839844 157.835938 747.757812 157.992188 C 746.652344 158.148438 745.648438 157.382812 745.492188 156.296875 C 744.625 150.269531 745 150.484375 744.152344 144.320312 Z M 744.132812 144.320312 " fill-opacity="1" fill-rule="evenodd"/><path fill="#f1efee" d="M 947.734375 338.582031 C 947.300781 337.558594 947.792969 336.375 948.820312 335.964844 C 949.84375 335.53125 951.003906 336.023438 951.4375 337.046875 C 963.832031 366.796875 969.78125 385.0625 971.511719 396.882812 C 973.386719 409.628906 970.507812 415.421875 965.601562 419.835938 C 930.476562 451.4375 850.515625 484.441406 849.488281 484.832031 C 848.464844 485.246094 847.300781 484.734375 846.890625 483.710938 C 846.476562 482.6875 846.988281 481.523438 848.011719 481.109375 C 849.015625 480.714844 928.171875 448.128906 962.925781 416.839844 C 967.042969 413.136719 969.109375 408.171875 967.535156 397.453125 C 965.820312 385.808594 959.929688 367.859375 947.714844 338.582031 Z M 947.734375 338.582031 " fill-opacity="1" fill-rule="evenodd"/><path fill="#f1efee" d="M 971.691406 425.019531 C 970.585938 424.859375 969.839844 423.835938 969.996094 422.75 C 970.152344 421.648438 971.179688 420.898438 972.261719 421.058594 C 975.609375 421.550781 979.769531 423.757812 983.847656 426.75 C 989.695312 431.085938 995.371094 437.035156 998.050781 441.253906 C 998.640625 442.179688 998.363281 443.417969 997.4375 444.03125 C 996.511719 444.621094 995.273438 444.34375 994.679688 443.417969 C 992.199219 439.519531 986.898438 434.023438 981.480469 430.003906 C 978.035156 427.441406 974.546875 425.449219 971.710938 425.039062 Z M 971.691406 425.019531 " fill-opacity="1" fill-rule="evenodd"/><path fill="#f1efee" d="M 782.09375 273.800781 C 782.488281 272.757812 783.632812 272.226562 784.675781 272.621094 C 785.71875 273.015625 786.25 274.15625 785.855469 275.199219 C 785.699219 275.613281 779.710938 287.710938 779.179688 288.796875 C 778.6875 289.78125 777.484375 290.195312 776.5 289.703125 C 775.515625 289.210938 775.101562 288.007812 775.59375 287.023438 C 776.125 285.976562 781.957031 274.234375 782.09375 273.820312 Z M 782.09375 273.800781 " fill-opacity="1" fill-rule="evenodd"/><path fill="#f1efee" d="M 813.320312 284.363281 C 813.101562 283.277344 813.792969 282.214844 814.875 282 C 815.960938 281.78125 817.023438 282.472656 817.238281 283.554688 C 818.71875 290.707031 818.597656 290.410156 819.585938 297.621094 C 819.742188 298.726562 818.972656 299.730469 817.871094 299.886719 C 816.765625 300.046875 815.761719 299.277344 815.605469 298.175781 C 814.621094 291.101562 814.738281 291.394531 813.300781 284.363281 Z M 813.320312 284.363281 " fill-opacity="1" fill-rule="evenodd"/><path fill="#f1efee" d="M 852.304688 276.363281 L 850.316406 274.628906 C 850.160156 273.527344 850.925781 272.523438 852.011719 272.363281 C 853.113281 272.207031 854.117188 272.976562 852.285156 276.34375 Z M 850.613281 275.476562 C 850.472656 275.261719 850.375 275.003906 850.316406 274.667969 L 850.316406 274.808594 C 850.316406 274.808594 850.613281 275.476562 850.613281 275.476562 Z M 852.304688 276.363281 L 854.296875 274.058594 C 854.296875 274.058594 854.296875 274.019531 854.296875 273.960938 C 854.296875 273.960938 854.238281 273.703125 854.238281 273.703125 C 854.238281 273.703125 855.398438 276.109375 859.871094 283.832031 C 860.421875 284.796875 860.089844 286.019531 859.140625 286.570312 C 858.175781 287.121094 856.957031 286.785156 856.402344 285.839844 C 852.347656 278.847656 851.105469 276.441406 850.710938 275.613281 L 850.652344 275.457031 C 851.222656 276.363281 852.347656 276.34375 852.347656 276.34375 Z M 852.304688 276.363281 " fill-opacity="1" fill-rule="evenodd"/><path fill="#f1efee" d="M 876.066406 245.175781 C 877.898438 245.53125 882.742188 246.847656 890.230469 251.835938 C 891.15625 252.445312 891.390625 253.6875 890.78125 254.613281 C 890.171875 255.539062 888.929688 255.773438 888.003906 255.164062 C 879.355469 249.410156 875.414062 249.117188 874.726562 249.015625 L 873.878906 248.742188 L 873.386719 248.347656 L 873.011719 247.777344 L 872.855469 247.007812 L 872.972656 246.316406 L 873.386719 245.648438 L 873.839844 245.292969 L 874.292969 245.078125 C 874.882812 244.839844 875.535156 244.898438 876.046875 245.195312 Z M 876.066406 245.175781 " fill-opacity="1" fill-rule="evenodd"/><path fill="#f1efee" d="M 976.242188 416.171875 C 975.238281 416.605469 974.054688 416.152344 973.601562 415.128906 C 973.167969 414.121094 973.621094 412.941406 974.644531 412.488281 C 984.257812 408.308594 998.976562 412.800781 1000.925781 413.6875 C 1001.929688 414.140625 1002.382812 415.324219 1001.929688 416.347656 C 1001.476562 417.351562 1000.296875 417.804688 999.292969 417.351562 C 997.578125 416.585938 984.671875 412.507812 976.261719 416.171875 Z M 976.242188 416.171875 " fill-opacity="1" fill-rule="evenodd"/><path fill="#f1efee" d="M 1018.480469 529.539062 C 1019.226562 528.925781 1020.332031 528.925781 1021.078125 529.578125 C 1021.90625 530.308594 1022.003906 531.566406 1021.277344 532.414062 L 1020.824219 532.828125 C 1020.664062 532.925781 1020.410156 533.085938 1020.054688 533.28125 C 1018.617188 534.03125 1014.933594 535.585938 1009.515625 537.597656 C 993.558594 543.527344 962.453125 553.417969 931.027344 557.179688 C 909.890625 559.703125 888.59375 559.425781 871.59375 553.4375 C 870.550781 553.0625 869.996094 551.921875 870.371094 550.875 C 870.746094 549.832031 871.886719 549.28125 872.933594 549.65625 C 889.421875 555.464844 910.046875 555.644531 930.554688 553.199219 C 961.605469 549.496094 992.335938 539.722656 1008.117188 533.851562 C 1013.632812 531.804688 1018.125 529.734375 1018.480469 529.578125 Z M 1018.480469 529.539062 " fill-opacity="1" fill-rule="evenodd"/><path fill="#f1efee" d="M 735.445312 356.277344 C 735.738281 355.210938 736.84375 354.582031 737.90625 354.878906 C 738.96875 355.171875 739.601562 356.277344 739.304688 357.339844 C 727.683594 399.167969 742.042969 429.667969 746.339844 448.484375 C 746.574219 449.566406 745.90625 450.628906 744.839844 450.886719 C 743.757812 451.144531 742.695312 450.453125 742.4375 449.371094 C 738.042969 430.160156 723.566406 398.992188 735.445312 356.257812 Z M 735.445312 356.277344 " fill-opacity="1" fill-rule="evenodd"/><path fill="#f1efee" d="M 720.53125 61.15625 C 720.785156 60.089844 721.890625 59.421875 722.953125 59.695312 C 724.039062 59.953125 724.6875 61.054688 724.429688 62.121094 C 724.351562 62.394531 724.390625 62.476562 724.492188 63.28125 C 724.648438 64.582031 725.023438 67.027344 725.691406 72.109375 C 725.832031 73.214844 725.0625 74.21875 723.976562 74.355469 C 722.875 74.511719 721.871094 73.726562 721.730469 72.640625 C 720.90625 66.496094 720.550781 64.167969 720.433594 63.085938 C 720.3125 61.984375 720.394531 61.726562 720.53125 61.15625 Z M 720.53125 61.15625 " fill-opacity="1" fill-rule="evenodd"/><path fill="#f1efee" d="M 778.546875 61.628906 C 778.804688 60.542969 779.867188 59.875 780.953125 60.128906 C 782.035156 60.386719 782.707031 61.449219 782.449219 62.535156 L 779.90625 73.527344 C 779.652344 74.613281 778.585938 75.28125 777.503906 75.027344 C 776.421875 74.769531 775.75 73.707031 776.007812 72.621094 Z M 778.546875 61.628906 " fill-opacity="1" fill-rule="evenodd"/><path fill="#f1efee" d="M 830.871094 97.40625 C 830.003906 98.097656 828.746094 97.9375 828.054688 97.074219 C 827.386719 96.207031 827.523438 94.945312 828.410156 94.253906 C 832.390625 91.140625 832.152344 91.359375 836.035156 88.441406 C 836.921875 87.773438 838.179688 87.949219 838.851562 88.835938 C 839.519531 89.722656 839.34375 90.984375 838.457031 91.632812 C 834.597656 94.53125 834.851562 94.292969 830.890625 97.386719 Z M 830.871094 97.40625 " fill-opacity="1" fill-rule="evenodd"/><path fill="#f1efee" d="M 870.351562 148.4375 C 869.308594 148.8125 868.164062 148.277344 867.769531 147.253906 C 867.398438 146.210938 867.929688 145.066406 868.953125 144.671875 L 876.578125 141.875 C 877.621094 141.5 878.765625 142.03125 879.15625 143.058594 C 879.53125 144.101562 879 145.246094 877.976562 145.636719 L 870.351562 148.457031 Z M 870.351562 148.4375 " fill-opacity="1" fill-rule="evenodd"/><path fill="#422e25" d="M 748.742188 192.511719 C 747.636719 192.511719 746.730469 191.644531 746.710938 190.519531 C 746.710938 189.417969 747.578125 188.511719 748.703125 188.492188 C 748.703125 188.492188 766.058594 188.117188 792.042969 163.035156 C 792.832031 162.265625 794.113281 162.289062 794.878906 163.074219 C 795.648438 163.863281 795.628906 165.144531 794.820312 165.914062 C 767.320312 192.453125 748.742188 192.492188 748.742188 192.492188 Z M 748.742188 192.511719 " fill-opacity="1" fill-rule="evenodd"/><path fill="#422e25" d="M 773.582031 211.738281 C 772.480469 211.859375 771.496094 211.070312 771.378906 209.964844 C 771.257812 208.863281 772.046875 207.878906 773.148438 207.761719 C 773.148438 207.761719 791.472656 205.710938 806.363281 186.796875 C 807.054688 185.929688 808.316406 185.773438 809.183594 186.460938 C 810.050781 187.152344 810.207031 188.414062 809.515625 189.28125 C 793.441406 209.691406 773.582031 211.738281 773.582031 211.738281 Z M 773.582031 211.738281 " fill-opacity="1" fill-rule="evenodd"/><path fill="#422e25" d="M 450.578125 640.5 C 450.535156 640.953125 450.359375 641.40625 450.003906 641.742188 C 449.238281 642.511719 447.996094 642.511719 447.226562 641.742188 L 446.933594 641.367188 L 446.734375 640.914062 L 446.65625 640.1875 C 446.65625 639.910156 447.011719 638.648438 447.679688 636.582031 C 453.511719 618.632812 485.230469 528.414062 490.609375 474.550781 C 499.609375 384.53125 498.46875 292.125 498.46875 292.125 C 498.46875 291.042969 499.335938 290.136719 500.417969 290.136719 C 501.5 290.136719 502.40625 290.984375 502.40625 292.085938 C 502.40625 292.085938 503.550781 384.707031 494.527344 474.941406 C 489.109375 529.066406 457.292969 619.753906 451.421875 637.800781 C 451.011719 639.082031 450.675781 640.207031 450.597656 640.5 Z M 450.578125 640.5 " fill-opacity="1" fill-rule="evenodd"/><path fill="#422e25" d="M 393.207031 20.074219 L 438.738281 655.515625 L 448.132812 658.035156 L 401.445312 19.722656 Z M 393.207031 20.074219 " fill-opacity="1" fill-rule="evenodd"/><path fill="#422e25" d="M 473.332031 103.949219 C 473.863281 106.371094 474.589844 108.816406 475.574219 111.101562 C 473.527344 111.0625 471.320312 110.765625 468.957031 110.449219 C 445.394531 107.238281 449.984375 54.535156 449.984375 54.535156 L 401.1875 64.070312 L 400.476562 55.699219 C 400.476562 55.699219 456.917969 42.023438 456.980469 47.71875 C 457.394531 91.320312 461.46875 104.441406 473.3125 103.96875 Z M 473.332031 103.949219 " fill-opacity="1" fill-rule="evenodd"/><path fill="#99a9d7" d="M 491.296875 97.683594 C 495.789062 101.9375 496.832031 108.933594 502.742188 108.480469 C 553.136719 104.695312 547.207031 122.351562 549.273438 139.195312 C 552.683594 166.996094 549.273438 260.089844 538.046875 266.75 C 524.175781 274.984375 468.308594 280.441406 455.582031 269.921875 C 447.304688 263.085938 436.765625 182.402344 432.550781 146.445312 C 428.335938 110.488281 446.164062 112.753906 446.164062 112.753906 C 450.125 112.261719 453.195312 111.574219 455.621094 110.746094 C 468.089844 106.511719 463.5 98.707031 477.113281 95.320312 C 480.539062 94.472656 483.257812 94.355469 485.464844 94.726562 C 484.972656 97.507812 483.96875 100.519531 482.039062 102.6875 C 481.859375 102.667969 481.664062 102.648438 481.464844 102.648438 C 479.515625 102.648438 477.820312 103.832031 476.957031 105.542969 C 476.5625 106.3125 476.34375 107.199219 476.34375 108.144531 C 476.34375 110.15625 477.367188 111.929688 478.867188 112.894531 C 479.632812 113.367188 480.519531 113.640625 481.445312 113.640625 C 483.851562 113.640625 485.859375 111.867188 486.410156 109.484375 C 488.5 107.179688 490.15625 103.496094 491.316406 97.683594 Z M 491.296875 97.683594 " fill-opacity="1" fill-rule="evenodd"/><path fill="#f1efee" d="M 450.910156 158.269531 L 456.898438 212.015625 L 535.445312 208.074219 L 534.558594 154.109375 C 514.859375 153.578125 489.800781 153.421875 450.910156 158.289062 Z M 450.910156 158.269531 " fill-opacity="1" fill-rule="evenodd"/><path fill="#422e25" d="M 485.425781 94.726562 C 486.136719 90.789062 485.839844 87.300781 485.839844 87.300781 L 492.675781 87.378906 C 492.339844 91.398438 491.886719 94.785156 491.296875 97.683594 C 490.132812 103.496094 488.480469 107.199219 486.390625 109.484375 C 484.285156 111.808594 481.761719 112.695312 478.828125 112.894531 C 477.308594 111.929688 476.304688 110.175781 476.304688 108.144531 C 476.304688 107.199219 476.523438 106.3125 476.914062 105.542969 C 479.082031 105.128906 480.738281 104.085938 482 102.6875 C 483.949219 100.519531 484.933594 97.507812 485.425781 94.726562 Z M 485.425781 94.726562 " fill-opacity="1" fill-rule="evenodd"/><path fill="#99a9d7" d="M 482.390625 273.449219 C 482.390625 273.449219 485.128906 285.445312 489.128906 291.199219 C 491.59375 294.746094 506.191406 292.714844 510.230469 291.199219 C 514.289062 289.683594 514.660156 270.175781 514.660156 270.175781 L 482.390625 273.46875 Z M 482.390625 273.449219 " fill-opacity="1" fill-rule="evenodd"/><path fill="#99a9d7" d="M 544.390625 475.257812 C 516.808594 478.804688 507.492188 492.949219 501.109375 513.441406 C 497.148438 526.167969 497.34375 588.507812 517.695312 593.789062 C 575.359375 608.78125 738.359375 610.691406 783.925781 591.816406 C 813.28125 579.660156 814.71875 479.355469 781.679688 473.9375 C 748.644531 468.519531 598.386719 468.304688 544.390625 475.257812 Z M 544.390625 475.257812 " fill-opacity="1" fill-rule="evenodd"/><path fill="#f1efee" d="M 523.09375 363.703125 C 523.09375 363.703125 550.792969 378.875 544.152344 401.296875 C 537.496094 423.71875 479.082031 483.140625 411.964844 535.726562 C 344.824219 588.308594 345.691406 595.5 328.257812 596.566406 C 311.273438 597.589844 291.140625 571.996094 296.539062 557.613281 C 301.9375 543.230469 380.996094 487.964844 523.113281 363.703125 Z M 523.09375 363.703125 " fill-opacity="1" fill-rule="evenodd"/><path fill="#f1efee" d="M 534.695312 365.988281 C 534.695312 365.988281 506.386719 326.605469 403.550781 384.195312 C 403.550781 384.195312 291.378906 458.472656 273.546875 481.703125 C 263.835938 494.351562 281.46875 533.125 296.578125 523.609375 C 326.285156 504.910156 451.816406 400.09375 519.546875 387.503906 Z M 534.695312 365.988281 " fill-opacity="1" fill-rule="evenodd"/><path fill="#99a9d7" d="M 500.082031 388.253906 C 499.867188 387.167969 500.574219 386.105469 501.660156 385.890625 C 502.742188 385.671875 503.808594 386.382812 504.023438 387.464844 C 506.980469 402.242188 518.582031 406.535156 524.433594 409.453125 C 525.417969 409.945312 525.832031 411.148438 525.320312 412.132812 C 524.828125 413.117188 523.625 413.53125 522.621094 413.039062 C 516.101562 409.769531 503.375 404.742188 500.082031 388.253906 Z M 500.082031 388.253906 " fill-opacity="1" fill-rule="evenodd"/><path fill="#99a9d7" d="M 478.292969 417.175781 C 478.175781 416.074219 478.964844 415.085938 480.066406 414.96875 C 481.171875 414.851562 482.15625 415.660156 482.273438 416.742188 C 482.273438 416.742188 484.046875 433.054688 499.15625 440.167969 C 500.164062 440.640625 500.59375 441.84375 500.121094 442.828125 C 499.648438 443.832031 498.449219 444.265625 497.464844 443.792969 C 480.304688 435.695312 478.316406 417.175781 478.316406 417.175781 Z M 478.292969 417.175781 " fill-opacity="1" fill-rule="evenodd"/><path fill="#99a9d7" d="M 447.34375 440.148438 C 447.246094 439.046875 448.054688 438.082031 449.15625 437.960938 C 450.261719 437.863281 451.226562 438.671875 451.34375 439.773438 C 452.035156 447.164062 460.503906 459.378906 473.210938 465.605469 C 474.195312 466.097656 474.609375 467.296875 474.136719 468.285156 C 473.644531 469.269531 472.445312 469.683594 471.457031 469.210938 C 457.292969 462.253906 448.132812 448.382812 447.363281 440.148438 Z M 447.34375 440.148438 " fill-opacity="1" fill-rule="evenodd"/><path fill="#99a9d7" d="M 414.425781 468.441406 C 414.191406 467.359375 414.878906 466.292969 415.941406 466.058594 C 417.027344 465.820312 418.089844 466.511719 418.328125 467.59375 C 418.328125 467.59375 421.992188 484.539062 434.597656 492.558594 C 435.523438 493.148438 435.800781 494.390625 435.210938 495.316406 C 434.617188 496.242188 433.378906 496.515625 432.433594 495.925781 C 418.523438 487.078125 414.40625 468.441406 414.40625 468.441406 Z M 414.425781 468.441406 " fill-opacity="1" fill-rule="evenodd"/><path fill="#99a9d7" d="M 385.488281 497.441406 C 385.25 496.359375 385.917969 495.296875 387.003906 495.039062 C 388.085938 494.804688 389.152344 495.472656 389.40625 496.558594 C 391.238281 504.65625 397.976562 513.007812 404.753906 519.136719 C 405.582031 519.882812 405.640625 521.144531 404.890625 521.972656 C 404.144531 522.800781 402.882812 522.859375 402.054688 522.109375 C 394.667969 515.429688 387.476562 506.25 385.488281 497.441406 Z M 385.488281 497.441406 " fill-opacity="1" fill-rule="evenodd"/><path fill="#99a9d7" d="M 365.863281 515.078125 C 365.550781 514.011719 366.160156 512.890625 367.203125 512.59375 C 368.269531 512.277344 369.371094 512.890625 369.707031 513.933594 C 371.539062 520.0625 378.097656 528.394531 385.425781 535.3125 C 386.234375 536.078125 386.273438 537.339844 385.507812 538.148438 C 384.738281 538.957031 383.476562 538.996094 382.667969 538.226562 C 374.769531 530.761719 367.835938 521.695312 365.863281 515.078125 Z M 365.863281 515.078125 " fill-opacity="1" fill-rule="evenodd"/><path fill="#99a9d7" d="M 331.328125 535.707031 C 331.191406 534.601562 331.980469 533.597656 333.0625 533.460938 C 334.167969 533.320312 335.171875 534.109375 335.308594 535.191406 C 337.042969 549.101562 348.09375 560.84375 352.566406 563.800781 C 353.492188 564.410156 353.75 565.652344 353.136719 566.578125 C 352.527344 567.503906 351.285156 567.761719 350.359375 567.148438 C 345.433594 563.878906 333.242188 550.996094 331.328125 535.683594 Z M 331.328125 535.707031 " fill-opacity="1" fill-rule="evenodd"/><path fill="#99a9d7" d="M 402.722656 395.464844 C 402.585938 394.359375 403.355469 393.355469 404.457031 393.21875 C 405.5625 393.082031 406.566406 393.847656 406.703125 394.953125 C 406.703125 394.953125 408.734375 410.851562 417.597656 419.265625 C 418.40625 420.03125 418.445312 421.292969 417.675781 422.101562 C 416.910156 422.910156 415.648438 422.949219 414.839844 422.179688 C 405.070312 412.921875 402.722656 395.484375 402.722656 395.484375 Z M 402.722656 395.464844 " fill-opacity="1" fill-rule="evenodd"/><path fill="#99a9d7" d="M 458.199219 365.003906 C 458.238281 363.902344 459.183594 363.035156 460.289062 363.09375 C 461.390625 363.132812 462.257812 364.078125 462.199219 365.179688 C 461.804688 374.324219 462.890625 380.390625 467.933594 389.554688 C 468.464844 390.519531 468.109375 391.742188 467.144531 392.273438 C 466.179688 392.804688 464.957031 392.449219 464.425781 391.484375 C 458.949219 381.515625 457.765625 374.933594 458.199219 365.003906 Z M 458.199219 365.003906 " fill-opacity="1" fill-rule="evenodd"/><path fill="#99a9d7" d="M 427.132812 381.632812 C 426.777344 380.589844 427.351562 379.445312 428.394531 379.089844 C 429.4375 378.738281 430.582031 379.308594 430.933594 380.351562 C 434.558594 391.226562 434.460938 390.578125 438.835938 397.789062 C 439.40625 398.734375 439.109375 399.976562 438.164062 400.546875 C 437.21875 401.117188 435.976562 400.824219 435.40625 399.878906 C 430.835938 392.3125 430.933594 393 427.132812 381.613281 Z M 427.132812 381.632812 " fill-opacity="1" fill-rule="evenodd"/><path fill="#99a9d7" d="M 372.582031 417.175781 C 372.207031 416.132812 372.738281 414.988281 373.785156 414.613281 C 374.828125 414.242188 375.972656 414.773438 376.34375 415.816406 C 377.429688 418.851562 379.203125 426.832031 386.867188 435.65625 C 387.59375 436.484375 387.496094 437.765625 386.667969 438.492188 C 385.820312 439.222656 384.558594 439.125 383.832031 438.296875 C 375.675781 428.878906 373.746094 420.40625 372.582031 417.175781 Z M 372.582031 417.175781 " fill-opacity="1" fill-rule="evenodd"/><path fill="#99a9d7" d="M 348.980469 433.628906 C 348.804688 432.542969 349.53125 431.5 350.636719 431.324219 C 351.71875 431.144531 352.765625 431.875 352.941406 432.976562 C 354.910156 444.777344 366.710938 456.460938 368.386719 458.136719 C 369.175781 458.925781 369.175781 460.1875 368.386719 460.972656 C 367.597656 461.761719 366.335938 461.761719 365.550781 460.972656 C 363.738281 459.160156 351.109375 446.414062 348.980469 433.648438 Z M 348.980469 433.628906 " fill-opacity="1" fill-rule="evenodd"/><path fill="#99a9d7" d="M 307.609375 464.519531 C 307.335938 463.457031 308.003906 462.351562 309.070312 462.097656 C 310.152344 461.820312 311.234375 462.492188 311.492188 463.554688 C 313.304688 470.785156 315.90625 482.429688 324.90625 490.015625 C 325.753906 490.726562 325.851562 491.984375 325.144531 492.832031 C 324.433594 493.679688 323.175781 493.777344 322.328125 493.070312 C 312.59375 484.875 309.5625 472.34375 307.609375 464.519531 Z M 307.609375 464.519531 " fill-opacity="1" fill-rule="evenodd"/><path fill="#422e25" d="M 558.375 507.453125 C 558.375 507.453125 554.199219 591.976562 649.351562 586.144531 C 702.742188 582.871094 728.648438 578.5 745.097656 517.007812 Z M 558.375 507.453125 " fill-opacity="1" fill-rule="evenodd"/><path fill="#fcc6a0" d="M 616.53125 550.835938 L 609.144531 594.359375 L 700.042969 598.0625 L 690.683594 545.339844 Z M 616.53125 550.835938 " fill-opacity="1" fill-rule="evenodd"/><path fill="#99a9d7" d="M 439.03125 617.507812 C 396.851562 651.179688 367.65625 788.839844 367.65625 788.839844 C 367.65625 788.839844 687.847656 810 939.894531 785.117188 C 939.894531 785.117188 890.722656 648.578125 867.476562 619.382812 C 837.769531 582.066406 507.785156 562.636719 439.03125 617.527344 Z M 439.03125 617.507812 " fill-opacity="1" fill-rule="evenodd"/><path fill="#fcc6a0" d="M 647.558594 414.832031 C 647.558594 414.832031 574.195312 425.785156 571.28125 487.375 C 571.28125 487.375 550.042969 471.75 555.085938 505.835938 C 558.949219 532 581.25 528.039062 581.25 528.039062 C 581.25 528.039062 597.046875 572.273438 651.65625 570.34375 C 680.753906 569.316406 698.503906 557.339844 708.375 547.25 C 715.761719 539.722656 718.71875 533.261719 718.71875 533.261719 C 718.71875 533.261719 751.460938 535.46875 751.597656 499.039062 C 751.675781 478.054688 744.859375 484.480469 734.714844 485.226562 C 734.714844 485.226562 702.484375 405.570312 647.558594 414.832031 Z M 647.558594 414.832031 " fill-opacity="1" fill-rule="evenodd"/><path fill="#238170" d="M 663.597656 397.472656 C 632.054688 395.640625 579.988281 404.488281 561.566406 450.867188 C 550.4375 478.921875 552.210938 510.898438 557.589844 515.371094 C 562.0625 519.097656 576.875 510.960938 583.730469 477.898438 C 588.871094 453.015625 609.773438 426.632812 646.773438 421.492188 C 646.773438 421.492188 692.910156 415.382812 712.886719 470.195312 C 729.238281 515.039062 748.761719 516.238281 748.761719 516.238281 C 748.761719 516.238281 758.296875 496.890625 750.554688 463.8125 C 739.996094 418.753906 695.136719 399.304688 663.597656 397.472656 Z M 663.597656 397.472656 " fill-opacity="1" fill-rule="evenodd"/><path stroke-linecap="round" transform="matrix(1.970038, 0, 0, 1.970232, 270.771029, 19.031546)" fill-opacity="1" fill="#99a9d7" fill-rule="evenodd" stroke-linejoin="round" d="M 202.000042 272.810342 C 202.000042 272.810342 178.969472 279.230112 175.959536 263.769529 C 173.270819 249.940654 178.529284 225.810011 192.530046 225.770359 C 206.560551 225.730706 219.599641 268.339502 202.000042 272.800429 Z M 202.000042 272.810342 " stroke="#f1efee" stroke-width="2" stroke-opacity="1" stroke-miterlimit="4"/><path fill="#422e25" d="M 604.417969 462.136719 C 603.628906 462.90625 602.347656 462.886719 601.578125 462.097656 C 600.8125 461.308594 600.832031 460.027344 601.621094 459.261719 C 605.105469 455.851562 609.894531 454.375 614.40625 453.882812 C 620.886719 453.171875 626.71875 454.511719 626.71875 454.511719 C 627.800781 454.75 628.472656 455.832031 628.234375 456.914062 C 627.996094 458 626.914062 458.667969 625.832031 458.433594 C 625.832031 458.433594 620.628906 457.25 614.839844 457.882812 C 611.175781 458.273438 607.253906 459.378906 604.417969 462.15625 Z M 604.417969 462.136719 " fill-opacity="1" fill-rule="evenodd"/><path fill="#422e25" d="M 671.8125 458.53125 C 670.808594 458.984375 669.625 458.53125 669.171875 457.507812 C 668.71875 456.5 669.171875 455.300781 670.195312 454.867188 C 683.472656 448.996094 697.738281 458.726562 697.738281 458.726562 C 698.644531 459.359375 698.878906 460.601562 698.25 461.527344 C 697.617188 462.433594 696.378906 462.667969 695.453125 462.039062 C 695.453125 462.039062 683.21875 453.488281 671.8125 458.550781 Z M 671.8125 458.53125 " fill-opacity="1" fill-rule="evenodd"/><path fill="#422e25" d="M 644.488281 473.761719 C 644.367188 472.65625 645.15625 471.671875 646.261719 471.554688 C 647.363281 471.4375 648.347656 472.222656 648.464844 473.328125 C 649.058594 478.648438 647.207031 481.289062 644.941406 483.316406 C 643.996094 484.164062 642.949219 484.894531 642.023438 485.679688 C 641.335938 486.273438 640.683594 486.921875 640.3125 487.808594 C 639.167969 490.449219 638.65625 492.8125 639.464844 494.765625 C 640.269531 496.695312 642.359375 498.015625 645.925781 498.863281 C 647.007812 499.117188 647.660156 500.203125 647.421875 501.265625 C 647.167969 502.347656 646.082031 503.019531 645 502.761719 C 639.757812 501.523438 636.941406 499.15625 635.761719 496.320312 C 634.578125 493.503906 634.972656 490.035156 636.625 486.214844 C 637.574219 484.027344 639.363281 482.648438 641.195312 481.207031 C 643.089844 479.710938 644.941406 478.035156 644.46875 473.761719 Z M 644.488281 473.761719 " fill-opacity="1" fill-rule="evenodd"/><path fill="#422e25" d="M 600.96875 477.386719 C 599.984375 476.894531 599.570312 475.691406 600.0625 474.707031 C 600.554688 473.722656 601.757812 473.308594 602.742188 473.800781 C 603.964844 474.390625 612.90625 481.050781 621.4375 473.328125 C 622.265625 472.578125 623.527344 472.65625 624.273438 473.464844 C 625.023438 474.292969 624.945312 475.554688 624.136719 476.300781 C 613.558594 485.878906 602.503906 478.15625 600.988281 477.40625 Z M 600.96875 477.386719 " fill-opacity="1" fill-rule="evenodd"/><path fill="#422e25" d="M 672.402344 476.144531 C 671.773438 475.238281 672.007812 473.976562 672.933594 473.367188 C 673.839844 472.738281 675.101562 472.972656 675.710938 473.898438 C 675.710938 473.898438 679.496094 478.785156 693.285156 474.984375 C 694.347656 474.6875 695.453125 475.316406 695.746094 476.382812 C 696.042969 477.445312 695.414062 478.546875 694.347656 478.84375 C 677.03125 483.632812 672.402344 476.144531 672.402344 476.144531 Z M 672.402344 476.144531 " fill-opacity="1" fill-rule="evenodd"/><path fill="#422e25" d="M 642.617188 522.644531 C 641.511719 522.484375 640.765625 521.460938 640.921875 520.355469 C 641.078125 519.253906 642.101562 518.503906 643.207031 518.664062 C 653.46875 520.179688 660.78125 517.65625 660.78125 517.65625 C 661.824219 517.285156 662.964844 517.835938 663.339844 518.878906 C 663.714844 519.921875 663.164062 521.066406 662.117188 521.441406 C 662.117188 521.441406 654.023438 524.316406 642.636719 522.621094 Z M 642.617188 522.644531 " fill-opacity="1" fill-rule="evenodd"/><path fill="#422e25" d="M 614.777344 565.769531 C 613.890625 565.101562 613.714844 563.839844 614.386719 562.972656 C 615.054688 562.085938 616.316406 561.910156 617.203125 562.578125 C 621.65625 565.929688 630.480469 568.054688 640.46875 569.003906 C 655.734375 570.441406 673.800781 569.003906 683.847656 563.917969 C 684.832031 563.425781 686.035156 563.820312 686.546875 564.804688 C 687.039062 565.789062 686.644531 566.992188 685.660156 567.503906 C 675.101562 572.84375 656.148438 574.519531 640.09375 573 C 629.199219 571.976562 619.644531 569.4375 614.796875 565.789062 Z M 614.777344 565.769531 " fill-opacity="1" fill-rule="evenodd"/><path fill="#422e25" d="M 410.074219 681.464844 C 408.988281 681.640625 407.945312 680.890625 407.765625 679.808594 C 407.589844 678.722656 408.339844 677.679688 409.421875 677.503906 C 409.421875 677.503906 527.191406 658.3125 648.78125 659.613281 C 754.101562 660.734375 889.519531 686.839844 889.519531 686.839844 C 890.605469 687.058594 891.3125 688.101562 891.117188 689.1875 C 890.917969 690.269531 889.855469 690.980469 888.773438 690.78125 C 888.773438 690.78125 753.746094 664.753906 648.742188 663.632812 C 527.507812 662.332031 410.074219 681.464844 410.074219 681.464844 Z M 410.074219 681.464844 " fill-opacity="1" fill-rule="evenodd"/><path fill="#422e25" d="M 508.949219 597 C 507.863281 597.175781 506.820312 596.429688 506.644531 595.34375 C 506.464844 594.261719 507.214844 593.214844 508.296875 593.039062 C 519.644531 591.207031 597.34375 579.996094 654.691406 582.28125 C 702.839844 584.210938 750.375 592.722656 750.375 592.722656 C 751.460938 592.921875 752.1875 593.964844 751.992188 595.046875 C 751.796875 596.132812 750.75 596.859375 749.667969 596.664062 C 749.667969 596.664062 702.40625 588.191406 654.535156 586.28125 C 597.5 583.996094 520.21875 595.167969 508.929688 596.980469 Z M 508.949219 597 " fill-opacity="1" fill-rule="evenodd"/><path fill="#99a9d7" d="M 640.703125 471.730469 C 640.703125 471.730469 611.804688 405.214844 589.582031 392.488281 C 577.386719 385.515625 553.824219 387.800781 526.757812 395.367188 C 514.148438 398.890625 507.136719 376.707031 515.273438 371.464844 C 527.074219 363.84375 586.882812 344.394531 617.65625 382.285156 C 631.523438 399.363281 653.984375 468.660156 653.984375 468.660156 C 653.984375 468.660156 652.070312 469.289062 640.683594 471.75 Z M 640.703125 471.730469 " fill-opacity="1" fill-rule="evenodd"/><path fill="#99a9d7" d="M 633.808594 419.621094 C 643.503906 419.621094 651.363281 427.597656 651.363281 437.429688 C 651.363281 447.261719 643.503906 455.242188 633.808594 455.242188 C 624.117188 455.242188 616.257812 447.261719 616.257812 437.429688 C 616.257812 427.597656 624.117188 419.621094 633.808594 419.621094 Z M 633.808594 419.621094 " fill-opacity="1" fill-rule="evenodd"/><path fill="#f1efee" d="M 847.695312 486.667969 C 847.695312 486.667969 832.152344 497.265625 817.929688 498.09375 C 803.707031 498.921875 781.347656 499.550781 766.886719 501.304688 C 752.425781 503.058594 749.253906 511.667969 754.789062 516.535156 C 760.324219 521.402344 780.007812 524.515625 780.007812 524.515625 C 780.007812 524.515625 758.179688 529.675781 735.011719 531.648438 C 718.066406 533.105469 712.847656 546.71875 729.375 550.046875 C 729.375 550.046875 713.082031 551.820312 718.582031 561.023438 C 724.078125 570.222656 741.394531 567.644531 741.394531 567.644531 C 741.394531 567.644531 725.871094 572.902344 735.40625 581.789062 C 744.269531 590.042969 758.335938 583.898438 758.335938 583.898438 C 758.335938 583.898438 745.472656 590.832031 751.597656 596.605469 C 769.742188 613.648438 819.585938 587.265625 843.71875 567.742188 C 867.851562 548.214844 870.035156 545.929688 870.035156 545.929688 L 847.675781 486.6875 Z M 847.695312 486.667969 " fill-opacity="1" fill-rule="evenodd"/><path fill="#f1efee" d="M 599.214844 400.765625 C 599.214844 400.765625 579.398438 419.539062 588.675781 438.414062 C 594.25 449.785156 590.546875 454.511719 597.71875 465.484375 C 604.082031 475.199219 630.617188 488.28125 635.601562 479.96875 C 639.167969 473.996094 635.011719 473.03125 636.625 472.046875 C 643.738281 467.753906 642.398438 460.777344 632.195312 454.648438 C 619.210938 446.867188 613.164062 440.148438 618.582031 430.574219 C 622.226562 424.109375 604.832031 406.734375 599.195312 400.765625 Z M 599.214844 400.765625 " fill-opacity="1" fill-rule="evenodd"/><path fill="#f1efee" d="M 630.363281 405.53125 C 632.273438 409.847656 636.46875 420.03125 636.46875 420.03125 C 636.46875 420.03125 647.5 422.023438 647.796875 435.125 C 648.191406 451.96875 641.550781 454.316406 648.054688 465.09375 C 649.472656 467.4375 660.5625 469.386719 665.371094 453.761719 C 668.894531 442.277344 671.851562 438.199219 676.71875 431.972656 C 682.253906 424.878906 686.566406 407.777344 683.472656 399.324219 C 673.585938 372.332031 650.359375 374.246094 642.320312 374.597656 C 632.628906 375.03125 620.335938 387.386719 620.335938 387.386719 C 620.335938 387.386719 624.925781 393.296875 630.34375 405.53125 Z M 630.363281 405.53125 " fill-opacity="1" fill-rule="evenodd"/><path fill="#99a9d7" d="M 684.222656 399.445312 C 683.121094 399.503906 682.175781 398.65625 682.113281 397.550781 C 682.054688 396.449219 682.902344 395.503906 684.007812 395.445312 C 684.007812 395.445312 702.210938 394.242188 730.460938 422.003906 C 746.710938 437.960938 753.648438 464.796875 754.652344 469.230469 C 754.886719 470.3125 754.21875 471.378906 753.136719 471.632812 C 752.050781 471.871094 750.988281 471.199219 750.730469 470.117188 C 749.765625 465.859375 743.1875 440.148438 727.640625 424.859375 C 701.085938 398.753906 684.222656 399.445312 684.222656 399.445312 Z M 684.222656 399.445312 " fill-opacity="1" fill-rule="evenodd"/><path fill="#422e25" d="M 730.28125 551.230469 C 729.179688 551.191406 728.3125 550.246094 728.371094 549.140625 C 728.410156 548.039062 729.355469 547.171875 730.460938 547.230469 C 762.648438 548.570312 790.585938 536.160156 790.585938 536.160156 C 791.589844 535.707031 792.773438 536.160156 793.226562 537.183594 C 793.679688 538.1875 793.226562 539.371094 792.199219 539.824219 C 792.199219 539.824219 763.4375 552.628906 730.261719 551.230469 Z M 730.28125 551.230469 " fill-opacity="1" fill-rule="evenodd"/><path fill="#422e25" d="M 591.691406 448.621094 C 591.078125 447.695312 591.355469 446.453125 592.28125 445.84375 C 593.207031 445.230469 594.449219 445.507812 595.058594 446.433594 C 600.476562 454.808594 614.660156 464.265625 635.976562 469.445312 C 637.058594 469.703125 637.710938 470.785156 637.453125 471.871094 C 637.199219 472.953125 636.113281 473.601562 635.03125 473.347656 C 612.375 467.851562 597.480469 457.527344 591.710938 448.621094 Z M 591.691406 448.621094 " fill-opacity="1" fill-rule="evenodd"/><path fill="#422e25" d="M 743.148438 570.007812 C 742.042969 570.007812 741.15625 569.082031 741.175781 567.976562 C 741.175781 566.875 742.101562 565.988281 743.207031 566.007812 C 775.335938 566.480469 797.203125 553.21875 797.203125 553.21875 C 798.148438 552.648438 799.390625 552.945312 799.960938 553.890625 C 800.535156 554.835938 800.238281 556.078125 799.292969 556.648438 C 799.292969 556.648438 776.578125 570.5 743.167969 570.027344 Z M 743.148438 570.007812 " fill-opacity="1" fill-rule="evenodd"/><path fill="#422e25" d="M 760.699219 585.53125 C 759.597656 585.453125 758.75 584.507812 758.828125 583.40625 C 758.90625 582.300781 759.851562 581.453125 760.957031 581.53125 C 760.957031 581.53125 780.300781 582.773438 800.96875 571.859375 C 801.953125 571.347656 803.152344 571.722656 803.667969 572.707031 C 804.179688 573.691406 803.804688 574.894531 802.839844 575.425781 C 781.070312 586.890625 760.679688 585.550781 760.679688 585.550781 Z M 760.699219 585.53125 " fill-opacity="1" fill-rule="evenodd"/></svg>