<svg xmlns="http://www.w3.org/2000/svg" xmlns:xlink="http://www.w3.org/1999/xlink" width="1920" zoomAndPan="magnify" viewBox="0 0 1440 809.999993" height="1080" preserveAspectRatio="xMidYMid meet" version="1.0"><defs><clipPath id="dea9edf965"><path d="M 777 35 L 1122.179688 35 L 1122.179688 506 L 777 506 Z M 777 35 " clip-rule="nonzero"/></clipPath></defs><path fill="#f9c19c" d="M 587.6875 323.300781 L 587.683594 323.269531 Z M 836.292969 400.996094 C 839.214844 385.433594 841.863281 369.796875 842.496094 361.320312 C 856.066406 354.460938 864.28125 335.1875 867.136719 303.496094 C 866.253906 296.949219 863.070312 290.929688 858.15625 286.511719 C 856.035156 280.003906 850.714844 275.039062 844.074219 273.367188 C 839.5625 269.035156 833.824219 266.199219 827.640625 265.25 C 827.640625 265.25 830.761719 249.652344 837.011719 218.457031 C 837.574219 211.007812 834.03125 209.742188 826.390625 214.664062 C 826.390625 214.664062 817.300781 238.464844 799.125 286.066406 C 784.042969 302 782.128906 320.085938 793.378906 340.320312 C 793.378906 340.320312 785.628906 361.203125 778.597656 381.738281 Z M 594.589844 523.019531 C 592.816406 538.066406 591.925781 545.585938 591.925781 545.585938 C 620.917969 546.289062 631.054688 542.273438 651.84375 531.285156 C 658.359375 534.523438 660.054688 538.476562 656.929688 543.148438 C 663.96875 547.636719 665.664062 552.296875 662.015625 557.128906 C 656.929688 560.804688 654.386719 562.636719 654.386719 562.636719 C 652.203125 579.730469 646.972656 591.027344 638.703125 596.535156 C 615.921875 604.75 586.25 608.703125 549.6875 608.398438 C 549.972656 571.960938 550.113281 553.742188 550.113281 553.742188 C 556.269531 553.707031 561.78125 551.863281 566.644531 548.207031 C 576.230469 534.421875 585.546875 526.023438 594.589844 523.019531 Z M 584.929688 298.007812 C 584.027344 290.582031 582.933594 281.894531 581.660156 272.242188 C 630.28125 282.605469 665.699219 222.394531 640.25 116.832031 C 612.757812 127.453125 582.082031 131.542969 548.222656 129.085938 C 538.121094 143.902344 534.003906 161.988281 536.691406 179.710938 C 510.636719 131.707031 490.722656 166.910156 512.25 192.953125 C 516.894531 201.644531 522.550781 206.863281 529.21875 208.605469 C 522.976562 233.097656 511.40625 271.664062 498.78125 293.394531 C 532.039062 313.382812 561.152344 315.421875 584.929688 298.007812 Z M 584.929688 298.007812 " fill-opacity="1" fill-rule="evenodd"/><path fill="#f3f3f3" d="M 731.398438 503.722656 C 728.203125 490.703125 725.066406 478.390625 721.933594 466.753906 L 623.433594 466.835938 C 622.160156 466.835938 621.421875 465.800781 621.796875 464.523438 L 623.769531 457.804688 C 624.144531 456.527344 625.492188 455.484375 626.769531 455.480469 L 718.8125 455.40625 C 696.808594 377.050781 673.707031 331.476562 627.15625 309.519531 C 621.914062 307.679688 616.625 305.988281 611.304688 304.449219 C 618.15625 310.71875 623.59375 319.175781 627.621094 329.8125 C 635.34375 350.230469 637.792969 378.789062 634.972656 415.472656 C 636.402344 416.019531 637.6875 416.859375 638.75 417.917969 C 640.6875 419.871094 641.890625 422.550781 641.890625 425.503906 C 641.890625 428.453125 640.6875 431.132812 638.75 433.074219 L 638.738281 433.085938 C 636.796875 435.023438 634.117188 436.226562 631.164062 436.226562 C 628.210938 436.226562 625.53125 435.023438 623.589844 433.085938 C 621.636719 431.140625 620.4375 428.460938 620.4375 425.503906 C 620.4375 422.542969 621.636719 419.859375 623.578125 417.917969 C 625.058594 416.441406 626.96875 415.394531 629.101562 414.980469 C 631.851562 379.171875 629.523438 351.472656 622.113281 331.886719 C 615.714844 314.96875 605.460938 304.183594 591.359375 299.527344 L 612.539062 343.390625 C 610.503906 346.558594 606.945312 350.671875 601.875 355.738281 C 601.875 355.738281 608.683594 359.78125 622.296875 367.871094 C 622.296875 367.871094 610.773438 407.414062 587.71875 486.503906 C 566.355469 459.84375 534.53125 426.644531 492.242188 386.902344 C 495.820312 377.390625 500.050781 369.121094 504.933594 362.105469 C 504.933594 362.105469 496.824219 361.964844 480.601562 361.675781 C 481.964844 339.996094 484.226562 317.886719 487.390625 295.34375 C 475.433594 300.03125 466.933594 308.640625 461.886719 320.429688 C 455.941406 334.339844 454.707031 352.695312 458.183594 374.3125 C 459.078125 379.867188 460.292969 385.671875 461.832031 391.699219 C 467.949219 390.972656 474.660156 393.882812 480.789062 400.980469 C 493.289062 415.457031 498.019531 448.519531 495.296875 505.339844 C 495.289062 505.449219 495.277344 505.5625 495.261719 505.671875 L 494.503906 522.351562 L 498.371094 527.609375 C 499.679688 529.457031 501.390625 529.554688 503.5 527.894531 C 504.777344 526.890625 506.628906 527.113281 507.632812 528.390625 C 508.636719 529.667969 508.414062 531.515625 507.136719 532.523438 C 501.964844 536.59375 497.5625 536.253906 493.933594 531.507812 C 492.988281 536.167969 489.59375 538.273438 483.757812 537.816406 C 482.136719 537.691406 480.925781 536.273438 481.050781 534.65625 C 481.175781 533.035156 482.59375 531.820312 484.214844 531.945312 C 486.890625 532.15625 488.261719 531.128906 488.320312 528.867188 L 488.53125 524.160156 C 466.023438 493.550781 436.570312 451.136719 444.152344 412.910156 C 446.074219 403.21875 450.53125 396.535156 456.210938 393.480469 C 454.605469 387.222656 453.328125 381.128906 452.378906 375.234375 C 448.726562 352.515625 450.089844 333.0625 456.476562 318.125 C 460.066406 309.730469 465.210938 302.769531 471.914062 297.449219 C 458.773438 299.789062 445.714844 302.960938 432.816406 306.964844 C 395.820312 321.878906 359.925781 361.660156 338.257812 433.585938 C 305.101562 560.589844 304.710938 637.78125 350.585938 638.859375 C 382.898438 638.859375 412.367188 635.0625 412.367188 635.0625 C 404.230469 745.019531 400.160156 799.996094 400.160156 799.996094 C 527.214844 809.996094 592.21875 808.117188 595.179688 794.363281 C 604.214844 805.425781 630.894531 809.558594 675.21875 806.757812 C 671.457031 642.246094 669.578125 559.988281 669.578125 559.988281 C 703.136719 621.660156 747.316406 641.769531 768.6875 629.140625 C 796.398438 612.765625 823.445312 516.394531 846.980469 404.566406 C 796.695312 387.78125 771.558594 379.386719 771.558594 379.386719 C 752.773438 411.277344 742.675781 430.03125 736.976562 457.285156 C 736.964844 457.421875 736.933594 457.5625 736.890625 457.703125 L 736.882812 457.734375 C 734.25 470.46875 732.566406 485.066406 731.398438 503.722656 Z M 594.589844 523.019531 C 592.816406 538.066406 591.925781 545.585938 591.925781 545.585938 C 620.917969 546.289062 631.054688 542.273438 651.84375 531.285156 C 658.359375 534.523438 660.054688 538.476562 656.929688 543.148438 C 663.96875 547.636719 665.664062 552.296875 662.015625 557.128906 C 656.929688 560.804688 654.386719 562.636719 654.386719 562.636719 C 652.203125 579.730469 646.972656 591.027344 638.703125 596.535156 C 615.921875 604.75 586.25 608.703125 549.6875 608.398438 C 549.972656 571.960938 550.113281 553.742188 550.113281 553.742188 C 556.269531 553.707031 561.78125 551.863281 566.644531 548.207031 C 576.230469 534.421875 585.546875 526.023438 594.589844 523.019531 Z M 633.828125 421.46875 C 633.230469 422.097656 632.367188 422.453125 631.4375 422.375 C 630.507812 422.296875 629.71875 421.792969 629.238281 421.070312 C 628.679688 421.316406 628.171875 421.660156 627.746094 422.085938 C 626.875 422.960938 626.332031 424.167969 626.332031 425.503906 C 626.332031 426.832031 626.875 428.042969 627.746094 428.914062 C 628.617188 429.792969 629.824219 430.328125 631.164062 430.328125 C 632.5 430.328125 633.710938 429.792969 634.585938 428.921875 C 635.453125 428.046875 635.992188 426.839844 635.992188 425.503906 C 635.992188 424.164062 635.453125 422.953125 634.585938 422.078125 C 634.351562 421.855469 634.101562 421.648438 633.828125 421.46875 Z M 489.640625 500.21875 C 491.816406 448.121094 487.699219 417.972656 476.34375 404.824219 C 470.953125 398.582031 465.351562 396.476562 460.75 397.914062 C 460.664062 397.945312 460.570312 397.976562 460.476562 398.003906 L 460.453125 398.011719 C 455.632812 399.691406 451.675781 405.257812 449.933594 414.042969 C 446.210938 432.808594 452.8125 464.976562 481.746094 505 L 488.957031 514.808594 L 489.601562 500.582031 C 489.605469 500.457031 489.621094 500.335938 489.640625 500.21875 Z M 489.640625 500.21875 " fill-opacity="1" fill-rule="evenodd"/><path fill="#e1ecfe" d="M 590.265625 299.179688 C 588.535156 298.8125 586.804688 298.457031 585.070312 298.121094 C 590.320312 333.589844 590.34375 390.328125 585.136719 468.34375 C 575.042969 444.097656 546.332031 385.921875 499 293.820312 C 495.464844 294.140625 491.929688 294.519531 488.402344 294.957031 C 488.0625 295.082031 487.726562 295.210938 487.390625 295.34375 C 484.226562 317.886719 481.964844 339.996094 480.601562 361.675781 C 496.820312 361.964844 504.933594 362.105469 504.933594 362.105469 C 500.050781 369.121094 495.820312 377.390625 492.242188 386.902344 C 534.53125 426.644531 566.355469 459.84375 587.71875 486.503906 C 610.773438 407.414062 622.296875 367.871094 622.296875 367.871094 C 608.679688 359.78125 601.875 355.738281 601.875 355.738281 C 606.945312 350.671875 610.503906 346.558594 612.539062 343.390625 L 591.355469 299.523438 C 590.996094 299.402344 590.632812 299.289062 590.265625 299.179688 Z M 792.398438 47.011719 C 790.523438 47.011719 788.945312 48.589844 788.945312 50.464844 L 788.945312 301.390625 C 791.089844 296.078125 794.484375 290.972656 799.125 286.066406 C 817.300781 238.464844 826.390625 214.664062 826.390625 214.664062 C 834.03125 209.742188 837.574219 211.007812 837.011719 218.460938 C 830.761719 249.652344 827.640625 265.25 827.640625 265.25 C 833.824219 266.199219 839.5625 269.035156 844.074219 273.367188 C 850.714844 275.039062 856.035156 280.003906 858.15625 286.511719 C 863.070312 290.929688 866.253906 296.949219 867.136719 303.496094 C 864.28125 335.1875 856.066406 354.464844 842.496094 361.320312 C 841.863281 369.796875 839.214844 385.433594 836.292969 400.996094 L 846.980469 404.566406 C 840.371094 435.964844 833.488281 466.148438 826.386719 493.683594 L 1106.898438 493.683594 C 1108.777344 493.683594 1110.355469 492.105469 1110.355469 490.226562 L 1110.355469 50.464844 C 1110.355469 48.589844 1108.777344 47.011719 1106.898438 47.011719 L 1029.515625 47.011719 L 1029.515625 55.546875 L 867.332031 55.546875 L 867.332031 47.011719 Z M 788.945312 330.636719 L 788.945312 352.449219 C 791.585938 345.152344 793.378906 340.320312 793.378906 340.320312 C 791.554688 337.035156 790.074219 333.804688 788.945312 330.636719 Z M 626.769531 455.480469 L 735.257812 455.390625 C 736.53125 455.390625 737.269531 456.429688 736.890625 457.703125 L 734.921875 464.421875 C 734.546875 465.695312 733.195312 466.746094 731.921875 466.746094 L 623.433594 466.835938 C 622.160156 466.835938 621.421875 465.800781 621.796875 464.523438 L 623.769531 457.804688 C 624.144531 456.527344 625.492188 455.484375 626.769531 455.480469 Z M 584.835938 298.078125 L 584.824219 298.074219 C 559.003906 316.621094 530.476562 311.167969 500.96875 294.6875 C 533.277344 313.433594 561.601562 315.03125 584.835938 298.078125 Z M 584.835938 298.078125 " fill-opacity="1" fill-rule="evenodd"/><path fill="#3891d5" d="M 442.6875 748.683594 L 555.347656 748.683594 L 555.347656 757.660156 L 442.6875 757.660156 Z M 587.417969 663.085938 L 718.28125 663.085938 C 722.886719 663.085938 726.121094 659.285156 726.660156 654.707031 L 748.578125 469.128906 C 749.117188 464.554688 744.804688 460.753906 740.199219 460.753906 L 735.996094 460.753906 L 734.921875 464.421875 C 734.546875 465.695312 733.195312 466.746094 731.921875 466.746094 L 623.433594 466.835938 C 622.160156 466.835938 621.421875 465.800781 621.796875 464.523438 L 622.902344 460.753906 L 609.332031 460.753906 C 604.726562 460.753906 601.492188 464.554688 600.953125 469.128906 L 594.589844 523.023438 L 594.589844 523.019531 C 592.816406 538.066406 591.925781 545.585938 591.925781 545.585938 C 620.917969 546.289062 631.054688 542.273438 651.84375 531.285156 C 658.359375 534.523438 660.054688 538.476562 656.929688 543.148438 C 663.96875 547.636719 665.664062 552.296875 662.015625 557.128906 C 656.929688 560.804688 654.386719 562.636719 654.386719 562.636719 C 652.203125 579.730469 646.972656 591.027344 638.703125 596.535156 C 623.679688 601.953125 605.660156 605.515625 584.644531 607.226562 L 579.035156 654.707031 C 578.5 659.28125 582.808594 663.085938 587.417969 663.085938 Z M 585.042969 297.929688 C 561.246094 315.429688 532.09375 313.410156 498.78125 293.394531 C 546.242188 385.742188 575.027344 444.058594 585.136719 468.339844 C 590.351562 390.1875 590.320312 333.382812 585.042969 297.929688 Z M 674.09375 757.660156 L 673.890625 748.683594 L 627.199219 748.683594 L 627.199219 757.660156 Z M 674.09375 757.660156 " fill-opacity="1" fill-rule="evenodd"/><path fill="#1a1a1a" d="M 640.25 116.832031 C 612.757812 127.453125 582.082031 131.542969 548.222656 129.085938 C 538.121094 143.902344 534.003906 161.988281 536.691406 179.710938 C 510.636719 131.707031 490.722656 166.910156 512.25 192.953125 C 516.894531 201.644531 522.550781 206.863281 529.21875 208.605469 C 527.15625 216.703125 524.507812 226.332031 521.4375 236.386719 C 520.78125 236.996094 520.140625 237.609375 519.527344 238.238281 C 445.683594 161.339844 468.917969 85.164062 518.214844 83.484375 C 524.003906 49.621094 551.769531 23.832031 585.976562 20.539062 C 620.1875 17.246094 652.367188 37.265625 664.515625 69.398438 C 665.730469 88.457031 656.417969 106.660156 640.25 116.832031 Z M 879.917969 21.074219 L 917.523438 21.074219 L 917.523438 8.789062 C 917.523438 3.957031 921.480469 0 926.316406 0 L 971.351562 0 C 976.1875 0 980.144531 3.957031 980.144531 8.789062 L 980.144531 21.074219 L 1016.898438 21.074219 C 1023.839844 21.074219 1029.515625 26.75 1029.515625 33.6875 L 1029.515625 55.546875 L 867.332031 55.546875 L 867.332031 33.652344 C 867.332031 26.734375 872.992188 21.074219 879.917969 21.074219 Z M 929.136719 7.929688 L 968.53125 7.929688 C 969.742188 7.929688 970.730469 8.917969 970.730469 10.128906 C 970.730469 11.339844 969.742188 12.328125 968.53125 12.328125 L 929.136719 12.328125 C 927.925781 12.328125 926.9375 11.339844 926.9375 10.128906 C 926.9375 8.917969 927.925781 7.929688 929.136719 7.929688 Z M 498.292969 286.367188 C 499.894531 286.117188 501.402344 287.210938 501.65625 288.8125 C 501.910156 290.414062 500.816406 291.917969 499.214844 292.171875 C 497.121094 292.507812 495.066406 292.945312 493.058594 293.484375 C 478.078125 297.496094 467.691406 306.859375 461.886719 320.429688 C 455.941406 334.339844 454.707031 352.695312 458.183594 374.3125 C 459.078125 379.867188 460.292969 385.671875 461.832031 391.699219 C 467.945312 390.972656 474.65625 393.882812 480.789062 400.980469 C 493.289062 415.457031 498.019531 448.519531 495.296875 505.339844 C 495.289062 505.449219 495.277344 505.5625 495.261719 505.671875 L 494.503906 522.351562 L 498.371094 527.609375 C 499.675781 529.457031 501.390625 529.554688 503.5 527.894531 C 504.777344 526.890625 506.628906 527.113281 507.632812 528.390625 C 508.636719 529.667969 508.414062 531.515625 507.136719 532.523438 C 501.964844 536.59375 497.5625 536.253906 493.933594 531.507812 C 492.984375 536.167969 489.59375 538.273438 483.757812 537.816406 C 482.136719 537.691406 480.925781 536.273438 481.050781 534.65625 C 481.175781 533.035156 482.59375 531.820312 484.214844 531.945312 C 486.890625 532.15625 488.261719 531.128906 488.320312 528.867188 L 488.53125 524.160156 L 479.085938 511.316406 L 479.023438 511.234375 C 478.488281 510.515625 477.960938 509.792969 477.441406 509.078125 L 476.851562 508.277344 C 476.796875 508.207031 476.75 508.132812 476.703125 508.058594 C 446.894531 466.652344 440.191406 432.871094 444.152344 412.910156 C 446.074219 403.21875 450.53125 396.535156 456.210938 393.480469 C 454.605469 387.222656 453.328125 381.128906 452.378906 375.234375 C 448.726562 352.515625 450.089844 333.0625 456.476562 318.125 C 463.007812 302.847656 474.695312 292.308594 491.535156 287.800781 C 493.664062 287.230469 495.917969 286.753906 498.292969 286.367188 Z M 559.851562 414.289062 C 572.125 439.308594 580.550781 457.324219 585.136719 468.339844 C 586.351562 450.125 587.28125 433.070312 587.925781 417.175781 C 581.25 397.398438 574.03125 375.386719 566.273438 351.140625 C 571.191406 348.859375 574.488281 343.847656 574.386719 338.1875 C 568.554688 336.101562 563.382812 332.488281 559.417969 327.734375 C 556.628906 333.632812 552.3125 338.679688 546.917969 342.359375 C 548.574219 348.027344 553.546875 351.925781 559.214844 352.394531 Z M 584.042969 297.714844 C 582.441406 297.441406 581.363281 295.917969 581.636719 294.316406 C 581.910156 292.714844 583.429688 291.636719 585.03125 291.914062 C 605.164062 295.355469 619.359375 307.992188 627.621094 329.8125 C 635.34375 350.230469 637.792969 378.789062 634.972656 415.472656 C 636.402344 416.019531 637.6875 416.859375 638.75 417.917969 C 640.6875 419.871094 641.890625 422.550781 641.890625 425.503906 C 641.890625 428.453125 640.6875 431.132812 638.75 433.074219 L 638.738281 433.085938 C 636.796875 435.023438 634.117188 436.226562 631.164062 436.226562 C 628.210938 436.226562 625.53125 435.023438 623.589844 433.085938 C 621.636719 431.140625 620.4375 428.460938 620.4375 425.503906 C 620.4375 422.542969 621.636719 419.859375 623.578125 417.917969 C 625.058594 416.441406 626.96875 415.394531 629.101562 414.980469 C 631.851562 379.171875 629.523438 351.472656 622.113281 331.886719 C 614.65625 312.171875 601.960938 300.777344 584.042969 297.714844 Z M 633.828125 421.46875 C 633.230469 422.097656 632.367188 422.453125 631.4375 422.375 C 630.507812 422.296875 629.71875 421.792969 629.238281 421.070312 C 628.679688 421.316406 628.171875 421.660156 627.746094 422.085938 C 626.875 422.960938 626.332031 424.167969 626.332031 425.503906 C 626.332031 426.832031 626.875 428.042969 627.746094 428.914062 C 628.617188 429.792969 629.824219 430.328125 631.164062 430.328125 C 632.5 430.328125 633.710938 429.792969 634.585938 428.921875 C 635.453125 428.046875 635.992188 426.839844 635.992188 425.503906 C 635.992188 424.164062 635.453125 422.953125 634.585938 422.078125 C 634.351562 421.855469 634.101562 421.648438 633.828125 421.46875 Z M 489.640625 500.21875 C 491.816406 448.121094 487.699219 417.972656 476.34375 404.824219 C 470.953125 398.582031 465.351562 396.476562 460.75 397.914062 C 460.664062 397.945312 460.570312 397.976562 460.476562 398.003906 L 460.453125 398.011719 C 455.632812 399.691406 451.671875 405.257812 449.933594 414.042969 C 446.210938 432.808594 452.8125 464.976562 481.746094 505 L 488.957031 514.808594 L 489.601562 500.582031 C 489.605469 500.457031 489.621094 500.335938 489.640625 500.21875 Z M 630.6875 179.53125 C 628.410156 179.289062 626.0625 183.695312 625.449219 189.378906 C 624.835938 195.058594 626.179688 199.871094 628.449219 200.117188 C 630.75 200.371094 633.078125 195.957031 633.6875 190.269531 C 634.304688 184.585938 632.957031 179.78125 630.6875 179.53125 Z M 620.191406 244.679688 C 611.457031 254.183594 591.65625 252.085938 588.710938 239.714844 L 589.800781 233.554688 C 602.40625 240.355469 613.535156 240.191406 621.402344 238.183594 Z M 641.691406 170.371094 C 635.5625 167.902344 628.65625 168.214844 622.785156 171.246094 C 627.851562 165.695312 635.898438 163.992188 642.785156 167.011719 C 642.050781 169.25 641.691406 170.371094 641.691406 170.371094 Z M 581.996094 170.179688 C 587.90625 167.234375 594.808594 167.003906 600.910156 169.558594 C 595.410156 164.425781 587.261719 163.367188 580.636719 166.917969 C 581.539062 169.09375 581.996094 170.179688 581.996094 170.179688 Z M 604.144531 221.1875 C 604.679688 222.824219 605.726562 224.21875 605.726562 224.21875 C 614.472656 225.226562 620.574219 224.691406 624.03125 222.621094 C 622.496094 217.320312 620.730469 209.59375 618.738281 199.4375 C 619.816406 214.421875 620.695312 216.535156 621.632812 221.144531 C 617.183594 223 610.175781 223.328125 604.144531 221.1875 Z M 593.585938 181.003906 C 591.316406 180.757812 588.972656 185.167969 588.351562 190.847656 C 587.734375 196.535156 589.097656 201.347656 591.355469 201.59375 C 593.628906 201.835938 595.972656 197.429688 596.589844 191.742188 C 597.207031 186.058594 595.863281 181.253906 593.585938 181.003906 Z M 593.585938 181.003906 " fill-opacity="1" fill-rule="evenodd"/><g clip-path="url(#dea9edf965)"><path fill="#3891d5" d="M 792.398438 35.226562 L 867.332031 35.226562 L 867.332031 47.011719 L 792.398438 47.011719 C 790.523438 47.011719 788.945312 48.589844 788.945312 50.464844 L 788.945312 385.191406 L 777.152344 381.253906 L 777.152344 50.464844 C 777.152344 42.082031 784.011719 35.226562 792.398438 35.226562 Z M 826.386719 493.683594 L 1106.898438 493.683594 C 1108.777344 493.683594 1110.355469 492.105469 1110.355469 490.226562 L 1110.355469 50.464844 C 1110.355469 48.589844 1108.777344 47.011719 1106.898438 47.011719 L 1029.515625 47.011719 L 1029.515625 35.226562 L 1106.898438 35.226562 C 1115.285156 35.226562 1122.144531 42.082031 1122.144531 50.464844 L 1122.144531 490.226562 C 1122.144531 498.609375 1115.285156 505.46875 1106.898438 505.46875 L 823.289062 505.46875 C 824.324219 501.59375 825.359375 497.667969 826.386719 493.683594 Z M 959.351562 427.042969 C 955.8125 409.328125 955.851562 389.621094 959.472656 367.933594 C 1047.476562 386.773438 1077.261719 308.8125 1045.921875 178.808594 C 1045.921875 59.328125 752.421875 77.578125 897.25 328.324219 C 897.445312 328.121094 897.652344 327.933594 897.851562 327.734375 C 891.324219 344.988281 883.386719 361.667969 874.125 377.605469 C 911.742188 437.59375 940.152344 454.082031 959.351562 427.042969 Z M 920.164062 143.453125 C 915.667969 142.566406 913.714844 140.703125 908.554688 143.699219 C 905.332031 145.574219 903.804688 147.949219 901.933594 151.433594 C 893.699219 152.042969 892.246094 155.574219 891.90625 161.746094 C 888.054688 164.691406 887.285156 164.128906 884.695312 168.550781 C 881.71875 173.644531 883.773438 175.296875 885.105469 179.535156 C 882.777344 182.742188 880.789062 184.203125 878.871094 188.980469 C 877.242188 193.039062 876.144531 197.453125 876.054688 202.40625 C 875.90625 210.816406 878.097656 221.046875 886.738281 224.039062 C 886.425781 231.609375 886.113281 234.910156 890.914062 239.351562 C 896.410156 244.441406 903.664062 240.898438 906.519531 240.667969 C 909.035156 259.164062 922.5625 265.027344 934.054688 255.171875 C 935.261719 254.140625 936.691406 252.027344 938.109375 251.492188 L 941.570312 267.78125 L 948.46875 267.835938 L 954.507812 249.359375 C 957.257812 242.042969 958.605469 238.351562 965.496094 235.359375 C 971.585938 232.714844 986.84375 232.167969 990.253906 222.804688 C 991.84375 218.4375 989.480469 215.582031 988.449219 212.496094 C 995.542969 212.699219 1005.3125 211.035156 1012.089844 209.5 C 1019.492188 207.824219 1025.855469 204.664062 1023.4375 195.871094 C 1028.402344 194.960938 1030.351562 194.140625 1032.191406 190.222656 C 1036.125 181.84375 1031.648438 170.394531 1024.207031 164.558594 C 1022.84375 163.488281 1021.339844 162.851562 1019.839844 161.746094 C 1021.726562 154.480469 1014.957031 152.410156 1008.875 151.425781 C 1006.613281 147.0625 1004.644531 144.765625 999.894531 142.683594 C 993.667969 139.957031 991.957031 140.582031 985.496094 141.789062 C 982.457031 138.96875 979.351562 133.191406 970.703125 133.917969 C 967.789062 134.164062 963.789062 136.519531 961.8125 135.511719 C 958.679688 133.914062 957.632812 132.910156 953.097656 132.296875 C 949.605469 131.824219 946.152344 132.101562 943.097656 133.363281 C 941.417969 134.058594 941.214844 134.3125 939.691406 135.472656 C 937.714844 136.980469 937.945312 135.984375 935.457031 135.5 C 927.320312 133.90625 922.25 138.136719 920.164062 143.453125 Z M 920.164062 143.453125 " fill-opacity="1" fill-rule="evenodd"/></g></svg>