<svg xmlns="http://www.w3.org/2000/svg" xmlns:xlink="http://www.w3.org/1999/xlink" width="1920" zoomAndPan="magnify" viewBox="0 0 1440 809.999993" height="1080" preserveAspectRatio="xMidYMid meet" version="1.0"><defs><clipPath id="a89d34b8a9"><path d="M 1019 651 L 1149.972656 651 L 1149.972656 781 L 1019 781 Z M 1019 651 " clip-rule="nonzero"/></clipPath><clipPath id="f4fa9704ab"><path d="M 1028 1 L 1149.972656 1 L 1149.972656 123 L 1028 123 Z M 1028 1 " clip-rule="nonzero"/></clipPath></defs><path fill="#2e3760" d="M 380.566406 83.464844 L 445.507812 93.496094 L 484.15625 132.15625 C 489.023438 125.757812 494.472656 119.824219 500.40625 114.40625 L 462.503906 76.507812 L 462.5 76.503906 L 452.425781 11.523438 C 451.410156 4.964844 445.261719 0.472656 438.710938 1.488281 C 432.152344 2.507812 427.664062 8.648438 428.679688 15.207031 L 436.839844 67.832031 L 384.234375 59.707031 C 377.671875 58.699219 371.539062 63.195312 370.527344 69.753906 C 369.511719 76.3125 374.011719 82.453125 380.566406 83.464844 Z M 380.566406 83.464844 " fill-opacity="1" fill-rule="nonzero"/><g clip-path="url(#a89d34b8a9)"><path fill="#2e3760" d="M 1138.949219 698.296875 L 1074.066406 688.265625 L 1037.214844 651.421875 C 1031.953125 657.476562 1026.140625 663.050781 1019.847656 668.039062 L 1057.058594 705.265625 L 1057.0625 705.265625 L 1067.089844 770.230469 C 1068.003906 776.167969 1073.121094 780.417969 1078.949219 780.417969 C 1079.558594 780.417969 1080.175781 780.371094 1080.796875 780.273438 C 1087.355469 779.261719 1091.851562 773.121094 1090.839844 766.5625 L 1082.714844 713.929688 L 1135.28125 722.054688 C 1141.835938 723.070312 1147.976562 718.574219 1148.992188 712.011719 C 1150.003906 705.449219 1145.511719 699.308594 1138.949219 698.296875 Z M 1138.949219 698.296875 " fill-opacity="1" fill-rule="nonzero"/></g><g clip-path="url(#f4fa9704ab)"><path fill="#2e3760" d="M 1045.484375 122.027344 L 1073.996094 93.503906 L 1138.949219 83.464844 C 1145.507812 82.453125 1150.003906 76.3125 1148.992188 69.753906 C 1147.976562 63.191406 1141.839844 58.691406 1135.28125 59.707031 L 1082.714844 67.832031 L 1090.839844 15.199219 C 1091.851562 8.636719 1087.355469 2.5 1080.796875 1.488281 C 1074.234375 0.46875 1068.101562 4.972656 1067.089844 11.53125 L 1057.070312 76.445312 L 1028.601562 104.925781 C 1034.738281 110.085938 1040.394531 115.816406 1045.484375 122.027344 Z M 1045.484375 122.027344 " fill-opacity="1" fill-rule="nonzero"/></g><path fill="#2e3760" d="M 399.792969 656.21875 L 301.6875 754.359375 C 289.753906 766.3125 289.753906 785.734375 301.6875 797.691406 C 313.640625 809.628906 333.070312 809.628906 345.007812 797.691406 L 443.09375 699.519531 C 435.027344 693.34375 427.324219 686.597656 420.015625 679.289062 C 412.707031 671.976562 405.949219 664.269531 399.792969 656.21875 Z M 399.792969 656.21875 " fill-opacity="1" fill-rule="nonzero"/><path fill="#2e3760" d="M 1022.445312 499.457031 C 1007.261719 480.175781 985.710938 466.671875 962.070312 461.289062 C 954.605469 492.734375 926.316406 516.179688 892.664062 516.179688 C 886.027344 516.179688 880.644531 510.792969 880.644531 504.15625 C 880.644531 497.515625 886.027344 492.132812 892.664062 492.132812 C 917.203125 492.132812 937.445312 473.328125 939.75 449.351562 C 939.902344 447.835938 939.972656 446.304688 939.972656 444.757812 L 939.972656 444.359375 C 939.800781 423.238281 925.546875 404.675781 905.1875 399.117188 C 898.789062 397.363281 895.023438 390.757812 896.777344 384.34375 C 898.511719 377.941406 905.117188 374.175781 911.53125 375.929688 C 939.90625 383.671875 960.4375 408.203125 963.550781 437.035156 C 991.632812 442.539062 1017.542969 457.367188 1036.597656 478.953125 C 1079.796875 469.476562 1111.609375 430.496094 1111.609375 385.667969 C 1111.609375 339.960938 1079.089844 300.53125 1034.277344 291.898438 C 1030.132812 291.089844 1026.710938 288.164062 1025.265625 284.191406 C 1023.820312 280.21875 1024.578125 275.78125 1027.242188 272.492188 C 1042.703125 253.554688 1051.199219 229.609375 1051.199219 205.042969 C 1051.199219 146.09375 1003.253906 98.132812 944.339844 98.132812 C 921.675781 98.132812 900.007812 105.152344 881.679688 118.433594 C 853.992188 138.507812 837.46875 170.898438 837.46875 205.042969 C 837.46875 211.683594 832.085938 217.066406 825.449219 217.066406 C 818.8125 217.066406 813.429688 211.683594 813.429688 205.042969 C 813.429688 165.996094 831.070312 128.839844 860.992188 104.085938 C 847.511719 59.03125 806.445312 28.171875 758.710938 28.171875 C 712.644531 28.171875 672.265625 57.398438 657.597656 100.285156 C 695.824219 124.144531 719.210938 165.859375 719.210938 211.394531 C 719.210938 218.03125 713.828125 223.417969 707.191406 223.417969 C 700.554688 223.417969 695.171875 218.03125 695.171875 211.394531 C 695.171875 171.5 673.195312 135.171875 637.804688 116.609375 C 622.429688 108.558594 605.785156 104.480469 588.296875 104.480469 C 529.367188 104.480469 481.425781 152.441406 481.425781 211.394531 C 481.425781 227.820312 485.035156 243.542969 492.15625 258.148438 C 493.722656 261.363281 493.773438 265.097656 492.308594 268.347656 C 490.847656 271.601562 488.011719 274.042969 484.570312 275.007812 C 443.042969 286.550781 412.8125 322.191406 407.308594 364.25 C 411.335938 359.519531 415.582031 354.925781 420.019531 350.488281 C 463.871094 306.640625 522.25 282.488281 584.398438 282.488281 C 646.558594 282.488281 704.921875 306.640625 748.753906 350.488281 C 792.589844 394.335938 816.730469 452.71875 816.730469 514.890625 C 816.730469 577.039062 792.585938 635.441406 748.753906 679.289062 C 729.601562 698.433594 707.675781 713.832031 683.875 725.117188 C 703.101562 742.230469 728.171875 752.089844 754.859375 752.089844 C 805.054688 752.089844 847.683594 717.855469 858.933594 669.691406 C 830.816406 649.925781 817.902344 635.183594 817.902344 596.511719 C 817.902344 589.871094 823.285156 584.488281 829.921875 584.488281 C 836.558594 584.488281 841.925781 589.871094 841.925781 596.511719 C 841.925781 629.96875 852.949219 637.054688 878.742188 654.226562 C 879.363281 654.621094 879.960938 655.035156 880.597656 655.464844 C 897.828125 666.578125 917.792969 672.460938 938.480469 672.460938 C 997.410156 672.460938 1045.351562 624.5 1045.351562 565.550781 C 1045.347656 541.347656 1037.421875 518.484375 1022.445312 499.457031 Z M 1022.445312 499.457031 " fill-opacity="1" fill-rule="nonzero"/><path fill="#2e3760" d="M 792.652344 514.871094 C 792.652344 461.507812 772.34375 408.132812 731.726562 367.5 C 650.496094 286.253906 518.308594 286.253906 437.039062 367.5 C 426.414062 378.148438 417.058594 389.726562 409.09375 402.078125 C 403.109375 411.3125 397.917969 420.964844 393.515625 430.976562 C 382.046875 457.070312 376.011719 485.507812 376.011719 514.890625 C 376.011719 551.839844 385.554688 587.308594 403.507812 618.515625 C 407.546875 625.585938 412.054688 632.449219 416.972656 639.054688 C 423.042969 647.1875 429.730469 654.949219 437.039062 662.257812 C 444.398438 669.621094 452.171875 676.296875 460.289062 682.316406 C 466.925781 687.253906 473.789062 691.726562 480.839844 695.75 C 512.789062 714.054688 548.589844 723.1875 584.394531 723.1875 C 604.445312 723.1875 624.496094 720.316406 643.875 714.589844 C 651.75 712.25 659.503906 709.445312 667.105469 706.160156 C 690.59375 696.042969 712.570312 681.40625 731.726562 662.257812 C 772.34375 621.628906 792.652344 568.25 792.652344 514.871094 Z M 454.027344 645.261719 C 419.207031 610.429688 400.03125 564.136719 400.03125 514.886719 C 400.03125 487.398438 406 460.820312 417.347656 436.667969 C 417.503906 436.289062 417.691406 435.910156 417.867188 435.550781 C 426.789062 416.835938 438.949219 399.597656 454.027344 384.511719 C 489.96875 348.558594 537.1875 330.601562 584.390625 330.601562 C 608 330.601562 631.59375 335.089844 653.777344 344.085938 C 675.980469 353.066406 696.769531 366.550781 714.722656 384.511719 C 786.601562 456.398438 786.601562 573.375 714.722656 645.261719 C 642.875 717.132812 525.925781 717.132812 454.027344 645.261719 Z M 454.027344 645.261719 " fill-opacity="1" fill-rule="nonzero"/><path fill="#ff695a" d="M 584.410156 401.835938 C 593.695312 401.835938 602.601562 404.277344 610.445312 408.804688 L 628.464844 386.648438 C 615.414062 378.117188 600.144531 373.488281 584.410156 373.488281 C 568.65625 373.488281 553.386719 378.117188 540.335938 386.648438 L 558.355469 408.804688 C 566.199219 404.277344 575.105469 401.835938 584.410156 401.835938 Z M 584.410156 401.835938 " fill-opacity="1" fill-rule="nonzero"/><path fill="#ff695a" d="M 630.425781 497.429688 L 664.9375 454.953125 L 664.9375 454.042969 C 664.9375 435.671875 658.625 417.9375 647.3125 403.761719 L 600.78125 460.957031 Z M 630.425781 497.429688 " fill-opacity="1" fill-rule="nonzero"/><path fill="#ff695a" d="M 480.082031 609.363281 L 515.761719 638.382812 L 568.019531 574.132812 L 538.375 537.699219 Z M 480.082031 609.363281 " fill-opacity="1" fill-rule="nonzero"/><path fill="#ff695a" d="M 503.863281 454.042969 C 503.863281 454.371094 503.863281 454.699219 503.878906 455.007812 L 653.039062 638.382812 L 688.683594 609.363281 L 521.503906 403.765625 C 510.171875 417.9375 503.863281 435.671875 503.863281 454.042969 Z M 503.863281 454.042969 " fill-opacity="1" fill-rule="nonzero"/></svg>