<svg xmlns="http://www.w3.org/2000/svg" xmlns:xlink="http://www.w3.org/1999/xlink" width="1920" zoomAndPan="magnify" viewBox="0 0 1440 809.999993" height="1080" preserveAspectRatio="xMidYMid meet" version="1.0"><defs><clipPath id="3e19ee090c"><path d="M 526 315 L 1297.460938 315 L 1297.460938 781 L 526 781 Z M 526 315 " clip-rule="nonzero"/></clipPath></defs><path fill="#f9c19c" d="M 270.585938 313.738281 C 294.074219 331.539062 325.601562 334.542969 352.027344 321.496094 C 342.257812 311.089844 340.050781 300.824219 345.402344 290.691406 C 375.976562 303.46875 393.660156 290.710938 398.453125 252.433594 L 398.59375 250.691406 C 405.832031 246.675781 406.367188 238.488281 400.199219 226.132812 C 401.632812 198.121094 401.21875 176.109375 398.964844 160.097656 C 376.457031 178.792969 348.972656 190.496094 319.898438 193.765625 C 322.214844 206.691406 316.09375 222.679688 301.53125 241.71875 C 304.9375 229.585938 306.300781 217.175781 305.613281 204.476562 C 295.453125 203.585938 285.980469 209.703125 282.609375 219.332031 C 279.242188 228.960938 282.832031 239.648438 291.332031 245.289062 C 290.863281 270.4375 283.949219 293.253906 270.585938 313.738281 Z M 966.78125 179.875 C 945.878906 185.613281 923.824219 185.726562 902.863281 180.199219 C 901.113281 191.6875 899.808594 202.4375 898.953125 212.457031 L 898.949219 212.453125 C 892.539062 231.382812 892.140625 241.308594 897.75 242.226562 L 897.757812 242.214844 C 898.53125 301.230469 921.226562 324.53125 965.855469 312.09375 C 972.644531 330.871094 975.597656 345.964844 974.714844 357.371094 C 984.894531 340.050781 1005.1875 326.351562 1035.601562 316.285156 L 1019.003906 295.363281 C 1010.460938 283.457031 1005.539062 272.628906 1004.242188 262.882812 C 1013.609375 256.9375 1017.074219 244.941406 1012.3125 234.921875 C 1007.554688 224.898438 996.070312 220.003906 985.542969 223.507812 C 975.671875 210.800781 969.214844 195.78125 966.78125 179.875 Z M 1172.746094 604.332031 C 1167.941406 548.339844 1165.539062 520.34375 1165.539062 520.34375 C 1144.828125 534.25 1116.539062 540.457031 1080.675781 538.957031 C 1090.269531 575.96875 1100.636719 605.824219 1111.78125 628.527344 L 1110.710938 630.613281 L 1110.515625 630.996094 L 1109.492188 633.015625 L 1109.273438 633.457031 L 1108.425781 635.128906 L 1108.242188 635.5 L 1108.21875 635.546875 L 1108.09375 635.792969 L 1107.214844 637.566406 L 1106.988281 638.023438 L 1105.980469 640.054688 L 1105.75 640.539062 L 1104.816406 642.445312 L 1104.746094 642.578125 L 1104.703125 642.671875 L 1103.71875 644.699219 L 1103.496094 645.15625 L 1102.613281 646.992188 L 1102.441406 647.351562 L 1102.324219 647.59375 L 1101.429688 649.476562 L 1101.296875 649.753906 L 1101.234375 649.894531 L 1100.351562 651.753906 L 1099.941406 652.628906 L 1099.855469 652.8125 L 1099.171875 654.273438 L 1099.023438 654.589844 L 1098.789062 655.09375 L 1098.191406 656.386719 L 1097.804688 657.214844 L 1097.125 658.691406 L 1097.011719 658.941406 L 1096.546875 659.957031 L 1096.449219 660.175781 L 1095.773438 661.65625 L 1095.648438 661.929688 L 1095.503906 662.246094 L 1094.746094 663.929688 L 1094.53125 664.398438 L 1094.425781 664.640625 L 1093.753906 666.136719 L 1093.636719 666.402344 L 1093.199219 667.390625 L 1093.085938 667.636719 L 1092.417969 669.140625 L 1092.316406 669.367188 L 1092.152344 669.75 L 1091.394531 671.464844 L 1091.21875 671.871094 L 1091.089844 672.164062 L 1090.429688 673.679688 L 1090.339844 673.886719 L 1089.917969 674.855469 L 1089.109375 676.730469 L 1089.035156 676.90625 L 1088.835938 677.371094 L 1088.21875 678.808594 L 1087.832031 679.707031 L 1087.796875 679.789062 L 1087.144531 681.324219 L 1087.074219 681.5 L 1086.589844 682.640625 L 1086.261719 683.425781 L 1085.394531 685.503906 L 1085.085938 686.238281 C 1084.699219 687.167969 1084.3125 688.101562 1083.925781 689.03125 L 1083.90625 689.082031 L 1083.378906 690.371094 L 1083.269531 690.632812 L 1082.628906 692.199219 L 1082.074219 693.570312 L 1081.953125 693.867188 L 1081.355469 695.339844 L 1080.71875 696.917969 L 1080.0625 698.558594 L 1079.003906 701.234375 L 1078.753906 701.863281 L 1078.199219 703.269531 L 1077.574219 704.867188 L 1077.019531 706.289062 L 1076.8125 706.835938 L 1075.785156 709.484375 L 1075.683594 709.75 L 1075.09375 711.292969 L 1074.476562 712.910156 L 1073.875 714.496094 L 1073.84375 714.582031 C 1073.453125 715.613281 1073.058594 716.65625 1072.667969 717.699219 L 1072.621094 717.839844 L 1072.027344 719.421875 L 1071.417969 721.058594 L 1070.851562 722.597656 L 1070.777344 722.796875 C 1070.386719 723.859375 1070 724.929688 1069.609375 725.992188 C 1061.199219 749.105469 1053.320312 773.394531 1045.96875 798.863281 C 1068.550781 798.863281 1079.839844 798.863281 1079.839844 798.863281 L 1091.113281 779.480469 L 1091.578125 778.683594 L 1092.054688 777.863281 L 1094.824219 773.101562 L 1117.34375 734.375 L 1119.558594 730.570312 L 1121.113281 727.898438 L 1122.109375 726.1875 L 1125.90625 719.652344 L 1127.890625 716.242188 L 1133.984375 705.761719 L 1134.414062 705.019531 L 1138.804688 697.476562 L 1140.042969 695.34375 L 1141.136719 693.46875 L 1142.8125 690.582031 L 1146.917969 683.527344 L 1148.8125 680.265625 L 1151.199219 676.15625 L 1151.484375 675.667969 L 1152.699219 673.582031 L 1153.589844 672.046875 L 1154.722656 670.097656 L 1154.925781 669.75 L 1156.121094 667.695312 L 1156.601562 666.871094 L 1158.222656 664.085938 L 1158.503906 663.597656 L 1158.746094 663.183594 L 1159.074219 662.613281 L 1159.136719 662.511719 L 1159.199219 662.402344 C 1171.910156 640.527344 1176.425781 621.171875 1172.746094 604.332031 Z M 1000.773438 546.132812 C 1000.03125 565.238281 999.164062 583.628906 998.160156 601.292969 L 1028.847656 601.292969 L 1028.574219 600.453125 L 1028.304688 599.605469 L 1028.039062 598.765625 L 1027.769531 597.917969 L 1027.230469 596.230469 L 1026.960938 595.382812 L 1026.6875 594.535156 L 1026.417969 593.691406 L 1026.144531 592.839844 L 1025.875 591.992188 L 1025.335938 590.289062 L 1025.058594 589.441406 L 1024.789062 588.585938 L 1024.519531 587.734375 L 1024.246094 586.882812 L 1023.976562 586.023438 L 1023.703125 585.171875 L 1023.429688 584.3125 L 1022.882812 582.601562 L 1022.613281 581.742188 L 1022.339844 580.882812 L 1022.066406 580.027344 L 1022.066406 580.023438 L 1021.792969 579.164062 L 1021.515625 578.304688 L 1021.515625 578.300781 L 1021.242188 577.441406 L 1020.972656 576.578125 L 1020.699219 575.714844 L 1020.695312 575.714844 L 1020.148438 573.988281 L 1020.148438 573.984375 L 1019.875 573.121094 L 1019.597656 572.257812 L 1019.324219 571.386719 L 1019.050781 570.523438 L 1019.050781 570.519531 L 1018.773438 569.65625 L 1018.226562 567.914062 L 1017.949219 567.046875 L 1017.671875 566.175781 L 1017.394531 565.300781 L 1017.121094 564.429688 L 1016.84375 563.558594 L 1016.566406 562.679688 L 1016.292969 561.808594 L 1016.015625 560.933594 L 1015.734375 560.058594 L 1015.460938 559.179688 L 1015.457031 559.179688 L 1015.183594 558.300781 L 1014.90625 557.425781 L 1014.90625 557.421875 L 1014.074219 554.785156 L 1013.792969 553.902344 L 1013.238281 552.136719 L 1012.957031 551.253906 L 1012.679688 550.367188 L 1012.402344 549.484375 L 1012.121094 548.597656 L 1011.839844 547.714844 L 1011.839844 547.710938 L 1011.5625 546.824219 L 1011.28125 545.9375 L 1011.132812 545.960938 L 1010.980469 545.980469 L 1010.949219 545.984375 L 1010.832031 546 L 1010.675781 546.019531 L 1010.613281 546.03125 L 1010.527344 546.039062 L 1010.277344 546.070312 L 1010.21875 546.078125 L 1010.066406 546.09375 L 1009.9375 546.109375 L 1009.910156 546.113281 L 1009.597656 546.144531 L 1009.59375 546.144531 L 1009.445312 546.15625 L 1009.289062 546.171875 L 1009.253906 546.175781 L 1009.132812 546.183594 L 1008.976562 546.199219 L 1008.910156 546.203125 L 1008.820312 546.210938 L 1008.660156 546.222656 L 1008.558594 546.230469 L 1008.503906 546.234375 L 1008.34375 546.246094 L 1008.210938 546.253906 L 1008.1875 546.257812 L 1007.875 546.273438 L 1007.867188 546.277344 L 1007.859375 546.277344 L 1007.707031 546.285156 L 1007.546875 546.292969 L 1007.503906 546.296875 L 1007.382812 546.300781 L 1007.222656 546.308594 L 1007.148438 546.308594 L 1007.058594 546.3125 L 1006.898438 546.320312 L 1006.789062 546.324219 L 1006.734375 546.324219 L 1006.574219 546.328125 L 1006.425781 546.332031 L 1006.40625 546.332031 L 1006.246094 546.335938 L 1006.078125 546.339844 L 1005.917969 546.339844 L 1005.75 546.34375 L 1004.917969 546.34375 L 1004.753906 546.339844 L 1004.597656 546.339844 L 1004.582031 546.335938 L 1004.414062 546.335938 L 1004.242188 546.332031 L 1004.222656 546.332031 L 1004.074219 546.328125 L 1003.902344 546.320312 L 1003.847656 546.320312 L 1003.734375 546.316406 L 1003.5625 546.308594 L 1003.472656 546.304688 L 1003.390625 546.304688 L 1003.21875 546.296875 L 1003.09375 546.289062 L 1003.046875 546.289062 L 1002.875 546.28125 L 1002.714844 546.269531 L 1002.703125 546.269531 L 1002.355469 546.25 L 1002.328125 546.25 L 1002.183594 546.238281 L 1001.941406 546.222656 L 1001.832031 546.214844 L 1001.65625 546.203125 L 1001.554688 546.195312 L 1001.480469 546.191406 L 1001.300781 546.175781 L 1001.167969 546.164062 L 1001.128906 546.160156 L 1000.949219 546.148438 L 1000.777344 546.136719 Z M 993.765625 664.347656 C 989.042969 720.457031 982.667969 767.515625 974.640625 805.515625 C 995.285156 802.933594 1005.609375 801.644531 1005.609375 801.644531 C 1021.003906 760.84375 1033.066406 715.074219 1041.804688 664.347656 Z M 511.039062 435.042969 C 499.359375 440.332031 490.402344 431.371094 484.171875 408.175781 C 498.246094 390.257812 511.292969 376.652344 523.3125 367.351562 C 522.339844 355.171875 523.832031 344.890625 527.796875 336.515625 C 526.644531 323.640625 531.105469 312.667969 535.75 308.566406 C 535.683594 318.15625 534.769531 326.171875 538.441406 327.640625 C 557.570312 323.355469 567.066406 312.546875 575.179688 295.199219 C 588.324219 310.3125 592.453125 338.332031 579.308594 353.445312 C 568.902344 373.335938 554.175781 381.078125 535.125 387.730469 C 519.066406 419.273438 511.039062 435.042969 511.039062 435.042969 Z M 511.039062 435.042969 " fill-opacity="1" fill-rule="evenodd"/><path fill="#f3f3f3" d="M 420.078125 195.054688 L 446.640625 195.054688 C 448.03125 188.296875 454.046875 183.171875 461.203125 183.171875 L 578.6875 183.171875 C 586.859375 183.171875 593.550781 189.863281 593.550781 198.039062 L 593.550781 219.140625 C 593.550781 227.3125 586.859375 234.007812 578.6875 234.007812 L 575.179688 234.007812 L 575.179688 295.199219 C 567.066406 312.546875 557.574219 323.355469 538.441406 327.640625 C 536.738281 326.957031 536.019531 324.863281 535.75 321.851562 L 535.75 234.007812 L 461.203125 234.007812 C 455.082031 234.007812 449.792969 230.253906 447.523438 224.941406 L 420.078125 224.941406 Z M 156.46875 803.785156 C 142.476562 661.609375 156.46875 525.152344 198.453125 394.410156 C 214.125 351.882812 238.167969 324.992188 270.585938 313.738281 C 294.074219 331.539062 325.601562 334.542969 352.027344 321.496094 C 378.34375 357.71875 398.511719 405.039062 412.527344 463.441406 C 462.683594 409.144531 487.761719 381.996094 487.761719 381.996094 C 515.167969 409.402344 528.871094 423.109375 528.871094 423.109375 C 480.089844 491.605469 455.695312 525.851562 455.695312 525.851562 C 470.324219 551.691406 505.109375 567.15625 560.058594 572.242188 L 555.390625 601.292969 L 410.816406 601.292969 L 410.816406 664.347656 L 426.78125 664.347656 C 429.242188 727.171875 441.585938 774.691406 463.816406 806.90625 C 258.917969 804.828125 156.46875 803.785156 156.46875 803.785156 Z M 764.179688 165.675781 L 717.652344 165.675781 L 717.652344 457.261719 L 743.175781 457.261719 L 743.175781 318.71875 L 776.464844 318.71875 L 776.464844 525.972656 L 688.34375 525.972656 L 688.34375 487.328125 L 620.289062 487.328125 C 576.929688 487.328125 535.75 457.964844 535.75 415.582031 L 535.75 387.507812 C 552.113281 381.746094 565.257812 375.082031 575.179688 360.394531 L 575.179688 415.582031 C 575.179688 439.332031 596.144531 457.261719 620.289062 457.261719 L 688.34375 457.261719 L 688.34375 0.0390625 L 764.179688 0.0390625 Z M 878.246094 525.972656 L 894.375 525.972656 L 894.375 60.179688 L 878.246094 60.179688 Z M 878.246094 525.972656 " fill-opacity="1" fill-rule="evenodd"/><path fill="#1a1a1a" d="M 651.714844 664.347656 L 788.332031 664.347656 L 788.332031 809.960938 L 651.714844 809.960938 Z M 651.714844 664.347656 " fill-opacity="1" fill-rule="evenodd"/><g clip-path="url(#3e19ee090c)"><path fill="#3891d5" d="M 1171.363281 426.730469 C 1125.789062 347.179688 1080.539062 310.367188 1035.601562 316.285156 C 1005.1875 326.351562 984.894531 340.050781 974.714844 357.371094 C 957.730469 394.238281 959.601562 433.644531 980.320312 475.59375 L 985.773438 543.164062 C 995.691406 546.042969 1004.195312 546.964844 1011.28125 545.9375 C 1017.25 564.886719 1023.101562 583.339844 1028.847656 601.292969 L 1061.863281 601.292969 L 1061.863281 664.347656 L 1049.222656 664.347656 C 1056.203125 685.707031 1062.992188 706.253906 1069.609375 725.992188 C 1082.433594 690.761719 1096.488281 658.273438 1111.78125 628.527344 C 1100.636719 605.824219 1090.269531 575.964844 1080.675781 538.957031 C 1116.539062 540.453125 1144.828125 534.25 1165.539062 520.339844 C 1165.539062 520.339844 1167.941406 548.339844 1172.746094 604.332031 C 1176.425781 621.171875 1171.910156 640.527344 1159.199219 662.402344 L 1091.113281 779.480469 C 1165.714844 780.863281 1234.496094 780.554688 1297.460938 778.558594 C 1285.574219 680.203125 1243.539062 562.925781 1171.363281 426.730469 Z M 526.9375 601.292969 L 913.109375 601.292969 L 913.109375 525.972656 L 526.9375 525.972656 Z M 526.9375 601.292969 " fill-opacity="1" fill-rule="evenodd"/></g><path fill="#e1ecfe" d="M 260.019531 318.105469 C 263.4375 316.457031 266.957031 314.996094 270.585938 313.738281 C 281.785156 322.226562 294.816406 327.347656 308.25 328.96875 L 308.226562 328.96875 C 336.675781 348.570312 352.273438 384.441406 355.003906 436.601562 C 350.3125 426.972656 343.527344 415.464844 334.65625 402.074219 C 322.226562 366.785156 307.605469 348.929688 290.789062 348.511719 C 282.34375 338.589844 272.085938 328.460938 260.019531 318.105469 Z M 324.160156 329.253906 C 324.464844 329.226562 324.765625 329.199219 325.066406 329.175781 C 324.765625 329.199219 324.464844 329.226562 324.160156 329.253906 Z M 327.433594 328.90625 C 327.753906 328.867188 328.070312 328.828125 328.390625 328.78125 Z M 331.703125 328.242188 C 333.476562 327.914062 335.242188 327.527344 336.992188 327.074219 C 335.242188 327.527344 333.476562 327.914062 331.703125 328.242188 Z M 331.703125 328.242188 " fill-opacity="1" fill-rule="evenodd"/><path fill="#1a1a1a" d="M 901.382812 190.527344 C 898.796875 188.574219 896.449219 186.355469 894.375 183.914062 L 894.375 127.273438 C 895.734375 125.671875 897.21875 124.160156 898.820312 122.75 C 934.953125 99.359375 981.992188 101.679688 1015.652344 128.511719 C 1025.875 127.707031 1035.75 132.410156 1041.570312 140.855469 C 1059.109375 175.121094 1058.335938 215.890625 1039.511719 249.464844 C 1026.664062 269.875 1019.832031 285.175781 1019.003906 295.363281 C 1010.460938 283.457031 1005.539062 272.628906 1004.242188 262.882812 C 1013.609375 256.9375 1017.074219 244.941406 1012.3125 234.921875 C 1007.554688 224.898438 996.070312 220.003906 985.542969 223.507812 C 975.671875 210.800781 969.214844 195.78125 966.78125 179.875 C 945.878906 185.613281 923.824219 185.726562 902.863281 180.199219 C 902.328125 183.710938 901.832031 187.152344 901.382812 190.527344 Z M 285.941406 104.980469 C 216.75 65.296875 182.914062 84.972656 184.433594 164.007812 C 188.292969 210.96875 195.917969 245.390625 207.3125 267.265625 C 211.273438 275.609375 211.273438 282.261719 207.3125 287.210938 C 231.84375 284.550781 245.066406 267.1875 246.988281 235.132812 C 255.136719 251.527344 267.398438 268.921875 283.78125 287.332031 C 288.539062 274.128906 291.054688 260.113281 291.332031 245.289062 C 282.832031 239.648438 279.242188 228.960938 282.609375 219.332031 C 285.980469 209.703125 295.453125 203.585938 305.613281 204.476562 C 306.300781 217.175781 304.9375 229.585938 301.53125 241.71875 C 316.09375 222.679688 322.214844 206.691406 319.898438 193.765625 C 348.972656 190.496094 376.457031 178.792969 398.964844 160.09375 C 400.113281 168.257812 400.785156 177.976562 400.976562 189.253906 C 414.191406 170.28125 415.929688 148.175781 406.191406 122.9375 C 390.859375 99.082031 364.148438 85.007812 335.804688 85.847656 C 317.214844 86.398438 299.707031 93.3125 285.941406 104.980469 Z M 397.238281 261.914062 C 393.703125 262.054688 390.183594 261.714844 386.789062 260.917969 C 383.382812 260.117188 380.082031 258.851562 376.988281 257.144531 L 378.351562 254.664062 C 381.214844 256.242188 384.273438 257.414062 387.433594 258.15625 C 390.597656 258.902344 393.863281 259.222656 397.125 259.085938 Z M 392.050781 203.691406 C 394.515625 203.691406 396.511719 208.617188 396.511719 214.695312 C 396.511719 220.769531 394.515625 225.695312 392.050781 225.695312 C 389.582031 225.695312 387.585938 220.769531 387.585938 214.695312 C 387.585938 208.617188 389.582031 203.691406 392.050781 203.691406 Z M 381.214844 195.988281 C 385.902344 193.222656 391.84375 193.828125 395.878906 197.480469 C 391.238281 196.253906 386.292969 197.011719 382.238281 199.578125 C 381.558594 197.183594 381.214844 195.988281 381.214844 195.988281 Z M 776.464844 318.71875 L 747.953125 318.71875 L 747.953125 269.539062 L 754.128906 269.539062 L 754.128906 225.351562 L 776.464844 225.351562 Z M 420.078125 189.6875 L 410.726562 189.6875 L 410.726562 230.304688 L 420.078125 230.304688 Z M 551.203125 195.046875 L 602.566406 195.046875 C 610.011719 195.046875 616.109375 201.140625 616.109375 208.589844 C 616.109375 216.039062 610.011719 222.132812 602.566406 222.132812 L 551.203125 222.132812 C 543.753906 222.132812 537.660156 216.039062 537.660156 208.589844 C 537.660156 201.140625 543.753906 195.046875 551.203125 195.046875 Z M 676.726562 94.089844 L 786.328125 94.089844 C 798.332031 94.089844 808.15625 103.914062 808.15625 115.917969 C 808.15625 127.921875 798.332031 137.746094 786.328125 137.746094 L 676.726562 137.746094 C 664.722656 137.746094 654.902344 127.925781 654.902344 115.917969 C 654.902344 103.914062 664.722656 94.089844 676.726562 94.089844 Z M 917.5625 197.902344 C 912.414062 196.136719 906.714844 197.925781 903.5 202.316406 C 907.800781 200.179688 912.792969 199.929688 917.28125 201.625 C 917.46875 199.144531 917.5625 197.902344 917.5625 197.902344 Z M 898.539062 261.742188 C 902.070312 261.886719 909.414062 261.714844 912.808594 260.917969 C 916.214844 260.117188 919.515625 258.851562 922.609375 257.144531 L 921.25 254.664062 C 918.382812 256.242188 915.324219 257.414062 912.167969 258.15625 C 909.003906 258.902344 901.910156 259.050781 898.648438 258.917969 Z M 907.550781 203.691406 C 905.082031 203.691406 903.089844 208.617188 903.089844 214.695312 C 903.089844 220.769531 905.082031 225.695312 907.550781 225.695312 C 910.015625 225.695312 912.015625 220.769531 912.015625 214.695312 C 912.015625 208.617188 910.015625 203.691406 907.550781 203.691406 Z M 907.550781 203.691406 " fill-opacity="1" fill-rule="evenodd"/><path fill="#3891d5" d="M 390.988281 806.164062 L 385.238281 806.113281 C 365.867188 702.292969 356 620.359375 355.640625 560.324219 C 373.898438 572.023438 383.027344 577.867188 383.027344 577.867188 Z M 352.027344 321.496094 C 369.796875 365.824219 377.25 415.570312 374.398438 470.738281 C 374.398438 470.738281 367.933594 459.359375 355.003906 436.601562 C 352.273438 384.441406 336.675781 348.570312 308.226562 328.96875 C 322.96875 330.753906 338.195312 328.324219 352.027344 321.496094 Z M 352.027344 321.496094 " fill-opacity="1" fill-rule="evenodd"/><path fill="#1a1a1a" d="M 410.816406 601.292969 L 1061.863281 601.292969 L 1061.863281 664.347656 L 410.816406 664.347656 Z M 410.816406 601.292969 " fill-opacity="1" fill-rule="evenodd"/><path fill="#3891d5" d="M 352.027344 321.496094 C 369.796875 365.824219 377.25 415.570312 374.398438 470.738281 C 374.398438 470.738281 367.933594 459.359375 355.003906 436.601562 C 352.273438 384.441406 336.675781 348.570312 308.226562 328.96875 C 322.96875 330.753906 338.195312 328.324219 352.027344 321.496094 Z M 878.246094 317.699219 L 953.464844 317.699219 L 953.464844 327.28125 L 878.246094 327.28125 Z M 878.246094 167.875 L 953.464844 167.875 L 953.464844 177.453125 L 878.246094 177.453125 Z M 878.246094 167.875 " fill-opacity="1" fill-rule="evenodd"/></svg>