<svg xmlns="http://www.w3.org/2000/svg" xmlns:xlink="http://www.w3.org/1999/xlink" width="1920" zoomAndPan="magnify" viewBox="0 0 1440 809.999993" height="1080" preserveAspectRatio="xMidYMid meet" version="1.0"><path fill="#ff66c4" d="M 1035 38.570312 C 832.625 38.570312 668.570312 202.625 668.570312 405 C 668.570312 607.371094 832.625 771.429688 1035 771.429688 C 1237.371094 771.429688 1401.429688 607.371094 1401.429688 405 C 1401.429688 202.625 1237.371094 38.570312 1035 38.570312 Z M 630 405 C 630 181.324219 811.324219 0 1035 0 C 1258.675781 0 1440 181.324219 1440 405 C 1440 628.675781 1258.675781 810 1035 810 C 811.324219 810 630 628.675781 630 405 Z M 630 405 " fill-opacity="1" fill-rule="evenodd"/><path fill="#ff66c4" d="M 1035 115.714844 C 1024.351562 115.714844 1015.714844 124.347656 1015.714844 135 L 1015.714844 405 C 1015.714844 415.648438 1024.351562 424.285156 1035 424.285156 C 1045.648438 424.285156 1054.285156 415.648438 1054.285156 405 L 1054.285156 135 C 1054.285156 124.347656 1045.648438 115.714844 1035 115.714844 Z M 1035 115.714844 " fill-opacity="1" fill-rule="evenodd"/><path fill="#ff66c4" d="M 1051.535156 395.078125 C 1046.058594 385.945312 1034.210938 382.984375 1025.074219 388.464844 L 832.21875 504.179688 C 823.085938 509.65625 820.125 521.503906 825.605469 530.636719 C 831.085938 539.769531 842.929688 542.730469 852.066406 537.25 L 1044.921875 421.535156 C 1054.054688 416.058594 1057.015625 404.210938 1051.535156 395.078125 Z M 1051.535156 395.078125 " fill-opacity="1" fill-rule="evenodd"/></svg>