<svg xmlns="http://www.w3.org/2000/svg" xmlns:xlink="http://www.w3.org/1999/xlink" width="512" zoomAndPan="magnify" viewBox="0 0 384 383.999986" height="512" preserveAspectRatio="xMidYMid meet" version="1.0"><path fill="#ff66c4" d="M 192 384 C 85.960938 384 0 298.039062 0 192 C 0 85.960938 85.960938 0 192 0 C 298.039062 0 384 85.960938 384 192 C 384 298.039062 298.039062 384 192 384 Z M 230.398438 230.398438 L 288.03125 230.398438 C 309.175781 230.398438 326.398438 213.207031 326.398438 192 C 326.398438 170.789062 309.222656 153.601562 288.03125 153.601562 L 230.398438 153.601562 L 230.398438 95.96875 C 230.398438 74.824219 213.207031 57.601562 192 57.601562 C 170.789062 57.601562 153.601562 74.777344 153.601562 95.96875 L 153.601562 153.601562 L 95.96875 153.601562 C 74.824219 153.601562 57.601562 170.792969 57.601562 192 C 57.601562 213.210938 74.777344 230.398438 95.96875 230.398438 L 153.601562 230.398438 L 153.601562 288.03125 C 153.601562 309.175781 170.792969 326.398438 192 326.398438 C 213.210938 326.398438 230.398438 309.222656 230.398438 288.03125 Z M 230.398438 230.398438 " fill-opacity="1" fill-rule="evenodd"/></svg>