<svg xmlns="http://www.w3.org/2000/svg" xmlns:xlink="http://www.w3.org/1999/xlink" width="1920" zoomAndPan="magnify" viewBox="0 0 1440 809.999993" height="1080" preserveAspectRatio="xMidYMid meet" version="1.0"><path fill="#f56181" d="M 497.664062 583.167969 C 497.664062 642.375 492.394531 690.375 485.894531 690.375 C 479.394531 690.375 474.125 642.375 474.125 583.167969 C 474.125 523.960938 479.394531 475.964844 485.894531 475.964844 C 492.394531 475.964844 497.664062 523.960938 497.664062 583.167969 Z M 497.664062 583.167969 " fill-opacity="1" fill-rule="nonzero"/><path fill="#ffffff" d="M 486.042969 690.367188 C 492.472656 689.644531 497.664062 641.929688 497.664062 583.167969 C 497.664062 527.734375 493.042969 482.125 487.121094 476.539062 C 486.675781 476.351562 486.269531 476.160156 485.894531 475.964844 C 486.308594 475.964844 486.71875 476.160156 487.121094 476.539062 C 512.691406 487.359375 651.394531 484.191406 718.667969 481.191406 L 743.515625 675.992188 L 486.042969 690.367188 C 485.992188 690.371094 485.941406 690.375 485.894531 690.375 Z M 486.042969 690.367188 " fill-opacity="1" fill-rule="nonzero"/><path fill="#081854" d="M 478.515625 507.46875 C 476.390625 526.824219 475.074219 553.585938 475.074219 583.167969 C 475.074219 612.75 476.390625 639.515625 478.515625 658.871094 C 479.578125 668.554688 480.839844 676.351562 482.230469 681.710938 C 482.929688 684.398438 483.644531 686.417969 484.359375 687.746094 C 484.714844 688.414062 485.046875 688.855469 485.335938 689.121094 C 485.601562 689.371094 485.78125 689.417969 485.875 689.425781 L 485.953125 689.421875 C 486.054688 689.402344 486.21875 689.339844 486.453125 689.121094 C 486.742188 688.855469 487.070312 688.414062 487.429688 687.746094 C 488.140625 686.417969 488.859375 684.398438 489.554688 681.710938 C 490.949219 676.351562 492.210938 668.554688 493.273438 658.871094 C 495.398438 639.515625 496.714844 612.75 496.714844 583.167969 C 496.714844 553.585938 495.398438 526.824219 493.273438 507.46875 C 492.210938 497.78125 490.949219 489.984375 489.554688 484.628906 C 488.859375 481.9375 488.140625 479.921875 487.429688 478.589844 C 487.125 478.019531 486.835938 477.613281 486.578125 477.339844 C 486.28125 477.210938 486 477.078125 485.730469 476.945312 C 485.632812 476.984375 485.5 477.058594 485.335938 477.214844 C 485.046875 477.480469 484.714844 477.925781 484.359375 478.589844 C 483.644531 479.921875 482.929688 481.9375 482.230469 484.628906 C 480.839844 489.984375 479.578125 497.78125 478.515625 507.46875 Z M 487.636719 475.726562 C 487.148438 475.308594 486.566406 475.015625 485.894531 475.015625 C 485.175781 475.015625 484.554688 475.351562 484.046875 475.820312 C 483.542969 476.285156 483.097656 476.929688 482.6875 477.695312 C 481.867188 479.21875 481.105469 481.414062 480.394531 484.148438 C 478.96875 489.640625 477.695312 497.542969 476.628906 507.261719 C 474.496094 526.703125 473.175781 553.542969 473.175781 583.167969 C 473.175781 612.796875 474.496094 639.632812 476.628906 659.078125 C 477.695312 668.792969 478.96875 676.695312 480.394531 682.1875 C 481.105469 684.921875 481.867188 687.117188 482.6875 688.644531 C 483.097656 689.40625 483.542969 690.050781 484.046875 690.515625 C 484.554688 690.984375 485.175781 691.320312 485.894531 691.320312 C 485.972656 691.320312 486.046875 691.316406 486.121094 691.308594 L 744.585938 676.882812 L 719.496094 480.207031 L 718.625 480.246094 C 684.417969 481.769531 631.730469 483.339844 584.859375 483.089844 C 561.421875 482.964844 539.453125 482.382812 521.980469 481.117188 C 513.238281 480.484375 505.640625 479.679688 499.550781 478.679688 C 494.351562 477.828125 490.324219 476.839844 487.636719 475.726562 Z M 489.449219 478.382812 C 490.136719 479.851562 490.785156 481.800781 491.394531 484.148438 C 492.820312 489.640625 494.09375 497.542969 495.160156 507.261719 C 497.292969 526.703125 498.613281 553.542969 498.613281 583.167969 C 498.613281 612.796875 497.292969 639.632812 495.160156 659.078125 C 494.09375 668.792969 492.820312 676.695312 491.394531 682.1875 C 490.683594 684.921875 489.921875 687.117188 489.101562 688.644531 C 488.984375 688.859375 488.867188 689.066406 488.742188 689.261719 L 742.445312 675.101562 L 717.835938 482.179688 C 683.589844 483.695312 631.367188 485.234375 584.851562 484.984375 C 561.394531 484.859375 539.378906 484.28125 521.839844 483.007812 C 513.074219 482.375 505.410156 481.566406 499.242188 480.554688 C 495.394531 479.921875 492.09375 479.203125 489.449219 478.382812 Z M 489.449219 478.382812 " fill-opacity="1" fill-rule="evenodd"/><path fill="#ffffff" d="M 966.988281 690.367188 C 960.554688 689.644531 955.363281 641.929688 955.363281 583.167969 C 955.363281 527.734375 959.984375 482.125 965.90625 476.539062 C 966.351562 476.351562 966.757812 476.160156 967.132812 475.964844 C 966.71875 475.964844 966.3125 476.160156 965.90625 476.539062 C 940.335938 487.359375 801.632812 484.191406 734.359375 481.191406 L 709.515625 675.992188 L 966.988281 690.367188 C 967.035156 690.371094 967.085938 690.375 967.132812 690.375 Z M 966.988281 690.367188 " fill-opacity="1" fill-rule="nonzero"/><path fill="#f56181" d="M 955.363281 583.167969 C 955.363281 642.375 960.632812 690.375 967.132812 690.375 C 973.632812 690.375 978.90625 642.375 978.90625 583.167969 C 978.90625 523.960938 973.632812 475.964844 967.132812 475.964844 C 960.632812 475.964844 955.363281 523.960938 955.363281 583.167969 Z M 955.363281 583.167969 " fill-opacity="1" fill-rule="nonzero"/><path fill="#081854" d="M 974.511719 507.46875 C 976.636719 526.824219 977.957031 553.585938 977.957031 583.167969 C 977.957031 612.75 976.636719 639.515625 974.511719 658.871094 C 973.449219 668.554688 972.1875 676.351562 970.796875 681.710938 C 970.101562 684.398438 969.382812 686.417969 968.667969 687.746094 C 968.3125 688.414062 967.980469 688.855469 967.695312 689.121094 C 967.425781 689.371094 967.25 689.417969 967.152344 689.425781 L 967.078125 689.421875 C 966.972656 689.402344 966.808594 689.339844 966.574219 689.121094 C 966.285156 688.855469 965.953125 688.414062 965.597656 687.746094 C 964.886719 686.417969 964.167969 684.398438 963.472656 681.710938 C 962.082031 676.351562 960.820312 668.554688 959.753906 658.871094 C 957.628906 639.515625 956.3125 612.75 956.3125 583.167969 C 956.3125 553.585938 957.628906 526.824219 959.753906 507.46875 C 960.820312 497.78125 962.082031 489.984375 963.472656 484.628906 C 964.167969 481.9375 964.886719 479.921875 965.597656 478.589844 C 965.902344 478.019531 966.191406 477.613281 966.449219 477.339844 C 966.746094 477.210938 967.027344 477.078125 967.296875 476.945312 C 967.394531 476.984375 967.527344 477.058594 967.695312 477.214844 C 967.980469 477.480469 968.3125 477.925781 968.667969 478.589844 C 969.382812 479.921875 970.101562 481.9375 970.796875 484.628906 C 972.1875 489.984375 973.449219 497.78125 974.511719 507.46875 Z M 965.390625 475.726562 C 965.878906 475.308594 966.464844 475.015625 967.132812 475.015625 C 967.855469 475.015625 968.476562 475.351562 968.980469 475.820312 C 969.484375 476.285156 969.933594 476.929688 970.34375 477.695312 C 971.160156 479.21875 971.925781 481.414062 972.632812 484.148438 C 974.058594 489.640625 975.332031 497.542969 976.398438 507.261719 C 978.535156 526.703125 979.851562 553.542969 979.851562 583.167969 C 979.851562 612.796875 978.535156 639.632812 976.398438 659.078125 C 975.332031 668.792969 974.058594 676.695312 972.632812 682.1875 C 971.925781 684.921875 971.160156 687.117188 970.34375 688.644531 C 969.933594 689.40625 969.484375 690.050781 968.980469 690.515625 C 968.476562 690.984375 967.855469 691.320312 967.132812 691.320312 C 967.058594 691.320312 966.980469 691.316406 966.90625 691.308594 L 708.445312 676.882812 L 733.527344 480.207031 L 734.402344 480.246094 C 768.609375 481.769531 821.296875 483.339844 868.167969 483.089844 C 891.605469 482.964844 913.574219 482.382812 931.050781 481.117188 C 939.789062 480.484375 947.386719 479.679688 953.476562 478.679688 C 958.675781 477.828125 962.703125 476.839844 965.390625 475.726562 Z M 963.582031 478.382812 C 962.890625 479.851562 962.246094 481.800781 961.636719 484.148438 C 960.210938 489.640625 958.933594 497.542969 957.867188 507.261719 C 955.734375 526.703125 954.414062 553.542969 954.414062 583.167969 C 954.414062 612.796875 955.734375 639.632812 957.867188 659.078125 C 958.933594 668.792969 960.210938 676.695312 961.636719 682.1875 C 962.34375 684.921875 963.105469 687.117188 963.925781 688.644531 C 964.042969 688.859375 964.160156 689.066406 964.285156 689.261719 L 710.582031 675.101562 L 735.191406 482.179688 C 769.441406 483.695312 821.660156 485.234375 868.175781 484.984375 C 891.632812 484.859375 913.648438 484.28125 931.1875 483.007812 C 939.957031 482.375 947.617188 481.566406 953.785156 480.554688 C 957.632812 479.921875 960.9375 479.203125 963.582031 478.382812 Z M 963.582031 478.382812 " fill-opacity="1" fill-rule="evenodd"/><path fill="#f9cbcb" d="M 742.246094 808.960938 L 406.367188 808.960938 L 406.589844 736.257812 C 406.589844 720.035156 417.335938 705.769531 432.933594 701.289062 L 576.027344 660.1875 C 636.480469 642.828125 676.082031 579.148438 668.226562 516.757812 L 784.929688 521.628906 C 777.074219 584.019531 815.859375 642.828125 876.3125 660.1875 L 1019.40625 701.289062 C 1035.003906 705.769531 1045.75 720.035156 1045.75 736.257812 L 1045.527344 808.960938 Z M 742.246094 808.960938 " fill-opacity="1" fill-rule="nonzero"/><path fill="#eba6a6" d="M 667.332031 551.808594 C 682.664062 563.546875 700.835938 572.542969 722.402344 576.945312 C 728.578125 578.207031 734.953125 577.71875 741.035156 576.078125 C 755.601562 572.144531 770.855469 567.582031 784.054688 559.449219 L 784.054688 516.757812 L 670.179688 516.757812 Z M 667.332031 551.808594 " fill-opacity="1" fill-rule="nonzero"/><path fill="#081854" d="M 667.144531 515.765625 L 786 520.726562 L 785.871094 521.75 C 778.074219 583.671875 816.570312 642.042969 876.574219 659.277344 L 1019.667969 700.375 C 1035.671875 704.972656 1046.699219 719.609375 1046.699219 736.257812 L 1046.699219 736.261719 L 1046.472656 809.910156 L 405.414062 809.910156 L 405.640625 736.257812 C 405.640625 719.609375 416.667969 704.972656 432.671875 700.375 L 575.765625 659.277344 C 635.746094 642.050781 675.085938 578.828125 667.285156 516.875 Z M 1044.578125 808.015625 L 1044.800781 736.257812 C 1044.800781 736.257812 1044.800781 736.257812 1044.800781 736.253906 C 1044.796875 720.453125 1034.332031 706.5625 1019.140625 702.199219 L 876.050781 661.101562 C 815.476562 643.703125 776.5 585.007812 783.863281 522.535156 L 669.304688 517.753906 C 676.609375 580.222656 636.859375 643.707031 576.289062 661.101562 L 433.199219 702.199219 C 418.003906 706.5625 407.539062 720.457031 407.539062 736.257812 L 407.539062 736.261719 L 407.316406 808.015625 Z M 1044.578125 808.015625 " fill-opacity="1" fill-rule="evenodd"/><path fill="#eba6a6" d="M 737.773438 691.234375 C 751.078125 681.894531 817.378906 695.921875 848.582031 663.808594 C 806.824219 688.964844 759.59375 672.945312 737.773438 691.234375 C 737.324219 691.550781 736.933594 691.898438 736.605469 692.269531 C 736.988281 691.914062 737.375 691.570312 737.773438 691.234375 Z M 737.773438 691.234375 " fill-opacity="1" fill-rule="nonzero"/><path fill="#eba6a6" d="M 714.558594 691.234375 C 701.257812 681.894531 634.953125 695.921875 603.75 663.808594 C 645.511719 688.964844 692.742188 672.945312 714.558594 691.234375 C 715.011719 691.550781 715.402344 691.898438 715.726562 692.269531 C 715.347656 691.914062 714.957031 691.570312 714.558594 691.234375 Z M 714.558594 691.234375 " fill-opacity="1" fill-rule="nonzero"/><path fill="#f56181" d="M 936.371094 746.1875 C 813.222656 705.261719 597.394531 704.324219 512.300781 745.40625 C 505.210938 748.828125 501.261719 756.21875 501.261719 764.089844 L 501.261719 808.960938 L 951.070312 808.960938 L 951.070312 767.082031 C 951.070312 757.652344 945.320312 749.15625 936.371094 746.1875 Z M 936.371094 746.1875 " fill-opacity="1" fill-rule="nonzero"/><path fill="#081854" d="M 710.0625 715.992188 C 630.101562 715.777344 555.054688 725.820312 512.710938 746.261719 C 506 749.5 502.210938 756.523438 502.210938 764.089844 L 502.210938 808.015625 L 950.121094 808.015625 L 950.121094 767.082031 C 950.121094 758.035156 944.605469 749.921875 936.074219 747.085938 C 874.625 726.664062 789.988281 716.207031 710.0625 715.992188 Z M 710.066406 714.09375 C 790.117188 714.308594 874.96875 724.777344 936.671875 745.285156 C 946.03125 748.394531 952.019531 757.273438 952.019531 767.082031 L 952.019531 809.910156 L 500.3125 809.910156 L 500.3125 764.089844 C 500.3125 755.914062 504.417969 748.15625 511.886719 744.550781 C 554.636719 723.910156 630.050781 713.878906 710.066406 714.09375 Z M 710.066406 714.09375 " fill-opacity="1" fill-rule="evenodd"/><path fill="#f56181" d="M 760.949219 581.339844 L 753.179688 549.867188 L 763.613281 548.488281 L 774.054688 547.109375 L 781.894531 565.511719 L 782.566406 567.085938 C 784.429688 571.453125 787.160156 575.421875 791.019531 578.1875 C 794.355469 580.574219 798.839844 583.398438 803.847656 585.589844 C 804.539062 585.894531 805.242188 586.183594 805.949219 586.457031 C 808.910156 587.605469 812.015625 588.5 815.152344 588.925781 L 804.261719 622.222656 C 798.074219 619.582031 790.695312 615.707031 783.292969 609.914062 C 776.921875 604.925781 770.53125 598.515625 764.875 590.242188 C 763.027344 587.546875 761.777344 584.5 760.949219 581.339844 Z M 760.949219 581.339844 " fill-opacity="1" fill-rule="nonzero"/><path fill="#081854" d="M 854.808594 152.066406 C 887.101562 132.082031 890.816406 77.390625 848.515625 65.089844 C 845.515625 50.964844 837.824219 38.175781 827.253906 27.84375 C 811.382812 12.328125 789.011719 2.339844 766.253906 1.644531 C 749.152344 1.125 731.828125 5.855469 716.875 17.433594 C 711.886719 21.292969 707.164062 25.917969 702.796875 31.363281 C 702.160156 32.164062 701.011719 32.328125 700.140625 31.796875 C 694.773438 28.519531 688.378906 27.324219 681.675781 27.84375 C 647.074219 30.523438 600.664062 75.300781 648.859375 118.414062 Z M 854.808594 152.066406 " fill-opacity="1" fill-rule="nonzero"/><path fill="#081854" d="M 725.9375 117.746094 C 649.992188 121.582031 599.070312 158.746094 574.296875 199.9375 C 586.082031 162.53125 641.925781 90.695312 752.820312 101.585938 C 867.679688 126.332031 913.882812 212.238281 906.015625 281.421875 C 894.964844 204.242188 839.113281 140.484375 751.71875 120.054688 C 743.289062 118.082031 734.585938 117.308594 725.9375 117.746094 Z M 725.9375 117.746094 " fill-opacity="1" fill-rule="nonzero"/><path fill="#f9cbcb" d="M 869.285156 416 C 846.167969 510.851562 795.90625 546.839844 743.128906 563.1875 C 737.113281 565.054688 730.707031 565.492188 724.53125 564.25 C 648.8125 549 613.042969 479.574219 595.648438 429.007812 C 548.785156 429.007812 536.300781 365.589844 555.578125 350.75 C 558.109375 348.800781 561.1875 347.691406 564.808594 347.667969 C 566.175781 154.339844 851.871094 111.421875 881.671875 335.574219 C 892.105469 335.574219 900.457031 340.191406 904.410156 347.667969 C 917.359375 372.160156 898.734375 423.609375 869.285156 416 Z M 869.285156 416 " fill-opacity="1" fill-rule="nonzero"/><path fill="#081854" d="M 717.992188 446.394531 C 715.710938 445.34375 713.230469 445.332031 710.894531 445.332031 C 710.367188 445.332031 709.945312 444.90625 709.945312 444.382812 C 709.945312 443.859375 710.367188 443.433594 710.894531 443.433594 C 710.917969 443.433594 710.941406 443.433594 710.960938 443.433594 C 713.230469 443.433594 716.097656 443.433594 718.789062 444.671875 C 721.566406 445.957031 724.03125 448.496094 725.632812 453.304688 C 725.800781 453.804688 725.53125 454.339844 725.035156 454.507812 C 724.535156 454.671875 724 454.402344 723.835938 453.90625 C 722.363281 449.496094 720.210938 447.421875 717.992188 446.394531 Z M 717.992188 446.394531 " fill-opacity="1" fill-rule="evenodd"/><path fill="#081854" d="M 750.25 441.046875 C 750.109375 440.542969 749.582031 440.253906 749.078125 440.394531 L 749.339844 441.308594 C 749.078125 440.394531 749.078125 440.398438 749.078125 440.398438 L 749.066406 440.398438 L 749.035156 440.40625 C 749.011719 440.414062 748.976562 440.425781 748.933594 440.4375 C 748.847656 440.464844 748.722656 440.507812 748.566406 440.558594 C 748.246094 440.667969 747.796875 440.828125 747.25 441.054688 C 746.152344 441.503906 744.664062 442.195312 743.070312 443.191406 C 739.894531 445.175781 736.234375 448.402344 734.597656 453.304688 C 734.433594 453.804688 734.703125 454.339844 735.199219 454.507812 C 735.695312 454.671875 736.234375 454.402344 736.398438 453.90625 C 737.839844 449.585938 741.097656 446.664062 744.074219 444.800781 C 745.554688 443.875 746.949219 443.226562 747.96875 442.808594 C 748.476562 442.601562 748.890625 442.453125 749.175781 442.355469 C 749.316406 442.308594 749.425781 442.273438 749.5 442.25 C 749.535156 442.238281 749.5625 442.230469 749.578125 442.226562 L 749.597656 442.21875 L 749.601562 442.21875 C 750.105469 442.074219 750.394531 441.550781 750.25 441.046875 Z M 749.601562 442.21875 Z M 749.601562 442.21875 " fill-opacity="1" fill-rule="evenodd"/><path fill="#f56181" d="M 644.515625 249.285156 C 642.804688 249.058594 641.082031 248.894531 639.347656 248.796875 L 639.457031 246.902344 C 641.238281 247.003906 643.003906 247.171875 644.761719 247.402344 Z M 664.535156 254.664062 C 661.320312 253.363281 658.035156 252.238281 654.6875 251.332031 L 655.183594 249.5 C 658.609375 250.429688 661.96875 251.574219 665.246094 252.902344 Z M 682.90625 264.425781 C 680.019531 262.519531 677.03125 260.726562 673.957031 259.085938 L 674.851562 257.414062 C 677.984375 259.085938 681.019531 260.90625 683.953125 262.84375 Z M 699.269531 277.351562 C 696.761719 275.019531 694.117188 272.742188 691.351562 270.550781 L 692.527344 269.0625 C 695.335938 271.285156 698.019531 273.597656 700.558594 275.960938 Z M 713.359375 292.710938 C 711.320312 290.082031 709.070312 287.410156 706.628906 284.753906 L 708.023438 283.46875 C 710.5 286.164062 712.785156 288.875 714.859375 291.550781 Z M 670.785156 297.636719 C 666.753906 297.152344 662.800781 297.035156 658.976562 297.210938 L 658.890625 295.316406 C 662.8125 295.136719 666.867188 295.257812 671.007812 295.753906 Z M 647.234375 298.660156 C 643.167969 299.476562 639.34375 300.578125 635.832031 301.835938 L 635.191406 300.050781 C 638.78125 298.761719 642.699219 297.636719 646.859375 296.800781 Z M 693.320312 304.390625 C 689.652344 302.570312 685.984375 301.136719 682.347656 300.046875 L 682.890625 298.226562 C 686.632812 299.351562 690.402344 300.820312 694.164062 302.691406 Z M 721.9375 305.726562 C 721.164062 304.277344 720.292969 302.78125 719.335938 301.242188 L 720.945312 300.238281 C 721.921875 301.808594 722.816406 303.34375 723.609375 304.835938 Z M 625.039062 306.664062 C 623.15625 307.695312 621.476562 308.738281 620.023438 309.742188 L 618.945312 308.183594 C 620.453125 307.136719 622.191406 306.0625 624.128906 305 Z M 708.148438 314.109375 C 706.589844 312.816406 705.019531 311.609375 703.445312 310.488281 L 704.546875 308.941406 C 706.160156 310.09375 707.765625 311.328125 709.359375 312.648438 Z M 708.148438 314.109375 " fill-opacity="1" fill-rule="evenodd"/><path fill="#f56181" d="M 730.765625 197.109375 L 730.765625 191.253906 L 732.660156 191.253906 L 732.660156 197.109375 Z M 730.765625 220.542969 L 730.765625 208.828125 L 732.660156 208.828125 L 732.660156 220.542969 Z M 730.765625 243.976562 L 730.765625 232.261719 L 732.660156 232.261719 L 732.660156 243.976562 Z M 730.765625 267.410156 L 730.765625 255.691406 L 732.660156 255.691406 L 732.660156 267.410156 Z M 730.765625 290.839844 L 730.765625 279.125 L 732.660156 279.125 L 732.660156 290.839844 Z M 730.765625 308.417969 L 730.765625 302.558594 L 732.660156 302.558594 L 732.660156 308.417969 Z M 730.765625 308.417969 " fill-opacity="1" fill-rule="evenodd"/><path fill="#f56181" d="M 816.921875 249.285156 C 818.632812 249.058594 820.355469 248.894531 822.089844 248.796875 L 821.980469 246.902344 C 820.199219 247.003906 818.429688 247.171875 816.675781 247.402344 Z M 796.902344 254.664062 C 800.117188 253.363281 803.402344 252.238281 806.75 251.332031 L 806.253906 249.5 C 802.828125 250.429688 799.46875 251.574219 796.191406 252.902344 Z M 778.53125 264.425781 C 781.417969 262.519531 784.40625 260.726562 787.480469 259.085938 L 786.585938 257.414062 C 783.457031 259.085938 780.417969 260.90625 777.484375 262.84375 Z M 762.167969 277.351562 C 764.675781 275.019531 767.320312 272.742188 770.085938 270.550781 L 768.910156 269.0625 C 766.101562 271.285156 763.417969 273.597656 760.875 275.960938 Z M 748.078125 292.710938 C 750.117188 290.082031 752.367188 287.410156 754.8125 284.753906 L 753.410156 283.46875 C 750.933594 286.164062 748.648438 288.875 746.578125 291.550781 Z M 790.65625 297.636719 C 794.6875 297.152344 798.636719 297.035156 802.460938 297.210938 L 802.546875 295.316406 C 798.625 295.136719 794.570312 295.257812 790.429688 295.753906 Z M 814.203125 298.660156 C 818.269531 299.476562 822.09375 300.578125 825.605469 301.835938 L 826.246094 300.050781 C 822.652344 298.761719 818.738281 297.636719 814.578125 296.800781 Z M 768.117188 304.390625 C 771.785156 302.570312 775.453125 301.136719 779.089844 300.046875 L 778.546875 298.226562 C 774.804688 299.351562 771.035156 300.820312 767.273438 302.691406 Z M 739.5 305.726562 C 740.277344 304.277344 741.144531 302.78125 742.105469 301.242188 L 740.492188 300.238281 C 739.511719 301.808594 738.625 303.34375 737.828125 304.835938 Z M 836.398438 306.664062 C 838.28125 307.695312 839.960938 308.738281 841.414062 309.742188 L 842.496094 308.183594 C 840.980469 307.136719 839.246094 306.0625 837.308594 305 Z M 753.289062 314.109375 C 754.847656 312.816406 756.417969 311.609375 757.992188 310.488281 L 756.890625 308.941406 C 755.277344 310.09375 753.671875 311.328125 752.074219 312.648438 Z M 753.289062 314.109375 " fill-opacity="1" fill-rule="evenodd"/><path fill="#081854" d="M 717.464844 18.175781 C 707.203125 26.574219 701.898438 40.164062 699.964844 53.480469 C 698.023438 66.816406 699.496094 79.636719 702.53125 86.34375 C 702.75 86.820312 702.535156 87.382812 702.058594 87.601562 C 701.582031 87.816406 701.019531 87.605469 700.804688 87.125 C 697.566406 79.976562 696.117188 66.753906 698.085938 53.207031 C 699.296875 44.871094 701.820312 36.324219 706.082031 28.921875 C 705.222656 29.902344 704.375 30.914062 703.539062 31.957031 C 702.582031 33.152344 700.898438 33.371094 699.644531 32.605469 C 694.5625 29.5 688.480469 28.316406 682.039062 28.765625 C 665.996094 41.675781 660.246094 55.375 659.996094 67.945312 C 659.742188 80.621094 665.078125 92.300781 671.410156 101.027344 C 671.71875 101.449219 671.621094 102.042969 671.199219 102.351562 C 670.773438 102.660156 670.183594 102.566406 669.871094 102.140625 C 663.390625 93.207031 657.835938 81.128906 658.097656 67.90625 C 658.347656 55.316406 663.875 41.820312 678.621094 29.140625 C 662.363281 31.542969 644.1875 42.8125 635.039062 58.445312 C 630.179688 66.738281 627.882812 76.234375 629.722656 86.277344 C 631.5625 96.328125 637.558594 107.03125 649.492188 117.703125 C 649.882812 118.054688 649.917969 118.652344 649.566406 119.042969 C 649.214844 119.433594 648.617188 119.46875 648.226562 119.117188 C 636.058594 108.234375 629.785156 97.175781 627.855469 86.621094 C 625.921875 76.058594 628.351562 66.109375 633.398438 57.484375 C 643.464844 40.292969 664 28.261719 681.605469 26.894531 C 688.460938 26.367188 695.066406 27.582031 700.632812 30.984375 C 701.125 31.285156 701.738281 31.171875 702.058594 30.773438 C 706.46875 25.269531 711.246094 20.59375 716.292969 16.683594 C 731.4375 4.957031 748.980469 0.171875 766.285156 0.695312 C 789.289062 1.398438 811.882812 11.488281 827.917969 27.164062 C 838.464844 37.476562 846.199219 50.226562 849.324219 64.339844 C 870.546875 70.75 880.257812 87.765625 880.582031 105.679688 C 880.910156 123.691406 871.761719 142.691406 855.304688 152.875 C 854.859375 153.152344 854.273438 153.011719 854 152.566406 C 853.722656 152.121094 853.863281 151.535156 854.308594 151.261719 C 870.144531 141.457031 879 123.117188 878.683594 105.714844 C 878.378906 88.789062 869.40625 72.820312 849.75 66.460938 C 853.105469 85.613281 844.734375 110.21875 827.816406 130.890625 C 827.484375 131.296875 826.886719 131.355469 826.480469 131.023438 C 826.074219 130.691406 826.015625 130.09375 826.347656 129.6875 C 843.519531 108.707031 851.542969 83.890625 847.589844 65.289062 C 844.878906 52.535156 838.285156 40.863281 829.152344 31.132812 C 831.515625 41.507812 830.511719 54.957031 827.140625 67.300781 C 825.246094 74.230469 822.597656 80.855469 819.335938 86.441406 C 816.082031 92.019531 812.191406 96.613281 807.789062 99.414062 C 807.347656 99.695312 806.761719 99.566406 806.480469 99.125 C 806.199219 98.679688 806.328125 98.09375 806.769531 97.8125 C 810.824219 95.234375 814.53125 90.910156 817.699219 85.484375 C 820.859375 80.066406 823.449219 73.601562 825.308594 66.800781 C 829.007812 53.265625 829.746094 38.582031 826.425781 28.359375 C 810.78125 13.152344 788.816406 3.347656 766.46875 2.601562 C 730.335938 21.210938 727.253906 58.964844 733.347656 84.859375 C 733.464844 85.371094 733.152344 85.882812 732.640625 86 C 732.128906 86.121094 731.621094 85.804688 731.5 85.292969 C 725.488281 59.753906 728.171875 22.265625 762.566406 2.5625 C 746.871094 2.789062 731.160156 7.574219 717.464844 18.175781 Z M 717.464844 18.175781 " fill-opacity="1" fill-rule="evenodd"/><path fill="#081854" d="M 564.808594 347.667969 C 561.1875 347.691406 558.109375 348.800781 555.578125 350.75 C 545.460938 309.992188 544.386719 249.679688 574.296875 199.9375 C 599.070312 158.746094 649.992188 121.582031 725.9375 117.746094 C 734.585938 117.308594 743.289062 118.082031 751.71875 120.054688 C 839.113281 140.484375 894.964844 204.242188 906.015625 281.421875 C 909.105469 302.972656 908.667969 325.316406 904.410156 347.667969 C 900.46875 340.210938 892.015625 335.21875 881.621094 335.195312 C 851.550781 111.46875 566.175781 154.449219 564.808594 347.667969 Z M 564.808594 347.667969 " fill-opacity="1" fill-rule="nonzero"/><path fill="#081854" d="M 564.808594 347.667969 C 566.203125 150.550781 863.183594 109.796875 883.125 349.0625 L 873.898438 349.0625 C 855.792969 266.097656 787.9375 211.253906 770.289062 203.410156 C 769.671875 203.136719 768.984375 203.289062 768.457031 203.707031 C 649.128906 298.167969 597.039062 264.679688 572.492188 335.226562 C 571.304688 338.640625 569.703125 346.253906 569.703125 348.25 C 567.976562 347.847656 566.34375 347.660156 564.808594 347.667969 Z M 564.808594 347.667969 " fill-opacity="1" fill-rule="nonzero"/><path fill="#081854" d="M 578.308594 191.964844 C 604.722656 153.578125 654.257812 120.417969 725.890625 116.800781 C 734.625 116.359375 743.417969 117.140625 751.933594 119.128906 C 836.8125 138.972656 892.121094 199.542969 905.714844 273.683594 C 909.421875 206.464844 862.851562 126.28125 752.675781 102.523438 C 650.070312 92.472656 594.917969 153.558594 578.308594 191.964844 Z M 906.972656 281.40625 C 914.832031 211.726562 868.253906 125.484375 753.023438 100.65625 L 752.96875 100.644531 L 752.914062 100.640625 C 641.609375 89.710938 585.394531 161.75 573.425781 199.546875 C 543.546875 249.3125 544.5 309.515625 554.511719 350.386719 C 549.703125 354.386719 546.964844 361.246094 546.171875 369.144531 C 545.347656 377.332031 546.589844 386.796875 549.921875 395.773438 C 556.515625 413.558594 571.410156 429.648438 594.96875 429.953125 C 612.460938 480.511719 648.402344 549.886719 724.34375 565.179688 C 730.6875 566.457031 737.253906 566.003906 743.410156 564.09375 C 769.910156 555.886719 795.824219 542.730469 818.011719 519.691406 C 840.0625 496.800781 858.378906 464.203125 869.984375 417.144531 C 877.289062 418.746094 883.9375 416.847656 889.578125 412.746094 C 895.4375 408.484375 900.207031 401.847656 903.613281 394.261719 C 910.347656 379.25 911.886719 360.121094 905.40625 347.523438 C 909.617188 325.21875 910.042969 302.921875 906.972656 281.40625 Z M 903.9375 344.996094 C 907.746094 323.582031 908.035156 302.199219 905.078125 281.554688 C 894.082031 204.777344 838.53125 141.324219 751.503906 120.976562 C 743.160156 119.027344 734.542969 118.261719 725.988281 118.695312 C 650.34375 122.511719 599.714844 159.515625 575.113281 200.425781 C 545.699219 249.339844 546.398438 308.59375 556.167969 349.175781 C 558.394531 347.761719 560.964844 346.914062 563.871094 346.75 C 565.023438 248.171875 639.84375 188.457031 716.945312 183.273438 C 755.625 180.675781 794.914062 191.789062 825.792969 218.625 C 854.300781 243.398438 875.570312 281.511719 882.609375 334.429688 C 882.757812 334.335938 882.9375 334.277344 883.125 334.277344 C 892.859375 334.277344 899.675781 338.476562 903.9375 344.996094 Z M 882.832031 336.128906 C 883.320312 340 883.738281 343.953125 884.074219 347.984375 C 884.113281 348.507812 883.726562 348.964844 883.207031 349.007812 C 882.683594 349.050781 882.222656 348.664062 882.179688 348.140625 C 877.210938 288.527344 855 246.519531 824.546875 220.054688 C 794.089844 193.585938 755.308594 182.597656 717.074219 185.167969 C 640.835938 190.292969 566.921875 249.300781 565.769531 346.738281 C 567.957031 346.835938 570.304688 347.300781 572.804688 348.167969 C 573.296875 348.335938 573.5625 348.878906 573.390625 349.375 C 573.21875 349.867188 572.679688 350.128906 572.183594 349.960938 C 569.480469 349.023438 567.027344 348.605469 564.816406 348.617188 C 561.398438 348.636719 558.519531 349.683594 556.15625 351.503906 C 551.628906 354.988281 548.855469 361.429688 548.058594 369.335938 C 547.269531 377.210938 548.460938 386.382812 551.699219 395.113281 C 558.050781 412.238281 572.167969 427.453125 594.3125 428.042969 C 589.867188 414.96875 586.648438 403.210938 584.28125 394.058594 C 583.617188 391.484375 583.03125 389.167969 582.503906 387.078125 C 582.050781 385.277344 581.636719 383.640625 581.25 382.148438 C 580.425781 378.96875 579.800781 376.742188 579.308594 375.5625 C 579.105469 375.078125 579.335938 374.527344 579.816406 374.324219 C 580.300781 374.121094 580.855469 374.351562 581.058594 374.835938 C 581.613281 376.164062 582.273438 378.53125 583.089844 381.671875 C 583.460938 383.105469 583.878906 384.769531 584.339844 386.597656 C 584.878906 388.726562 585.476562 391.089844 586.121094 393.582031 C 588.554688 403.007812 591.894531 415.179688 596.542969 428.699219 C 613.925781 479.222656 649.539062 548.179688 724.71875 563.316406 C 730.726562 564.527344 736.972656 564.101562 742.851562 562.28125 C 769.125 554.140625 794.730469 541.128906 816.648438 518.375 C 838.558594 495.621094 856.835938 463.074219 868.363281 415.777344 C 871.410156 403.269531 873.988281 389.730469 876.035156 375.066406 C 876.105469 374.546875 876.585938 374.1875 877.105469 374.257812 C 877.625 374.332031 877.988281 374.808594 877.914062 375.328125 C 875.910156 389.6875 873.398438 402.984375 870.433594 415.300781 C 877.125 416.753906 883.210938 415.03125 888.460938 411.210938 C 893.972656 407.199219 898.566406 400.871094 901.882812 393.484375 C 908.53125 378.667969 909.863281 360.007812 903.570312 348.113281 C 899.773438 340.929688 893.191406 336.175781 883.125 336.175781 C 883.023438 336.175781 882.925781 336.160156 882.832031 336.128906 Z M 767.871094 202.960938 C 768.617188 202.371094 769.671875 202.101562 770.671875 202.542969 C 779.6875 206.523438 801.359375 222.054688 823.03125 246.925781 C 844.722656 271.824219 866.492188 306.179688 875.589844 347.859375 C 875.703125 348.371094 875.378906 348.878906 874.867188 348.988281 C 874.351562 349.101562 873.847656 348.777344 873.738281 348.265625 C 864.726562 306.980469 843.148438 272.910156 821.601562 248.171875 C 800.027344 223.414062 778.570312 208.105469 769.90625 204.277344 C 769.671875 204.175781 769.355469 204.203125 769.050781 204.449219 C 713.214844 248.648438 671.65625 265.324219 640.777344 277.714844 C 638.59375 278.59375 636.460938 279.449219 634.386719 280.289062 C 618.648438 286.664062 606.007812 292.238281 595.765625 300.578125 C 585.558594 308.886719 577.675781 319.984375 571.589844 337.484375 C 571.417969 337.980469 570.875 338.242188 570.382812 338.070312 C 569.886719 337.898438 569.625 337.355469 569.796875 336.863281 C 575.980469 319.089844 584.039062 307.671875 594.566406 299.105469 C 605.058594 290.566406 617.953125 284.898438 633.671875 278.53125 C 635.75 277.691406 637.882812 276.835938 640.0625 275.957031 C 670.898438 263.585938 712.25 246.988281 767.871094 202.960938 Z M 767.871094 202.960938 " fill-opacity="1" fill-rule="evenodd"/><path fill="#f56181" d="M 620.183594 417.726562 C 619.578125 416.070312 619.039062 414.355469 618.566406 412.578125 L 620.402344 412.089844 C 620.859375 413.8125 621.382812 415.472656 621.96875 417.078125 Z M 631.152344 436.136719 C 628.835938 433.5 626.695312 430.613281 624.804688 427.445312 L 626.433594 426.472656 C 628.261719 429.535156 630.332031 432.328125 632.578125 434.878906 Z M 704.675781 431.785156 C 703.550781 432.195312 702.109375 433.003906 700.488281 434.199219 L 699.363281 432.671875 C 701.066406 431.414062 702.671875 430.492188 704.03125 430.003906 Z M 647.640625 449.800781 C 644.667969 447.964844 641.722656 445.90625 638.898438 443.589844 L 640.101562 442.125 C 642.851562 444.382812 645.726562 446.390625 648.636719 448.1875 Z M 693.300781 441.148438 C 691.300781 443.570312 689.375 446.378906 687.730469 449.5 L 686.050781 448.617188 C 687.761719 445.371094 689.761719 442.457031 691.835938 439.941406 Z M 666.867188 459.109375 C 663.769531 457.917969 660.449219 456.535156 657.042969 454.90625 L 657.863281 453.195312 C 661.210938 454.796875 664.488281 456.160156 667.550781 457.339844 Z M 684.074219 458.824219 C 683.65625 460.414062 683.328125 462.050781 683.105469 463.734375 C 682.84375 465.726562 682.734375 467.777344 682.800781 469.878906 L 680.90625 469.941406 C 680.84375 467.992188 680.925781 466.082031 681.136719 464.222656 C 679.9375 463.765625 678.511719 463.269531 676.886719 462.703125 L 677.507812 460.910156 C 678.945312 461.410156 680.257812 461.867188 681.398438 462.292969 C 681.617188 460.949219 681.898438 459.628906 682.238281 458.339844 Z M 689.402344 493.925781 C 686.722656 490.09375 684.757812 486.296875 683.394531 482.574219 L 685.175781 481.921875 C 686.480469 485.480469 688.367188 489.132812 690.957031 492.835938 Z M 702.460938 507.929688 C 700.769531 506.5 699.195312 505.070312 697.730469 503.636719 L 699.058594 502.28125 C 700.484375 503.675781 702.027344 505.078125 703.6875 506.476562 Z M 702.460938 507.929688 " fill-opacity="1" fill-rule="evenodd"/><path fill="#f56181" d="M 845.835938 417.726562 C 846.441406 416.070312 846.980469 414.355469 847.453125 412.578125 L 845.617188 412.089844 C 845.160156 413.8125 844.636719 415.472656 844.054688 417.078125 Z M 834.867188 436.136719 C 837.183594 433.5 839.324219 430.613281 841.214844 427.445312 L 839.585938 426.472656 C 837.757812 429.535156 835.6875 432.328125 833.445312 434.878906 Z M 761.34375 431.785156 C 762.46875 432.195312 763.910156 433.003906 765.53125 434.199219 L 766.65625 432.671875 C 764.953125 431.414062 763.347656 430.492188 761.992188 430.003906 Z M 818.378906 449.800781 C 821.355469 447.964844 824.300781 445.90625 827.125 443.589844 L 825.917969 442.125 C 823.167969 444.382812 820.292969 446.390625 817.382812 448.1875 Z M 772.722656 441.148438 C 774.71875 443.570312 776.644531 446.378906 778.292969 449.5 L 779.96875 448.617188 C 778.257812 445.371094 776.257812 442.457031 774.183594 439.941406 Z M 799.152344 459.109375 C 802.25 457.917969 805.574219 456.535156 808.976562 454.90625 L 808.15625 453.195312 C 804.808594 454.796875 801.535156 456.160156 798.46875 457.339844 Z M 781.945312 458.824219 C 782.363281 460.414062 782.691406 462.050781 782.914062 463.734375 C 783.175781 465.726562 783.289062 467.777344 783.21875 469.878906 L 785.113281 469.941406 C 785.179688 467.992188 785.097656 466.082031 784.886719 464.222656 C 786.082031 463.765625 787.507812 463.269531 789.132812 462.703125 L 788.515625 460.910156 C 787.074219 461.410156 785.761719 461.867188 784.621094 462.292969 C 784.402344 460.949219 784.121094 459.628906 783.78125 458.339844 Z M 776.621094 493.925781 C 779.296875 490.09375 781.261719 486.296875 782.625 482.574219 L 780.84375 481.921875 C 779.539062 485.480469 777.652344 489.132812 775.0625 492.835938 Z M 763.558594 507.929688 C 765.25 506.5 766.828125 505.070312 768.289062 503.636719 L 766.964844 502.28125 C 765.535156 503.675781 763.992188 505.078125 762.335938 506.476562 Z M 763.558594 507.929688 " fill-opacity="1" fill-rule="evenodd"/><path fill="#081854" d="M 685.769531 366.761719 C 680.445312 364.679688 673.320312 363.832031 665.058594 366.632812 C 664.5625 366.804688 664.023438 366.539062 663.855469 366.042969 C 663.6875 365.542969 663.953125 365.007812 664.449219 364.835938 C 673.164062 361.882812 680.75 362.761719 686.460938 364.996094 C 689.308594 366.113281 691.691406 367.566406 693.519531 369.050781 C 695.332031 370.519531 696.644531 372.0625 697.292969 373.382812 C 697.523438 373.851562 697.328125 374.417969 696.859375 374.652344 C 696.386719 374.882812 695.820312 374.6875 695.585938 374.214844 C 695.105469 373.230469 694.011719 371.894531 692.324219 370.523438 C 690.648438 369.160156 688.433594 367.804688 685.769531 366.761719 Z M 685.769531 366.761719 " fill-opacity="1" fill-rule="evenodd"/><path fill="#081854" d="M 784.339844 366.761719 C 789.664062 364.679688 796.789062 363.832031 805.046875 366.632812 C 805.542969 366.804688 806.082031 366.539062 806.253906 366.042969 C 806.417969 365.542969 806.152344 365.007812 805.65625 364.835938 C 796.945312 361.882812 789.359375 362.761719 783.648438 364.996094 C 780.800781 366.113281 778.414062 367.566406 776.589844 369.050781 C 774.777344 370.519531 773.464844 372.0625 772.816406 373.382812 C 772.585938 373.851562 772.78125 374.417969 773.25 374.652344 C 773.722656 374.882812 774.289062 374.6875 774.519531 374.214844 C 775.003906 373.230469 776.097656 371.894531 777.785156 370.523438 C 779.460938 369.160156 781.675781 367.804688 784.339844 366.761719 Z M 784.339844 366.761719 " fill-opacity="1" fill-rule="evenodd"/><path fill="#081854" d="M 638.808594 363.046875 C 639.277344 363.28125 639.472656 363.847656 639.242188 364.320312 C 639.242188 364.316406 639.242188 364.316406 639.242188 364.316406 C 639.242188 364.316406 639.226562 364.359375 639.210938 364.476562 C 639.191406 364.601562 639.183594 364.769531 639.1875 364.988281 C 639.199219 365.421875 639.261719 365.988281 639.382812 366.65625 C 639.625 367.992188 640.085938 369.660156 640.746094 371.359375 C 641.40625 373.0625 642.257812 374.769531 643.261719 376.199219 C 644.179688 377.503906 645.191406 378.527344 646.253906 379.136719 C 659.742188 374.730469 678.898438 373.886719 698.9375 386.859375 C 699.375 387.144531 699.5 387.734375 699.214844 388.171875 C 698.929688 388.613281 698.34375 388.738281 697.902344 388.453125 C 678.242188 375.71875 659.527344 376.699219 646.472656 381.0625 C 643.167969 382.167969 640.230469 383.488281 637.734375 384.859375 C 635.574219 386.042969 633.75 387.261719 632.308594 388.402344 C 631.898438 388.726562 631.300781 388.65625 630.976562 388.246094 C 630.648438 387.835938 630.71875 387.238281 631.128906 386.914062 C 632.363281 385.9375 633.839844 384.921875 635.539062 383.921875 C 633.082031 382.007812 630.714844 379.519531 628.976562 376.851562 C 626.976562 373.773438 625.714844 370.292969 626.34375 367.109375 C 626.441406 366.597656 626.941406 366.261719 627.457031 366.363281 C 627.96875 366.464844 628.304688 366.960938 628.203125 367.476562 C 627.71875 369.949219 628.679688 372.90625 630.570312 375.816406 C 632.332031 378.527344 634.820312 381.066406 637.347656 382.910156 C 639.34375 381.84375 641.589844 380.820312 644.054688 379.90625 C 643.179688 379.175781 642.398438 378.269531 641.710938 377.289062 C 640.59375 375.699219 639.679688 373.847656 638.976562 372.046875 C 638.277344 370.242188 637.78125 368.460938 637.515625 366.996094 C 637.382812 366.265625 637.304688 365.59375 637.289062 365.027344 C 637.28125 364.507812 637.320312 363.925781 637.539062 363.480469 C 637.769531 363.011719 638.335938 362.816406 638.808594 363.046875 Z M 638.808594 363.046875 " fill-opacity="1" fill-rule="evenodd"/><path fill="#081854" d="M 829.320312 363.046875 C 828.847656 363.28125 828.65625 363.847656 828.886719 364.320312 C 828.886719 364.316406 828.886719 364.316406 828.886719 364.316406 C 828.886719 364.316406 828.902344 364.359375 828.917969 364.476562 C 828.933594 364.601562 828.945312 364.769531 828.9375 364.988281 C 828.929688 365.421875 828.867188 365.988281 828.746094 366.65625 C 828.503906 367.992188 828.042969 369.660156 827.382812 371.359375 C 826.71875 373.0625 825.871094 374.769531 824.863281 376.199219 C 823.949219 377.503906 822.9375 378.527344 821.871094 379.136719 C 808.382812 374.730469 789.226562 373.886719 769.191406 386.859375 C 768.753906 387.144531 768.628906 387.734375 768.914062 388.171875 C 769.195312 388.613281 769.785156 388.738281 770.222656 388.453125 C 789.886719 375.71875 808.601562 376.699219 821.65625 381.0625 C 824.957031 382.167969 827.894531 383.488281 830.394531 384.859375 C 832.554688 386.042969 834.378906 387.261719 835.820312 388.402344 C 836.230469 388.726562 836.828125 388.65625 837.152344 388.246094 C 837.480469 387.835938 837.410156 387.238281 836.996094 386.914062 C 835.765625 385.9375 834.285156 384.921875 832.589844 383.921875 C 835.046875 382.007812 837.414062 379.519531 839.148438 376.851562 C 841.148438 373.773438 842.410156 370.292969 841.785156 367.109375 C 841.683594 366.597656 841.1875 366.261719 840.671875 366.363281 C 840.160156 366.464844 839.824219 366.960938 839.921875 367.476562 C 840.410156 369.949219 839.449219 372.90625 837.558594 375.816406 C 835.792969 378.527344 833.308594 381.066406 830.78125 382.910156 C 828.785156 381.84375 826.535156 380.820312 824.070312 379.90625 C 824.949219 379.175781 825.730469 378.269531 826.417969 377.289062 C 827.535156 375.699219 828.449219 373.847656 829.152344 372.046875 C 829.851562 370.242188 830.347656 368.460938 830.613281 366.996094 C 830.746094 366.265625 830.824219 365.59375 830.835938 365.027344 C 830.847656 364.507812 830.808594 363.925781 830.589844 363.480469 C 830.359375 363.011719 829.789062 362.816406 829.320312 363.046875 Z M 829.320312 363.046875 " fill-opacity="1" fill-rule="evenodd"/><path fill="#081854" d="M 717.941406 511.558594 C 718.164062 511.085938 718.730469 510.882812 719.207031 511.105469 C 727.226562 514.878906 736.515625 514.878906 744.539062 511.105469 C 745.011719 510.882812 745.578125 511.085938 745.800781 511.558594 C 746.023438 512.035156 745.820312 512.597656 745.347656 512.820312 C 736.8125 516.835938 726.933594 516.835938 718.398438 512.820312 C 717.921875 512.597656 717.71875 512.035156 717.941406 511.558594 Z M 717.941406 511.558594 " fill-opacity="1" fill-rule="evenodd"/><path fill="#ffffff" d="M 692.480469 478.722656 C 698.613281 488.550781 714.605469 495.554688 733.363281 495.554688 C 752.125 495.554688 768.113281 488.550781 774.25 478.722656 Z M 692.480469 478.722656 " fill-opacity="1" fill-rule="nonzero"/><path fill="#081854" d="M 690.765625 477.777344 L 775.960938 477.777344 L 775.054688 479.226562 C 771.851562 484.359375 766.132812 488.671875 758.90625 491.695312 C 751.671875 494.730469 742.859375 496.5 733.363281 496.5 C 723.871094 496.5 715.058594 494.730469 707.820312 491.695312 C 700.597656 488.671875 694.878906 484.359375 691.675781 479.226562 Z M 694.28125 479.671875 C 697.347656 483.761719 702.292969 487.324219 708.554688 489.949219 C 715.535156 492.875 724.097656 494.605469 733.363281 494.605469 C 742.628906 494.605469 751.191406 492.875 758.171875 489.949219 C 764.4375 487.324219 769.378906 483.761719 772.445312 479.671875 Z M 694.28125 479.671875 " fill-opacity="1" fill-rule="evenodd"/><path fill="#081854" d="M 678.425781 322.539062 C 650.253906 316.738281 631.511719 319.046875 605.632812 327.191406 C 605.132812 327.347656 604.597656 327.070312 604.441406 326.570312 C 604.285156 326.070312 604.5625 325.539062 605.0625 325.378906 C 631.183594 317.164062 650.257812 314.800781 678.808594 320.683594 C 679.324219 320.789062 679.652344 321.289062 679.546875 321.804688 C 679.441406 322.316406 678.9375 322.644531 678.425781 322.539062 Z M 678.425781 322.539062 " fill-opacity="1" fill-rule="evenodd"/><path fill="#081854" d="M 769.898438 322.539062 C 798.074219 316.738281 816.816406 319.046875 842.695312 327.191406 C 843.191406 327.347656 843.726562 327.070312 843.882812 326.570312 C 844.042969 326.070312 843.761719 325.539062 843.261719 325.378906 C 817.140625 317.164062 798.066406 314.800781 769.519531 320.683594 C 769.003906 320.789062 768.671875 321.289062 768.78125 321.804688 C 768.886719 322.316406 769.386719 322.644531 769.898438 322.539062 Z M 769.898438 322.539062 " fill-opacity="1" fill-rule="evenodd"/><path fill="#f56181" d="M 635.246094 469.71875 C 634.339844 468.09375 633.445312 466.4375 632.546875 464.75 L 634.226562 463.859375 C 635.113281 465.539062 636.007812 467.183594 636.902344 468.796875 Z M 826.957031 464.617188 C 826.363281 466.316406 825.714844 468.027344 825.007812 469.738281 L 823.253906 469.011719 C 823.945312 467.335938 824.585938 465.660156 825.167969 463.992188 Z M 647.113281 488.949219 C 645.039062 485.9375 642.984375 482.78125 640.945312 479.472656 L 642.5625 478.476562 C 644.585938 481.761719 646.625 484.890625 648.675781 487.875 Z M 820.332031 479.640625 C 818.644531 482.804688 816.785156 485.957031 814.761719 489.058594 L 813.171875 488.023438 C 815.164062 484.964844 816.996094 481.863281 818.65625 478.746094 Z M 808.40625 497.960938 C 806.1875 500.820312 803.828125 503.609375 801.34375 506.3125 L 799.945312 505.027344 C 802.394531 502.367188 804.71875 499.617188 806.910156 496.796875 Z M 661.042969 506.773438 C 658.609375 504.058594 656.1875 501.160156 653.789062 498.078125 L 655.289062 496.914062 C 657.660156 499.960938 660.054688 502.824219 662.457031 505.507812 Z M 731.710938 501.988281 C 729.453125 501.988281 727.242188 502.148438 725.089844 502.453125 L 724.824219 500.574219 C 727.0625 500.257812 729.363281 500.089844 731.710938 500.089844 C 733.988281 500.089844 736.21875 500.246094 738.390625 500.546875 L 738.136719 502.425781 C 736.046875 502.140625 733.898438 501.988281 731.710938 501.988281 Z M 761.074219 513.03125 C 758.089844 510.191406 754.496094 507.785156 750.457031 505.949219 L 751.242188 504.222656 C 755.464844 506.140625 759.234375 508.664062 762.382812 511.65625 Z M 712.421875 506.203125 C 708.277344 508.15625 704.625 510.71875 701.632812 513.726562 L 700.289062 512.390625 C 703.441406 509.214844 707.28125 506.53125 711.613281 504.488281 Z M 793.609375 514.050781 C 790.925781 516.515625 788.128906 518.871094 785.234375 521.09375 L 784.078125 519.589844 C 786.925781 517.402344 789.679688 515.082031 792.324219 512.652344 Z M 677.492188 522.355469 C 674.625 520.097656 671.765625 517.617188 668.921875 514.914062 L 670.230469 513.539062 C 673.03125 516.203125 675.84375 518.644531 678.664062 520.863281 Z M 770.011719 528.804688 C 769.652344 526.941406 769.097656 525.128906 768.359375 523.382812 L 770.109375 522.644531 C 770.8125 524.316406 771.367188 526.046875 771.75 527.828125 C 772.925781 527.15625 774.085938 526.457031 775.238281 525.738281 L 776.246094 527.347656 C 774.695312 528.316406 773.121094 529.246094 771.53125 530.136719 C 770.007812 530.980469 768.46875 531.789062 766.914062 532.554688 L 766.074219 530.851562 C 767.398438 530.203125 768.714844 529.515625 770.011719 528.804688 Z M 691.375 529.421875 C 690.175781 528.75 688.980469 528.035156 687.78125 527.289062 L 686.777344 528.898438 C 688.410156 529.917969 690.046875 530.875 691.683594 531.761719 C 693.234375 532.609375 694.789062 533.394531 696.339844 534.125 L 697.148438 532.40625 C 695.816406 531.78125 694.484375 531.113281 693.152344 530.402344 C 693.410156 528.433594 693.882812 526.519531 694.558594 524.671875 L 692.773438 524.023438 C 692.136719 525.765625 691.667969 527.570312 691.375 529.421875 Z M 757.324219 536.648438 C 754.050781 537.835938 750.710938 538.835938 747.320312 539.621094 L 746.890625 537.773438 C 750.203125 537.003906 753.46875 536.027344 756.675781 534.867188 Z M 716.183594 540.507812 C 712.820312 539.90625 709.4375 539.0625 706.050781 537.964844 L 706.632812 536.160156 C 709.941406 537.230469 713.242188 538.050781 716.519531 538.640625 Z M 737.015625 541.324219 C 733.574219 541.664062 730.089844 541.773438 726.574219 541.636719 L 726.644531 539.742188 C 730.074219 539.875 733.46875 539.765625 736.832031 539.433594 Z M 737.015625 541.324219 " fill-opacity="1" fill-rule="evenodd"/><path fill="#f56181" d="M 803.015625 344.3125 C 799.574219 344.703125 796.191406 345.320312 792.921875 346.121094 L 792.472656 344.277344 C 795.816406 343.460938 799.273438 342.828125 802.800781 342.425781 Z M 823.394531 344.957031 C 820.035156 344.308594 816.636719 343.953125 813.242188 343.859375 L 813.296875 341.960938 C 816.785156 342.058594 820.289062 342.421875 823.757812 343.09375 Z M 783.117188 349.140625 C 779.757812 350.398438 776.613281 351.820312 773.75 353.332031 L 772.863281 351.652344 C 775.796875 350.105469 779.019531 348.648438 782.449219 347.367188 Z M 842.226562 352.457031 C 839.3125 350.566406 836.285156 349.023438 833.179688 347.792969 L 833.878906 346.03125 C 837.09375 347.304688 840.234375 348.902344 843.257812 350.867188 Z M 765.128906 358.796875 C 763.683594 359.914062 762.417969 361.027344 761.351562 362.125 L 759.992188 360.800781 C 761.128906 359.632812 762.464844 358.457031 763.96875 357.292969 Z M 853.644531 362.550781 C 852.515625 361.222656 851.347656 359.980469 850.15625 358.816406 L 851.480469 357.457031 C 852.71875 358.664062 853.921875 359.953125 855.089844 361.324219 Z M 853.644531 362.550781 " fill-opacity="1" fill-rule="evenodd"/><path fill="#f56181" d="M 810.328125 417.605469 C 806.761719 417.710938 803.167969 417.511719 799.617188 416.988281 L 799.339844 418.867188 C 803.007812 419.40625 806.710938 419.613281 810.386719 419.5 Z M 831.25 413.25 C 827.964844 414.578125 824.519531 415.617188 820.984375 416.351562 L 821.371094 418.207031 C 825.015625 417.453125 828.570312 416.378906 831.964844 415.007812 Z M 789.203125 414.457031 C 785.847656 413.296875 782.589844 411.808594 779.480469 409.984375 L 778.519531 411.617188 C 781.738281 413.511719 785.113281 415.046875 788.582031 416.25 Z M 848.96875 401.496094 C 846.523438 404.042969 843.757812 406.316406 840.746094 408.296875 L 841.785156 409.882812 C 844.914062 407.828125 847.789062 405.464844 850.339844 402.808594 Z M 770.871094 403.640625 C 768.300781 401.300781 765.910156 398.648438 763.746094 395.675781 L 762.210938 396.789062 C 764.449219 399.871094 766.925781 402.617188 769.59375 405.042969 Z M 857.601562 388.15625 C 856.945312 389.820312 856.183594 391.425781 855.320312 392.964844 L 856.976562 393.890625 C 857.878906 392.277344 858.679688 390.597656 859.367188 388.847656 Z M 758.300781 386.4375 C 757.550781 384.851562 756.855469 383.199219 756.214844 381.480469 L 754.4375 382.140625 C 755.09375 383.910156 755.8125 385.613281 756.582031 387.25 Z M 758.300781 386.4375 " fill-opacity="1" fill-rule="evenodd"/><path fill="#f56181" d="M 796.699219 506.996094 C 842.523438 536.359375 931.726562 524.59375 986.40625 621.898438 C 989.050781 626.605469 988.339844 632.472656 984.820312 636.5625 L 979.609375 642.621094 C 968.59375 655.421875 955.496094 666.273438 940.867188 674.710938 L 925.667969 683.476562 C 922.96875 685.035156 919.601562 684.746094 917.042969 682.972656 C 884.503906 660.390625 851.140625 673.914062 824.75 664.144531 C 821.519531 662.945312 819.027344 660.429688 817.105469 657.570312 C 816.152344 656.15625 815.121094 654.722656 814.136719 653.515625 C 812.140625 651.085938 809.109375 649.574219 806.875 647.363281 C 804.519531 645.027344 802.695312 642.464844 801.039062 639.65625 C 796.425781 631.820312 793.136719 622.058594 783.292969 609.914062 C 776.921875 604.925781 770.535156 598.515625 764.875 590.242188 C 763.027344 587.546875 761.777344 584.5 760.949219 581.339844 L 757.0625 565.601562 L 777.976562 556.308594 L 781.894531 565.511719 L 783.835938 558.226562 C 786.089844 549.757812 797.414062 548.160156 801.925781 555.671875 C 802.816406 557.15625 803.300781 558.84375 803.335938 560.570312 L 803.847656 585.589844 C 804.539062 585.894531 805.242188 586.183594 805.949219 586.457031 L 805.832031 578.921875 C 805.757812 573.878906 810.582031 570.207031 815.417969 571.621094 C 818.585938 572.542969 820.773438 575.433594 820.804688 578.730469 L 820.910156 589.144531 C 827.121094 588.71875 833.15625 585.980469 838.105469 579.335938 C 840.292969 576.402344 841.242188 572.464844 839.300781 569.363281 C 831.320312 556.636719 798.542969 547.460938 777.019531 523.878906 C 773.523438 520.046875 773.476562 514.328125 776.378906 510.035156 C 780.769531 503.542969 790.101562 502.769531 796.699219 506.996094 Z M 796.699219 506.996094 " fill-opacity="1" fill-rule="nonzero"/><path fill="#f56181" d="M 368.421875 543.363281 C 363.070312 574.636719 374.324219 614.132812 399.0625 623.253906 C 399.351562 623.359375 399.660156 623.390625 399.964844 623.34375 C 482.554688 611.027344 576.246094 543.59375 597.59375 523.605469 C 600.234375 521.132812 600.511719 517.351562 598.800781 514.164062 C 596.433594 509.757812 591.074219 507.917969 586.5 509.941406 L 569.285156 517.546875 C 568.066406 515.421875 568.625 512.722656 570.585938 511.257812 L 617.304688 476.402344 C 623.152344 472.042969 623.355469 463.351562 617.714844 458.722656 C 614.59375 456.164062 610.339844 455.472656 606.570312 456.914062 L 568.515625 471.488281 L 622.660156 427.945312 C 628.277344 423.429688 628.011719 414.800781 622.128906 410.640625 C 619.628906 408.871094 616.488281 408.210938 613.539062 409.039062 C 606.117188 411.117188 598.128906 414.292969 590.050781 418.089844 C 588.378906 410.722656 581.457031 405.671875 573.988281 406.835938 C 492.726562 419.476562 450.78125 475.910156 434.871094 499.199219 C 430.46875 505.636719 424.832031 510.902344 418.164062 514.953125 C 400.53125 525.667969 376.890625 539.246094 369.980469 541.664062 C 369.207031 541.933594 368.558594 542.558594 368.421875 543.363281 Z M 368.421875 543.363281 " fill-opacity="1" fill-rule="nonzero"/><path fill="#081854" d="M 613.285156 408.125 C 616.535156 407.214844 619.964844 407.945312 622.675781 409.863281 C 629.070312 414.386719 629.363281 423.773438 623.253906 428.683594 L 573.816406 468.445312 L 606.230469 456.03125 C 610.316406 454.464844 614.929688 455.210938 618.316406 457.988281 C 624.433594 463.007812 624.214844 472.433594 617.875 477.164062 L 571.152344 512.019531 C 569.808594 513.023438 569.28125 514.75 569.769531 516.296875 L 586.117188 509.070312 C 591.144531 506.851562 597.035156 508.875 599.636719 513.714844 C 601.511719 517.207031 601.253906 521.476562 598.242188 524.300781 C 587.5 534.355469 558.675781 556.253906 522.21875 577.175781 C 485.761719 598.09375 441.570312 618.101562 400.105469 624.285156 C 399.644531 624.351562 399.175781 624.304688 398.734375 624.144531 C 385.988281 619.445312 376.84375 606.984375 371.5625 591.929688 C 366.273438 576.855469 364.785156 559 367.488281 543.203125 C 367.695312 541.980469 368.652344 541.121094 369.667969 540.765625 C 373.027344 539.59375 380.585938 535.640625 389.585938 530.589844 C 398.554688 525.5625 408.859375 519.496094 417.671875 514.140625 C 424.226562 510.160156 429.765625 504.988281 434.085938 498.664062 C 450.03125 475.320312 492.175781 418.601562 573.84375 405.898438 C 581.449219 404.714844 588.480469 409.546875 590.679688 416.75 C 598.433594 413.152344 606.109375 410.132812 613.285156 408.125 Z M 588.9375 417.566406 C 587.089844 411.054688 580.828125 406.730469 574.136719 407.773438 C 493.277344 420.347656 451.527344 476.5 435.652344 499.734375 C 431.175781 506.289062 425.433594 511.648438 418.65625 515.765625 C 409.832031 521.125 399.503906 527.203125 390.515625 532.246094 C 381.5625 537.269531 373.84375 541.316406 370.292969 542.558594 C 369.765625 542.742188 369.425781 543.136719 369.359375 543.523438 C 366.707031 559.003906 368.171875 576.53125 373.355469 591.304688 C 378.546875 606.097656 387.398438 617.941406 399.390625 622.363281 C 399.527344 622.414062 399.671875 622.429688 399.824219 622.40625 C 440.945312 616.273438 484.898438 596.402344 521.273438 575.53125 C 557.644531 554.65625 586.339844 532.84375 596.945312 522.914062 C 599.214844 520.789062 599.511719 517.496094 597.964844 514.613281 C 595.832031 510.644531 591.003906 508.988281 586.882812 510.808594 L 553.558594 525.53125 C 553.078125 525.742188 552.519531 525.527344 552.308594 525.046875 C 552.09375 524.566406 552.3125 524.007812 552.792969 523.796875 L 568.023438 517.066406 C 567.191406 514.71875 567.957031 512.039062 570.015625 510.5 L 616.738281 475.644531 C 622.09375 471.652344 622.273438 463.691406 617.113281 459.457031 C 614.253906 457.109375 610.359375 456.480469 606.90625 457.800781 L 545.082031 481.480469 C 544.589844 481.667969 544.042969 481.425781 543.855469 480.933594 C 543.667969 480.445312 543.910156 479.898438 544.402344 479.710938 L 568.035156 470.660156 L 622.066406 427.207031 C 627.191406 423.085938 626.949219 415.210938 621.578125 411.414062 C 619.292969 409.792969 616.445312 409.207031 613.796875 409.949219 C 606.4375 412.011719 598.5 415.167969 590.457031 418.949219 C 574.640625 426.386719 558.46875 436.230469 545.527344 444.898438 C 532.566406 453.578125 522.910156 461.042969 520.101562 463.707031 C 519.71875 464.066406 519.117188 464.050781 518.757812 463.671875 C 518.398438 463.289062 518.414062 462.691406 518.792969 462.332031 C 521.726562 459.546875 531.5 452.011719 544.46875 443.324219 C 557.265625 434.75 573.234375 425.019531 588.9375 417.566406 Z M 588.9375 417.566406 " fill-opacity="1" fill-rule="evenodd"/><path fill="#f56181" d="M 484.894531 300.472656 L 453.113281 316.359375 C 404.355469 290.554688 399.769531 242.671875 408.351562 218.757812 C 408.988281 216.980469 410.234375 215.550781 411.824219 214.539062 C 449.640625 190.535156 528.886719 144.15625 551.4375 142.601562 C 593.152344 144.585938 640.824219 149.550781 644.796875 166.429688 C 651.746094 171.394531 661.480469 181.523438 660.6875 186.289062 C 668.632812 187.652344 681.542969 200.191406 681.542969 223.167969 C 690.671875 228.707031 698.824219 234.996094 705.058594 242.09375 C 706.621094 243.875 707.574219 246.09375 707.980469 248.429688 C 709.882812 259.464844 699.777344 266.640625 690.039062 261.101562 C 667.601562 248.335938 633.808594 230.945312 609.039062 232.953125 C 556.402344 230.96875 543.691406 260.757812 554.417969 278.628906 C 562.363281 291.867188 588.359375 312.171875 602.40625 335.347656 C 605.484375 340.421875 604.027344 346.832031 599.574219 350.761719 C 594.261719 355.445312 586.277344 355.207031 580.695312 350.847656 C 553.914062 329.9375 519.402344 319.933594 484.894531 300.472656 Z M 484.894531 300.472656 " fill-opacity="1" fill-rule="nonzero"/><path fill="#081854" d="M 551.425781 141.648438 L 551.480469 141.652344 C 572.347656 142.644531 594.753906 144.386719 612.457031 148 C 621.308594 149.808594 629.035156 152.09375 634.824219 155.019531 C 640.441406 157.855469 644.421875 161.394531 645.628906 165.863281 C 649.109375 168.390625 653.203125 172.113281 656.367188 175.816406 C 657.992188 177.71875 659.398438 179.644531 660.351562 181.425781 C 661.101562 182.824219 661.628906 184.238281 661.675781 185.527344 C 665.835938 186.570312 670.839844 190.179688 674.878906 196.085938 C 679.144531 202.332031 682.390625 211.222656 682.488281 222.632812 C 691.488281 228.136719 699.558594 234.398438 705.769531 241.46875 C 707.46875 243.398438 708.484375 245.785156 708.914062 248.265625 C 709.921875 254.113281 707.75 259.042969 703.921875 261.753906 C 700.089844 264.464844 694.730469 264.863281 689.570312 261.925781 C 678.363281 255.550781 664.351562 248.039062 650.0625 242.371094 C 635.753906 236.695312 621.28125 232.914062 609.117188 233.902344 L 609.0625 233.90625 L 609.003906 233.902344 C 582.84375 232.917969 566.835938 239.832031 558.675781 248.976562 C 550.53125 258.101562 550.082031 269.5625 555.230469 278.140625 C 557.164062 281.367188 560.222656 285.058594 563.992188 289.175781 C 566.738281 292.179688 569.828125 295.378906 573.097656 298.761719 C 574.3125 300.015625 575.554688 301.296875 576.808594 302.601562 C 586.054688 312.230469 596.132812 323.167969 603.21875 334.855469 C 606.570312 340.382812 604.945312 347.289062 600.203125 351.472656 C 594.503906 356.496094 586.007812 356.199219 580.113281 351.59375 C 566.8125 341.210938 551.574219 333.523438 535.292969 325.976562 C 531.917969 324.414062 528.496094 322.855469 525.039062 321.28125 C 511.988281 315.339844 498.425781 309.164062 484.867188 301.546875 L 453.097656 317.425781 L 452.667969 317.199219 C 403.433594 291.140625 398.742188 242.726562 407.460938 218.433594 C 408.175781 216.4375 409.570312 214.84375 411.316406 213.738281 C 430.238281 201.726562 459.523438 184.117188 486.90625 169.316406 C 500.59375 161.914062 513.820312 155.210938 525.042969 150.253906 C 536.222656 145.316406 545.546875 142.054688 551.371094 141.652344 Z M 482.414062 300.652344 C 471.882812 296.921875 462.800781 290.199219 454.113281 283.769531 C 452.800781 282.796875 451.496094 281.832031 450.195312 280.886719 C 439.632812 273.183594 429.433594 266.667969 417.359375 266.667969 C 416.835938 266.667969 416.410156 266.246094 416.410156 265.722656 C 416.410156 265.199219 416.835938 264.773438 417.359375 264.773438 C 430.113281 264.773438 440.769531 271.664062 451.3125 279.351562 C 452.628906 280.308594 453.945312 281.285156 455.261719 282.257812 C 464.574219 289.144531 474.03125 296.140625 485.171875 299.566406 L 485.269531 299.597656 L 485.359375 299.648438 C 498.988281 307.332031 512.605469 313.535156 525.789062 319.539062 C 529.253906 321.117188 532.691406 322.683594 536.089844 324.257812 C 552.390625 331.808594 567.796875 339.574219 581.28125 350.101562 C 586.550781 354.214844 594.019531 354.394531 598.945312 350.046875 C 603.109375 346.378906 604.398438 340.464844 601.59375 335.839844 C 594.632812 324.351562 584.6875 313.546875 575.4375 303.917969 C 574.195312 302.625 572.960938 301.347656 571.75 300.097656 C 568.472656 296.707031 565.355469 293.480469 562.589844 290.457031 C 558.808594 286.324219 555.640625 282.511719 553.601562 279.117188 C 548.023438 269.824219 548.566406 257.453125 557.257812 247.714844 C 565.925781 237.996094 582.574219 231.015625 609.019531 232.003906 C 621.613281 231 636.398438 234.90625 650.761719 240.605469 C 665.171875 246.320312 679.277344 253.886719 690.511719 260.277344 C 695.085938 262.878906 699.644531 262.457031 702.824219 260.207031 C 706.007812 257.953125 707.9375 253.777344 707.042969 248.589844 C 706.664062 246.398438 705.777344 244.347656 704.34375 242.71875 C 698.195312 235.71875 690.125 229.484375 681.050781 223.980469 C 645.589844 202.476562 595.261719 192.425781 586.070312 191.199219 C 585.554688 191.132812 585.1875 190.652344 585.257812 190.136719 C 585.324219 189.617188 585.804688 189.25 586.324219 189.320312 C 595.496094 190.542969 644.882812 200.382812 680.570312 221.480469 C 680.269531 210.992188 677.210938 202.867188 673.308594 197.15625 C 669.179688 191.109375 664.160156 187.847656 660.527344 187.222656 L 660.519531 187.222656 C 649.441406 185.238281 632.128906 182.460938 616.203125 180.578125 C 608.242188 179.636719 600.636719 178.917969 594.339844 178.636719 C 587.996094 178.347656 583.109375 178.511719 580.5 179.257812 C 579.996094 179.402344 579.46875 179.109375 579.328125 178.605469 C 579.183594 178.101562 579.472656 177.574219 579.976562 177.433594 C 582.929688 176.589844 588.109375 176.453125 594.425781 176.738281 C 600.789062 177.027344 608.441406 177.75 616.425781 178.695312 C 631.875 180.519531 648.609375 183.183594 659.738281 185.15625 C 659.621094 184.386719 659.277344 183.4375 658.679688 182.320312 C 657.8125 180.703125 656.5 178.894531 654.925781 177.050781 C 651.828125 173.425781 647.804688 169.773438 644.425781 167.332031 L 586.054688 158.429688 C 585.535156 158.351562 585.179688 157.871094 585.257812 157.351562 C 585.339844 156.832031 585.824219 156.476562 586.339844 156.554688 L 643.425781 165.261719 C 642.101562 162.035156 638.878906 159.191406 633.96875 156.710938 C 628.398438 153.894531 620.859375 151.652344 612.078125 149.859375 C 594.542969 146.277344 572.28125 144.542969 551.449219 143.550781 C 545.992188 143.941406 536.976562 147.058594 525.8125 151.988281 C 514.652344 156.917969 501.476562 163.597656 487.804688 170.984375 C 460.472656 185.761719 431.226562 203.347656 412.332031 215.339844 C 410.898438 216.25 409.804688 217.527344 409.246094 219.078125 C 400.824219 242.546875 405.253906 289.6875 453.125 315.292969 Z M 482.414062 300.652344 " fill-opacity="1" fill-rule="evenodd"/><path fill="#f56181" d="M 791.019531 578.1875 C 787.160156 575.421875 784.429688 571.453125 782.566406 567.085938 L 781.894531 565.511719 L 783.835938 558.226562 C 786.089844 549.757812 797.414062 548.160156 801.925781 555.671875 C 802.816406 557.15625 803.300781 558.84375 803.335938 560.570312 L 803.847656 585.589844 C 798.839844 583.398438 794.355469 580.574219 791.019531 578.1875 Z M 791.019531 578.1875 " fill-opacity="1" fill-rule="nonzero"/><path fill="#081854" d="M 775.59375 509.503906 C 780.34375 502.480469 790.296875 501.765625 797.210938 506.199219 C 808.671875 513.539062 822.839844 518.289062 838.605469 522.859375 C 842.128906 523.882812 845.734375 524.894531 849.40625 525.925781 C 862.101562 529.492188 875.570312 533.277344 889.179688 538.402344 C 924.332031 551.640625 960.546875 573.851562 987.910156 624.574219 C 989.550781 627.621094 989.253906 631.394531 987.1875 634.15625 C 970.976562 655.875 949.53125 673.261719 924.90625 684.589844 C 921.804688 686.019531 918.210938 685.523438 915.46875 683.605469 C 899.4375 672.402344 883.445312 670.191406 868.070312 669.585938 C 864.832031 669.457031 861.589844 669.402344 858.371094 669.34375 C 854.011719 669.269531 849.703125 669.195312 845.535156 668.945312 C 838.234375 668.503906 831.15625 667.523438 824.421875 665.03125 C 820.933594 663.742188 818.296875 661.046875 816.320312 658.101562 C 815.375 656.699219 814.363281 655.292969 813.402344 654.117188 C 812.484375 653 811.3125 652.074219 810.027344 651.117188 C 809.863281 650.992188 809.691406 650.867188 809.523438 650.742188 C 808.40625 649.917969 807.230469 649.046875 806.207031 648.035156 C 803.773438 645.625 801.902344 642.992188 800.222656 640.136719 C 798.792969 637.707031 797.503906 635.140625 796.136719 632.40625 C 792.992188 626.132812 789.40625 618.984375 782.621094 610.59375 C 776.210938 605.5625 769.785156 599.101562 764.089844 590.78125 C 762.171875 587.976562 760.882812 584.820312 760.03125 581.582031 L 760.027344 581.566406 L 754.664062 559.675781 C 754.539062 559.167969 754.851562 558.652344 755.359375 558.527344 C 755.867188 558.40625 756.382812 558.714844 756.507812 559.226562 L 761.867188 581.105469 C 762.675781 584.183594 763.886719 587.125 765.65625 589.707031 C 771.257812 597.890625 777.578125 604.234375 783.878906 609.164062 C 797.152344 619.558594 810.335938 623.699219 816.65625 625.683594 C 817.554688 625.96875 818.316406 626.207031 818.917969 626.414062 C 819.414062 626.582031 819.675781 627.121094 819.507812 627.617188 C 819.335938 628.113281 818.796875 628.375 818.300781 628.207031 C 817.722656 628.007812 816.980469 627.773438 816.097656 627.5 C 810.605469 625.773438 799.632812 622.335938 787.921875 614.449219 C 792.507812 620.925781 795.40625 626.703125 797.941406 631.757812 C 799.28125 634.433594 800.523438 636.910156 801.859375 639.175781 C 803.484375 641.9375 805.261719 644.425781 807.542969 646.6875 C 808.460938 647.59375 809.519531 648.378906 810.640625 649.207031 C 810.8125 649.335938 810.988281 649.464844 811.164062 649.59375 C 812.449219 650.554688 813.792969 651.601562 814.867188 652.917969 C 815.882812 654.152344 816.933594 655.613281 817.890625 657.042969 C 819.753906 659.8125 822.109375 662.152344 825.078125 663.253906 C 831.5625 665.652344 838.433594 666.617188 845.648438 667.050781 C 849.8125 667.296875 854.019531 667.371094 858.320312 667.445312 C 861.535156 667.5 864.800781 667.554688 868.144531 667.6875 C 883.664062 668.300781 900.085938 670.539062 916.558594 682.054688 C 918.804688 683.621094 921.683594 683.984375 924.113281 682.867188 C 948.445312 671.667969 969.644531 654.488281 985.667969 633.023438 C 987.292969 630.84375 987.527344 627.863281 986.238281 625.476562 C 959.140625 575.246094 923.34375 553.292969 888.511719 540.179688 C 874.984375 535.085938 861.625 531.332031 848.9375 527.765625 C 845.257812 526.730469 841.632812 525.710938 838.078125 524.683594 C 822.308594 520.109375 807.902344 515.300781 796.1875 507.796875 C 789.90625 503.769531 781.195312 504.605469 777.167969 510.566406 C 774.472656 514.550781 774.558594 519.777344 777.71875 523.238281 C 788.375 534.910156 801.828125 543.039062 813.710938 549.871094 C 814.664062 550.417969 815.605469 550.957031 816.53125 551.488281 C 821.390625 554.269531 825.921875 556.863281 829.753906 559.414062 C 834.308594 562.445312 837.996094 565.5 840.101562 568.859375 C 842.339844 572.425781 841.175781 576.804688 838.867188 579.902344 C 833.75 586.777344 827.453125 589.648438 820.972656 590.09375 C 815.75 590.449219 810.453125 589.226562 805.605469 587.34375 C 804.882812 587.0625 804.171875 586.769531 803.46875 586.460938 C 798.378906 584.234375 793.835938 581.371094 790.46875 578.957031 C 786.429688 576.066406 783.601562 571.9375 781.695312 567.457031 L 781.019531 565.871094 L 774.734375 550.566406 C 774.535156 550.082031 774.765625 549.527344 775.253906 549.328125 C 775.738281 549.128906 776.292969 549.363281 776.492188 549.847656 L 781.703125 562.542969 L 782.917969 557.980469 C 785.386719 548.703125 797.796875 546.953125 802.738281 555.183594 C 803.710938 556.808594 804.246094 558.660156 804.285156 560.554688 L 804.785156 584.960938 C 804.847656 584.988281 804.914062 585.015625 804.976562 585.042969 L 804.882812 578.933594 C 804.796875 573.257812 810.234375 569.117188 815.683594 570.710938 C 819.253906 571.75 821.71875 575.003906 821.753906 578.722656 L 821.847656 588.109375 C 827.433594 587.488281 832.835938 584.828125 837.34375 578.769531 C 839.410156 576 840.148438 572.5 838.496094 569.867188 C 836.613281 566.867188 833.210938 563.996094 828.703125 560.992188 C 824.929688 558.480469 820.464844 555.925781 815.605469 553.144531 C 814.671875 552.609375 813.726562 552.066406 812.765625 551.515625 C 800.882812 544.683594 787.191406 536.429688 776.316406 524.519531 C 772.484375 520.320312 772.480469 514.113281 775.59375 509.503906 Z M 819.953125 588.242188 L 819.855469 578.738281 C 819.828125 575.859375 817.917969 573.339844 815.152344 572.53125 C 810.925781 571.296875 806.714844 574.503906 806.78125 578.90625 L 806.886719 585.800781 C 811.117188 587.378906 815.585938 588.382812 819.953125 588.242188 Z M 802.871094 584.105469 L 802.386719 560.589844 C 802.355469 559.03125 801.914062 557.503906 801.109375 556.160156 C 797.03125 549.367188 786.789062 550.8125 784.753906 558.46875 L 782.898438 565.4375 L 783.441406 566.714844 C 785.253906 570.96875 787.890625 574.78125 791.570312 577.414062 C 794.566406 579.558594 798.484375 582.050781 802.871094 584.105469 Z M 802.871094 584.105469 " fill-opacity="1" fill-rule="evenodd"/><path fill="#f56181" d="M 995.238281 341.011719 L 976.742188 307.730469 C 972.457031 300.015625 961.402344 299.890625 956.945312 307.507812 C 956.082031 308.980469 955.589844 310.597656 955.433594 312.253906 C 955.242188 314.253906 955.550781 316.308594 956.320312 318.21875 C 958.734375 324.257812 960.378906 330.109375 961.519531 335.855469 C 959.601562 337.691406 956.363281 341.496094 953.984375 344.972656 L 950.503906 341.453125 C 947.945312 338.859375 945.175781 336.253906 941.613281 335.492188 C 936.875 334.484375 931.574219 335.335938 928.160156 336.472656 C 926.742188 336.945312 925.742188 338.144531 925.242188 339.550781 C 925.203125 339.65625 925.167969 339.753906 925.128906 339.855469 C 925.800781 339.027344 926.1875 338.488281 926.195312 338.328125 C 926.414062 338.261719 928.613281 337.855469 932.507812 338.703125 C 936.875 339.652344 943.371094 342.175781 951.613281 348.519531 C 946.6875 356.066406 941.007812 365.710938 936.539062 373.582031 C 930.964844 373.132812 924.679688 368.679688 924.144531 366.84375 C 922.902344 369.105469 916.878906 381.089844 915.515625 381.097656 L 900.390625 381.191406 C 900.433594 377.398438 901.011719 368.730469 901.957031 365.21875 C 899.515625 365.324219 896.933594 363.667969 896.574219 361.25 C 895.519531 354.15625 897.804688 340.460938 911.421875 323.09375 C 905.878906 323.929688 901.0625 322.996094 898.320312 318.726562 C 896.820312 316.394531 897.351562 313.628906 899.222656 311.578125 C 905.929688 304.238281 924.226562 287.199219 938.082031 283.171875 C 940.140625 282.574219 955.683594 278.894531 974.703125 286.3125 C 979.117188 288.035156 983.019531 290.851562 986.222656 294.347656 C 1008.960938 319.140625 1026.15625 360.738281 1036.726562 414.777344 Z M 995.238281 341.011719 " fill-opacity="1" fill-rule="nonzero"/><path fill="#ffffff" d="M 813.484375 347.300781 L 801.804688 344.492188 L 812.296875 340.683594 C 812.742188 341.601562 813.273438 345.476562 813.484375 347.300781 Z M 813.484375 347.300781 " fill-opacity="1" fill-rule="nonzero"/><path fill="#ffffff" d="M 822.789062 336.875 L 1049.171875 299.839844 C 1052.796875 299.25 1056.222656 301.671875 1056.871094 305.289062 C 1057.535156 308.984375 1055.039062 312.503906 1051.332031 313.105469 L 825.199219 349.785156 C 828.378906 345.703125 827.347656 339.773438 822.984375 337 Z M 822.789062 336.875 " fill-opacity="1" fill-rule="nonzero"/><path fill="#f56181" d="M 822.789062 336.875 L 823.601562 337.390625 C 827.546875 339.898438 828.308594 345.34375 825.199219 348.835938 L 813.480469 347.300781 C 813.273438 345.476562 812.742188 341.601562 812.296875 340.683594 Z M 822.789062 336.875 " fill-opacity="1" fill-rule="nonzero"/><path fill="#081854" d="M 822.550781 335.953125 L 905.710938 322.351562 L 906.015625 324.222656 L 825.230469 337.4375 C 828.097656 339.996094 828.867188 344.171875 827.195312 347.558594 L 1051.167969 312.140625 C 1054.355469 311.636719 1056.503906 308.617188 1055.9375 305.445312 C 1055.382812 302.347656 1052.445312 300.269531 1049.339844 300.777344 L 918.777344 322.1875 L 918.46875 320.316406 L 1049.03125 298.90625 C 1053.160156 298.226562 1057.066406 300.992188 1057.804688 305.109375 C 1058.558594 309.328125 1055.699219 313.34375 1051.464844 314.015625 L 825.683594 349.71875 L 825.5625 349.855469 L 813.640625 347.871094 L 798.316406 344.75 Z M 824.816406 347.808594 C 827.148438 344.753906 826.398438 340.292969 823.09375 338.191406 L 822.675781 337.925781 L 813.519531 341.25 C 813.703125 341.828125 813.894531 342.539062 814.066406 343.246094 C 814.296875 344.203125 814.515625 345.246094 814.65625 346.117188 Z M 812.664062 345.734375 C 812.542969 345.089844 812.386719 344.378906 812.222656 343.695312 C 812.050781 342.996094 811.882812 342.375 811.734375 341.898438 L 805.296875 344.234375 Z M 812.664062 345.734375 " fill-opacity="1" fill-rule="evenodd"/><path fill="#f56181" d="M 1075.957031 479.894531 C 1076.96875 486.21875 1058.035156 528.53125 1010.441406 532.019531 C 971.636719 502.871094 935.355469 455.207031 928.09375 417.054688 C 927.792969 415.464844 926.605469 414.183594 925.03125 413.816406 L 863.398438 399.421875 C 859.394531 398.488281 856.511719 394.992188 856.355469 390.886719 C 856.160156 385.738281 860.265625 381.449219 865.417969 381.417969 L 900.390625 381.191406 L 915.515625 381.097656 L 931.230469 380.996094 C 931.949219 380.992188 932.605469 380.605469 932.953125 379.976562 C 934.011719 378.0625 935.222656 375.898438 936.539062 373.582031 C 941.007812 365.710938 946.6875 356.066406 951.613281 348.519531 C 952.429688 347.273438 953.222656 346.085938 953.984375 344.972656 C 956.367188 341.496094 959.605469 337.691406 961.519531 335.855469 C 960.378906 330.109375 958.738281 324.257812 956.320312 318.21875 C 955.554688 316.308594 955.246094 314.253906 955.433594 312.253906 C 955.589844 310.597656 956.085938 308.980469 956.945312 307.507812 C 961.402344 299.890625 972.457031 300.015625 976.742188 307.730469 L 995.238281 341.011719 L 1036.730469 414.777344 C 1038.746094 425.089844 1040.5 435.894531 1041.972656 447.175781 C 1042.160156 448.585938 1042.835938 449.886719 1043.890625 450.839844 Z M 1075.957031 479.894531 " fill-opacity="1" fill-rule="nonzero"/><path fill="#081854" d="M 915.382812 295.390625 C 922.546875 289.695312 930.703125 284.328125 937.820312 282.261719 C 940.003906 281.628906 955.773438 277.910156 975.050781 285.429688 C 979.617188 287.210938 983.632812 290.117188 986.921875 293.703125 C 990.597656 297.710938 994.378906 302.675781 997.742188 307.5 C 998.042969 307.925781 997.933594 308.519531 997.503906 308.820312 C 997.074219 309.121094 996.484375 309.011719 996.183594 308.582031 C 992.847656 303.796875 989.121094 298.90625 985.523438 294.988281 C 982.40625 291.585938 978.625 288.859375 974.359375 287.195312 C 955.597656 279.878906 940.285156 283.519531 938.351562 284.082031 C 931.609375 286.042969 923.691406 291.210938 916.566406 296.875 C 909.460938 302.523438 903.246094 308.585938 899.925781 312.21875 C 898.277344 314.023438 897.902344 316.320312 899.121094 318.214844 C 901.558594 322.011719 905.882812 322.96875 911.285156 322.15625 C 916.410156 321.382812 922.242188 319.035156 927.652344 316.382812 C 932.066406 314.21875 936.144531 311.878906 939.28125 310.078125 C 939.976562 309.679688 940.628906 309.304688 941.226562 308.964844 C 943.800781 307.507812 946.753906 307.550781 949.390625 308.664062 L 954.667969 310.902344 C 954.933594 309.554688 955.414062 308.246094 956.128906 307.027344 C 960.957031 298.78125 972.929688 298.914062 977.570312 307.269531 L 996.066406 340.546875 L 996.066406 340.550781 L 1034.609375 409.074219 C 1027.261719 373.777344 1017.015625 344.101562 1004.199219 321.304688 C 1003.945312 320.847656 1004.105469 320.269531 1004.5625 320.011719 C 1005.019531 319.757812 1005.597656 319.917969 1005.855469 320.375 C 1019.503906 344.660156 1030.222656 376.582031 1037.660156 414.59375 C 1039.679688 424.929688 1041.4375 435.753906 1042.914062 447.050781 C 1043.070312 448.242188 1043.640625 449.335938 1044.527344 450.136719 L 1076.84375 479.414062 L 1076.894531 479.742188 C 1077.058594 480.757812 1076.816406 482.285156 1076.296875 484.070312 C 1075.765625 485.902344 1074.902344 488.136719 1073.695312 490.628906 C 1071.28125 495.617188 1067.472656 501.679688 1062.132812 507.652344 C 1051.449219 519.601562 1034.601562 531.199219 1010.511719 532.96875 L 1010.15625 532.996094 L 1009.871094 532.78125 C 990.390625 518.144531 971.554688 498.875 956.671875 478.472656 C 941.796875 458.082031 930.828125 436.496094 927.160156 417.230469 C 926.925781 415.996094 926.007812 415.019531 924.8125 414.742188 L 863.183594 400.347656 C 858.765625 399.316406 855.582031 395.457031 855.410156 390.921875 C 855.191406 385.238281 859.722656 380.503906 865.410156 380.46875 L 899.460938 380.25 C 899.515625 378.324219 899.664062 375.65625 899.890625 373.015625 C 900.109375 370.5 900.40625 367.949219 900.78125 366.097656 C 898.359375 365.722656 896.019531 363.972656 895.636719 361.386719 C 894.871094 356.242188 895.800781 347.980469 900.976562 337.597656 C 901.210938 337.132812 901.78125 336.9375 902.25 337.175781 C 902.71875 337.40625 902.910156 337.976562 902.675781 338.445312 C 897.628906 348.570312 896.820312 356.4375 897.515625 361.109375 C 897.785156 362.925781 899.828125 364.363281 901.917969 364.273438 C 904.507812 364.160156 908.105469 363.40625 912.042969 359.984375 C 916 356.539062 920.363281 350.347656 924.347656 339.234375 C 924.921875 337.628906 926.097656 336.160156 927.859375 335.574219 C 931.378906 334.402344 936.859375 333.511719 941.8125 334.566406 C 945.6875 335.394531 948.640625 338.210938 951.179688 340.785156 L 953.863281 343.496094 C 956.027344 340.464844 958.683594 337.339844 960.488281 335.539062 C 959.363281 330.007812 957.761719 324.375 955.4375 318.570312 C 954.707031 316.746094 954.363281 314.792969 954.441406 312.863281 L 948.652344 310.414062 C 946.464844 309.488281 944.144531 309.492188 942.164062 310.617188 C 941.574219 310.949219 940.933594 311.316406 940.242188 311.714844 C 937.105469 313.511719 932.964844 315.890625 928.488281 318.085938 C 923.03125 320.761719 916.992188 323.214844 911.566406 324.03125 C 905.875 324.890625 900.566406 323.976562 897.523438 319.242188 C 895.742188 316.46875 896.429688 313.234375 898.527344 310.9375 C 901.910156 307.234375 908.195312 301.105469 915.382812 295.390625 Z M 960.925781 337.820312 C 959.078125 339.804688 956.652344 342.757812 954.769531 345.507812 C 954.007812 346.613281 953.21875 347.796875 952.410156 349.039062 C 947.5 356.558594 941.832031 366.183594 937.363281 374.050781 C 936.050781 376.363281 934.839844 378.523438 933.785156 380.433594 C 933.269531 381.367188 932.296875 381.9375 931.234375 381.945312 L 865.421875 382.367188 C 860.804688 382.394531 857.128906 386.238281 857.304688 390.847656 C 857.445312 394.53125 860.027344 397.660156 863.613281 398.5 L 925.246094 412.894531 C 927.203125 413.351562 928.65625 414.933594 929.023438 416.875 C 932.621094 435.761719 943.421875 457.089844 958.207031 477.355469 C 972.910156 497.511719 991.503906 516.558594 1010.726562 531.046875 C 1034.042969 529.238281 1050.34375 517.988281 1060.71875 506.386719 C 1065.9375 500.550781 1069.644531 494.636719 1071.988281 489.800781 C 1073.15625 487.382812 1073.976562 485.25 1074.472656 483.539062 C 1074.90625 482.058594 1075.0625 480.984375 1075.046875 480.347656 L 1043.25 451.542969 C 1042.03125 450.4375 1041.246094 448.929688 1041.035156 447.300781 C 1039.566406 436.089844 1037.828125 425.355469 1035.824219 415.109375 L 994.414062 341.476562 L 994.410156 341.472656 L 975.914062 308.1875 C 971.984375 301.121094 961.851562 301.003906 957.765625 307.988281 C 956.976562 309.332031 956.523438 310.816406 956.378906 312.34375 C 956.203125 314.1875 956.488281 316.089844 957.199219 317.867188 C 959.640625 323.964844 961.300781 329.875 962.449219 335.671875 C 964.195312 344.484375 964.765625 353.03125 965.125 361.546875 C 965.203125 363.46875 965.273438 365.390625 965.34375 367.3125 C 965.582031 373.914062 965.820312 380.519531 966.503906 387.304688 C 968.265625 404.769531 972.957031 423.320312 988.175781 445.113281 C 988.476562 445.542969 988.371094 446.132812 987.941406 446.4375 C 987.511719 446.734375 986.917969 446.628906 986.621094 446.199219 C 971.183594 424.097656 966.402344 405.222656 964.617188 387.5 C 963.929688 380.644531 963.683594 373.953125 963.445312 367.34375 C 963.375 365.429688 963.304688 363.527344 963.226562 361.625 C 962.894531 353.714844 962.382812 345.859375 960.925781 337.820312 Z M 917.765625 380.132812 L 931.222656 380.046875 C 931.601562 380.046875 931.941406 379.84375 932.125 379.515625 C 932.992188 377.941406 933.96875 376.195312 935.019531 374.332031 C 932.5 373.867188 929.984375 372.757812 927.964844 371.546875 C 926.753906 370.820312 925.691406 370.042969 924.882812 369.308594 C 924.652344 369.097656 924.4375 368.886719 924.242188 368.679688 C 924.179688 368.804688 924.109375 368.933594 924.039062 369.066406 C 923.171875 370.714844 921.917969 373.101562 920.703125 375.277344 C 919.785156 376.921875 918.851562 378.519531 918.054688 379.710938 C 917.957031 379.855469 917.859375 379.996094 917.765625 380.132812 Z M 925.171875 366.804688 C 925.214844 366.875 925.269531 366.957031 925.347656 367.058594 C 925.539062 367.300781 925.8125 367.589844 926.160156 367.90625 C 926.859375 368.539062 927.816406 369.246094 928.941406 369.921875 C 931.03125 371.171875 933.597656 372.25 936.019531 372.570312 C 940.296875 365.054688 945.625 356.019531 950.339844 348.742188 C 942.785156 343.058594 936.808594 340.679688 932.726562 339.726562 C 931.839844 340.460938 931.085938 341.742188 930.425781 343.558594 C 929.707031 345.550781 929.160156 348.027344 928.65625 350.742188 C 928.441406 351.878906 928.238281 353.058594 928.03125 354.253906 C 927.285156 358.566406 926.496094 363.125 925.171875 366.804688 Z M 930.511719 339.308594 C 929.480469 339.164062 928.628906 339.121094 927.976562 339.125 C 927.015625 339.128906 926.507812 339.230469 926.464844 339.238281 C 926.460938 339.238281 926.460938 339.238281 926.460938 339.238281 C 926.441406 339.246094 926.421875 339.25 926.402344 339.253906 C 926.300781 339.449219 926.210938 339.65625 926.132812 339.871094 C 922.085938 351.171875 917.574219 357.6875 913.289062 361.417969 C 909.316406 364.871094 905.582031 365.882812 902.714844 366.121094 C 902.339844 367.847656 902.019531 370.46875 901.78125 373.179688 C 901.554688 375.761719 901.414062 378.367188 901.359375 380.238281 L 915.316406 380.148438 C 915.367188 380.105469 915.433594 380.039062 915.519531 379.941406 C 915.773438 379.65625 916.097656 379.222656 916.476562 378.65625 C 917.230469 377.527344 918.136719 375.988281 919.046875 374.351562 C 920.265625 372.167969 921.433594 369.9375 922.285156 368.324219 C 922.707031 367.519531 923.046875 366.867188 923.28125 366.445312 C 924.605469 362.898438 925.378906 358.453125 926.140625 354.046875 C 926.351562 352.820312 926.566406 351.59375 926.789062 350.394531 C 927.296875 347.664062 927.867188 345.058594 928.644531 342.910156 C 929.136719 341.546875 929.738281 340.300781 930.511719 339.308594 Z M 928.859375 337.246094 C 929.890625 337.292969 931.179688 337.445312 932.710938 337.777344 C 937.082031 338.726562 943.421875 341.183594 951.378906 347.148438 C 951.847656 346.4375 952.308594 345.75 952.761719 345.082031 L 949.832031 342.117188 C 947.25 339.503906 944.664062 337.113281 941.414062 336.421875 C 937.070312 335.496094 932.171875 336.210938 928.859375 337.246094 Z M 928.859375 337.246094 " fill-opacity="1" fill-rule="evenodd"/><path fill="#f56181" d="M 663.96875 344.3125 C 660.527344 344.703125 657.148438 345.320312 653.878906 346.121094 L 653.425781 344.277344 C 656.769531 343.460938 660.230469 342.828125 663.753906 342.425781 Z M 684.351562 344.957031 C 680.992188 344.308594 677.589844 343.953125 674.195312 343.859375 L 674.25 341.960938 C 677.738281 342.058594 681.242188 342.421875 684.710938 343.09375 Z M 644.070312 349.140625 C 640.714844 350.398438 637.566406 351.820312 634.707031 353.332031 L 633.820312 351.652344 C 636.753906 350.105469 639.972656 348.648438 643.402344 347.367188 Z M 703.179688 352.457031 C 700.269531 350.566406 697.238281 349.023438 694.136719 347.792969 L 694.835938 346.03125 C 698.050781 347.304688 701.191406 348.902344 704.214844 350.867188 Z M 626.085938 358.796875 C 624.636719 359.914062 623.371094 361.027344 622.308594 362.125 L 620.949219 360.800781 C 622.085938 359.632812 623.417969 358.457031 624.925781 357.292969 Z M 714.597656 362.550781 C 713.46875 361.222656 712.304688 359.980469 711.109375 358.816406 L 712.4375 357.457031 C 713.671875 358.664062 714.875 359.953125 716.042969 361.324219 Z M 714.597656 362.550781 " fill-opacity="1" fill-rule="evenodd"/><path fill="#f56181" d="M 671.28125 417.605469 C 667.714844 417.710938 664.125 417.511719 660.570312 416.988281 L 660.292969 418.867188 C 663.960938 419.40625 667.664062 419.613281 671.339844 419.5 Z M 692.207031 413.25 C 688.921875 414.578125 685.476562 415.617188 681.941406 416.351562 L 682.324219 418.207031 C 685.972656 417.453125 689.523438 416.378906 692.917969 415.007812 Z M 650.15625 414.457031 C 646.804688 413.296875 643.542969 411.808594 640.4375 409.984375 L 639.476562 411.617188 C 642.695312 413.511719 646.070312 415.046875 649.535156 416.25 Z M 709.925781 401.496094 C 707.480469 404.042969 704.714844 406.316406 701.699219 408.296875 L 702.742188 409.882812 C 705.867188 407.828125 708.746094 405.464844 711.296875 402.808594 Z M 631.828125 403.640625 C 629.253906 401.300781 626.867188 398.648438 624.703125 395.675781 L 623.167969 396.789062 C 625.40625 399.871094 627.882812 402.617188 630.546875 405.042969 Z M 718.554688 388.15625 C 717.902344 389.820312 717.136719 391.425781 716.273438 392.964844 L 717.933594 393.890625 C 718.835938 392.277344 719.632812 390.597656 720.324219 388.847656 Z M 619.253906 386.4375 C 618.503906 384.851562 617.808594 383.199219 617.171875 381.480469 L 615.390625 382.140625 C 616.050781 383.910156 616.765625 385.613281 617.539062 387.25 Z M 619.253906 386.4375 " fill-opacity="1" fill-rule="evenodd"/></svg>